<?xml version="1.0" encoding="utf-8"?>
<!-- Generator: Adobe Illustrator 16.0.4, SVG Export Plug-In . SVG Version: 6.00 Build 0)  -->
<!DOCTYPE svg PUBLIC "-//W3C//DTD SVG 1.1//EN" "http://www.w3.org/Graphics/SVG/1.1/DTD/svg11.dtd">
<svg id="qr-code" version="1.1" xmlns="http://www.w3.org/2000/svg" xmlns:xlink="http://www.w3.org/1999/xlink" x="0px" y="0px" width="155px"
	 height="155px" viewBox="0 0 155 155" enable-background="new 0 0 155 155" xml:space="preserve">

	<path fill="#FFFFFF" d="M0,0v155h155V0H0 M40,5v35H5V5H40 M50,5v5h5v5h5V5h10v5h5v5h-5v5h-5v10H55v5h5v5h5v-5h5v10h5V30h-5v-5h5v-5
		h5v-5h5v-5h-5V5h5v5h5V5h10v5h5v10h5v5h-5v5H95v-5h-5v20h5V35h5v5h5v-5h5v5h-5v5h-5v5h5v5h-5v10h5v-5h15v5h5v-5h10V50h10v-5h5v5h-5
		v5h-5v5h-5v5h-10v5h20V60h5v25h-5V75h-5v10h-5v5h10v5h5v5h-5v-5h-10v5h5v5h5v5h-10v10h-5v5h5v5h-20v15h10v-5h-5v-5h10v5h5v-5h5v-10
		h5v-5h5v5h-5v10h5v10h-5v-5h-5v5h-5v5h-20v-5h-5v5h-10v-10H90v10h-5v-10h-5v5H70v-5h-5v5H55v5H45v-10h5v-5h-5v-10h5v-5h5v-5h5v25h5
		v-5h20v5h5v-5h5v-5H80v-5h-5v5h-5v-5h-5v-5h5v-5h-5v-5H55v-5h-5v-5h-5v10h5v5h-5v-5H35v-5h-5v5H20v-5h-5v5H5V90h5v5h5V85h5v15h5v-5
		h5v-5h5v-5h5v5h-5v5h10V85h10v-5H45v-5h10v5h10V70h5V60h-5v5h-5v-5h5V50H55v10h-5V45h-5V35h5v-5h5v-5h5v-5H50V10h-5V5H50 M150,5v35
		h-35V5H150 M10,10v25h25V10H10 M65,10v5h5v-5H65 M90,10v10h-5v5h5v-5h5v5h5V15h-5v-5H90 M120,10v25h25V10H120 M30,15v15H15V15H30
		 M140,15v15h-15V15H140 M75,25v5h5v-5H75 M50,35v5h5v5h5v-5h-5v-5H50 M80,35v20h15v-5h-5v-5h-5V35H80 M15,45v5h5v-5h10v5h5v-5h5v5
		h5v10H35v5h20v5H30v5h10v5H30v5h-5V65h5v-5H20v20H10v5H5V65h5v-5H5v-5h5v-5H5v-5H15 M65,45v5h5v-5H65 M120,45v5h10v5h-10v-5h-5v5
		h-5v-5h5v-5H120 M20,50v5h5v-5H20 M35,50v5h-5v5h5v-5h5v-5H35 M80,60v10H70v15H60v5h-5v5h-5v5h5v5h10v5h5v-5h10v20h15v-5h5v5h5v-5
		h-5v-5h5v-10h10v-5h5v5h10v-5h-5V90h5v5h5v-5h-5v-5h5V75h-20V65h-10v5H95v-5h-5v-5H80 M10,65v10h5V65H10 M90,70v10h-5v5H75v-5h5v-5
		h5v-5H90 M105,75v5h5v-5h5v5h10v10h-5v-5h-10v10h-5v10h-5v5h-5v-5h5V95h-5v5H85v-5h10V75H105 M65,90v5h5v-5h10v10h-5v-5h-5v10h-5
		V95h-5v-5H65 M30,95v5h-5v5h5v-5h5v5h5v-5h-5v-5H30 M90,110v10h-5v-10H90 M110,110v15h15v-15H110 M40,115v35H5v-35H40 M120,115v5
		h-5v-5H120 M10,120v25h25v-25H10 M30,125v15H15v-15H30 M50,125v5h5v-5H50 M100,130v5h5v10h5v-15H100z"/>

</svg>
