<?xml version="1.0" encoding="utf-8"?>
<!-- Generator: Adobe Illustrator 16.0.4, SVG Export Plug-In . SVG Version: 6.00 Build 0)  -->
<!DOCTYPE svg PUBLIC "-//W3C//DTD SVG 1.1//EN" "http://www.w3.org/Graphics/SVG/1.1/DTD/svg11.dtd">
<svg version="1.1" id="Isolation_Mode" xmlns="http://www.w3.org/2000/svg" xmlns:xlink="http://www.w3.org/1999/xlink" x="0px"
	 y="0px" width="725.5px" height="96.599px" viewBox="0 0 725.5 96.599" enable-background="new 0 0 725.5 96.599"
	 xml:space="preserve">
<path fill="#E53228" stroke="#FFFFFF" stroke-width="4" stroke-miterlimit="10" d="M15.475,30.547c0,0,5.458,9.375,7.279,17.898
	c1.82,8.523-5.459,34.092,9.098,33.24c14.559-0.853,81.89,8.523,120.106,5.966c38.215-2.557,247.489,1.705,254.77,2.558
	c7.279,0.852,212.913-7.671,212.913-7.671s52.774-0.853,65.513-0.853c12.737,0,25.478-42.615,23.657-56.251
	c-1.821-13.637,32.755-18.751-112.826-14.489c-145.582,4.261-429.466-0.853-429.466-0.853L28.216,11.796
	C28.213,11.796,2.735,9.239,15.475,30.547z"/>
<g enable-background="new    ">
	<path fill="#FFFFFF" d="M48.08,57.686v-0.36c0.045-2.564,0.045-5.084,0.045-7.604c0-5.039-0.045-10.034-0.045-14.984v-0.18
		c0-0.9,0.09-2.25,0.72-2.655c0.81-0.45,2.34-0.495,3.645-0.495h1.485c1.215,0,3.15,0.045,4.229,0.27
		c2.745,0.585,5.58,2.295,6.66,4.635c0.405,0.945,0.72,2.295,0.72,3.689c0,0.99-0.135,1.98-0.585,2.745
		c-1.485,2.565-3.465,3.78-5.58,4.814c-0.45,0.226-0.72,0.181-0.72,0.631v0.045c2.7,3.914,6.435,8.729,7.965,13.185
		c0.045,0.09,0.045,0.225,0.045,0.314c0,0.585-0.27,1.305-0.855,1.665c-0.315,0.18-0.72,0.27-1.08,0.27
		c-0.63,0-1.215-0.225-1.53-0.585c-3.33-3.645-5.265-7.244-7.92-11.024c-0.63-0.899-1.485-2.654-2.295-3.375
		c-0.315,0-0.36,2.61-0.36,4.635c0,2.745,0.09,5.13,0.09,8.146c0,1.26-0.405,1.89-2.61,1.89c-0.405,0-0.945-0.09-1.26-0.225
		c-0.675-0.315-0.81-1.71-0.81-3.105C48.035,59.172,48.08,58.361,48.08,57.686z M57.98,43.152c0.99-0.72,2.655-1.62,2.655-3.195
		c0-1.845-2.025-3.149-3.33-3.6c-0.945-0.315-2.925-0.405-3.87-0.405H52.94c-0.225,0-0.315,1.89-0.315,3.959
		c0,2.385,0.09,4.95,0.18,4.95C54.02,44.862,56.9,43.872,57.98,43.152z"/>
	<path fill="#FFFFFF" d="M75.8,31.677c6.39,0,7.604,11.159,7.604,18.449c0,7.199-2.295,13.635-8.189,13.635
		c-5.13,0-7.155-5.985-7.155-15.84C68.061,42.432,69.771,31.677,75.8,31.677z M78.635,49.947v-0.811
		c0-4.904-0.09-12.824-2.835-12.824c-1.98,0-3.285,5.85-3.285,11.654s0.765,11.609,2.565,11.609
		C77.06,59.576,78.635,56.292,78.635,49.947z"/>
	<path fill="#FFFFFF" d="M90.155,31.677c1.665,0,1.89,4.995,1.89,8.954c0,1.801-0.045,3.375-0.045,4.186
		c0,3.734-0.18,8.145-0.18,12.06c0,0.359,0.27,0.854,0.63,0.854c0.9,0,0.585-0.045,1.44-0.045c1.575,0,3.689,0.045,4.859,0.72
		c0.945,0.54,1.215,0.99,1.215,1.98c0,2.024-1.35,3.239-3.645,3.239h-0.99c-1.62,0-1.935,0.181-3.465,0.181
		c-2.7,0-4.859-0.585-5.04-3.96c-0.045-0.945-0.09-1.98-0.09-2.925v-3.96c0-3.195,0.18-6.165,0.18-9.404
		c0-1.08-0.045-2.295-0.045-3.511C86.87,36.132,87.185,31.677,90.155,31.677z"/>
	<path fill="#FFFFFF" d="M105.59,31.677c1.665,0,1.89,4.995,1.89,8.954c0,1.801-0.045,3.375-0.045,4.186
		c0,3.734-0.18,8.145-0.18,12.06c0,0.359,0.27,0.854,0.63,0.854c0.9,0,0.585-0.045,1.44-0.045c1.575,0,3.689,0.045,4.859,0.72
		c0.945,0.54,1.215,0.99,1.215,1.98c0,2.024-1.35,3.239-3.645,3.239h-0.99c-1.62,0-1.935,0.181-3.465,0.181
		c-2.7,0-4.86-0.585-5.04-3.96c-0.045-0.945-0.09-1.98-0.09-2.925v-3.96c0-3.195,0.18-6.165,0.18-9.404
		c0-1.08-0.045-2.295-0.045-3.511C102.305,36.132,102.62,31.677,105.59,31.677z"/>
	<path fill="#FFFFFF" d="M124.4,31.677c6.39,0,7.604,11.159,7.604,18.449c0,7.199-2.295,13.635-8.189,13.635
		c-5.13,0-7.155-5.985-7.155-15.84C116.66,42.432,118.37,31.677,124.4,31.677z M127.235,49.947v-0.811
		c0-4.904-0.09-12.824-2.835-12.824c-1.98,0-3.285,5.85-3.285,11.654s0.765,11.609,2.565,11.609
		C125.66,59.576,127.235,56.292,127.235,49.947z"/>
	<path fill="#FFFFFF" d="M147.665,56.651c-0.09-1.26-0.09-2.52-0.09-3.779c0-4.68,0.315-9.18,0.45-13.949
		c0.045-1.71,0.225-3.96,0.405-5.67c0.135-1.215,1.305-1.575,2.655-1.665h1.08c1.215,0,2.34,0.09,3.51,0.315
		c4.23,0.9,6.12,4.365,6.885,8.91c0.135,0.989,0.225,4.185,0.225,5.04c0,8.909-3.555,18.134-12.105,18.134
		c-0.405,0-0.855-0.045-1.305-0.045c-0.99,0-1.44-1.08-1.485-2.07c-0.045-1.619-0.18-3.194-0.225-4.814V56.651z M153.784,58.496
		c2.43,0,5.175-8.64,5.175-13.319c0-4.725-0.18-9.269-5.175-9.449h-0.045c-0.585,0-0.63,0.495-0.63,1.035v0.404v0.271
		c0,1.35-0.045,1.845-0.045,3.149c0,0.676,0,1.306,0.045,1.98c0.135,3.645,0.135,5.085,0.27,9.18v0.314v1.575v2.655
		c0,0.585,0,1.17,0.045,1.8C153.424,58.271,153.514,58.496,153.784,58.496z"/>
	<path fill="#FFFFFF" d="M166.204,50.622v-8.37c0-2.024,0.045-4.274,0.18-6.75v-1.26c0-1.575,0.18-2.61,1.62-2.61
		c2.565,0,1.935,0.045,4.635,0.045h0.63c1.98,0,4.41,0.09,4.41,1.98c0,2.16-1.17,2.205-3.015,2.205h-0.18h-2.025
		c-0.765,0-1.215,0-1.215,0.811v0.449c0,1.936-0.045,3.915-0.045,5.76c0,0.855,0,0.855-0.045,0.855v0.54
		c0.045,0.72,0.81,0.81,1.575,0.81c0.585,0,0.63,0,0.63,0.045h0.36c1.26,0,2.475,0.045,2.475,2.295v0.36
		c-0.09,1.305-1.215,1.484-2.52,1.484c-0.585,0-1.979-0.045-2.52-0.045c-0.225,0-0.315,3.915-0.315,4.995
		c0,1.17,0.09,2.61,0.09,2.925c0,0.765,0.135,1.44,0.855,1.44h0.045c2.025,0,1.8-0.045,3.825-0.045c1.44,0,2.16,0.63,2.16,2.34
		c0,0.135-0.045,0.314-0.045,0.449c-0.09,1.755-0.945,2.07-2.34,2.07c-0.9,0-2.07-0.135-3.42-0.135c-1.35,0-2.655-0.045-3.6-0.045
		h-0.045c-1.98,0-2.34-0.585-2.34-1.846C166.024,57.957,166.204,54.087,166.204,50.622z"/>
	<path fill="#FFFFFF" d="M208.639,38.337c0,2.07-0.99,2.655-2.88,2.7c-0.945,0-2.115-0.314-2.115-1.26c0-2.16-1.125-2.79-1.71-2.79
		c-3.689,0-4.319,5.85-4.319,11.385c0,4.095,0.27,10.305,3.239,10.305c1.215,0,2.79-0.766,2.79-2.025
		c0-2.564,1.35-3.015,2.565-3.015c1.619,0,2.294,1.62,2.294,3.375c0,4.319-3.869,6.84-7.649,6.84c-6.39,0-8.055-6.435-8.055-13.949
		c0-8.415,0.945-18.225,9.54-18.225c3.42,0,6.21,2.97,6.3,6.524V38.337z"/>
	<path fill="#FFFFFF" d="M211.744,60.927c0-4.14,0.27-7.74,0.27-11.745v-2.52c-0.09-2.79-0.18-6.165-0.18-8.864v-1.936
		c0-3.735,0.944-4.365,4.59-4.365c1.71,0,3.555,0.36,4.14,0.54c0.54,0.18,1.08,0.36,1.529,0.63c2.025,1.125,2.745,3.645,3.061,6.255
		c0.135,1.079,0.225,2.34,0.225,3.645c0,3.96-0.899,8.369-4.274,8.369c-0.405,0-0.54,0.136-0.54,0.36c0,0.18,0.09,0.36,0.225,0.54
		c1.936,2.655,4.32,5.895,5.58,8.595c0.225,0.45,0.314,0.81,0.314,1.26c0,1.215-0.765,2.295-1.71,2.295
		c-2.699,0-4.05-3.375-4.994-5.22c-1.17-2.295-1.575-3.78-2.745-6.075c-0.09-0.18-0.27-0.359-0.45-0.359
		c-0.314,0-0.359,0.675-0.359,1.395c0,0.63,0.045,1.305,0.045,1.62c0.045,1.35,0.314,4.365,0.314,6.075
		c0,1.935-1.17,2.295-2.79,2.295C212.104,63.717,211.744,62.501,211.744,60.927z M216.918,37.032c-0.045,1.215-0.09,2.43-0.09,3.69
		c0,1.845,0.09,3.869,0.136,5.669c0.045,0.36,0.135,0.721,0.449,0.721h0.045c3.105-0.36,3.87-1.8,3.87-4.86
		c0-3.239-0.18-6.75-3.555-6.75C217.009,35.502,216.964,36.222,216.918,37.032z"/>
	<path fill="#FFFFFF" d="M229.474,50.622v-8.37c0-2.024,0.045-4.274,0.18-6.75v-1.26c0-1.575,0.18-2.61,1.62-2.61
		c2.564,0,1.935,0.045,4.635,0.045h0.63c1.979,0,4.41,0.09,4.41,1.98c0,2.16-1.17,2.205-3.016,2.205h-0.18h-2.024
		c-0.766,0-1.216,0-1.216,0.811v0.449c0,1.936-0.045,3.915-0.045,5.76c0,0.855,0,0.855-0.045,0.855v0.54
		c0.045,0.72,0.811,0.81,1.575,0.81c0.585,0,0.63,0,0.63,0.045h0.36c1.26,0,2.475,0.045,2.475,2.295v0.36
		c-0.09,1.305-1.215,1.484-2.52,1.484c-0.585,0-1.98-0.045-2.521-0.045c-0.225,0-0.314,3.915-0.314,4.995
		c0,1.17,0.09,2.61,0.09,2.925c0,0.765,0.135,1.44,0.854,1.44h0.045c2.025,0,1.801-0.045,3.825-0.045c1.44,0,2.16,0.63,2.16,2.34
		c0,0.135-0.045,0.314-0.045,0.449c-0.09,1.755-0.945,2.07-2.34,2.07c-0.9,0-2.07-0.135-3.42-0.135c-1.351,0-2.655-0.045-3.6-0.045
		h-0.046c-1.979,0-2.34-0.585-2.34-1.846C229.293,57.957,229.474,54.087,229.474,50.622z"/>
	<path fill="#FFFFFF" d="M248.553,60.297c0,3.06-0.585,3.104-1.8,3.104c-1.17,0-2.25-0.36-2.25-4.41
		c0-2.564-0.135-4.409-0.135-7.154c0-2.655,0.09-5.265,0.09-7.92c0-4.095-0.226-8.145-0.226-9.989c0-0.09,0.045-0.18,0.045-0.27
		c0.226-0.99,0.9-1.62,1.98-1.8c1.035-0.18,1.395-0.315,2.385-0.315c6.075,0,9.765,2.52,9.765,8.504c0,5.625-4.229,9.18-9.225,10.17
		c-0.675,0.135-0.854,0.315-0.854,0.9v0.225C248.418,53.276,248.553,58.496,248.553,60.297z M248.237,44.636v0.585
		c0.045,0.45,0.136,0.631,0.405,0.631c0.135,0,0.271-0.046,0.45-0.136c1.665-0.72,4.635-2.52,4.635-5.67
		c0-1.664-1.396-3.734-3.06-4.139c-0.405-0.09-0.811-0.18-1.17-0.18c-0.54,0-0.99,0.18-0.99,0.81
		C248.508,40.587,248.237,40.722,248.237,44.636z"/>
	<path fill="#FFFFFF" d="M261.468,50.622v-8.37c0-2.024,0.045-4.274,0.18-6.75v-1.26c0-1.575,0.18-2.61,1.62-2.61
		c2.564,0,1.935,0.045,4.635,0.045h0.63c1.979,0,4.41,0.09,4.41,1.98c0,2.16-1.17,2.205-3.016,2.205h-0.18h-2.024
		c-0.766,0-1.216,0-1.216,0.811v0.449c0,1.936-0.045,3.915-0.045,5.76c0,0.855,0,0.855-0.045,0.855v0.54
		c0.045,0.72,0.811,0.81,1.575,0.81c0.585,0,0.63,0,0.63,0.045h0.36c1.26,0,2.475,0.045,2.475,2.295v0.36
		c-0.09,1.305-1.215,1.484-2.52,1.484c-0.585,0-1.98-0.045-2.521-0.045c-0.225,0-0.314,3.915-0.314,4.995
		c0,1.17,0.09,2.61,0.09,2.925c0,0.765,0.135,1.44,0.854,1.44h0.045c2.025,0,1.801-0.045,3.825-0.045c1.44,0,2.16,0.63,2.16,2.34
		c0,0.135-0.045,0.314-0.045,0.449c-0.09,1.755-0.945,2.07-2.34,2.07c-0.9,0-2.07-0.135-3.42-0.135c-1.351,0-2.655-0.045-3.6-0.045
		h-0.046c-1.979,0-2.34-0.585-2.34-1.846C261.287,57.957,261.468,54.087,261.468,50.622z"/>
	<path fill="#FFFFFF" d="M280.144,55.122c0,0.72,0.045,0.989,0.045,2.25c0,1.89,0.854,2.609,2.385,2.609
		c2.43,0,2.565-2.475,2.565-4.59c0-8.954-6.84-4.68-9.18-11.609c-0.226-0.72-0.315-1.53-0.315-2.34c0-4.455,1.845-9.945,7.2-9.945
		c5.354,0,6.975,2.205,6.975,7.515c0,1.439-1.396,1.71-2.205,1.71c-3.015,0-1.215-4.68-4.455-4.68c-2.475,0-3.015,3.69-3.015,5.4
		c0,1.439,0.81,2.385,1.8,2.88c4.455,2.25,8.189,4.59,8.189,11.294c0,4.365-2.295,8.686-7.604,8.686c-4.455,0-7.02-3.42-7.02-8.1
		c0-2.835,0.54-3.87,2.52-3.87C279.783,52.332,280.144,54.042,280.144,55.122z"/>
	<path fill="#FFFFFF" d="M321.092,38.337c0,2.07-0.99,2.655-2.88,2.7c-0.944,0-2.114-0.314-2.114-1.26c0-2.16-1.125-2.79-1.71-2.79
		c-3.69,0-4.32,5.85-4.32,11.385c0,4.095,0.271,10.305,3.24,10.305c1.215,0,2.79-0.766,2.79-2.025c0-2.564,1.35-3.015,2.564-3.015
		c1.62,0,2.295,1.62,2.295,3.375c0,4.319-3.87,6.84-7.649,6.84c-6.39,0-8.055-6.435-8.055-13.949c0-8.415,0.944-18.225,9.539-18.225
		c3.42,0,6.21,2.97,6.3,6.524V38.337z"/>
	<path fill="#FFFFFF" d="M331.082,31.677c6.39,0,7.605,11.159,7.605,18.449c0,7.199-2.295,13.635-8.19,13.635
		c-5.13,0-7.154-5.985-7.154-15.84C323.343,42.432,325.053,31.677,331.082,31.677z M333.917,49.947v-0.811
		c0-4.904-0.09-12.824-2.835-12.824c-1.979,0-3.284,5.85-3.284,11.654s0.765,11.609,2.564,11.609
		C332.343,59.576,333.917,56.292,333.917,49.947z"/>
	<path fill="#FFFFFF" d="M360.916,35.772c0,1.26,0.045,2.7,0.045,3.375c0,6.074-0.135,11.744-0.135,17.774
		c0,2.25-0.54,5.625-2.43,6.074c-0.36,0.09-0.72,0.271-1.08,0.271c-3.06,0-4.5-5.805-5.354-7.83
		c-0.855-1.979-1.306-3.734-2.205-5.625c-0.9-1.89-1.485-3.959-2.521-5.489c-0.09-0.09-0.225-0.585-0.404-0.585
		c-0.36,0-0.405,1.215-0.405,2.654c0,5.445,0.36,7.605,0.36,12.285c0,2.835-0.045,4.994-2.521,4.994c-0.18,0-0.404,0-0.63-0.045
		c-1.529-0.18-1.665-2.159-1.665-4.454v-1.71c0-1.351,0.045-2.7,0.045-3.601c0-0.899,0.045-1.71,0.045-2.609v-3.51
		c0-4.005,0.046-7.649,0.405-11.385c0.226-2.07,0.45-3.69,2.475-3.915h0.271c3.149,0,7.649,14.715,9.81,18.854
		c0.09,0.18,1.035,2.115,1.215,2.115c0.09,0,0.135-0.226,0.135-0.495c0-0.36-0.045-0.72-0.045-0.9c0.045-1.62,0.09-3.149,0.09-4.635
		c0-4.14-0.18-7.784-0.18-11.654c0-3.42,0.54-4.23,2.385-4.23C360.646,31.497,360.916,34.242,360.916,35.772z"/>
	<path fill="#FFFFFF" d="M392.101,38.337c0,2.07-0.989,2.655-2.88,2.7c-0.944,0-2.114-0.314-2.114-1.26c0-2.16-1.125-2.79-1.71-2.79
		c-3.69,0-4.32,5.85-4.32,11.385c0,4.095,0.271,10.305,3.24,10.305c1.215,0,2.79-0.766,2.79-2.025c0-2.564,1.35-3.015,2.564-3.015
		c1.62,0,2.295,1.62,2.295,3.375c0,4.319-3.87,6.84-7.649,6.84c-6.39,0-8.055-6.435-8.055-13.949c0-8.415,0.944-18.225,9.539-18.225
		c3.42,0,6.21,2.97,6.3,6.524V38.337z"/>
	<path fill="#FFFFFF" d="M395.207,60.927c0-4.14,0.27-7.74,0.27-11.745v-2.52c-0.09-2.79-0.18-6.165-0.18-8.864v-1.936
		c0-3.735,0.944-4.365,4.59-4.365c1.71,0,3.555,0.36,4.14,0.54c0.54,0.18,1.08,0.36,1.529,0.63c2.025,1.125,2.745,3.645,3.061,6.255
		c0.135,1.079,0.225,2.34,0.225,3.645c0,3.96-0.899,8.369-4.274,8.369c-0.405,0-0.54,0.136-0.54,0.36c0,0.18,0.09,0.36,0.225,0.54
		c1.936,2.655,4.32,5.895,5.58,8.595c0.225,0.45,0.314,0.81,0.314,1.26c0,1.215-0.765,2.295-1.71,2.295
		c-2.699,0-4.05-3.375-4.994-5.22c-1.17-2.295-1.575-3.78-2.745-6.075c-0.09-0.18-0.27-0.359-0.45-0.359
		c-0.314,0-0.359,0.675-0.359,1.395c0,0.63,0.045,1.305,0.045,1.62c0.045,1.35,0.314,4.365,0.314,6.075
		c0,1.935-1.17,2.295-2.79,2.295C395.566,63.717,395.207,62.501,395.207,60.927z M400.381,37.032c-0.045,1.215-0.09,2.43-0.09,3.69
		c0,1.845,0.09,3.869,0.136,5.669c0.045,0.36,0.135,0.721,0.449,0.721h0.045c3.105-0.36,3.87-1.8,3.87-4.86
		c0-3.239-0.18-6.75-3.555-6.75C400.472,35.502,400.427,36.222,400.381,37.032z"/>
	<path fill="#FFFFFF" d="M412.936,50.622v-8.37c0-2.024,0.045-4.274,0.18-6.75v-1.26c0-1.575,0.18-2.61,1.62-2.61
		c2.564,0,1.935,0.045,4.635,0.045H420c1.979,0,4.41,0.09,4.41,1.98c0,2.16-1.17,2.205-3.016,2.205h-0.18h-2.024
		c-0.766,0-1.216,0-1.216,0.811v0.449c0,1.936-0.045,3.915-0.045,5.76c0,0.855,0,0.855-0.045,0.855v0.54
		c0.045,0.72,0.811,0.81,1.575,0.81c0.585,0,0.63,0,0.63,0.045h0.36c1.26,0,2.475,0.045,2.475,2.295v0.36
		c-0.09,1.305-1.215,1.484-2.52,1.484c-0.585,0-1.98-0.045-2.521-0.045c-0.225,0-0.314,3.915-0.314,4.995
		c0,1.17,0.09,2.61,0.09,2.925c0,0.765,0.135,1.44,0.854,1.44h0.046c2.024,0,1.8-0.045,3.824-0.045c1.44,0,2.16,0.63,2.16,2.34
		c0,0.135-0.045,0.314-0.045,0.449c-0.09,1.755-0.945,2.07-2.34,2.07c-0.9,0-2.07-0.135-3.42-0.135c-1.351,0-2.655-0.045-3.6-0.045
		h-0.046c-1.979,0-2.34-0.585-2.34-1.846C412.755,57.957,412.936,54.087,412.936,50.622z"/>
	<path fill="#FFFFFF" d="M432.15,44.052c0,0.226,0.045,0.405,0.045,0.585c0,1.575,0.135,2.115,0.135,3.465
		c0,1.62,0.091,2.386,0.091,5.175v5.266c0,3.329-0.405,5.31-2.7,5.31c-0.18,0-0.36,0-0.54-0.045c-1.26-0.226-1.53-2.61-1.53-5.22
		c0-6.885,0.271-12.6,0.271-19.395c0-2.34,0.09-7.2,1.89-7.83c0.135-0.045,0.225-0.045,0.36-0.045c0.359,0,0.765,0.135,1.215,0.405
		c2.16,1.305,3.285,5.265,4.095,7.604c0.314,0.945,0.495,1.936,0.765,2.88c0.136,0.585,1.71,7.155,1.98,7.155
		c0.404,0,5.939-13.815,6.435-15.21c0.27-0.72,1.53-2.025,2.115-2.43c0.27-0.18,0.585-0.27,0.944-0.27c1.89,0,2.521,2.655,2.7,6.165
		c0.09,2.115,0.135,3.69,0.135,5.04v2.025c0,4.454,0.315,9.179,0.315,13.679v1.485c0,2.115-0.181,3.824-2.07,3.824
		c-1.215,0-2.475-0.314-2.88-1.664c-0.72-2.476-0.854-5.04-0.854-8.1v-0.046c0-2.609,0.09-5.265,0.09-7.784
		c0-1.125,0-0.315-0.09-1.395c0-0.136-0.046-0.226-0.226-0.226c-0.72,0-4.949,16.515-6.345,16.829h-0.18
		c-0.226,0-0.45-0.09-0.585-0.18c-3.105-2.385-4.005-12.689-4.86-16.919c-0.045-0.226-0.135-0.676-0.404-0.676h-0.045
		C432.195,43.557,432.15,43.782,432.15,44.052z"/>
	<path fill="#FFFFFF" d="M461.759,31.677c6.39,0,7.605,11.159,7.605,18.449c0,7.199-2.295,13.635-8.19,13.635
		c-5.13,0-7.154-5.985-7.154-15.84C454.02,42.432,455.729,31.677,461.759,31.677z M464.594,49.947v-0.811
		c0-4.904-0.09-12.824-2.835-12.824c-1.979,0-3.284,5.85-3.284,11.654s0.765,11.609,2.564,11.609
		C463.02,59.576,464.594,56.292,464.594,49.947z"/>
	<path fill="#FFFFFF" d="M476.564,55.122c0,0.72,0.045,0.989,0.045,2.25c0,1.89,0.854,2.609,2.385,2.609
		c2.43,0,2.565-2.475,2.565-4.59c0-8.954-6.84-4.68-9.18-11.609c-0.226-0.72-0.315-1.53-0.315-2.34c0-4.455,1.845-9.945,7.2-9.945
		c5.354,0,6.975,2.205,6.975,7.515c0,1.439-1.396,1.71-2.205,1.71c-3.015,0-1.215-4.68-4.455-4.68c-2.475,0-3.015,3.69-3.015,5.4
		c0,1.439,0.81,2.385,1.8,2.88c4.455,2.25,8.189,4.59,8.189,11.294c0,4.365-2.295,8.686-7.604,8.686c-4.455,0-7.02-3.42-7.02-8.1
		c0-2.835,0.54-3.87,2.52-3.87C476.204,52.332,476.564,54.042,476.564,55.122z"/>
	<path fill="#FFFFFF" d="M494.159,55.122c0,0.72,0.045,0.989,0.045,2.25c0,1.89,0.854,2.609,2.385,2.609
		c2.43,0,2.565-2.475,2.565-4.59c0-8.954-6.84-4.68-9.18-11.609c-0.226-0.72-0.315-1.53-0.315-2.34c0-4.455,1.845-9.945,7.2-9.945
		c5.354,0,6.975,2.205,6.975,7.515c0,1.439-1.396,1.71-2.205,1.71c-3.015,0-1.215-4.68-4.455-4.68c-2.475,0-3.015,3.69-3.015,5.4
		c0,1.439,0.81,2.385,1.8,2.88c4.455,2.25,8.189,4.59,8.189,11.294c0,4.365-2.295,8.686-7.604,8.686c-4.455,0-7.02-3.42-7.02-8.1
		c0-2.835,0.54-3.87,2.52-3.87C493.799,52.332,494.159,54.042,494.159,55.122z"/>
	<path fill="#FFFFFF" d="M509.234,63.356c-1.62-0.855-2.025-3.24-2.025-6.03c0-3.329,0.36-7.515,0.36-10.889
		c0-3.105,0.135-7.74,1.89-7.74c2.79,0,2.925,3.51,2.925,7.38c0,4.95-0.09,9.359-0.09,13.77c0,2.115,0,3.645-2.295,3.645h-0.315
		C509.549,63.491,509.369,63.446,509.234,63.356z M510.359,37.527c-1.351,0-2.926-1.305-2.926-3.69c0-2.16,0.9-3.24,1.98-3.24
		c0.405,0,0.854,0.18,1.305,0.495c1.125,0.855,1.755,2.34,1.755,3.87C512.474,36.718,511.483,37.527,510.359,37.527z"/>
	<path fill="#FFFFFF" d="M519.897,40.272v-2.835c0-0.54,0-0.81-0.404-0.81h-0.091c-0.675,0.045-1.034,0.045-1.395,0.045h-1.215
		c-1.62-0.091-1.89-1.53-1.89-2.565c0-1.17,0.854-2.25,2.204-2.295c4.545-0.09,4.455-0.405,8.82-0.405
		c2.609,0,3.734,0.945,3.734,2.25v0.09c0,1.755-0.045,2.834-3.06,2.97c-0.9,0.045-0.405,0.045-1.395,0.09
		c-0.721,0.045-0.811,0.135-0.811,0.854v0.09c0,4.455,0.135,8.64,0.135,12.87c0,1.529-0.045,2.97-0.045,4.409
		c0,0.9,0.045,1.98,0.045,3.061c0,0.54,0,1.08-0.045,1.62c-0.18,2.744,0.405,4.229-2.34,4.229c-1.755,0-1.935-2.16-1.935-4.14v-1.62
		v-1.755C520.213,50.846,519.897,45.806,519.897,40.272z"/>
	<path fill="#FFFFFF" d="M538.123,31.677c6.39,0,7.605,11.159,7.605,18.449c0,7.199-2.295,13.635-8.19,13.635
		c-5.13,0-7.154-5.985-7.154-15.84C530.384,42.432,532.094,31.677,538.123,31.677z M540.958,49.947v-0.811
		c0-4.904-0.09-12.824-2.835-12.824c-1.979,0-3.284,5.85-3.284,11.654s0.765,11.609,2.564,11.609
		C539.384,59.576,540.958,56.292,540.958,49.947z"/>
	<path fill="#FFFFFF" d="M577.272,32.982c0,3.105-0.495,5.715-1.035,8.729c-0.495,2.745-3.689,22.499-6.704,22.499
		c-3.825,0-5.4-7.874-6.436-11.969c-0.63-2.34-2.385-10.215-2.385-15.39c0-3.105,0.63-5.265,2.565-5.265
		c0.09,0,0.225,0.045,0.359,0.045c1.575,0.225,2.16,11.024,3.825,17.774c0.45,1.845,1.215,4.725,1.575,4.725
		c0.72-0.18,2.745-11.52,3.149-13.68c0.675-3.645,1.125-8.774,3.78-8.774C576.598,31.677,577.272,32.307,577.272,32.982z"/>
	<path fill="#FFFFFF" d="M591.268,63.851c-1.8,0-2.475-1.305-2.745-2.88c-0.27-1.53-0.495-2.43-0.72-3.96
		c-0.045-0.405-0.45-0.72-0.81-0.72h-0.046c-0.449,0.045-0.944,0.09-1.484,0.09c-0.675,0-1.396-0.045-2.025-0.045
		c-0.359,0-0.72,0-1.034,0.045c-0.54,0.09-0.811,0.585-0.811,1.17c-0.18,2.925-0.63,6.255-3.239,6.255
		c-1.71,0-2.115-0.766-2.115-1.845c0-0.45,0.045-0.945,0.135-1.485c1.575-9.359,3.78-17.504,6.524-26.009
		c0.315-0.945,0.676-1.8,1.216-2.655c0.18-0.27,0.944-0.9,1.845-0.9c2.024,0,2.609,3.015,2.97,4.77
		c1.484,7.694,2.654,16.244,4.229,23.984c0.181,0.81,0.36,1.305,0.36,2.249C593.518,62.861,592.077,63.851,591.268,63.851z
		 M587.263,51.072v-0.136c-0.45-3.779-0.99-8.145-1.755-11.879c-0.045-0.181-0.045-0.36-0.271-0.36h-0.045
		c-0.27,0-0.18,0.18-0.225,0.36c-0.945,4.319-1.845,7.739-2.564,12.284v0.135c0,0.271,0.09,0.45,0.359,0.45
		c0.9,0,3.015-0.135,4.05-0.314C587.083,51.566,587.263,51.342,587.263,51.072z"/>
	<path fill="#FFFFFF" d="M597.163,63.356c-1.62-0.855-2.025-3.24-2.025-6.03c0-3.329,0.36-7.515,0.36-10.889
		c0-3.105,0.135-7.74,1.89-7.74c2.79,0,2.925,3.51,2.925,7.38c0,4.95-0.09,9.359-0.09,13.77c0,2.115,0,3.645-2.295,3.645h-0.315
		C597.478,63.491,597.298,63.446,597.163,63.356z M598.287,37.527c-1.35,0-2.925-1.305-2.925-3.69c0-2.16,0.9-3.24,1.98-3.24
		c0.405,0,0.854,0.18,1.305,0.495c1.125,0.855,1.755,2.34,1.755,3.87C600.402,36.718,599.412,37.527,598.287,37.527z"/>
	<path fill="#FFFFFF" d="M622.722,35.772c0,1.26,0.045,2.7,0.045,3.375c0,6.074-0.135,11.744-0.135,17.774
		c0,2.25-0.54,5.625-2.43,6.074c-0.36,0.09-0.72,0.271-1.08,0.271c-3.06,0-4.5-5.805-5.354-7.83
		c-0.855-1.979-1.306-3.734-2.205-5.625c-0.9-1.89-1.485-3.959-2.521-5.489c-0.09-0.09-0.225-0.585-0.404-0.585
		c-0.36,0-0.405,1.215-0.405,2.654c0,5.445,0.36,7.605,0.36,12.285c0,2.835-0.045,4.994-2.521,4.994c-0.18,0-0.404,0-0.63-0.045
		c-1.53-0.18-1.665-2.159-1.665-4.454v-1.71c0-1.351,0.045-2.7,0.045-3.601c0-0.899,0.045-1.71,0.045-2.609v-3.51
		c0-4.005,0.045-7.649,0.405-11.385c0.226-2.07,0.45-3.69,2.475-3.915h0.271c3.149,0,7.649,14.715,9.81,18.854
		c0.09,0.18,1.035,2.115,1.215,2.115c0.09,0,0.135-0.226,0.135-0.495c0-0.36-0.045-0.72-0.045-0.9c0.045-1.62,0.09-3.149,0.09-4.635
		c0-4.14-0.18-7.784-0.18-11.654c0-3.42,0.54-4.23,2.385-4.23C622.452,31.497,622.722,34.242,622.722,35.772z"/>
	<path fill="#FFFFFF" d="M628.887,31.677c1.17,0.09,1.71,1.08,1.71,2.34v1.8c0,3.195,0.18,6.524,0.18,9.45
		c0,1.664-0.09,3.194-0.09,4.859c0,1.8,0.045,3.285,0.045,4.95c0,1.35,0.045,3.239,0.045,4.59c0,1.529-0.359,3.689-1.8,3.689
		c-2.745,0-2.745-2.34-2.745-6.075v-0.63v-1.574c0-0.9-0.045-1.62-0.045-2.476c0-5.805,0.136-11.699,0.36-17.639
		C626.547,33.207,627.222,31.677,628.887,31.677z"/>
	<path fill="#FFFFFF" d="M637.932,31.677c1.665,0,1.891,4.995,1.891,8.954c0,1.801-0.046,3.375-0.046,4.186
		c0,3.734-0.18,8.145-0.18,12.06c0,0.359,0.271,0.854,0.63,0.854c0.9,0,0.585-0.045,1.44-0.045c1.575,0,3.689,0.045,4.859,0.72
		c0.945,0.54,1.215,0.99,1.215,1.98c0,2.024-1.35,3.239-3.645,3.239h-0.99c-1.62,0-1.935,0.181-3.465,0.181
		c-2.699,0-4.859-0.585-5.04-3.96c-0.045-0.945-0.09-1.98-0.09-2.925v-3.96c0-3.195,0.181-6.165,0.181-9.404
		c0-1.08-0.045-2.295-0.045-3.511C634.647,36.132,634.962,31.677,637.932,31.677z"/>
	<path fill="#FFFFFF" d="M653.366,31.677c1.665,0,1.891,4.995,1.891,8.954c0,1.801-0.046,3.375-0.046,4.186
		c0,3.734-0.18,8.145-0.18,12.06c0,0.359,0.271,0.854,0.63,0.854c0.9,0,0.585-0.045,1.44-0.045c1.574,0,3.689,0.045,4.859,0.72
		c0.945,0.54,1.215,0.99,1.215,1.98c0,2.024-1.35,3.239-3.645,3.239h-0.99c-1.62,0-1.935,0.181-3.465,0.181
		c-2.699,0-4.859-0.585-5.039-3.96c-0.046-0.945-0.091-1.98-0.091-2.925v-3.96c0-3.195,0.181-6.165,0.181-9.404
		c0-1.08-0.045-2.295-0.045-3.511C650.082,36.132,650.396,31.677,653.366,31.677z"/>
	<path fill="#FFFFFF" d="M680.321,63.851c-1.8,0-2.475-1.305-2.745-2.88c-0.27-1.53-0.495-2.43-0.72-3.96
		c-0.045-0.405-0.45-0.72-0.81-0.72h-0.046c-0.449,0.045-0.944,0.09-1.484,0.09c-0.675,0-1.396-0.045-2.025-0.045
		c-0.359,0-0.72,0-1.034,0.045c-0.54,0.09-0.811,0.585-0.811,1.17c-0.18,2.925-0.63,6.255-3.239,6.255
		c-1.71,0-2.115-0.766-2.115-1.845c0-0.45,0.045-0.945,0.135-1.485c1.575-9.359,3.78-17.504,6.524-26.009
		c0.315-0.945,0.676-1.8,1.216-2.655c0.18-0.27,0.944-0.9,1.845-0.9c2.024,0,2.609,3.015,2.97,4.77
		c1.484,7.694,2.655,16.244,4.229,23.984c0.181,0.81,0.36,1.305,0.36,2.249C682.571,62.861,681.131,63.851,680.321,63.851z
		 M676.316,51.072v-0.136c-0.45-3.779-0.99-8.145-1.755-11.879c-0.045-0.181-0.045-0.36-0.271-0.36h-0.045
		c-0.27,0-0.18,0.18-0.225,0.36c-0.945,4.319-1.845,7.739-2.564,12.284v0.135c0,0.271,0.09,0.45,0.359,0.45
		c0.9,0,3.015-0.135,4.05-0.314C676.137,51.566,676.316,51.342,676.316,51.072z"/>
</g>
</svg>
