<?xml version="1.0" encoding="utf-8"?>
<!-- Generator: Adobe Illustrator 16.0.4, SVG Export Plug-In . SVG Version: 6.00 Build 0)  -->
<!DOCTYPE svg PUBLIC "-//W3C//DTD SVG 1.1//EN" "http://www.w3.org/Graphics/SVG/1.1/DTD/svg11.dtd">
<svg version="1.1" id="Isolation_Mode" xmlns="http://www.w3.org/2000/svg" xmlns:xlink="http://www.w3.org/1999/xlink" x="0px"
	 y="0px" width="725.5px" height="96.599px" viewBox="0 0 725.5 96.599" enable-background="new 0 0 725.5 96.599"
	 xml:space="preserve">
<path fill="#E53228" stroke="#FFFFFF" stroke-width="4" stroke-miterlimit="10" d="M16.692,30.547c0,0,5.458,9.375,7.279,17.898
	c1.82,8.523-5.459,34.092,9.098,33.24c14.559-0.853,81.89,8.523,120.106,5.966c38.215-2.557,247.489,1.705,254.77,2.558
	c7.279,0.852,212.913-7.671,212.913-7.671s52.774-0.853,65.513-0.853c12.737,0,25.478-42.615,23.657-56.251
	c-1.821-13.637,32.755-18.751-112.826-14.489c-145.582,4.261-429.466-0.853-429.466-0.853L29.433,11.796
	C29.43,11.796,3.952,9.239,16.692,30.547z"/>
<g enable-background="new    ">
	<path fill="#FFFFFF" d="M259.633,36.337c0,2.07-0.989,2.655-2.879,2.7c-0.945,0-2.115-0.314-2.115-1.26
		c0-2.16-1.125-2.79-1.71-2.79c-3.69,0-4.32,5.85-4.32,11.385c0,4.095,0.27,10.305,3.24,10.305c1.215,0,2.79-0.766,2.79-2.025
		c0-2.564,1.35-3.015,2.564-3.015c1.621,0,2.295,1.62,2.295,3.375c0,4.319-3.869,6.84-7.649,6.84c-6.39,0-8.055-6.435-8.055-13.949
		c0-8.415,0.945-18.225,9.54-18.225c3.42,0,6.209,2.97,6.299,6.524V36.337z"/>
	<path fill="#FFFFFF" d="M269.624,29.677c6.39,0,7.604,11.159,7.604,18.449c0,7.199-2.295,13.635-8.189,13.635
		c-5.13,0-7.154-5.985-7.154-15.84C261.885,40.432,263.594,29.677,269.624,29.677z M272.459,47.947v-0.811
		c0-4.904-0.09-12.824-2.835-12.824c-1.979,0-3.285,5.85-3.285,11.654s0.765,11.609,2.565,11.609
		C270.884,57.576,272.459,54.292,272.459,47.947z"/>
	<path fill="#FFFFFF" d="M299.457,33.772c0,1.26,0.045,2.7,0.045,3.375c0,6.074-0.135,11.744-0.135,17.774
		c0,2.25-0.539,5.625-2.43,6.074c-0.359,0.09-0.72,0.271-1.08,0.271c-3.06,0-4.5-5.805-5.354-7.83
		c-0.854-1.979-1.305-3.734-2.204-5.625c-0.9-1.89-1.486-3.959-2.521-5.489c-0.091-0.09-0.226-0.585-0.405-0.585
		c-0.359,0-0.404,1.215-0.404,2.654c0,5.445,0.359,7.605,0.359,12.285c0,2.835-0.045,4.994-2.52,4.994c-0.18,0-0.405,0-0.631-0.045
		c-1.529-0.18-1.664-2.159-1.664-4.454v-1.71c0-1.351,0.045-2.7,0.045-3.601c0-0.899,0.045-1.71,0.045-2.609v-3.51
		c0-4.005,0.045-7.649,0.404-11.385c0.226-2.07,0.451-3.69,2.476-3.915h0.271c3.149,0,7.648,14.715,9.809,18.854
		c0.09,0.18,1.035,2.115,1.215,2.115c0.09,0,0.136-0.226,0.136-0.495c0-0.36-0.046-0.72-0.046-0.9
		c0.046-1.62,0.091-3.149,0.091-4.635c0-4.14-0.181-7.784-0.181-11.654c0-3.42,0.541-4.23,2.385-4.23
		C299.188,29.497,299.457,32.242,299.457,33.772z"/>
	<path fill="#FFFFFF" d="M310.438,29.677c6.391,0,7.605,11.159,7.605,18.449c0,7.199-2.295,13.635-8.189,13.635
		c-5.131,0-7.155-5.985-7.155-15.84C302.698,40.432,304.408,29.677,310.438,29.677z M313.273,47.947v-0.811
		c0-4.904-0.091-12.824-2.836-12.824c-1.979,0-3.285,5.85-3.285,11.654s0.766,11.609,2.565,11.609
		C311.697,57.576,313.273,54.292,313.273,47.947z"/>
	<path fill="#FFFFFF" d="M333.928,44.302c0-2.654-0.091-5.354-0.091-8.055c0-0.449,0.046-0.944,0.046-1.439l-0.046-0.54
		c0-0.63-0.09-1.17-0.09-1.845c0-0.585,0.09-1.395,0.271-1.845c0.27-0.9,3.149-0.99,5.264-0.99c4.951,0,10.35,1.35,10.485,6.614
		c0,4.5-3.87,5.13-3.87,5.805c0,0.045,0,0.045,0.045,0.045c0.631,0,5.445,2.835,5.58,7.965v0.405c0,7.515-5.76,11.249-12.734,11.249
		h-0.585h-0.405c-1.619,0-3.734-0.09-3.824-1.979c-0.045-2.564-0.136-5.22-0.136-7.784
		C333.837,49.297,333.928,46.867,333.928,44.302z M338.922,40.792c2.115,0,6.21-1.979,6.21-4.319c0-2.835-3.194-3.15-5.805-3.15
		h-1.08c-0.226,0-0.271,2.025-0.271,3.825c0,1.395,0.045,2.745,0.045,3.06C338.021,40.792,338.382,40.792,338.922,40.792z
		 M341.847,44.707c-1.215,0-2.34,0.225-3.329,0.81c-0.271,0.136-0.406,0.405-0.406,0.721c0,0.63,0.045,1.215,0.045,1.845
		c0,1.484-0.045,2.925-0.045,4.41c0,0.359-0.045,0.81-0.045,1.35c0,0.99,0.09,2.115,0.676,2.205c0.585,0.09,1.125,0.09,1.619,0.09
		c3.735,0,6.436-2.115,6.436-6.21C346.797,46.282,345.312,44.707,341.847,44.707z"/>
	<path fill="#FFFFFF" d="M370.197,34.807c0,3.734,0.135,6.39,0.135,10.8c0,4.319-0.45,8.549-1.71,11.654
		c-1.396,3.375-4.14,4.59-6.39,4.59c-8.595,0-8.595-13.77-8.595-22.229v-0.045c0-0.585-0.045-1.484-0.045-2.475
		c0-3.105,0.271-7.29,2.565-7.29c1.079,0,1.215,4.23,1.215,7.74c0,1.26-0.045,0.81-0.045,1.664c0,0.45,0,0.811,0.045,1.035
		c0.359,4.59-0.586,17.819,3.959,17.819c2.971-0.314,3.555-11.43,3.555-14.85v-1.529c0-1.665-0.18-3.96-0.18-5.94
		c0-3.419,0.359-6.254,3.375-6.254c1.936,0,2.115,1.125,2.115,3.15V34.807z"/>
	<path fill="#FFFFFF" d="M374.022,44.302c0-2.654-0.091-5.354-0.091-8.055c0-0.449,0.046-0.944,0.046-1.439l-0.046-0.54
		c0-0.63-0.09-1.17-0.09-1.845c0-0.585,0.09-1.395,0.271-1.845c0.271-0.9,3.149-0.99,5.265-0.99c4.95,0,10.35,1.35,10.484,6.614
		c0,4.5-3.869,5.13-3.869,5.805c0,0.045,0,0.045,0.045,0.045c0.63,0,5.444,2.835,5.58,7.965v0.405
		c0,7.515-5.76,11.249-12.734,11.249h-0.586h-0.404c-1.62,0-3.735-0.09-3.825-1.979c-0.045-2.564-0.136-5.22-0.136-7.784
		C373.932,49.297,374.022,46.867,374.022,44.302z M379.018,40.792c2.114,0,6.209-1.979,6.209-4.319c0-2.835-3.194-3.15-5.805-3.15
		h-1.08c-0.225,0-0.27,2.025-0.27,3.825c0,1.395,0.045,2.745,0.045,3.06C378.117,40.792,378.477,40.792,379.018,40.792z
		 M381.941,44.707c-1.215,0-2.34,0.225-3.329,0.81c-0.271,0.136-0.405,0.405-0.405,0.721c0,0.63,0.045,1.215,0.045,1.845
		c0,1.484-0.045,2.925-0.045,4.41c0,0.359-0.045,0.81-0.045,1.35c0,0.99,0.09,2.115,0.676,2.205c0.584,0.09,1.124,0.09,1.619,0.09
		c3.734,0,6.435-2.115,6.435-6.21C386.892,46.282,385.406,44.707,381.941,44.707z"/>
	<path fill="#FFFFFF" d="M394.498,44.302c0-2.654-0.09-5.354-0.09-8.055c0-0.449,0.045-0.944,0.045-1.439l-0.045-0.54
		c0-0.63-0.09-1.17-0.09-1.845c0-0.585,0.09-1.395,0.27-1.845c0.27-0.9,3.15-0.99,5.264-0.99c4.951,0,10.35,1.35,10.484,6.614
		c0,4.5-3.869,5.13-3.869,5.805c0,0.045,0,0.045,0.045,0.045c0.631,0,5.445,2.835,5.58,7.965v0.405
		c0,7.515-5.76,11.249-12.734,11.249h-0.586h-0.404c-1.619,0-3.734-0.09-3.824-1.979c-0.045-2.564-0.135-5.22-0.135-7.784
		C394.408,49.297,394.498,46.867,394.498,44.302z M399.492,40.792c2.115,0,6.209-1.979,6.209-4.319c0-2.835-3.193-3.15-5.805-3.15
		h-1.08c-0.225,0-0.27,2.025-0.27,3.825c0,1.395,0.045,2.745,0.045,3.06C398.592,40.792,398.953,40.792,399.492,40.792z
		 M402.418,44.707c-1.215,0-2.34,0.225-3.33,0.81c-0.271,0.136-0.406,0.405-0.406,0.721c0,0.63,0.045,1.215,0.045,1.845
		c0,1.484-0.045,2.925-0.045,4.41c0,0.359-0.045,0.81-0.045,1.35c0,0.99,0.09,2.115,0.676,2.205c0.584,0.09,1.125,0.09,1.619,0.09
		c3.736,0,6.436-2.115,6.436-6.21C407.367,46.282,405.883,44.707,402.418,44.707z"/>
	<path fill="#FFFFFF" d="M428.381,61.851c-1.799,0-2.475-1.305-2.744-2.88c-0.27-1.53-0.496-2.43-0.721-3.96
		c-0.045-0.405-0.449-0.72-0.809-0.72h-0.047c-0.449,0.045-0.943,0.09-1.484,0.09c-0.674,0-1.395-0.045-2.025-0.045
		c-0.359,0-0.719,0-1.033,0.045c-0.541,0.09-0.811,0.585-0.811,1.17c-0.18,2.925-0.631,6.255-3.24,6.255
		c-1.709,0-2.115-0.766-2.115-1.845c0-0.45,0.045-0.945,0.135-1.485c1.576-9.359,3.781-17.504,6.525-26.009
		c0.314-0.945,0.676-1.8,1.215-2.655c0.18-0.27,0.945-0.9,1.846-0.9c2.023,0,2.609,3.015,2.969,4.77
		c1.484,7.694,2.656,16.244,4.23,23.984c0.18,0.81,0.359,1.305,0.359,2.249C430.631,60.861,429.191,61.851,428.381,61.851z
		 M424.377,49.072v-0.136c-0.451-3.779-0.99-8.145-1.756-11.879c-0.045-0.181-0.045-0.36-0.27-0.36h-0.045
		c-0.27,0-0.18,0.18-0.225,0.36c-0.945,4.319-1.846,7.739-2.564,12.284v0.135c0,0.271,0.09,0.45,0.359,0.45
		c0.9,0,3.014-0.135,4.049-0.314C424.197,49.566,424.377,49.342,424.377,49.072z"/>
	<path fill="#FFFFFF" d="M435.852,29.677c1.664,0,1.891,4.995,1.891,8.954c0,1.801-0.047,3.375-0.047,4.186
		c0,3.734-0.18,8.145-0.18,12.06c0,0.359,0.271,0.854,0.631,0.854c0.9,0,0.584-0.045,1.439-0.045c1.576,0,3.689,0.045,4.859,0.72
		c0.945,0.54,1.215,0.99,1.215,1.98c0,2.024-1.35,3.239-3.645,3.239h-0.99c-1.619,0-1.934,0.181-3.465,0.181
		c-2.699,0-4.859-0.585-5.039-3.96c-0.045-0.945-0.09-1.98-0.09-2.925v-3.96c0-3.195,0.18-6.165,0.18-9.404
		c0-1.08-0.045-2.295-0.045-3.511C432.566,34.132,432.881,29.677,435.852,29.677z"/>
	<path fill="#FFFFFF" d="M454.662,29.677c6.389,0,7.605,11.159,7.605,18.449c0,7.199-2.295,13.635-8.191,13.635
		c-5.129,0-7.154-5.985-7.154-15.84C446.922,40.432,448.633,29.677,454.662,29.677z M457.496,47.947v-0.811
		c0-4.904-0.09-12.824-2.834-12.824c-1.98,0-3.285,5.85-3.285,11.654s0.766,11.609,2.564,11.609
		C455.922,57.576,457.496,54.292,457.496,47.947z"/>
	<path fill="#FFFFFF" d="M473.111,29.677c6.389,0,7.605,11.159,7.605,18.449c0,7.199-2.295,13.635-8.191,13.635
		c-5.129,0-7.154-5.985-7.154-15.84C465.371,40.432,467.082,29.677,473.111,29.677z M475.945,47.947v-0.811
		c0-4.904-0.09-12.824-2.834-12.824c-1.98,0-3.285,5.85-3.285,11.654s0.766,11.609,2.564,11.609
		C474.371,57.576,475.945,54.292,475.945,47.947z"/>
</g>
</svg>
