<?xml version="1.0" encoding="utf-8"?>
<!-- Generator: Adobe Illustrator 16.0.4, SVG Export Plug-In . SVG Version: 6.00 Build 0)  -->
<!DOCTYPE svg PUBLIC "-//W3C//DTD SVG 1.1//EN" "http://www.w3.org/Graphics/SVG/1.1/DTD/svg11.dtd">
<svg version="1.1" id="Isolation_Mode" xmlns="http://www.w3.org/2000/svg" xmlns:xlink="http://www.w3.org/1999/xlink" x="0px"
	 y="0px" width="725.5px" height="96.599px" viewBox="0 0 725.5 96.599" enable-background="new 0 0 725.5 96.599"
	 xml:space="preserve">
<path fill="#E53228" stroke="#FFFFFF" stroke-width="4" stroke-miterlimit="10" d="M16.692,30.547c0,0,5.458,9.375,7.279,17.898
	c1.82,8.523-5.459,34.092,9.098,33.24c14.559-0.853,81.89,8.523,120.106,5.966c38.215-2.557,247.489,1.705,254.77,2.558
	c7.279,0.852,212.913-7.671,212.913-7.671s52.774-0.853,65.513-0.853c12.737,0,25.478-42.615,23.657-56.251
	c-1.821-13.637,32.755-18.751-112.826-14.489c-145.582,4.261-429.466-0.853-429.466-0.853L29.433,11.796
	C29.43,11.796,3.952,9.239,16.692,30.547z"/>
<g enable-background="new    ">
	<path fill="#FFFFFF" d="M160.41,30.982c0,3.105-0.495,5.715-1.035,8.729c-0.495,2.745-3.69,22.499-6.705,22.499
		c-3.825,0-5.399-7.874-6.435-11.969c-0.63-2.34-2.385-10.215-2.385-15.39c0-3.105,0.63-5.265,2.565-5.265
		c0.09,0,0.225,0.045,0.36,0.045c1.575,0.225,2.16,11.024,3.825,17.774c0.45,1.845,1.215,4.725,1.575,4.725
		c0.72-0.18,2.745-11.52,3.149-13.68c0.675-3.645,1.125-8.774,3.78-8.774C159.735,29.677,160.41,30.307,160.41,30.982z"/>
	<path fill="#FFFFFF" d="M174.405,61.851c-1.8,0-2.475-1.305-2.745-2.88c-0.27-1.53-0.495-2.43-0.72-3.96
		c-0.045-0.405-0.45-0.72-0.81-0.72h-0.045c-0.45,0.045-0.945,0.09-1.485,0.09c-0.675,0-1.395-0.045-2.025-0.045
		c-0.36,0-0.72,0-1.035,0.045c-0.54,0.09-0.81,0.585-0.81,1.17c-0.18,2.925-0.63,6.255-3.24,6.255c-1.71,0-2.115-0.766-2.115-1.845
		c0-0.45,0.045-0.945,0.135-1.485c1.575-9.359,3.78-17.504,6.525-26.009c0.315-0.945,0.675-1.8,1.215-2.655
		c0.18-0.27,0.945-0.9,1.845-0.9c2.025,0,2.61,3.015,2.97,4.77c1.485,7.694,2.655,16.244,4.229,23.984
		c0.18,0.81,0.36,1.305,0.36,2.249C176.655,60.861,175.215,61.851,174.405,61.851z M170.4,49.072v-0.136
		c-0.45-3.779-0.99-8.145-1.755-11.879c-0.045-0.181-0.045-0.36-0.27-0.36h-0.045c-0.27,0-0.18,0.18-0.225,0.36
		c-0.945,4.319-1.845,7.739-2.565,12.284v0.135c0,0.271,0.09,0.45,0.36,0.45c0.9,0,3.015-0.135,4.05-0.314
		C170.22,49.566,170.4,49.342,170.4,49.072z"/>
	<path fill="#FFFFFF" d="M182.82,53.122c0,0.72,0.045,0.989,0.045,2.25c0,1.89,0.855,2.609,2.385,2.609
		c2.43,0,2.565-2.475,2.565-4.59c0-8.954-6.84-4.68-9.18-11.609c-0.225-0.72-0.315-1.53-0.315-2.34c0-4.455,1.845-9.945,7.2-9.945
		c5.355,0,6.975,2.205,6.975,7.515c0,1.439-1.395,1.71-2.205,1.71c-3.015,0-1.215-4.68-4.455-4.68c-2.475,0-3.015,3.69-3.015,5.4
		c0,1.439,0.81,2.385,1.8,2.88c4.455,2.25,8.19,4.59,8.19,11.294c0,4.365-2.295,8.686-7.605,8.686c-4.455,0-7.02-3.42-7.02-8.1
		c0-2.835,0.54-3.87,2.52-3.87C182.46,50.332,182.82,52.042,182.82,53.122z"/>
	<path fill="#FFFFFF" d="M203.564,29.677c6.39,0,7.604,11.159,7.604,18.449c0,7.199-2.295,13.635-8.189,13.635
		c-5.13,0-7.155-5.985-7.155-15.84C195.825,40.432,197.535,29.677,203.564,29.677z M206.399,47.947v-0.811
		c0-4.904-0.09-12.824-2.835-12.824c-1.98,0-3.285,5.85-3.285,11.654s0.765,11.609,2.565,11.609
		C204.824,57.576,206.399,54.292,206.399,47.947z"/>
	<path fill="#FFFFFF" d="M231.644,52.627v3.06c0,0.54,0.045,1.08,0.045,1.62v1.395c0,1.665-0.18,2.88-1.935,2.88
		c-2.34,0-3.015-2.744-3.015-5.534V41.647v-1.891v-2.024c0-4.005,0.18-8.055,3.015-8.055c1.26,0,1.935,1.845,1.935,7.154v0.136
		c0,2.789-0.135,5.939-0.135,8.909v0.09c0,0.54,0.09,0.72,0.405,0.72c0.045,0,0.09-0.045,0.18-0.045c0.405-0.09,1.35-0.09,1.8-0.09
		c0.495,0,1.485,0.045,2.025,0.045c0.495,0,1.035-0.045,1.575-0.18c0.045,0,0.045-0.045,0.135-0.045
		c0.63-0.18,0.81-0.271,0.81-0.811v-6.254v-1.351v-2.744c0-3.24,0.225-5.535,2.07-5.535c2.07,0,2.88,2.07,2.88,4.095v3.555
		c0,7.47,0.585,13.68,0.585,20.699c0,1.98-0.81,3.69-2.295,3.69c-2.97,0-3.42-5.04-3.42-8.505v-0.811c0-0.585-0.135-1.17-0.405-1.17
		c-1.17,0-3.149,0.315-4.59,0.315C232.454,51.547,231.644,51.636,231.644,52.627z"/>
	<path fill="#FFFFFF" d="M247.618,48.622v-8.37c0-2.024,0.045-4.274,0.18-6.75v-1.26c0-1.575,0.18-2.61,1.62-2.61
		c2.565,0,1.935,0.045,4.634,0.045h0.631c1.979,0,4.409,0.09,4.409,1.98c0,2.16-1.17,2.205-3.015,2.205h-0.18h-2.025
		c-0.765,0-1.215,0-1.215,0.811v0.449c0,1.936-0.045,3.915-0.045,5.76c0,0.855,0,0.855-0.045,0.855v0.54
		c0.045,0.72,0.81,0.81,1.574,0.81c0.586,0,0.631,0,0.631,0.045h0.359c1.26,0,2.475,0.045,2.475,2.295v0.36
		c-0.09,1.305-1.215,1.484-2.52,1.484c-0.585,0-1.979-0.045-2.52-0.045c-0.225,0-0.315,3.915-0.315,4.995
		c0,1.17,0.09,2.61,0.09,2.925c0,0.765,0.135,1.44,0.855,1.44h0.045c2.024,0,1.8-0.045,3.825-0.045c1.439,0,2.16,0.63,2.16,2.34
		c0,0.135-0.045,0.314-0.045,0.449c-0.091,1.755-0.945,2.07-2.34,2.07c-0.9,0-2.07-0.135-3.42-0.135s-2.655-0.045-3.6-0.045h-0.045
		c-1.98,0-2.34-0.585-2.34-1.846C247.438,55.957,247.618,52.087,247.618,48.622z"/>
	<path fill="#FFFFFF" d="M265.754,29.677c1.664,0,1.889,4.995,1.889,8.954c0,1.801-0.045,3.375-0.045,4.186
		c0,3.734-0.18,8.145-0.18,12.06c0,0.359,0.27,0.854,0.631,0.854c0.899,0,0.584-0.045,1.439-0.045c1.574,0,3.689,0.045,4.859,0.72
		c0.945,0.54,1.215,0.99,1.215,1.98c0,2.024-1.35,3.239-3.645,3.239h-0.99c-1.619,0-1.935,0.181-3.465,0.181
		c-2.699,0-4.859-0.585-5.039-3.96c-0.045-0.945-0.09-1.98-0.09-2.925v-3.96c0-3.195,0.18-6.165,0.18-9.404
		c0-1.08-0.045-2.295-0.045-3.511C262.469,34.132,262.783,29.677,265.754,29.677z"/>
	<path fill="#FFFFFF" d="M292.708,61.851c-1.8,0-2.476-1.305-2.745-2.88c-0.27-1.53-0.494-2.43-0.72-3.96
		c-0.045-0.405-0.45-0.72-0.81-0.72h-0.045c-0.451,0.045-0.945,0.09-1.485,0.09c-0.675,0-1.396-0.045-2.024-0.045
		c-0.361,0-0.721,0-1.035,0.045c-0.541,0.09-0.811,0.585-0.811,1.17c-0.18,2.925-0.63,6.255-3.24,6.255
		c-1.709,0-2.114-0.766-2.114-1.845c0-0.45,0.045-0.945,0.135-1.485c1.575-9.359,3.78-17.504,6.524-26.009
		c0.315-0.945,0.676-1.8,1.215-2.655c0.181-0.27,0.945-0.9,1.846-0.9c2.025,0,2.609,3.015,2.97,4.77
		c1.485,7.694,2.655,16.244,4.229,23.984c0.18,0.81,0.359,1.305,0.359,2.249C294.957,60.861,293.518,61.851,292.708,61.851z
		 M288.703,49.072v-0.136c-0.45-3.779-0.99-8.145-1.755-11.879c-0.045-0.181-0.045-0.36-0.271-0.36h-0.045
		c-0.27,0-0.18,0.18-0.225,0.36c-0.945,4.319-1.845,7.739-2.564,12.284v0.135c0,0.271,0.09,0.45,0.359,0.45
		c0.9,0,3.016-0.135,4.05-0.314C288.523,49.566,288.703,49.342,288.703,49.072z"/>
	<path fill="#FFFFFF" d="M296.85,54.651c-0.092-1.26-0.092-2.52-0.092-3.779c0-4.68,0.316-9.18,0.451-13.949
		c0.045-1.71,0.225-3.96,0.404-5.67c0.135-1.215,1.305-1.575,2.654-1.665h1.08c1.215,0,2.34,0.09,3.51,0.315
		c4.23,0.9,6.121,4.365,6.885,8.91c0.137,0.989,0.227,4.185,0.227,5.04c0,8.909-3.555,18.134-12.105,18.134
		c-0.404,0-0.855-0.045-1.305-0.045c-0.99,0-1.439-1.08-1.484-2.07c-0.045-1.619-0.18-3.194-0.225-4.814V54.651z M302.969,56.496
		c2.43,0,5.174-8.64,5.174-13.319c0-4.725-0.18-9.269-5.174-9.449h-0.045c-0.586,0-0.631,0.495-0.631,1.035v0.404v0.271
		c0,1.35-0.045,1.845-0.045,3.149c0,0.676,0,1.306,0.045,1.98c0.135,3.645,0.135,5.085,0.27,9.18v0.314v1.575v2.655
		c0,0.585,0,1.17,0.047,1.8C302.609,56.271,302.699,56.496,302.969,56.496z"/>
	<path fill="#FFFFFF" d="M322.678,29.677c6.389,0,7.605,11.159,7.605,18.449c0,7.199-2.295,13.635-8.191,13.635
		c-5.129,0-7.154-5.985-7.154-15.84C314.938,40.432,316.648,29.677,322.678,29.677z M325.512,47.947v-0.811
		c0-4.904-0.09-12.824-2.834-12.824c-1.98,0-3.285,5.85-3.285,11.654s0.766,11.609,2.564,11.609
		C323.938,57.576,325.512,54.292,325.512,47.947z"/>
	<path fill="#FFFFFF" d="M353.367,29.677c6.389,0,7.605,11.159,7.605,18.449c0,7.199-2.295,13.635-8.191,13.635
		c-5.129,0-7.154-5.985-7.154-15.84C345.627,40.432,347.338,29.677,353.367,29.677z M356.201,47.947v-0.811
		c0-4.904-0.09-12.824-2.834-12.824c-1.98,0-3.285,5.85-3.285,11.654s0.766,11.609,2.564,11.609
		C354.627,57.576,356.201,54.292,356.201,47.947z"/>
	<path fill="#FFFFFF" d="M364.393,58.927c0-4.14,0.27-7.74,0.27-11.745v-2.52c-0.09-2.79-0.18-6.165-0.18-8.864v-1.936
		c0-3.735,0.943-4.365,4.59-4.365c1.709,0,3.555,0.36,4.139,0.54c0.541,0.18,1.08,0.36,1.529,0.63
		c2.025,1.125,2.746,3.645,3.061,6.255c0.135,1.079,0.225,2.34,0.225,3.645c0,3.96-0.898,8.369-4.273,8.369
		c-0.406,0-0.541,0.136-0.541,0.36c0,0.18,0.09,0.36,0.225,0.54c1.936,2.655,4.32,5.895,5.58,8.595
		c0.225,0.45,0.314,0.81,0.314,1.26c0,1.215-0.764,2.295-1.709,2.295c-2.699,0-4.051-3.375-4.994-5.22
		c-1.17-2.295-1.576-3.78-2.746-6.075c-0.09-0.18-0.27-0.359-0.449-0.359c-0.314,0-0.359,0.675-0.359,1.395
		c0,0.63,0.045,1.305,0.045,1.62c0.045,1.35,0.314,4.365,0.314,6.075c0,1.935-1.17,2.295-2.791,2.295
		C364.752,61.717,364.393,60.501,364.393,58.927z M369.566,35.032c-0.045,1.215-0.09,2.43-0.09,3.69c0,1.845,0.09,3.869,0.135,5.669
		c0.045,0.36,0.135,0.721,0.449,0.721h0.045c3.105-0.36,3.871-1.8,3.871-4.86c0-3.239-0.18-6.75-3.555-6.75
		C369.656,33.502,369.611,34.222,369.566,35.032z"/>
	<path fill="#FFFFFF" d="M382.121,48.622v-8.37c0-2.024,0.045-4.274,0.18-6.75v-1.26c0-1.575,0.18-2.61,1.621-2.61
		c2.564,0,1.934,0.045,4.635,0.045h0.629c1.98,0,4.41,0.09,4.41,1.98c0,2.16-1.17,2.205-3.016,2.205h-0.18h-2.023
		c-0.766,0-1.217,0-1.217,0.811v0.449c0,1.936-0.045,3.915-0.045,5.76c0,0.855,0,0.855-0.045,0.855v0.54
		c0.045,0.72,0.811,0.81,1.576,0.81c0.584,0,0.629,0,0.629,0.045h0.361c1.26,0,2.475,0.045,2.475,2.295v0.36
		c-0.09,1.305-1.215,1.484-2.52,1.484c-0.586,0-1.98-0.045-2.521-0.045c-0.225,0-0.314,3.915-0.314,4.995
		c0,1.17,0.09,2.61,0.09,2.925c0,0.765,0.135,1.44,0.855,1.44h0.045c2.025,0,1.801-0.045,3.824-0.045c1.441,0,2.16,0.63,2.16,2.34
		c0,0.135-0.045,0.314-0.045,0.449c-0.09,1.755-0.945,2.07-2.34,2.07c-0.9,0-2.07-0.135-3.42-0.135s-2.654-0.045-3.6-0.045h-0.045
		c-1.98,0-2.34-0.585-2.34-1.846C381.941,55.957,382.121,52.087,382.121,48.622z"/>
	<path fill="#FFFFFF" d="M403.721,29.677c6.389,0,7.605,11.159,7.605,18.449c0,7.199-2.295,13.635-8.191,13.635
		c-5.129,0-7.154-5.985-7.154-15.84C395.98,40.432,397.691,29.677,403.721,29.677z M406.555,47.947v-0.811
		c0-4.904-0.09-12.824-2.834-12.824c-1.98,0-3.285,5.85-3.285,11.654s0.766,11.609,2.564,11.609
		C404.98,57.576,406.555,54.292,406.555,47.947z"/>
	<path fill="#FFFFFF" d="M442.375,36.337c0,2.07-0.99,2.655-2.881,2.7c-0.943,0-2.113-0.314-2.113-1.26
		c0-2.16-1.125-2.79-1.711-2.79c-3.689,0-4.32,5.85-4.32,11.385c0,4.095,0.271,10.305,3.24,10.305c1.215,0,2.791-0.766,2.791-2.025
		c0-2.564,1.35-3.015,2.564-3.015c1.619,0,2.295,1.62,2.295,3.375c0,4.319-3.871,6.84-7.65,6.84c-6.389,0-8.055-6.435-8.055-13.949
		c0-8.415,0.945-18.225,9.539-18.225c3.42,0,6.211,2.97,6.301,6.524V36.337z"/>
	<path fill="#FFFFFF" d="M450.295,52.627v3.06c0,0.54,0.045,1.08,0.045,1.62v1.395c0,1.665-0.18,2.88-1.934,2.88
		c-2.34,0-3.016-2.744-3.016-5.534V41.647v-1.891v-2.024c0-4.005,0.18-8.055,3.016-8.055c1.26,0,1.934,1.845,1.934,7.154v0.136
		c0,2.789-0.135,5.939-0.135,8.909v0.09c0,0.54,0.09,0.72,0.404,0.72c0.045,0,0.092-0.045,0.182-0.045
		c0.404-0.09,1.35-0.09,1.799-0.09c0.496,0,1.484,0.045,2.025,0.045c0.494,0,1.035-0.045,1.574-0.18
		c0.045,0,0.045-0.045,0.135-0.045c0.631-0.18,0.811-0.271,0.811-0.811v-6.254v-1.351v-2.744c0-3.24,0.225-5.535,2.07-5.535
		c2.07,0,2.879,2.07,2.879,4.095v3.555c0,7.47,0.586,13.68,0.586,20.699c0,1.98-0.811,3.69-2.295,3.69
		c-2.971,0-3.42-5.04-3.42-8.505v-0.811c0-0.585-0.135-1.17-0.404-1.17c-1.17,0-3.15,0.315-4.59,0.315
		C451.105,51.547,450.295,51.636,450.295,52.627z"/>
	<path fill="#FFFFFF" d="M473.559,29.677c6.391,0,7.605,11.159,7.605,18.449c0,7.199-2.295,13.635-8.189,13.635
		c-5.131,0-7.154-5.985-7.154-15.84C465.82,40.432,467.529,29.677,473.559,29.677z M476.395,47.947v-0.811
		c0-4.904-0.09-12.824-2.836-12.824c-1.979,0-3.283,5.85-3.283,11.654s0.764,11.609,2.564,11.609
		C474.82,57.576,476.395,54.292,476.395,47.947z"/>
	<path fill="#FFFFFF" d="M499.658,36.337c0,2.07-0.988,2.655-2.879,2.7c-0.945,0-2.115-0.314-2.115-1.26
		c0-2.16-1.125-2.79-1.709-2.79c-3.691,0-4.32,5.85-4.32,11.385c0,4.095,0.27,10.305,3.24,10.305c1.215,0,2.789-0.766,2.789-2.025
		c0-2.564,1.35-3.015,2.564-3.015c1.621,0,2.295,1.62,2.295,3.375c0,4.319-3.869,6.84-7.648,6.84c-6.391,0-8.055-6.435-8.055-13.949
		c0-8.415,0.943-18.225,9.539-18.225c3.42,0,6.209,2.97,6.299,6.524V36.337z"/>
	<path fill="#FFFFFF" d="M509.648,29.677c6.391,0,7.605,11.159,7.605,18.449c0,7.199-2.295,13.635-8.189,13.635
		c-5.131,0-7.154-5.985-7.154-15.84C501.91,40.432,503.619,29.677,509.648,29.677z M512.484,47.947v-0.811
		c0-4.904-0.09-12.824-2.836-12.824c-1.979,0-3.283,5.85-3.283,11.654s0.764,11.609,2.564,11.609
		C510.91,57.576,512.484,54.292,512.484,47.947z"/>
	<path fill="#FFFFFF" d="M524.004,29.677c1.664,0,1.891,4.995,1.891,8.954c0,1.801-0.047,3.375-0.047,4.186
		c0,3.734-0.18,8.145-0.18,12.06c0,0.359,0.271,0.854,0.631,0.854c0.9,0,0.584-0.045,1.439-0.045c1.576,0,3.689,0.045,4.859,0.72
		c0.945,0.54,1.215,0.99,1.215,1.98c0,2.024-1.35,3.239-3.645,3.239h-0.99c-1.619,0-1.934,0.181-3.465,0.181
		c-2.699,0-4.859-0.585-5.039-3.96c-0.045-0.945-0.09-1.98-0.09-2.925v-3.96c0-3.195,0.18-6.165,0.18-9.404
		c0-1.08-0.045-2.295-0.045-3.511C520.719,34.132,521.033,29.677,524.004,29.677z"/>
	<path fill="#FFFFFF" d="M550.959,61.851c-1.801,0-2.475-1.305-2.746-2.88c-0.27-1.53-0.494-2.43-0.719-3.96
		c-0.045-0.405-0.451-0.72-0.811-0.72h-0.045c-0.449,0.045-0.945,0.09-1.484,0.09c-0.676,0-1.396-0.045-2.025-0.045
		c-0.359,0-0.721,0-1.035,0.045c-0.539,0.09-0.811,0.585-0.811,1.17c-0.18,2.925-0.629,6.255-3.238,6.255
		c-1.711,0-2.115-0.766-2.115-1.845c0-0.45,0.045-0.945,0.135-1.485c1.574-9.359,3.779-17.504,6.523-26.009
		c0.316-0.945,0.676-1.8,1.217-2.655c0.18-0.27,0.943-0.9,1.844-0.9c2.025,0,2.609,3.015,2.971,4.77
		c1.484,7.694,2.654,16.244,4.229,23.984c0.182,0.81,0.361,1.305,0.361,2.249C553.209,60.861,551.768,61.851,550.959,61.851z
		 M546.953,49.072v-0.136c-0.449-3.779-0.99-8.145-1.754-11.879c-0.045-0.181-0.045-0.36-0.271-0.36h-0.045
		c-0.27,0-0.18,0.18-0.225,0.36c-0.945,4.319-1.844,7.739-2.564,12.284v0.135c0,0.271,0.09,0.45,0.359,0.45
		c0.9,0,3.016-0.135,4.051-0.314C546.773,49.566,546.953,49.342,546.953,49.072z"/>
	<path fill="#FFFFFF" d="M556.449,38.272v-2.835c0-0.54,0-0.81-0.404-0.81h-0.092c-0.674,0.045-1.033,0.045-1.395,0.045h-1.215
		c-1.619-0.091-1.889-1.53-1.889-2.565c0-1.17,0.854-2.25,2.203-2.295c4.545-0.09,4.455-0.405,8.82-0.405
		c2.609,0,3.734,0.945,3.734,2.25v0.09c0,1.755-0.045,2.834-3.059,2.97c-0.9,0.045-0.406,0.045-1.395,0.09
		c-0.721,0.045-0.811,0.135-0.811,0.854v0.09c0,4.455,0.135,8.64,0.135,12.87c0,1.529-0.045,2.97-0.045,4.409
		c0,0.9,0.045,1.98,0.045,3.061c0,0.54,0,1.08-0.045,1.62c-0.18,2.744,0.404,4.229-2.34,4.229c-1.756,0-1.936-2.16-1.936-4.14v-1.62
		v-1.755C556.764,48.846,556.449,43.806,556.449,38.272z"/>
	<path fill="#FFFFFF" d="M569.049,48.622v-8.37c0-2.024,0.045-4.274,0.18-6.75v-1.26c0-1.575,0.18-2.61,1.621-2.61
		c2.564,0,1.934,0.045,4.635,0.045h0.629c1.98,0,4.41,0.09,4.41,1.98c0,2.16-1.17,2.205-3.016,2.205h-0.18h-2.023
		c-0.766,0-1.217,0-1.217,0.811v0.449c0,1.936-0.045,3.915-0.045,5.76c0,0.855,0,0.855-0.045,0.855v0.54
		c0.045,0.72,0.811,0.81,1.576,0.81c0.584,0,0.629,0,0.629,0.045h0.361c1.26,0,2.475,0.045,2.475,2.295v0.36
		c-0.09,1.305-1.215,1.484-2.52,1.484c-0.586,0-1.98-0.045-2.521-0.045c-0.225,0-0.314,3.915-0.314,4.995
		c0,1.17,0.09,2.61,0.09,2.925c0,0.765,0.135,1.44,0.855,1.44h0.045c2.025,0,1.801-0.045,3.824-0.045c1.441,0,2.16,0.63,2.16,2.34
		c0,0.135-0.045,0.314-0.045,0.449c-0.09,1.755-0.945,2.07-2.34,2.07c-0.9,0-2.07-0.135-3.42-0.135s-2.654-0.045-3.6-0.045h-0.045
		c-1.98,0-2.34-0.585-2.34-1.846C568.869,55.957,569.049,52.087,569.049,48.622z"/>
</g>
</svg>
