<?xml version="1.0" encoding="utf-8"?>
<!-- Generator: Adobe Illustrator 16.0.4, SVG Export Plug-In . SVG Version: 6.00 Build 0)  -->
<!DOCTYPE svg PUBLIC "-//W3C//DTD SVG 1.1//EN" "http://www.w3.org/Graphics/SVG/1.1/DTD/svg11.dtd">
<svg version="1.1" id="Isolation_Mode" xmlns="http://www.w3.org/2000/svg" xmlns:xlink="http://www.w3.org/1999/xlink" x="0px"
	 y="0px" width="725.5px" height="96.599px" viewBox="0 0 725.5 96.599" enable-background="new 0 0 725.5 96.599"
	 xml:space="preserve">
<path fill="#E53228" stroke="#FFFFFF" stroke-width="4" stroke-miterlimit="10" d="M16.692,30.547c0,0,5.458,9.375,7.279,17.898
	c1.82,8.523-5.459,34.092,9.098,33.24c14.559-0.853,81.89,8.523,120.106,5.966c38.215-2.557,247.489,1.705,254.77,2.558
	c7.279,0.852,212.913-7.671,212.913-7.671s52.774-0.853,65.513-0.853c12.737,0,25.478-42.615,23.657-56.251
	c-1.821-13.637,32.755-18.751-112.826-14.489c-145.582,4.261-429.466-0.853-429.466-0.853L29.433,11.796
	C29.43,11.796,3.952,9.239,16.692,30.547z"/>
<g enable-background="new    ">
	<path fill="#FFFFFF" d="M173.437,38.272v-2.835c0-0.54,0-0.81-0.405-0.81h-0.09c-0.675,0.045-1.035,0.045-1.395,0.045h-1.215
		c-1.62-0.091-1.89-1.53-1.89-2.565c0-1.17,0.855-2.25,2.205-2.295c4.545-0.09,4.455-0.405,8.82-0.405
		c2.61,0,3.734,0.945,3.734,2.25v0.09c0,1.755-0.045,2.834-3.06,2.97c-0.9,0.045-0.405,0.045-1.395,0.09
		c-0.72,0.045-0.81,0.135-0.81,0.854v0.09c0,4.455,0.135,8.64,0.135,12.87c0,1.529-0.045,2.97-0.045,4.409
		c0,0.9,0.045,1.98,0.045,3.061c0,0.54,0,1.08-0.045,1.62c-0.18,2.744,0.405,4.229-2.34,4.229c-1.755,0-1.935-2.16-1.935-4.14v-1.62
		v-1.755C173.751,48.846,173.437,43.806,173.437,38.272z"/>
	<path fill="#FFFFFF" d="M196.881,61.851c-1.8,0-2.475-1.305-2.745-2.88c-0.27-1.53-0.495-2.43-0.72-3.96
		c-0.045-0.405-0.45-0.72-0.81-0.72h-0.045c-0.45,0.045-0.945,0.09-1.485,0.09c-0.675,0-1.395-0.045-2.025-0.045
		c-0.36,0-0.72,0-1.035,0.045c-0.54,0.09-0.81,0.585-0.81,1.17c-0.18,2.925-0.63,6.255-3.24,6.255c-1.71,0-2.115-0.766-2.115-1.845
		c0-0.45,0.045-0.945,0.135-1.485c1.575-9.359,3.78-17.504,6.525-26.009c0.315-0.945,0.675-1.8,1.215-2.655
		c0.18-0.27,0.945-0.9,1.845-0.9c2.025,0,2.61,3.015,2.97,4.77c1.485,7.694,2.655,16.244,4.229,23.984
		c0.18,0.81,0.36,1.305,0.36,2.249C199.131,60.861,197.691,61.851,196.881,61.851z M192.876,49.072v-0.136
		c-0.45-3.779-0.99-8.145-1.755-11.879c-0.045-0.181-0.045-0.36-0.27-0.36h-0.045c-0.27,0-0.18,0.18-0.225,0.36
		c-0.945,4.319-1.845,7.739-2.565,12.284v0.135c0,0.271,0.09,0.45,0.36,0.45c0.9,0,3.015-0.135,4.05-0.314
		C192.696,49.566,192.876,49.342,192.876,49.072z"/>
	<path fill="#FFFFFF" d="M201.022,58.927c0-4.14,0.27-7.74,0.27-11.745v-2.52c-0.09-2.79-0.18-6.165-0.18-8.864v-1.936
		c0-3.735,0.945-4.365,4.59-4.365c1.71,0,3.555,0.36,4.14,0.54c0.54,0.18,1.08,0.36,1.53,0.63c2.025,1.125,2.745,3.645,3.06,6.255
		c0.135,1.079,0.225,2.34,0.225,3.645c0,3.96-0.9,8.369-4.275,8.369c-0.405,0-0.54,0.136-0.54,0.36c0,0.18,0.09,0.36,0.225,0.54
		c1.935,2.655,4.32,5.895,5.58,8.595c0.225,0.45,0.315,0.81,0.315,1.26c0,1.215-0.765,2.295-1.71,2.295
		c-2.7,0-4.05-3.375-4.995-5.22c-1.17-2.295-1.575-3.78-2.745-6.075c-0.09-0.18-0.27-0.359-0.45-0.359
		c-0.315,0-0.36,0.675-0.36,1.395c0,0.63,0.045,1.305,0.045,1.62c0.045,1.35,0.315,4.365,0.315,6.075c0,1.935-1.17,2.295-2.79,2.295
		C201.382,61.717,201.022,60.501,201.022,58.927z M206.197,35.032c-0.045,1.215-0.09,2.43-0.09,3.69c0,1.845,0.09,3.869,0.135,5.669
		c0.045,0.36,0.135,0.721,0.45,0.721h0.045c3.105-0.36,3.87-1.8,3.87-4.86c0-3.239-0.18-6.75-3.555-6.75
		C206.287,33.502,206.242,34.222,206.197,35.032z"/>
	<path fill="#FFFFFF" d="M221.047,38.272v-2.835c0-0.54,0-0.81-0.405-0.81h-0.09c-0.675,0.045-1.035,0.045-1.395,0.045h-1.215
		c-1.62-0.091-1.89-1.53-1.89-2.565c0-1.17,0.855-2.25,2.205-2.295c4.545-0.09,4.455-0.405,8.82-0.405
		c2.61,0,3.734,0.945,3.734,2.25v0.09c0,1.755-0.045,2.834-3.06,2.97c-0.9,0.045-0.405,0.045-1.395,0.09
		c-0.72,0.045-0.81,0.135-0.81,0.854v0.09c0,4.455,0.135,8.64,0.135,12.87c0,1.529-0.045,2.97-0.045,4.409
		c0,0.9,0.045,1.98,0.045,3.061c0,0.54,0,1.08-0.045,1.62c-0.18,2.744,0.405,4.229-2.34,4.229c-1.755,0-1.935-2.16-1.935-4.14v-1.62
		v-1.755C221.362,48.846,221.047,43.806,221.047,38.272z"/>
	<path fill="#FFFFFF" d="M244.492,61.851c-1.8,0-2.475-1.305-2.745-2.88c-0.27-1.53-0.495-2.43-0.72-3.96
		c-0.045-0.405-0.45-0.72-0.81-0.72h-0.045c-0.45,0.045-0.945,0.09-1.485,0.09c-0.675,0-1.395-0.045-2.025-0.045
		c-0.36,0-0.72,0-1.035,0.045c-0.54,0.09-0.81,0.585-0.81,1.17c-0.18,2.925-0.63,6.255-3.24,6.255c-1.71,0-2.115-0.766-2.115-1.845
		c0-0.45,0.045-0.945,0.135-1.485c1.575-9.359,3.78-17.504,6.525-26.009c0.315-0.945,0.675-1.8,1.215-2.655
		c0.18-0.27,0.945-0.9,1.845-0.9c2.025,0,2.61,3.015,2.97,4.77c1.485,7.694,2.655,16.244,4.229,23.984
		c0.18,0.81,0.36,1.305,0.36,2.249C246.742,60.861,245.302,61.851,244.492,61.851z M240.487,49.072v-0.136
		c-0.45-3.779-0.99-8.145-1.755-11.879c-0.045-0.181-0.045-0.36-0.27-0.36h-0.045c-0.27,0-0.18,0.18-0.225,0.36
		c-0.945,4.319-1.845,7.739-2.565,12.284v0.135c0,0.271,0.09,0.45,0.36,0.45c0.9,0,3.015-0.135,4.05-0.314
		C240.307,49.566,240.487,49.342,240.487,49.072z"/>
	<path fill="#FFFFFF" d="M260.872,54.651c-0.09-1.26-0.09-2.52-0.09-3.779c0-4.68,0.315-9.18,0.45-13.949
		c0.045-1.71,0.225-3.96,0.404-5.67c0.135-1.215,1.305-1.575,2.655-1.665h1.08c1.215,0,2.34,0.09,3.51,0.315
		c4.229,0.9,6.12,4.365,6.885,8.91c0.135,0.989,0.226,4.185,0.226,5.04c0,8.909-3.556,18.134-12.105,18.134
		c-0.404,0-0.855-0.045-1.305-0.045c-0.99,0-1.439-1.08-1.484-2.07c-0.045-1.619-0.181-3.194-0.226-4.814V54.651z M266.992,56.496
		c2.43,0,5.174-8.64,5.174-13.319c0-4.725-0.18-9.269-5.174-9.449h-0.045c-0.586,0-0.631,0.495-0.631,1.035v0.404v0.271
		c0,1.35-0.045,1.845-0.045,3.149c0,0.676,0,1.306,0.045,1.98c0.135,3.645,0.135,5.085,0.271,9.18v0.314v1.575v2.655
		c0,0.585,0,1.17,0.045,1.8C266.632,56.271,266.722,56.496,266.992,56.496z"/>
	<path fill="#FFFFFF" d="M279.412,48.622v-8.37c0-2.024,0.045-4.274,0.18-6.75v-1.26c0-1.575,0.18-2.61,1.62-2.61
		c2.565,0,1.935,0.045,4.635,0.045h0.63c1.98,0,4.41,0.09,4.41,1.98c0,2.16-1.17,2.205-3.016,2.205h-0.18h-2.025
		c-0.764,0-1.215,0-1.215,0.811v0.449c0,1.936-0.045,3.915-0.045,5.76c0,0.855,0,0.855-0.045,0.855v0.54
		c0.045,0.72,0.811,0.81,1.575,0.81c0.585,0,0.63,0,0.63,0.045h0.36c1.26,0,2.475,0.045,2.475,2.295v0.36
		c-0.09,1.305-1.215,1.484-2.521,1.484c-0.584,0-1.979-0.045-2.52-0.045c-0.225,0-0.314,3.915-0.314,4.995
		c0,1.17,0.09,2.61,0.09,2.925c0,0.765,0.135,1.44,0.855,1.44h0.045c2.024,0,1.799-0.045,3.824-0.045c1.439,0,2.16,0.63,2.16,2.34
		c0,0.135-0.045,0.314-0.045,0.449c-0.09,1.755-0.945,2.07-2.34,2.07c-0.9,0-2.07-0.135-3.42-0.135s-2.655-0.045-3.6-0.045h-0.045
		c-1.98,0-2.34-0.585-2.34-1.846C279.232,55.957,279.412,52.087,279.412,48.622z"/>
	<path fill="#FFFFFF" d="M311.271,52.627v3.06c0,0.54,0.045,1.08,0.045,1.62v1.395c0,1.665-0.18,2.88-1.936,2.88
		c-2.34,0-3.014-2.744-3.014-5.534V41.647v-1.891v-2.024c0-4.005,0.18-8.055,3.014-8.055c1.261,0,1.936,1.845,1.936,7.154v0.136
		c0,2.789-0.135,5.939-0.135,8.909v0.09c0,0.54,0.09,0.72,0.404,0.72c0.045,0,0.09-0.045,0.18-0.045
		c0.406-0.09,1.351-0.09,1.801-0.09c0.494,0,1.484,0.045,2.025,0.045c0.494,0,1.034-0.045,1.574-0.18
		c0.045,0,0.045-0.045,0.135-0.045c0.631-0.18,0.811-0.271,0.811-0.811v-6.254v-1.351v-2.744c0-3.24,0.225-5.535,2.07-5.535
		c2.068,0,2.879,2.07,2.879,4.095v3.555c0,7.47,0.586,13.68,0.586,20.699c0,1.98-0.811,3.69-2.295,3.69
		c-2.971,0-3.42-5.04-3.42-8.505v-0.811c0-0.585-0.136-1.17-0.406-1.17c-1.17,0-3.148,0.315-4.59,0.315
		C312.082,51.547,311.271,51.636,311.271,52.627z"/>
	<path fill="#FFFFFF" d="M327.246,48.622v-8.37c0-2.024,0.045-4.274,0.18-6.75v-1.26c0-1.575,0.18-2.61,1.621-2.61
		c2.564,0,1.934,0.045,4.635,0.045h0.629c1.98,0,4.41,0.09,4.41,1.98c0,2.16-1.17,2.205-3.016,2.205h-0.18h-2.023
		c-0.766,0-1.217,0-1.217,0.811v0.449c0,1.936-0.045,3.915-0.045,5.76c0,0.855,0,0.855-0.045,0.855v0.54
		c0.045,0.72,0.811,0.81,1.576,0.81c0.584,0,0.629,0,0.629,0.045h0.361c1.26,0,2.475,0.045,2.475,2.295v0.36
		c-0.09,1.305-1.215,1.484-2.52,1.484c-0.586,0-1.98-0.045-2.521-0.045c-0.225,0-0.314,3.915-0.314,4.995
		c0,1.17,0.09,2.61,0.09,2.925c0,0.765,0.135,1.44,0.855,1.44h0.045c2.025,0,1.801-0.045,3.824-0.045c1.441,0,2.16,0.63,2.16,2.34
		c0,0.135-0.045,0.314-0.045,0.449c-0.09,1.755-0.945,2.07-2.34,2.07c-0.9,0-2.07-0.135-3.42-0.135s-2.654-0.045-3.6-0.045h-0.045
		c-1.98,0-2.34-0.585-2.34-1.846C327.066,55.957,327.246,52.087,327.246,48.622z"/>
	<path fill="#FFFFFF" d="M345.381,29.677c1.664,0,1.891,4.995,1.891,8.954c0,1.801-0.047,3.375-0.047,4.186
		c0,3.734-0.18,8.145-0.18,12.06c0,0.359,0.271,0.854,0.631,0.854c0.9,0,0.584-0.045,1.439-0.045c1.576,0,3.689,0.045,4.859,0.72
		c0.945,0.54,1.215,0.99,1.215,1.98c0,2.024-1.35,3.239-3.645,3.239h-0.99c-1.619,0-1.934,0.181-3.465,0.181
		c-2.699,0-4.859-0.585-5.039-3.96c-0.045-0.945-0.09-1.98-0.09-2.925v-3.96c0-3.195,0.18-6.165,0.18-9.404
		c0-1.08-0.045-2.295-0.045-3.511C342.096,34.132,342.41,29.677,345.381,29.677z"/>
	<path fill="#FFFFFF" d="M372.336,61.851c-1.801,0-2.475-1.305-2.746-2.88c-0.27-1.53-0.494-2.43-0.719-3.96
		c-0.045-0.405-0.451-0.72-0.811-0.72h-0.045c-0.449,0.045-0.945,0.09-1.484,0.09c-0.676,0-1.396-0.045-2.025-0.045
		c-0.359,0-0.721,0-1.035,0.045c-0.539,0.09-0.811,0.585-0.811,1.17c-0.18,2.925-0.629,6.255-3.238,6.255
		c-1.711,0-2.115-0.766-2.115-1.845c0-0.45,0.045-0.945,0.135-1.485c1.574-9.359,3.779-17.504,6.523-26.009
		c0.316-0.945,0.676-1.8,1.217-2.655c0.18-0.27,0.943-0.9,1.844-0.9c2.025,0,2.609,3.015,2.971,4.77
		c1.484,7.694,2.654,16.244,4.229,23.984c0.182,0.81,0.361,1.305,0.361,2.249C374.586,60.861,373.145,61.851,372.336,61.851z
		 M368.33,49.072v-0.136c-0.449-3.779-0.99-8.145-1.754-11.879c-0.045-0.181-0.045-0.36-0.271-0.36h-0.045
		c-0.27,0-0.18,0.18-0.225,0.36c-0.945,4.319-1.844,7.739-2.564,12.284v0.135c0,0.271,0.09,0.45,0.359,0.45
		c0.9,0,3.016-0.135,4.051-0.314C368.15,49.566,368.33,49.342,368.33,49.072z"/>
	<path fill="#FFFFFF" d="M376.477,54.651c-0.092-1.26-0.092-2.52-0.092-3.779c0-4.68,0.316-9.18,0.451-13.949
		c0.045-1.71,0.225-3.96,0.404-5.67c0.135-1.215,1.305-1.575,2.654-1.665h1.08c1.215,0,2.34,0.09,3.51,0.315
		c4.23,0.9,6.121,4.365,6.885,8.91c0.137,0.989,0.227,4.185,0.227,5.04c0,8.909-3.555,18.134-12.105,18.134
		c-0.404,0-0.855-0.045-1.305-0.045c-0.99,0-1.439-1.08-1.484-2.07c-0.045-1.619-0.18-3.194-0.225-4.814V54.651z M382.596,56.496
		c2.43,0,5.174-8.64,5.174-13.319c0-4.725-0.18-9.269-5.174-9.449h-0.045c-0.586,0-0.631,0.495-0.631,1.035v0.404v0.271
		c0,1.35-0.045,1.845-0.045,3.149c0,0.676,0,1.306,0.045,1.98c0.135,3.645,0.135,5.085,0.27,9.18v0.314v1.575v2.655
		c0,0.585,0,1.17,0.047,1.8C382.236,56.271,382.326,56.496,382.596,56.496z"/>
	<path fill="#FFFFFF" d="M402.305,29.677c6.391,0,7.605,11.159,7.605,18.449c0,7.199-2.295,13.635-8.189,13.635
		c-5.131,0-7.154-5.985-7.154-15.84C394.566,40.432,396.275,29.677,402.305,29.677z M405.141,47.947v-0.811
		c0-4.904-0.09-12.824-2.836-12.824c-1.979,0-3.283,5.85-3.283,11.654s0.764,11.609,2.564,11.609
		C403.566,57.576,405.141,54.292,405.141,47.947z"/>
	<path fill="#FFFFFF" d="M429.98,42.052c0,0.226,0.045,0.405,0.045,0.585c0,1.575,0.135,2.115,0.135,3.465
		c0,1.62,0.09,2.386,0.09,5.175v5.266c0,3.329-0.404,5.31-2.699,5.31c-0.18,0-0.361,0-0.541-0.045
		c-1.26-0.226-1.529-2.61-1.529-5.22c0-6.885,0.27-12.6,0.27-19.395c0-2.34,0.09-7.2,1.891-7.83
		c0.135-0.045,0.225-0.045,0.359-0.045c0.359,0,0.766,0.135,1.215,0.405c2.16,1.305,3.285,5.265,4.096,7.604
		c0.314,0.945,0.494,1.936,0.764,2.88c0.137,0.585,1.711,7.155,1.98,7.155c0.404,0,5.939-13.815,6.436-15.21
		c0.27-0.72,1.529-2.025,2.115-2.43c0.27-0.18,0.584-0.27,0.943-0.27c1.891,0,2.521,2.655,2.701,6.165
		c0.09,2.115,0.135,3.69,0.135,5.04v2.025c0,4.454,0.314,9.179,0.314,13.679v1.485c0,2.115-0.18,3.824-2.07,3.824
		c-1.215,0-2.475-0.314-2.879-1.664c-0.721-2.476-0.855-5.04-0.855-8.1v-0.046c0-2.609,0.09-5.265,0.09-7.784
		c0-1.125,0-0.315-0.09-1.395c0-0.136-0.045-0.226-0.225-0.226c-0.721,0-4.949,16.515-6.346,16.829h-0.18
		c-0.225,0-0.449-0.09-0.584-0.18c-3.105-2.385-4.006-12.689-4.861-16.919c-0.045-0.226-0.135-0.676-0.404-0.676h-0.045
		C430.025,41.557,429.98,41.782,429.98,42.052z"/>
	<path fill="#FFFFFF" d="M466.248,61.851c-1.799,0-2.475-1.305-2.744-2.88c-0.27-1.53-0.496-2.43-0.721-3.96
		c-0.045-0.405-0.449-0.72-0.809-0.72h-0.047c-0.449,0.045-0.943,0.09-1.484,0.09c-0.674,0-1.395-0.045-2.025-0.045
		c-0.359,0-0.719,0-1.033,0.045c-0.541,0.09-0.811,0.585-0.811,1.17c-0.18,2.925-0.631,6.255-3.24,6.255
		c-1.709,0-2.115-0.766-2.115-1.845c0-0.45,0.045-0.945,0.135-1.485c1.576-9.359,3.781-17.504,6.525-26.009
		c0.314-0.945,0.676-1.8,1.215-2.655c0.18-0.27,0.945-0.9,1.846-0.9c2.023,0,2.609,3.015,2.969,4.77
		c1.484,7.694,2.656,16.244,4.23,23.984c0.18,0.81,0.359,1.305,0.359,2.249C468.498,60.861,467.059,61.851,466.248,61.851z
		 M462.244,49.072v-0.136c-0.451-3.779-0.99-8.145-1.756-11.879c-0.045-0.181-0.045-0.36-0.27-0.36h-0.045
		c-0.27,0-0.18,0.18-0.225,0.36c-0.945,4.319-1.846,7.739-2.564,12.284v0.135c0,0.271,0.09,0.45,0.359,0.45
		c0.9,0,3.014-0.135,4.049-0.314C462.064,49.566,462.244,49.342,462.244,49.072z"/>
	<path fill="#FFFFFF" d="M489.197,33.772c0,1.26,0.045,2.7,0.045,3.375c0,6.074-0.135,11.744-0.135,17.774
		c0,2.25-0.539,5.625-2.43,6.074c-0.359,0.09-0.719,0.271-1.08,0.271c-3.059,0-4.5-5.805-5.354-7.83
		c-0.855-1.979-1.307-3.734-2.205-5.625c-0.9-1.89-1.486-3.959-2.521-5.489c-0.09-0.09-0.225-0.585-0.404-0.585
		c-0.359,0-0.404,1.215-0.404,2.654c0,5.445,0.359,7.605,0.359,12.285c0,2.835-0.045,4.994-2.52,4.994c-0.18,0-0.404,0-0.631-0.045
		c-1.529-0.18-1.664-2.159-1.664-4.454v-1.71c0-1.351,0.045-2.7,0.045-3.601c0-0.899,0.045-1.71,0.045-2.609v-3.51
		c0-4.005,0.045-7.649,0.404-11.385c0.227-2.07,0.451-3.69,2.475-3.915h0.271c3.148,0,7.648,14.715,9.809,18.854
		c0.09,0.18,1.035,2.115,1.215,2.115c0.09,0,0.135-0.226,0.135-0.495c0-0.36-0.045-0.72-0.045-0.9c0.045-1.62,0.09-3.149,0.09-4.635
		c0-4.14-0.18-7.784-0.18-11.654c0-3.42,0.541-4.23,2.385-4.23C488.928,29.497,489.197,32.242,489.197,33.772z"/>
	<path fill="#FFFFFF" d="M494.51,61.356c-1.621-0.855-2.025-3.24-2.025-6.03c0-3.329,0.359-7.515,0.359-10.889
		c0-3.105,0.135-7.74,1.891-7.74c2.789,0,2.924,3.51,2.924,7.38c0,4.95-0.09,9.359-0.09,13.77c0,2.115,0,3.645-2.295,3.645h-0.314
		C494.824,61.491,494.645,61.446,494.51,61.356z M495.635,35.527c-1.352,0-2.926-1.305-2.926-3.69c0-2.16,0.9-3.24,1.98-3.24
		c0.404,0,0.854,0.18,1.305,0.495c1.125,0.855,1.754,2.34,1.754,3.87C497.748,34.718,496.758,35.527,495.635,35.527z"/>
	<path fill="#FFFFFF" d="M516.648,36.337c0,2.07-0.99,2.655-2.881,2.7c-0.943,0-2.113-0.314-2.113-1.26
		c0-2.16-1.125-2.79-1.711-2.79c-3.689,0-4.32,5.85-4.32,11.385c0,4.095,0.271,10.305,3.24,10.305c1.215,0,2.791-0.766,2.791-2.025
		c0-2.564,1.35-3.015,2.564-3.015c1.619,0,2.295,1.62,2.295,3.375c0,4.319-3.871,6.84-7.65,6.84c-6.389,0-8.055-6.435-8.055-13.949
		c0-8.415,0.945-18.225,9.539-18.225c3.42,0,6.211,2.97,6.301,6.524V36.337z"/>
	<path fill="#FFFFFF" d="M524.568,52.627v3.06c0,0.54,0.045,1.08,0.045,1.62v1.395c0,1.665-0.18,2.88-1.936,2.88
		c-2.34,0-3.016-2.744-3.016-5.534V41.647v-1.891v-2.024c0-4.005,0.182-8.055,3.016-8.055c1.26,0,1.936,1.845,1.936,7.154v0.136
		c0,2.789-0.135,5.939-0.135,8.909v0.09c0,0.54,0.09,0.72,0.404,0.72c0.045,0,0.09-0.045,0.18-0.045
		c0.404-0.09,1.35-0.09,1.801-0.09c0.494,0,1.484,0.045,2.023,0.045c0.496,0,1.035-0.045,1.576-0.18
		c0.045,0,0.045-0.045,0.135-0.045c0.629-0.18,0.811-0.271,0.811-0.811v-6.254v-1.351v-2.744c0-3.24,0.225-5.535,2.068-5.535
		c2.07,0,2.881,2.07,2.881,4.095v3.555c0,7.47,0.584,13.68,0.584,20.699c0,1.98-0.809,3.69-2.295,3.69
		c-2.969,0-3.42-5.04-3.42-8.505v-0.811c0-0.585-0.135-1.17-0.404-1.17c-1.17,0-3.15,0.315-4.59,0.315
		C525.377,51.547,524.568,51.636,524.568,52.627z"/>
	<path fill="#FFFFFF" d="M547.832,29.677c6.391,0,7.605,11.159,7.605,18.449c0,7.199-2.295,13.635-8.189,13.635
		c-5.131,0-7.154-5.985-7.154-15.84C540.094,40.432,541.803,29.677,547.832,29.677z M550.668,47.947v-0.811
		c0-4.904-0.09-12.824-2.836-12.824c-1.979,0-3.283,5.85-3.283,11.654s0.764,11.609,2.564,11.609
		C549.094,57.576,550.668,54.292,550.668,47.947z"/>
</g>
</svg>
