<?xml version="1.0" encoding="utf-8"?>
<!-- Generator: Adobe Illustrator 16.0.4, SVG Export Plug-In . SVG Version: 6.00 Build 0)  -->
<!DOCTYPE svg PUBLIC "-//W3C//DTD SVG 1.1//EN" "http://www.w3.org/Graphics/SVG/1.1/DTD/svg11.dtd">
<svg version="1.1" id="Isolation_Mode" xmlns="http://www.w3.org/2000/svg" xmlns:xlink="http://www.w3.org/1999/xlink" x="0px"
	 y="0px" width="725.5px" height="96.599px" viewBox="0 0 725.5 96.599" enable-background="new 0 0 725.5 96.599"
	 xml:space="preserve">
<path fill="#E53228" stroke="#FFFFFF" stroke-width="4" stroke-miterlimit="10" d="M16.692,30.547c0,0,5.458,9.375,7.279,17.898
	c1.82,8.523-5.459,34.092,9.098,33.24c14.559-0.853,81.89,8.523,120.106,5.966c38.215-2.557,247.489,1.705,254.77,2.558
	c7.279,0.852,212.913-7.671,212.913-7.671s52.774-0.853,65.513-0.853c12.737,0,25.478-42.615,23.657-56.251
	c-1.821-13.637,32.755-18.751-112.826-14.489c-145.582,4.261-429.466-0.853-429.466-0.853L29.433,11.796
	C29.43,11.796,3.952,9.239,16.692,30.547z"/>
<g enable-background="new    ">
	<path fill="#FFFFFF" d="M148.372,61.851c-1.8,0-2.475-1.305-2.745-2.88c-0.27-1.53-0.495-2.43-0.72-3.96
		c-0.045-0.405-0.45-0.72-0.81-0.72h-0.045c-0.45,0.045-0.945,0.09-1.485,0.09c-0.675,0-1.395-0.045-2.025-0.045
		c-0.36,0-0.72,0-1.035,0.045c-0.54,0.09-0.81,0.585-0.81,1.17c-0.18,2.925-0.63,6.255-3.24,6.255c-1.71,0-2.115-0.766-2.115-1.845
		c0-0.45,0.045-0.945,0.135-1.485c1.575-9.359,3.78-17.504,6.525-26.009c0.315-0.945,0.675-1.8,1.215-2.655
		c0.18-0.27,0.945-0.9,1.845-0.9c2.025,0,2.61,3.015,2.97,4.77c1.485,7.694,2.655,16.244,4.229,23.984
		c0.18,0.81,0.36,1.305,0.36,2.249C150.622,60.861,149.182,61.851,148.372,61.851z M144.367,49.072v-0.136
		c-0.45-3.779-0.99-8.145-1.755-11.879c-0.045-0.181-0.045-0.36-0.27-0.36h-0.045c-0.27,0-0.18,0.18-0.225,0.36
		c-0.945,4.319-1.845,7.739-2.565,12.284v0.135c0,0.271,0.09,0.45,0.36,0.45c0.9,0,3.015-0.135,4.05-0.314
		C144.187,49.566,144.367,49.342,144.367,49.072z"/>
	<path fill="#FFFFFF" d="M157.461,57.981c0,0.45,0.045,0.9,0.045,1.305c0,1.261-0.225,2.115-1.845,2.115
		c-2.88,0-3.06-1.125-3.06-3.24v-0.854v-1.125c0-2.025,0.225-4.95,0.225-7.2c0-2.43-0.09-4.949-0.135-7.56
		c-0.045-1.665-0.18-4.05-0.18-6.569c0-1.71,0.045-3.15,0.315-3.645c0.72-1.575,2.07-1.665,4.005-1.665h0.315
		c3.105,0,2.025,0.135,4.455,0.135c1.53,0,2.34,1.305,2.34,2.52c0,1.395-1.44,2.16-2.115,2.16h-1.08h-0.54
		c-0.405,0-1.035,0-2.025,0.045c-0.45,0-0.9,0.765-0.9,1.755l0.135,7.74c0.135,1.034-0.09,1.755,0.765,1.8h0.135h0.72
		c0.405,0,0.9,0,1.665,0.045c1.71,0.135,2.34,1.215,2.34,2.385c0,0.945-0.9,2.16-2.79,2.16h-0.45h-0.135
		c-0.765,0-2.025,0.135-2.07,0.81v0.45v0.72C157.597,52.627,157.461,55.552,157.461,57.981z"/>
	<path fill="#FFFFFF" d="M171.951,57.981c0,0.45,0.045,0.9,0.045,1.305c0,1.261-0.225,2.115-1.845,2.115
		c-2.88,0-3.06-1.125-3.06-3.24v-0.854v-1.125c0-2.025,0.225-4.95,0.225-7.2c0-2.43-0.09-4.949-0.135-7.56
		c-0.045-1.665-0.18-4.05-0.18-6.569c0-1.71,0.045-3.15,0.315-3.645c0.72-1.575,2.07-1.665,4.005-1.665h0.315
		c3.105,0,2.025,0.135,4.455,0.135c1.53,0,2.34,1.305,2.34,2.52c0,1.395-1.44,2.16-2.115,2.16h-1.08h-0.54
		c-0.405,0-1.035,0-2.025,0.045c-0.45,0-0.9,0.765-0.9,1.755l0.135,7.74c0.135,1.034-0.09,1.755,0.765,1.8h0.135h0.72
		c0.405,0,0.9,0,1.665,0.045c1.71,0.135,2.34,1.215,2.34,2.385c0,0.945-0.9,2.16-2.79,2.16h-0.45h-0.135
		c-0.765,0-2.025,0.135-2.07,0.81v0.45v0.72C172.086,52.627,171.951,55.552,171.951,57.981z"/>
	<path fill="#FFFFFF" d="M187.701,29.677c6.39,0,7.604,11.159,7.604,18.449c0,7.199-2.295,13.635-8.189,13.635
		c-5.13,0-7.155-5.985-7.155-15.84C179.961,40.432,181.671,29.677,187.701,29.677z M190.536,47.947v-0.811
		c0-4.904-0.09-12.824-2.835-12.824c-1.98,0-3.285,5.85-3.285,11.654s0.765,11.609,2.565,11.609
		C188.961,57.576,190.536,54.292,190.536,47.947z"/>
	<path fill="#FFFFFF" d="M211.955,50.467c0-0.27-0.135-0.405-0.495-0.405h-0.045c-1.665,0-2.925-0.135-4.365-0.135
		c-0.9,0-1.845-0.585-1.845-1.484c0-0.676,0.315-1.62,0.72-1.98c0.765-0.72,2.7-0.854,4.545-0.854c1.35,0,2.7,0.09,3.465,0.09
		c1.53,0,2.475,1.305,2.61,2.88c0.18,1.395,0.27,2.114,0.27,3.6c0,6.705-2.025,9.854-8.595,9.854c-6.93,0-9.854-8.685-9.854-15.524
		c0-8.46,3.06-16.829,11.205-16.829c4.635,0,6.569,2.385,6.569,6.569c0,0.54,0.045,1.17,0.045,1.755c0,0.945-0.135,1.8-0.99,1.936
		c-0.495,0.09-0.99,0.135-1.485,0.135c-1.755,0-1.98-1.755-2.07-3.24c-0.135-2.069-0.855-2.79-1.8-2.79
		c-1.62,0-3.87,2.385-4.68,4.14c-1.305,2.835-1.935,5.039-1.935,8.909c0,2.43,0.315,4.365,1.44,6.255
		c0.495,0.855,0.945,1.71,1.575,2.475c0.72,0.9,1.35,1.846,2.655,1.846C211.91,57.667,211.955,52.851,211.955,50.467z"/>
	<path fill="#FFFFFF" d="M233.735,61.851c-1.8,0-2.475-1.305-2.745-2.88c-0.27-1.53-0.495-2.43-0.72-3.96
		c-0.045-0.405-0.45-0.72-0.81-0.72h-0.045c-0.45,0.045-0.945,0.09-1.485,0.09c-0.675,0-1.395-0.045-2.025-0.045
		c-0.36,0-0.72,0-1.035,0.045c-0.54,0.09-0.81,0.585-0.81,1.17c-0.18,2.925-0.63,6.255-3.24,6.255c-1.71,0-2.115-0.766-2.115-1.845
		c0-0.45,0.045-0.945,0.135-1.485c1.575-9.359,3.78-17.504,6.525-26.009c0.315-0.945,0.675-1.8,1.215-2.655
		c0.18-0.27,0.945-0.9,1.845-0.9c2.025,0,2.61,3.015,2.97,4.77c1.485,7.694,2.655,16.244,4.229,23.984
		c0.18,0.81,0.36,1.305,0.36,2.249C235.985,60.861,234.545,61.851,233.735,61.851z M229.73,49.072v-0.136
		c-0.45-3.779-0.99-8.145-1.755-11.879c-0.045-0.181-0.045-0.36-0.27-0.36h-0.045c-0.27,0-0.18,0.18-0.225,0.36
		c-0.945,4.319-1.845,7.739-2.565,12.284v0.135c0,0.271,0.09,0.45,0.36,0.45c0.9,0,3.015-0.135,4.05-0.314
		C229.55,49.566,229.73,49.342,229.73,49.072z"/>
	<path fill="#FFFFFF" d="M239.226,38.272v-2.835c0-0.54,0-0.81-0.405-0.81h-0.09c-0.675,0.045-1.035,0.045-1.395,0.045h-1.215
		c-1.62-0.091-1.89-1.53-1.89-2.565c0-1.17,0.855-2.25,2.205-2.295c4.545-0.09,4.455-0.405,8.82-0.405
		c2.61,0,3.734,0.945,3.734,2.25v0.09c0,1.755-0.045,2.834-3.06,2.97c-0.9,0.045-0.405,0.045-1.395,0.09
		c-0.72,0.045-0.81,0.135-0.81,0.854v0.09c0,4.455,0.135,8.64,0.135,12.87c0,1.529-0.045,2.97-0.045,4.409
		c0,0.9,0.045,1.98,0.045,3.061c0,0.54,0,1.08-0.045,1.62c-0.18,2.744,0.405,4.229-2.34,4.229c-1.755,0-1.935-2.16-1.935-4.14v-1.62
		v-1.755C239.541,48.846,239.226,43.806,239.226,38.272z"/>
	<path fill="#FFFFFF" d="M257.451,29.677c6.389,0,7.604,11.159,7.604,18.449c0,7.199-2.295,13.635-8.189,13.635
		c-5.129,0-7.154-5.985-7.154-15.84C249.711,40.432,251.421,29.677,257.451,29.677z M260.285,47.947v-0.811
		c0-4.904-0.09-12.824-2.834-12.824c-1.98,0-3.285,5.85-3.285,11.654s0.765,11.609,2.564,11.609
		C258.711,57.576,260.285,54.292,260.285,47.947z"/>
	<path fill="#FFFFFF" d="M280.715,54.651c-0.09-1.26-0.09-2.52-0.09-3.779c0-4.68,0.314-9.18,0.449-13.949
		c0.045-1.71,0.226-3.96,0.406-5.67c0.135-1.215,1.305-1.575,2.654-1.665h1.08c1.215,0,2.34,0.09,3.51,0.315
		c4.23,0.9,6.119,4.365,6.885,8.91c0.135,0.989,0.225,4.185,0.225,5.04c0,8.909-3.555,18.134-12.104,18.134
		c-0.406,0-0.855-0.045-1.306-0.045c-0.989,0-1.44-1.08-1.485-2.07c-0.045-1.619-0.18-3.194-0.225-4.814V54.651z M286.834,56.496
		c2.43,0,5.176-8.64,5.176-13.319c0-4.725-0.18-9.269-5.176-9.449h-0.045c-0.584,0-0.629,0.495-0.629,1.035v0.404v0.271
		c0,1.35-0.045,1.845-0.045,3.149c0,0.676,0,1.306,0.045,1.98c0.135,3.645,0.135,5.085,0.27,9.18v0.314v1.575v2.655
		c0,0.585,0,1.17,0.045,1.8C286.475,56.271,286.564,56.496,286.834,56.496z"/>
	<path fill="#FFFFFF" d="M299.256,48.622v-8.37c0-2.024,0.045-4.274,0.18-6.75v-1.26c0-1.575,0.18-2.61,1.619-2.61
		c2.564,0,1.936,0.045,4.635,0.045h0.631c1.979,0,4.41,0.09,4.41,1.98c0,2.16-1.17,2.205-3.016,2.205h-0.18h-2.025
		c-0.766,0-1.215,0-1.215,0.811v0.449c0,1.936-0.045,3.915-0.045,5.76c0,0.855,0,0.855-0.045,0.855v0.54
		c0.045,0.72,0.811,0.81,1.574,0.81c0.586,0,0.631,0,0.631,0.045h0.359c1.26,0,2.475,0.045,2.475,2.295v0.36
		c-0.09,1.305-1.215,1.484-2.52,1.484c-0.584,0-1.98-0.045-2.52-0.045c-0.225,0-0.314,3.915-0.314,4.995
		c0,1.17,0.09,2.61,0.09,2.925c0,0.765,0.135,1.44,0.854,1.44h0.047c2.023,0,1.799-0.045,3.824-0.045c1.439,0,2.16,0.63,2.16,2.34
		c0,0.135-0.045,0.314-0.045,0.449c-0.09,1.755-0.945,2.07-2.34,2.07c-0.9,0-2.07-0.135-3.42-0.135c-1.352,0-2.656-0.045-3.6-0.045
		h-0.047c-1.979,0-2.34-0.585-2.34-1.846C299.074,55.957,299.256,52.087,299.256,48.622z"/>
	<path fill="#FFFFFF" d="M331.115,52.627v3.06c0,0.54,0.045,1.08,0.045,1.62v1.395c0,1.665-0.18,2.88-1.936,2.88
		c-2.34,0-3.016-2.744-3.016-5.534V41.647v-1.891v-2.024c0-4.005,0.182-8.055,3.016-8.055c1.26,0,1.936,1.845,1.936,7.154v0.136
		c0,2.789-0.135,5.939-0.135,8.909v0.09c0,0.54,0.09,0.72,0.404,0.72c0.045,0,0.09-0.045,0.18-0.045
		c0.404-0.09,1.35-0.09,1.801-0.09c0.494,0,1.484,0.045,2.023,0.045c0.496,0,1.035-0.045,1.576-0.18
		c0.045,0,0.045-0.045,0.135-0.045c0.629-0.18,0.811-0.271,0.811-0.811v-6.254v-1.351v-2.744c0-3.24,0.225-5.535,2.068-5.535
		c2.07,0,2.881,2.07,2.881,4.095v3.555c0,7.47,0.584,13.68,0.584,20.699c0,1.98-0.809,3.69-2.295,3.69
		c-2.969,0-3.42-5.04-3.42-8.505v-0.811c0-0.585-0.135-1.17-0.404-1.17c-1.17,0-3.15,0.315-4.59,0.315
		C331.924,51.547,331.115,51.636,331.115,52.627z"/>
	<path fill="#FFFFFF" d="M347.09,48.622v-8.37c0-2.024,0.045-4.274,0.18-6.75v-1.26c0-1.575,0.18-2.61,1.619-2.61
		c2.564,0,1.936,0.045,4.635,0.045h0.631c1.979,0,4.41,0.09,4.41,1.98c0,2.16-1.17,2.205-3.016,2.205h-0.18h-2.025
		c-0.766,0-1.215,0-1.215,0.811v0.449c0,1.936-0.045,3.915-0.045,5.76c0,0.855,0,0.855-0.045,0.855v0.54
		c0.045,0.72,0.811,0.81,1.574,0.81c0.586,0,0.631,0,0.631,0.045h0.359c1.26,0,2.475,0.045,2.475,2.295v0.36
		c-0.09,1.305-1.215,1.484-2.52,1.484c-0.584,0-1.98-0.045-2.52-0.045c-0.225,0-0.314,3.915-0.314,4.995
		c0,1.17,0.09,2.61,0.09,2.925c0,0.765,0.135,1.44,0.854,1.44h0.047c2.023,0,1.799-0.045,3.824-0.045c1.439,0,2.16,0.63,2.16,2.34
		c0,0.135-0.045,0.314-0.045,0.449c-0.09,1.755-0.945,2.07-2.34,2.07c-0.9,0-2.07-0.135-3.42-0.135c-1.352,0-2.656-0.045-3.6-0.045
		h-0.047c-1.979,0-2.34-0.585-2.34-1.846C346.908,55.957,347.09,52.087,347.09,48.622z"/>
	<path fill="#FFFFFF" d="M365.225,29.677c1.664,0,1.891,4.995,1.891,8.954c0,1.801-0.047,3.375-0.047,4.186
		c0,3.734-0.18,8.145-0.18,12.06c0,0.359,0.271,0.854,0.631,0.854c0.9,0,0.584-0.045,1.439-0.045c1.576,0,3.689,0.045,4.859,0.72
		c0.945,0.54,1.215,0.99,1.215,1.98c0,2.024-1.35,3.239-3.645,3.239h-0.99c-1.619,0-1.934,0.181-3.465,0.181
		c-2.699,0-4.859-0.585-5.039-3.96c-0.045-0.945-0.09-1.98-0.09-2.925v-3.96c0-3.195,0.18-6.165,0.18-9.404
		c0-1.08-0.045-2.295-0.045-3.511C361.939,34.132,362.254,29.677,365.225,29.677z"/>
	<path fill="#FFFFFF" d="M392.178,61.851c-1.799,0-2.475-1.305-2.744-2.88c-0.27-1.53-0.496-2.43-0.721-3.96
		c-0.045-0.405-0.449-0.72-0.809-0.72h-0.047c-0.449,0.045-0.943,0.09-1.484,0.09c-0.674,0-1.395-0.045-2.025-0.045
		c-0.359,0-0.719,0-1.033,0.045c-0.541,0.09-0.811,0.585-0.811,1.17c-0.18,2.925-0.631,6.255-3.24,6.255
		c-1.709,0-2.115-0.766-2.115-1.845c0-0.45,0.045-0.945,0.135-1.485c1.576-9.359,3.781-17.504,6.525-26.009
		c0.314-0.945,0.676-1.8,1.215-2.655c0.18-0.27,0.945-0.9,1.846-0.9c2.023,0,2.609,3.015,2.969,4.77
		c1.484,7.694,2.656,16.244,4.23,23.984c0.18,0.81,0.359,1.305,0.359,2.249C394.428,60.861,392.988,61.851,392.178,61.851z
		 M388.174,49.072v-0.136c-0.451-3.779-0.99-8.145-1.756-11.879c-0.045-0.181-0.045-0.36-0.27-0.36h-0.045
		c-0.27,0-0.18,0.18-0.225,0.36c-0.945,4.319-1.846,7.739-2.564,12.284v0.135c0,0.271,0.09,0.45,0.359,0.45
		c0.9,0,3.014-0.135,4.049-0.314C387.994,49.566,388.174,49.342,388.174,49.072z"/>
	<path fill="#FFFFFF" d="M396.32,54.651c-0.092-1.26-0.092-2.52-0.092-3.779c0-4.68,0.316-9.18,0.451-13.949
		c0.045-1.71,0.225-3.96,0.404-5.67c0.135-1.215,1.305-1.575,2.654-1.665h1.08c1.215,0,2.34,0.09,3.51,0.315
		c4.23,0.9,6.121,4.365,6.885,8.91c0.137,0.989,0.227,4.185,0.227,5.04c0,8.909-3.555,18.134-12.105,18.134
		c-0.404,0-0.855-0.045-1.305-0.045c-0.99,0-1.439-1.08-1.484-2.07c-0.045-1.619-0.18-3.194-0.225-4.814V54.651z M402.439,56.496
		c2.43,0,5.174-8.64,5.174-13.319c0-4.725-0.18-9.269-5.174-9.449h-0.045c-0.586,0-0.631,0.495-0.631,1.035v0.404v0.271
		c0,1.35-0.045,1.845-0.045,3.149c0,0.676,0,1.306,0.045,1.98c0.135,3.645,0.135,5.085,0.27,9.18v0.314v1.575v2.655
		c0,0.585,0,1.17,0.047,1.8C402.08,56.271,402.17,56.496,402.439,56.496z"/>
	<path fill="#FFFFFF" d="M422.148,29.677c6.389,0,7.605,11.159,7.605,18.449c0,7.199-2.295,13.635-8.191,13.635
		c-5.129,0-7.154-5.985-7.154-15.84C414.408,40.432,416.119,29.677,422.148,29.677z M424.982,47.947v-0.811
		c0-4.904-0.09-12.824-2.834-12.824c-1.98,0-3.285,5.85-3.285,11.654s0.766,11.609,2.564,11.609
		C423.408,57.576,424.982,54.292,424.982,47.947z"/>
	<path fill="#FFFFFF" d="M448.789,53.122c0,0.72,0.045,0.989,0.045,2.25c0,1.89,0.854,2.609,2.385,2.609
		c2.43,0,2.564-2.475,2.564-4.59c0-8.954-6.84-4.68-9.18-11.609c-0.225-0.72-0.314-1.53-0.314-2.34c0-4.455,1.844-9.945,7.199-9.945
		s6.975,2.205,6.975,7.515c0,1.439-1.395,1.71-2.205,1.71c-3.014,0-1.215-4.68-4.455-4.68c-2.475,0-3.014,3.69-3.014,5.4
		c0,1.439,0.809,2.385,1.799,2.88c4.455,2.25,8.189,4.59,8.189,11.294c0,4.365-2.295,8.686-7.604,8.686c-4.455,0-7.02-3.42-7.02-8.1
		c0-2.835,0.539-3.87,2.52-3.87C448.428,50.332,448.789,52.042,448.789,53.122z"/>
	<path fill="#FFFFFF" d="M475.293,61.851c-1.799,0-2.475-1.305-2.744-2.88c-0.27-1.53-0.496-2.43-0.721-3.96
		c-0.045-0.405-0.449-0.72-0.809-0.72h-0.047c-0.449,0.045-0.943,0.09-1.484,0.09c-0.674,0-1.395-0.045-2.025-0.045
		c-0.359,0-0.719,0-1.033,0.045c-0.541,0.09-0.811,0.585-0.811,1.17c-0.18,2.925-0.631,6.255-3.24,6.255
		c-1.709,0-2.115-0.766-2.115-1.845c0-0.45,0.045-0.945,0.135-1.485c1.576-9.359,3.781-17.504,6.525-26.009
		c0.314-0.945,0.676-1.8,1.215-2.655c0.18-0.27,0.945-0.9,1.846-0.9c2.023,0,2.609,3.015,2.969,4.77
		c1.484,7.694,2.656,16.244,4.23,23.984c0.18,0.81,0.359,1.305,0.359,2.249C477.543,60.861,476.104,61.851,475.293,61.851z
		 M471.289,49.072v-0.136c-0.451-3.779-0.99-8.145-1.756-11.879c-0.045-0.181-0.045-0.36-0.27-0.36h-0.045
		c-0.27,0-0.18,0.18-0.225,0.36c-0.945,4.319-1.846,7.739-2.564,12.284v0.135c0,0.271,0.09,0.45,0.359,0.45
		c0.9,0,3.014-0.135,4.049-0.314C471.109,49.566,471.289,49.342,471.289,49.072z M469.174,28.012c-0.359,0-0.586-0.225-0.586-0.585
		v-0.18c0.361-2.07,3.42-5.535,5.131-6.39c0.539-0.225,1.125-0.45,1.619-0.45c0.676,0,1.125,0.54,1.125,1.26
		C476.463,24.188,471.199,28.012,469.174,28.012z"/>
	<path fill="#FFFFFF" d="M498.242,33.772c0,1.26,0.045,2.7,0.045,3.375c0,6.074-0.135,11.744-0.135,17.774
		c0,2.25-0.539,5.625-2.43,6.074c-0.359,0.09-0.719,0.271-1.08,0.271c-3.059,0-4.5-5.805-5.354-7.83
		c-0.855-1.979-1.307-3.734-2.205-5.625c-0.9-1.89-1.486-3.959-2.521-5.489c-0.09-0.09-0.225-0.585-0.404-0.585
		c-0.359,0-0.404,1.215-0.404,2.654c0,5.445,0.359,7.605,0.359,12.285c0,2.835-0.045,4.994-2.52,4.994c-0.18,0-0.404,0-0.631-0.045
		c-1.529-0.18-1.664-2.159-1.664-4.454v-1.71c0-1.351,0.045-2.7,0.045-3.601c0-0.899,0.045-1.71,0.045-2.609v-3.51
		c0-4.005,0.045-7.649,0.404-11.385c0.227-2.07,0.451-3.69,2.475-3.915h0.271c3.148,0,7.648,14.715,9.809,18.854
		c0.09,0.18,1.035,2.115,1.215,2.115c0.09,0,0.135-0.226,0.135-0.495c0-0.36-0.045-0.72-0.045-0.9c0.045-1.62,0.09-3.149,0.09-4.635
		c0-4.14-0.18-7.784-0.18-11.654c0-3.42,0.541-4.23,2.385-4.23C497.973,29.497,498.242,32.242,498.242,33.772z"/>
	<path fill="#FFFFFF" d="M501.799,54.651c-0.092-1.26-0.092-2.52-0.092-3.779c0-4.68,0.316-9.18,0.451-13.949
		c0.045-1.71,0.225-3.96,0.404-5.67c0.135-1.215,1.305-1.575,2.654-1.665h1.08c1.215,0,2.34,0.09,3.51,0.315
		c4.23,0.9,6.121,4.365,6.885,8.91c0.137,0.989,0.227,4.185,0.227,5.04c0,8.909-3.555,18.134-12.105,18.134
		c-0.404,0-0.855-0.045-1.305-0.045c-0.99,0-1.439-1.08-1.484-2.07c-0.045-1.619-0.18-3.194-0.225-4.814V54.651z M507.918,56.496
		c2.43,0,5.174-8.64,5.174-13.319c0-4.725-0.18-9.269-5.174-9.449h-0.045c-0.586,0-0.631,0.495-0.631,1.035v0.404v0.271
		c0,1.35-0.045,1.845-0.045,3.149c0,0.676,0,1.306,0.045,1.98c0.135,3.645,0.135,5.085,0.27,9.18v0.314v1.575v2.655
		c0,0.585,0,1.17,0.047,1.8C507.559,56.271,507.648,56.496,507.918,56.496z"/>
	<path fill="#FFFFFF" d="M536.402,34.807c0,3.734,0.135,6.39,0.135,10.8c0,4.319-0.451,8.549-1.711,11.654
		c-1.395,3.375-4.139,4.59-6.389,4.59c-8.596,0-8.596-13.77-8.596-22.229v-0.045c0-0.585-0.045-1.484-0.045-2.475
		c0-3.105,0.27-7.29,2.564-7.29c1.08,0,1.215,4.23,1.215,7.74c0,1.26-0.045,0.81-0.045,1.664c0,0.45,0,0.811,0.045,1.035
		c0.361,4.59-0.584,17.819,3.961,17.819c2.969-0.314,3.555-11.43,3.555-14.85v-1.529c0-1.665-0.18-3.96-0.18-5.94
		c0-3.419,0.359-6.254,3.375-6.254c1.934,0,2.115,1.125,2.115,3.15V34.807z"/>
	<path fill="#FFFFFF" d="M555.393,36.337c0,2.07-0.99,2.655-2.881,2.7c-0.943,0-2.113-0.314-2.113-1.26
		c0-2.16-1.125-2.79-1.711-2.79c-3.689,0-4.32,5.85-4.32,11.385c0,4.095,0.271,10.305,3.24,10.305c1.215,0,2.791-0.766,2.791-2.025
		c0-2.564,1.35-3.015,2.564-3.015c1.619,0,2.295,1.62,2.295,3.375c0,4.319-3.871,6.84-7.65,6.84c-6.389,0-8.055-6.435-8.055-13.949
		c0-8.415,0.945-18.225,9.539-18.225c3.42,0,6.211,2.97,6.301,6.524V36.337z"/>
	<path fill="#FFFFFF" d="M563.312,52.627v3.06c0,0.54,0.045,1.08,0.045,1.62v1.395c0,1.665-0.18,2.88-1.936,2.88
		c-2.34,0-3.016-2.744-3.016-5.534V41.647v-1.891v-2.024c0-4.005,0.182-8.055,3.016-8.055c1.26,0,1.936,1.845,1.936,7.154v0.136
		c0,2.789-0.135,5.939-0.135,8.909v0.09c0,0.54,0.09,0.72,0.404,0.72c0.045,0,0.09-0.045,0.18-0.045
		c0.404-0.09,1.35-0.09,1.801-0.09c0.494,0,1.484,0.045,2.023,0.045c0.496,0,1.035-0.045,1.576-0.18
		c0.045,0,0.045-0.045,0.135-0.045c0.629-0.18,0.811-0.271,0.811-0.811v-6.254v-1.351v-2.744c0-3.24,0.225-5.535,2.068-5.535
		c2.07,0,2.881,2.07,2.881,4.095v3.555c0,7.47,0.584,13.68,0.584,20.699c0,1.98-0.809,3.69-2.295,3.69
		c-2.969,0-3.42-5.04-3.42-8.505v-0.811c0-0.585-0.135-1.17-0.404-1.17c-1.17,0-3.15,0.315-4.59,0.315
		C564.121,51.547,563.312,51.636,563.312,52.627z"/>
	<path fill="#FFFFFF" d="M579.287,48.622v-8.37c0-2.024,0.045-4.274,0.18-6.75v-1.26c0-1.575,0.18-2.61,1.621-2.61
		c2.564,0,1.934,0.045,4.635,0.045h0.629c1.98,0,4.41,0.09,4.41,1.98c0,2.16-1.17,2.205-3.016,2.205h-0.18h-2.023
		c-0.766,0-1.217,0-1.217,0.811v0.449c0,1.936-0.045,3.915-0.045,5.76c0,0.855,0,0.855-0.045,0.855v0.54
		c0.045,0.72,0.811,0.81,1.576,0.81c0.584,0,0.629,0,0.629,0.045h0.361c1.26,0,2.475,0.045,2.475,2.295v0.36
		c-0.09,1.305-1.215,1.484-2.52,1.484c-0.586,0-1.98-0.045-2.521-0.045c-0.225,0-0.314,3.915-0.314,4.995
		c0,1.17,0.09,2.61,0.09,2.925c0,0.765,0.135,1.44,0.855,1.44h0.045c2.025,0,1.801-0.045,3.824-0.045c1.441,0,2.16,0.63,2.16,2.34
		c0,0.135-0.045,0.314-0.045,0.449c-0.09,1.755-0.945,2.07-2.34,2.07c-0.9,0-2.07-0.135-3.42-0.135s-2.654-0.045-3.6-0.045h-0.045
		c-1.98,0-2.34-0.585-2.34-1.846C579.107,55.957,579.287,52.087,579.287,48.622z"/>
</g>
</svg>
