<?xml version="1.0" encoding="utf-8"?>
<!-- Generator: Adobe Illustrator 16.0.4, SVG Export Plug-In . SVG Version: 6.00 Build 0)  -->
<!DOCTYPE svg PUBLIC "-//W3C//DTD SVG 1.1//EN" "http://www.w3.org/Graphics/SVG/1.1/DTD/svg11.dtd">
<svg version="1.1" id="Isolation_Mode" xmlns="http://www.w3.org/2000/svg" xmlns:xlink="http://www.w3.org/1999/xlink" x="0px"
	 y="0px" width="725.5px" height="96.599px" viewBox="0 0 725.5 96.599" enable-background="new 0 0 725.5 96.599"
	 xml:space="preserve">
<path fill="#E53228" stroke="#FFFFFF" stroke-width="4" stroke-miterlimit="10" d="M16.692,30.547c0,0,5.458,9.375,7.279,17.898
	c1.82,8.523-5.459,34.092,9.098,33.24c14.559-0.853,81.89,8.523,120.106,5.966c38.215-2.557,247.489,1.705,254.77,2.558
	c7.279,0.852,212.913-7.671,212.913-7.671s52.774-0.853,65.513-0.853c12.737,0,25.478-42.615,23.657-56.251
	c-1.821-13.637,32.755-18.751-112.826-14.489c-145.582,4.261-429.466-0.853-429.466-0.853L29.433,11.796
	C29.43,11.796,3.952,9.239,16.692,30.547z"/>
<g enable-background="new    ">
	<path fill="#FFFFFF" d="M36.933,44.302c0-2.654-0.09-5.354-0.09-8.055c0-0.449,0.045-0.944,0.045-1.439l-0.045-0.54
		c0-0.63-0.09-1.17-0.09-1.845c0-0.585,0.09-1.395,0.27-1.845c0.27-0.9,3.15-0.99,5.265-0.99c4.95,0,10.35,1.35,10.485,6.614
		c0,4.5-3.87,5.13-3.87,5.805c0,0.045,0,0.045,0.045,0.045c0.63,0,5.444,2.835,5.58,7.965v0.405c0,7.515-5.76,11.249-12.734,11.249
		h-0.585h-0.405c-1.62,0-3.735-0.09-3.825-1.979c-0.045-2.564-0.135-5.22-0.135-7.784C36.843,49.297,36.933,46.867,36.933,44.302z
		 M41.928,40.792c2.115,0,6.21-1.979,6.21-4.319c0-2.835-3.195-3.15-5.805-3.15h-1.08c-0.225,0-0.27,2.025-0.27,3.825
		c0,1.395,0.045,2.745,0.045,3.06C41.028,40.792,41.388,40.792,41.928,40.792z M44.853,44.707c-1.215,0-2.34,0.225-3.33,0.81
		c-0.27,0.136-0.405,0.405-0.405,0.721c0,0.63,0.045,1.215,0.045,1.845c0,1.484-0.045,2.925-0.045,4.41
		c0,0.359-0.045,0.81-0.045,1.35c0,0.99,0.09,2.115,0.675,2.205c0.585,0.09,1.125,0.09,1.62,0.09c3.735,0,6.435-2.115,6.435-6.21
		C49.802,46.282,48.317,44.707,44.853,44.707z"/>
	<path fill="#FFFFFF" d="M70.817,61.851c-1.8,0-2.475-1.305-2.745-2.88c-0.27-1.53-0.495-2.43-0.72-3.96
		c-0.045-0.405-0.45-0.72-0.81-0.72h-0.045c-0.45,0.045-0.945,0.09-1.485,0.09c-0.675,0-1.395-0.045-2.025-0.045
		c-0.36,0-0.72,0-1.035,0.045c-0.54,0.09-0.81,0.585-0.81,1.17c-0.18,2.925-0.63,6.255-3.24,6.255c-1.71,0-2.115-0.766-2.115-1.845
		c0-0.45,0.045-0.945,0.135-1.485c1.575-9.359,3.78-17.504,6.525-26.009c0.315-0.945,0.675-1.8,1.215-2.655
		c0.18-0.27,0.945-0.9,1.845-0.9c2.025,0,2.61,3.015,2.97,4.77c1.485,7.694,2.655,16.244,4.229,23.984
		c0.18,0.81,0.36,1.305,0.36,2.249C73.067,60.861,71.627,61.851,70.817,61.851z M66.812,49.072v-0.136
		c-0.45-3.779-0.99-8.145-1.755-11.879c-0.045-0.181-0.045-0.36-0.27-0.36h-0.045c-0.27,0-0.18,0.18-0.225,0.36
		c-0.945,4.319-1.845,7.739-2.565,12.284v0.135c0,0.271,0.09,0.45,0.36,0.45c0.9,0,3.015-0.135,4.05-0.314
		C66.632,49.566,66.812,49.342,66.812,49.072z"/>
	<path fill="#FFFFFF" d="M74.958,58.927c0-4.14,0.27-7.74,0.27-11.745v-2.52c-0.09-2.79-0.18-6.165-0.18-8.864v-1.936
		c0-3.735,0.945-4.365,4.59-4.365c1.71,0,3.555,0.36,4.14,0.54c0.54,0.18,1.08,0.36,1.53,0.63c2.025,1.125,2.745,3.645,3.06,6.255
		c0.135,1.079,0.225,2.34,0.225,3.645c0,3.96-0.9,8.369-4.275,8.369c-0.405,0-0.54,0.136-0.54,0.36c0,0.18,0.09,0.36,0.225,0.54
		c1.935,2.655,4.32,5.895,5.58,8.595c0.225,0.45,0.315,0.81,0.315,1.26c0,1.215-0.765,2.295-1.71,2.295
		c-2.7,0-4.05-3.375-4.995-5.22c-1.17-2.295-1.575-3.78-2.745-6.075c-0.09-0.18-0.27-0.359-0.45-0.359
		c-0.315,0-0.36,0.675-0.36,1.395c0,0.63,0.045,1.305,0.045,1.62c0.045,1.35,0.315,4.365,0.315,6.075c0,1.935-1.17,2.295-2.79,2.295
		C75.317,61.717,74.958,60.501,74.958,58.927z M80.132,35.032c-0.045,1.215-0.09,2.43-0.09,3.69c0,1.845,0.09,3.869,0.135,5.669
		c0.045,0.36,0.135,0.721,0.45,0.721h0.045c3.105-0.36,3.87-1.8,3.87-4.86c0-3.239-0.18-6.75-3.555-6.75
		C80.222,33.502,80.177,34.222,80.132,35.032z"/>
	<path fill="#FFFFFF" d="M92.552,58.927c0-4.14,0.27-7.74,0.27-11.745v-2.52c-0.09-2.79-0.18-6.165-0.18-8.864v-1.936
		c0-3.735,0.945-4.365,4.59-4.365c1.71,0,3.555,0.36,4.14,0.54c0.54,0.18,1.08,0.36,1.53,0.63c2.025,1.125,2.745,3.645,3.06,6.255
		c0.135,1.079,0.225,2.34,0.225,3.645c0,3.96-0.9,8.369-4.274,8.369c-0.405,0-0.54,0.136-0.54,0.36c0,0.18,0.09,0.36,0.225,0.54
		c1.935,2.655,4.32,5.895,5.58,8.595c0.225,0.45,0.315,0.81,0.315,1.26c0,1.215-0.765,2.295-1.71,2.295
		c-2.7,0-4.05-3.375-4.995-5.22c-1.17-2.295-1.575-3.78-2.745-6.075c-0.09-0.18-0.27-0.359-0.45-0.359
		c-0.315,0-0.36,0.675-0.36,1.395c0,0.63,0.045,1.305,0.045,1.62c0.045,1.35,0.315,4.365,0.315,6.075c0,1.935-1.17,2.295-2.79,2.295
		C92.912,61.717,92.552,60.501,92.552,58.927z M97.727,35.032c-0.045,1.215-0.09,2.43-0.09,3.69c0,1.845,0.09,3.869,0.135,5.669
		c0.045,0.36,0.135,0.721,0.45,0.721h0.045c3.105-0.36,3.87-1.8,3.87-4.86c0-3.239-0.18-6.75-3.555-6.75
		C97.816,33.502,97.771,34.222,97.727,35.032z"/>
	<path fill="#FFFFFF" d="M111.901,61.356c-1.62-0.855-2.025-3.24-2.025-6.03c0-3.329,0.36-7.515,0.36-10.889
		c0-3.105,0.135-7.74,1.89-7.74c2.79,0,2.925,3.51,2.925,7.38c0,4.95-0.09,9.359-0.09,13.77c0,2.115,0,3.645-2.295,3.645h-0.315
		C112.216,61.491,112.036,61.446,111.901,61.356z M113.026,35.527c-1.35,0-2.925-1.305-2.925-3.69c0-2.16,0.9-3.24,1.98-3.24
		c0.405,0,0.855,0.18,1.305,0.495c1.125,0.855,1.755,2.34,1.755,3.87C115.141,34.718,114.151,35.527,113.026,35.527z"/>
	<path fill="#FFFFFF" d="M122.566,38.272v-2.835c0-0.54,0-0.81-0.405-0.81h-0.09c-0.675,0.045-1.035,0.045-1.395,0.045h-1.215
		c-1.62-0.091-1.89-1.53-1.89-2.565c0-1.17,0.855-2.25,2.205-2.295c4.545-0.09,4.455-0.405,8.82-0.405
		c2.61,0,3.735,0.945,3.735,2.25v0.09c0,1.755-0.045,2.834-3.06,2.97c-0.9,0.045-0.405,0.045-1.395,0.09
		c-0.72,0.045-0.81,0.135-0.81,0.854v0.09c0,4.455,0.135,8.64,0.135,12.87c0,1.529-0.045,2.97-0.045,4.409
		c0,0.9,0.045,1.98,0.045,3.061c0,0.54,0,1.08-0.045,1.62c-0.18,2.744,0.405,4.229-2.34,4.229c-1.755,0-1.935-2.16-1.935-4.14v-1.62
		v-1.755C122.881,48.846,122.566,43.806,122.566,38.272z"/>
	<path fill="#FFFFFF" d="M146.011,61.851c-1.8,0-2.475-1.305-2.745-2.88c-0.27-1.53-0.495-2.43-0.72-3.96
		c-0.045-0.405-0.45-0.72-0.81-0.72h-0.045c-0.45,0.045-0.945,0.09-1.485,0.09c-0.675,0-1.395-0.045-2.025-0.045
		c-0.36,0-0.72,0-1.035,0.045c-0.54,0.09-0.81,0.585-0.81,1.17c-0.18,2.925-0.63,6.255-3.24,6.255c-1.71,0-2.115-0.766-2.115-1.845
		c0-0.45,0.045-0.945,0.135-1.485c1.575-9.359,3.78-17.504,6.525-26.009c0.315-0.945,0.675-1.8,1.215-2.655
		c0.18-0.27,0.945-0.9,1.845-0.9c2.025,0,2.61,3.015,2.97,4.77c1.485,7.694,2.655,16.244,4.229,23.984
		c0.18,0.81,0.36,1.305,0.36,2.249C148.261,60.861,146.821,61.851,146.011,61.851z M142.006,49.072v-0.136
		c-0.45-3.779-0.99-8.145-1.755-11.879c-0.045-0.181-0.045-0.36-0.27-0.36h-0.045c-0.27,0-0.18,0.18-0.225,0.36
		c-0.945,4.319-1.845,7.739-2.565,12.284v0.135c0,0.271,0.09,0.45,0.36,0.45c0.9,0,3.015-0.135,4.05-0.314
		C141.826,49.566,142.006,49.342,142.006,49.072z"/>
	<path fill="#FFFFFF" d="M154.426,53.122c0,0.72,0.045,0.989,0.045,2.25c0,1.89,0.855,2.609,2.385,2.609
		c2.43,0,2.564-2.475,2.564-4.59c0-8.954-6.84-4.68-9.18-11.609c-0.225-0.72-0.315-1.53-0.315-2.34c0-4.455,1.845-9.945,7.2-9.945
		c5.355,0,6.975,2.205,6.975,7.515c0,1.439-1.395,1.71-2.205,1.71c-3.015,0-1.215-4.68-4.455-4.68c-2.474,0-3.014,3.69-3.014,5.4
		c0,1.439,0.81,2.385,1.799,2.88c4.455,2.25,8.19,4.59,8.19,11.294c0,4.365-2.295,8.686-7.604,8.686c-4.455,0-7.02-3.42-7.02-8.1
		c0-2.835,0.54-3.87,2.52-3.87C154.066,50.332,154.426,52.042,154.426,53.122z"/>
	<path fill="#FFFFFF" d="M179.985,54.651c-0.09-1.26-0.09-2.52-0.09-3.779c0-4.68,0.315-9.18,0.45-13.949
		c0.045-1.71,0.226-3.96,0.405-5.67c0.135-1.215,1.305-1.575,2.654-1.665h1.08c1.215,0,2.34,0.09,3.51,0.315
		c4.23,0.9,6.121,4.365,6.885,8.91c0.135,0.989,0.225,4.185,0.225,5.04c0,8.909-3.555,18.134-12.104,18.134
		c-0.405,0-0.855-0.045-1.305-0.045c-0.99,0-1.44-1.08-1.485-2.07c-0.045-1.619-0.181-3.194-0.226-4.814V54.651z M186.106,56.496
		c2.43,0,5.174-8.64,5.174-13.319c0-4.725-0.18-9.269-5.174-9.449h-0.045c-0.586,0-0.631,0.495-0.631,1.035v0.404v0.271
		c0,1.35-0.045,1.845-0.045,3.149c0,0.676,0,1.306,0.045,1.98c0.135,3.645,0.135,5.085,0.27,9.18v0.314v1.575v2.655
		c0,0.585,0,1.17,0.045,1.8C185.745,56.271,185.835,56.496,186.106,56.496z"/>
	<path fill="#FFFFFF" d="M198.526,48.622v-8.37c0-2.024,0.045-4.274,0.18-6.75v-1.26c0-1.575,0.18-2.61,1.619-2.61
		c2.564,0,1.936,0.045,4.635,0.045h0.631c1.979,0,4.41,0.09,4.41,1.98c0,2.16-1.17,2.205-3.016,2.205h-0.18h-2.025
		c-0.766,0-1.215,0-1.215,0.811v0.449c0,1.936-0.045,3.915-0.045,5.76c0,0.855,0,0.855-0.045,0.855v0.54
		c0.045,0.72,0.811,0.81,1.574,0.81c0.586,0,0.631,0,0.631,0.045h0.359c1.26,0,2.475,0.045,2.475,2.295v0.36
		c-0.09,1.305-1.215,1.484-2.52,1.484c-0.584,0-1.98-0.045-2.52-0.045c-0.225,0-0.314,3.915-0.314,4.995
		c0,1.17,0.09,2.61,0.09,2.925c0,0.765,0.135,1.44,0.854,1.44h0.047c2.023,0,1.799-0.045,3.824-0.045c1.439,0,2.16,0.63,2.16,2.34
		c0,0.135-0.045,0.314-0.045,0.449c-0.09,1.755-0.945,2.07-2.34,2.07c-0.9,0-2.07-0.135-3.42-0.135c-1.352,0-2.656-0.045-3.6-0.045
		h-0.047c-1.979,0-2.34-0.585-2.34-1.846C198.345,55.957,198.526,52.087,198.526,48.622z"/>
	<path fill="#FFFFFF" d="M230.386,52.627v3.06c0,0.54,0.045,1.08,0.045,1.62v1.395c0,1.665-0.18,2.88-1.936,2.88
		c-2.34,0-3.016-2.744-3.016-5.534V41.647v-1.891v-2.024c0-4.005,0.182-8.055,3.016-8.055c1.26,0,1.936,1.845,1.936,7.154v0.136
		c0,2.789-0.135,5.939-0.135,8.909v0.09c0,0.54,0.09,0.72,0.404,0.72c0.045,0,0.09-0.045,0.18-0.045
		c0.404-0.09,1.35-0.09,1.801-0.09c0.494,0,1.484,0.045,2.023,0.045c0.496,0,1.035-0.045,1.576-0.18
		c0.045,0,0.045-0.045,0.135-0.045c0.629-0.18,0.811-0.271,0.811-0.811v-6.254v-1.351v-2.744c0-3.24,0.225-5.535,2.068-5.535
		c2.07,0,2.881,2.07,2.881,4.095v3.555c0,7.47,0.584,13.68,0.584,20.699c0,1.98-0.809,3.69-2.295,3.69
		c-2.969,0-3.42-5.04-3.42-8.505v-0.811c0-0.585-0.135-1.17-0.404-1.17c-1.17,0-3.15,0.315-4.59,0.315
		C231.194,51.547,230.386,51.636,230.386,52.627z"/>
	<path fill="#FFFFFF" d="M246.36,48.622v-8.37c0-2.024,0.045-4.274,0.18-6.75v-1.26c0-1.575,0.18-2.61,1.619-2.61
		c2.564,0,1.936,0.045,4.635,0.045h0.631c1.979,0,4.41,0.09,4.41,1.98c0,2.16-1.17,2.205-3.016,2.205h-0.18h-2.025
		c-0.766,0-1.215,0-1.215,0.811v0.449c0,1.936-0.045,3.915-0.045,5.76c0,0.855,0,0.855-0.045,0.855v0.54
		c0.045,0.72,0.811,0.81,1.574,0.81c0.586,0,0.631,0,0.631,0.045h0.359c1.26,0,2.475,0.045,2.475,2.295v0.36
		c-0.09,1.305-1.215,1.484-2.52,1.484c-0.584,0-1.98-0.045-2.52-0.045c-0.225,0-0.314,3.915-0.314,4.995
		c0,1.17,0.09,2.61,0.09,2.925c0,0.765,0.135,1.44,0.854,1.44h0.047c2.023,0,1.799-0.045,3.824-0.045c1.439,0,2.16,0.63,2.16,2.34
		c0,0.135-0.045,0.314-0.045,0.449c-0.09,1.755-0.945,2.07-2.34,2.07c-0.9,0-2.07-0.135-3.42-0.135c-1.352,0-2.656-0.045-3.6-0.045
		h-0.047c-1.979,0-2.34-0.585-2.34-1.846C246.179,55.957,246.36,52.087,246.36,48.622z"/>
	<path fill="#FFFFFF" d="M264.495,29.677c1.664,0,1.891,4.995,1.891,8.954c0,1.801-0.047,3.375-0.047,4.186
		c0,3.734-0.18,8.145-0.18,12.06c0,0.359,0.271,0.854,0.631,0.854c0.9,0,0.584-0.045,1.439-0.045c1.576,0,3.689,0.045,4.859,0.72
		c0.945,0.54,1.215,0.99,1.215,1.98c0,2.024-1.35,3.239-3.645,3.239h-0.99c-1.619,0-1.934,0.181-3.465,0.181
		c-2.699,0-4.859-0.585-5.039-3.96c-0.045-0.945-0.09-1.98-0.09-2.925v-3.96c0-3.195,0.18-6.165,0.18-9.404
		c0-1.08-0.045-2.295-0.045-3.511C261.21,34.132,261.524,29.677,264.495,29.677z"/>
	<path fill="#FFFFFF" d="M291.45,61.851c-1.801,0-2.475-1.305-2.746-2.88c-0.27-1.53-0.494-2.43-0.719-3.96
		c-0.045-0.405-0.451-0.72-0.811-0.72h-0.045c-0.449,0.045-0.945,0.09-1.484,0.09c-0.676,0-1.396-0.045-2.025-0.045
		c-0.359,0-0.721,0-1.035,0.045c-0.539,0.09-0.811,0.585-0.811,1.17c-0.18,2.925-0.629,6.255-3.238,6.255
		c-1.711,0-2.115-0.766-2.115-1.845c0-0.45,0.045-0.945,0.135-1.485c1.574-9.359,3.779-17.504,6.523-26.009
		c0.316-0.945,0.676-1.8,1.217-2.655c0.18-0.27,0.943-0.9,1.844-0.9c2.025,0,2.609,3.015,2.971,4.77
		c1.484,7.694,2.654,16.244,4.229,23.984c0.182,0.81,0.361,1.305,0.361,2.249C293.7,60.861,292.259,61.851,291.45,61.851z
		 M287.444,49.072v-0.136c-0.449-3.779-0.99-8.145-1.754-11.879c-0.045-0.181-0.045-0.36-0.271-0.36h-0.045
		c-0.27,0-0.18,0.18-0.225,0.36c-0.945,4.319-1.844,7.739-2.564,12.284v0.135c0,0.271,0.09,0.45,0.359,0.45
		c0.9,0,3.016-0.135,4.051-0.314C287.265,49.566,287.444,49.342,287.444,49.072z"/>
	<path fill="#FFFFFF" d="M295.591,54.651c-0.092-1.26-0.092-2.52-0.092-3.779c0-4.68,0.316-9.18,0.451-13.949
		c0.045-1.71,0.225-3.96,0.404-5.67c0.135-1.215,1.305-1.575,2.654-1.665h1.08c1.215,0,2.34,0.09,3.51,0.315
		c4.23,0.9,6.121,4.365,6.885,8.91c0.137,0.989,0.227,4.185,0.227,5.04c0,8.909-3.555,18.134-12.105,18.134
		c-0.404,0-0.855-0.045-1.305-0.045c-0.99,0-1.439-1.08-1.484-2.07c-0.045-1.619-0.18-3.194-0.225-4.814V54.651z M301.71,56.496
		c2.43,0,5.174-8.64,5.174-13.319c0-4.725-0.18-9.269-5.174-9.449h-0.045c-0.586,0-0.631,0.495-0.631,1.035v0.404v0.271
		c0,1.35-0.045,1.845-0.045,3.149c0,0.676,0,1.306,0.045,1.98c0.135,3.645,0.135,5.085,0.27,9.18v0.314v1.575v2.655
		c0,0.585,0,1.17,0.047,1.8C301.351,56.271,301.44,56.496,301.71,56.496z"/>
	<path fill="#FFFFFF" d="M321.419,29.677c6.389,0,7.605,11.159,7.605,18.449c0,7.199-2.295,13.635-8.191,13.635
		c-5.129,0-7.154-5.985-7.154-15.84C313.679,40.432,315.39,29.677,321.419,29.677z M324.253,47.947v-0.811
		c0-4.904-0.09-12.824-2.834-12.824c-1.98,0-3.285,5.85-3.285,11.654s0.766,11.609,2.564,11.609
		C322.679,57.576,324.253,54.292,324.253,47.947z"/>
	<path fill="#FFFFFF" d="M349.093,42.052c0,0.226,0.045,0.405,0.045,0.585c0,1.575,0.135,2.115,0.135,3.465
		c0,1.62,0.092,2.386,0.092,5.175v5.266c0,3.329-0.406,5.31-2.701,5.31c-0.18,0-0.359,0-0.539-0.045
		c-1.26-0.226-1.531-2.61-1.531-5.22c0-6.885,0.271-12.6,0.271-19.395c0-2.34,0.09-7.2,1.889-7.83
		c0.135-0.045,0.225-0.045,0.361-0.045c0.359,0,0.764,0.135,1.215,0.405c2.16,1.305,3.285,5.265,4.094,7.604
		c0.314,0.945,0.496,1.936,0.766,2.88c0.135,0.585,1.709,7.155,1.98,7.155c0.404,0,5.939-13.815,6.434-15.21
		c0.27-0.72,1.531-2.025,2.115-2.43c0.27-0.18,0.586-0.27,0.945-0.27c1.889,0,2.52,2.655,2.699,6.165
		c0.09,2.115,0.135,3.69,0.135,5.04v2.025c0,4.454,0.316,9.179,0.316,13.679v1.485c0,2.115-0.182,3.824-2.07,3.824
		c-1.215,0-2.475-0.314-2.881-1.664c-0.719-2.476-0.854-5.04-0.854-8.1v-0.046c0-2.609,0.09-5.265,0.09-7.784
		c0-1.125,0-0.315-0.09-1.395c0-0.136-0.045-0.226-0.227-0.226c-0.719,0-4.949,16.515-6.344,16.829h-0.18
		c-0.227,0-0.451-0.09-0.586-0.18c-3.105-2.385-4.004-12.689-4.859-16.919c-0.045-0.226-0.135-0.676-0.404-0.676h-0.045
		C349.138,41.557,349.093,41.782,349.093,42.052z"/>
	<path fill="#FFFFFF" d="M385.362,61.851c-1.799,0-2.475-1.305-2.744-2.88c-0.27-1.53-0.496-2.43-0.721-3.96
		c-0.045-0.405-0.449-0.72-0.809-0.72h-0.047c-0.449,0.045-0.943,0.09-1.484,0.09c-0.674,0-1.395-0.045-2.025-0.045
		c-0.359,0-0.719,0-1.033,0.045c-0.541,0.09-0.811,0.585-0.811,1.17c-0.18,2.925-0.631,6.255-3.24,6.255
		c-1.709,0-2.115-0.766-2.115-1.845c0-0.45,0.045-0.945,0.135-1.485c1.576-9.359,3.781-17.504,6.525-26.009
		c0.314-0.945,0.676-1.8,1.215-2.655c0.18-0.27,0.945-0.9,1.846-0.9c2.023,0,2.609,3.015,2.969,4.77
		c1.484,7.694,2.656,16.244,4.23,23.984c0.18,0.81,0.359,1.305,0.359,2.249C387.612,60.861,386.173,61.851,385.362,61.851z
		 M381.358,49.072v-0.136c-0.451-3.779-0.99-8.145-1.756-11.879c-0.045-0.181-0.045-0.36-0.27-0.36h-0.045
		c-0.27,0-0.18,0.18-0.225,0.36c-0.945,4.319-1.846,7.739-2.564,12.284v0.135c0,0.271,0.09,0.45,0.359,0.45
		c0.9,0,3.014-0.135,4.049-0.314C381.179,49.566,381.358,49.342,381.358,49.072z"/>
	<path fill="#FFFFFF" d="M408.312,33.772c0,1.26,0.045,2.7,0.045,3.375c0,6.074-0.135,11.744-0.135,17.774
		c0,2.25-0.539,5.625-2.43,6.074c-0.359,0.09-0.719,0.271-1.08,0.271c-3.059,0-4.5-5.805-5.354-7.83
		c-0.855-1.979-1.307-3.734-2.205-5.625c-0.9-1.89-1.486-3.959-2.521-5.489c-0.09-0.09-0.225-0.585-0.404-0.585
		c-0.359,0-0.404,1.215-0.404,2.654c0,5.445,0.359,7.605,0.359,12.285c0,2.835-0.045,4.994-2.52,4.994c-0.18,0-0.404,0-0.631-0.045
		c-1.529-0.18-1.664-2.159-1.664-4.454v-1.71c0-1.351,0.045-2.7,0.045-3.601c0-0.899,0.045-1.71,0.045-2.609v-3.51
		c0-4.005,0.045-7.649,0.404-11.385c0.227-2.07,0.451-3.69,2.475-3.915h0.271c3.148,0,7.648,14.715,9.809,18.854
		c0.09,0.18,1.035,2.115,1.215,2.115c0.09,0,0.135-0.226,0.135-0.495c0-0.36-0.045-0.72-0.045-0.9c0.045-1.62,0.09-3.149,0.09-4.635
		c0-4.14-0.18-7.784-0.18-11.654c0-3.42,0.541-4.23,2.385-4.23C408.042,29.497,408.312,32.242,408.312,33.772z"/>
	<path fill="#FFFFFF" d="M420.913,51.952v-2.34c0-5.625-0.451-11.61-0.721-17.01c-0.045-0.18-0.045-0.36-0.045-0.54
		c0-1.53,0.494-2.43,2.475-2.43c0.811,0,1.756,0.585,2.16,2.7c0.676,3.69,1.17,12.915,1.17,17.955c0,6.975-1.395,12.06-7.514,12.06
		c-1.801,0-3.42-0.676-4.5-1.71c-2.115-2.07-2.836-4.726-2.836-8.595c0-1.755,0.631-2.925,2.475-2.925
		c1.486,0,2.025,1.439,2.16,3.824c0.18,2.431,0.9,3.601,2.701,3.601C420.507,56.542,420.913,54.427,420.913,51.952z"/>
	<path fill="#FFFFFF" d="M442.376,61.851c-1.799,0-2.475-1.305-2.744-2.88c-0.27-1.53-0.496-2.43-0.721-3.96
		c-0.045-0.405-0.449-0.72-0.809-0.72h-0.047c-0.449,0.045-0.943,0.09-1.484,0.09c-0.674,0-1.395-0.045-2.025-0.045
		c-0.359,0-0.719,0-1.033,0.045c-0.541,0.09-0.811,0.585-0.811,1.17c-0.18,2.925-0.631,6.255-3.24,6.255
		c-1.709,0-2.115-0.766-2.115-1.845c0-0.45,0.045-0.945,0.135-1.485c1.576-9.359,3.781-17.504,6.525-26.009
		c0.314-0.945,0.676-1.8,1.215-2.655c0.18-0.27,0.945-0.9,1.846-0.9c2.023,0,2.609,3.015,2.969,4.77
		c1.484,7.694,2.656,16.244,4.23,23.984c0.18,0.81,0.359,1.305,0.359,2.249C444.626,60.861,443.187,61.851,442.376,61.851z
		 M438.372,49.072v-0.136c-0.451-3.779-0.99-8.145-1.756-11.879c-0.045-0.181-0.045-0.36-0.27-0.36h-0.045
		c-0.27,0-0.18,0.18-0.225,0.36c-0.945,4.319-1.846,7.739-2.564,12.284v0.135c0,0.271,0.09,0.45,0.359,0.45
		c0.9,0,3.014-0.135,4.049-0.314C438.192,49.566,438.372,49.342,438.372,49.072z"/>
	<path fill="#FFFFFF" d="M446.519,58.927c0-4.14,0.27-7.74,0.27-11.745v-2.52c-0.09-2.79-0.18-6.165-0.18-8.864v-1.936
		c0-3.735,0.943-4.365,4.59-4.365c1.709,0,3.555,0.36,4.139,0.54c0.541,0.18,1.08,0.36,1.529,0.63
		c2.025,1.125,2.746,3.645,3.061,6.255c0.135,1.079,0.225,2.34,0.225,3.645c0,3.96-0.898,8.369-4.273,8.369
		c-0.406,0-0.541,0.136-0.541,0.36c0,0.18,0.09,0.36,0.225,0.54c1.936,2.655,4.32,5.895,5.58,8.595
		c0.225,0.45,0.314,0.81,0.314,1.26c0,1.215-0.764,2.295-1.709,2.295c-2.699,0-4.051-3.375-4.994-5.22
		c-1.17-2.295-1.576-3.78-2.746-6.075c-0.09-0.18-0.27-0.359-0.449-0.359c-0.314,0-0.359,0.675-0.359,1.395
		c0,0.63,0.045,1.305,0.045,1.62c0.045,1.35,0.314,4.365,0.314,6.075c0,1.935-1.17,2.295-2.791,2.295
		C446.878,61.717,446.519,60.501,446.519,58.927z M451.692,35.032c-0.045,1.215-0.09,2.43-0.09,3.69c0,1.845,0.09,3.869,0.135,5.669
		c0.045,0.36,0.135,0.721,0.449,0.721h0.045c3.105-0.36,3.871-1.8,3.871-4.86c0-3.239-0.18-6.75-3.555-6.75
		C451.782,33.502,451.737,34.222,451.692,35.032z"/>
	<path fill="#FFFFFF" d="M476.353,54.651c-0.092-1.26-0.092-2.52-0.092-3.779c0-4.68,0.316-9.18,0.451-13.949
		c0.045-1.71,0.225-3.96,0.404-5.67c0.135-1.215,1.305-1.575,2.654-1.665h1.08c1.215,0,2.34,0.09,3.51,0.315
		c4.23,0.9,6.121,4.365,6.885,8.91c0.137,0.989,0.227,4.185,0.227,5.04c0,8.909-3.555,18.134-12.105,18.134
		c-0.404,0-0.855-0.045-1.305-0.045c-0.99,0-1.439-1.08-1.484-2.07c-0.045-1.619-0.18-3.194-0.225-4.814V54.651z M482.472,56.496
		c2.43,0,5.174-8.64,5.174-13.319c0-4.725-0.18-9.269-5.174-9.449h-0.045c-0.586,0-0.631,0.495-0.631,1.035v0.404v0.271
		c0,1.35-0.045,1.845-0.045,3.149c0,0.676,0,1.306,0.045,1.98c0.135,3.645,0.135,5.085,0.27,9.18v0.314v1.575v2.655
		c0,0.585,0,1.17,0.047,1.8C482.112,56.271,482.202,56.496,482.472,56.496z"/>
	<path fill="#FFFFFF" d="M494.892,48.622v-8.37c0-2.024,0.045-4.274,0.18-6.75v-1.26c0-1.575,0.18-2.61,1.621-2.61
		c2.564,0,1.934,0.045,4.635,0.045h0.629c1.98,0,4.41,0.09,4.41,1.98c0,2.16-1.17,2.205-3.016,2.205h-0.18h-2.023
		c-0.766,0-1.217,0-1.217,0.811v0.449c0,1.936-0.045,3.915-0.045,5.76c0,0.855,0,0.855-0.045,0.855v0.54
		c0.045,0.72,0.811,0.81,1.576,0.81c0.584,0,0.629,0,0.629,0.045h0.361c1.26,0,2.475,0.045,2.475,2.295v0.36
		c-0.09,1.305-1.215,1.484-2.52,1.484c-0.586,0-1.98-0.045-2.521-0.045c-0.225,0-0.314,3.915-0.314,4.995
		c0,1.17,0.09,2.61,0.09,2.925c0,0.765,0.135,1.44,0.855,1.44h0.045c2.025,0,1.801-0.045,3.824-0.045c1.441,0,2.16,0.63,2.16,2.34
		c0,0.135-0.045,0.314-0.045,0.449c-0.09,1.755-0.945,2.07-2.34,2.07c-0.9,0-2.07-0.135-3.42-0.135s-2.654-0.045-3.6-0.045h-0.045
		c-1.98,0-2.34-0.585-2.34-1.846C494.712,55.957,494.892,52.087,494.892,48.622z"/>
	<path fill="#FFFFFF" d="M536.021,61.851c-1.799,0-2.475-1.305-2.744-2.88c-0.27-1.53-0.496-2.43-0.721-3.96
		c-0.045-0.405-0.449-0.72-0.809-0.72H531.7c-0.449,0.045-0.943,0.09-1.484,0.09c-0.674,0-1.395-0.045-2.025-0.045
		c-0.359,0-0.719,0-1.033,0.045c-0.541,0.09-0.811,0.585-0.811,1.17c-0.18,2.925-0.631,6.255-3.24,6.255
		c-1.709,0-2.115-0.766-2.115-1.845c0-0.45,0.045-0.945,0.135-1.485c1.576-9.359,3.781-17.504,6.525-26.009
		c0.314-0.945,0.676-1.8,1.215-2.655c0.18-0.27,0.945-0.9,1.846-0.9c2.023,0,2.609,3.015,2.969,4.77
		c1.484,7.694,2.656,16.244,4.23,23.984c0.18,0.81,0.359,1.305,0.359,2.249C538.271,60.861,536.831,61.851,536.021,61.851z
		 M532.017,49.072v-0.136c-0.451-3.779-0.99-8.145-1.756-11.879c-0.045-0.181-0.045-0.36-0.27-0.36h-0.045
		c-0.27,0-0.18,0.18-0.225,0.36c-0.945,4.319-1.846,7.739-2.564,12.284v0.135c0,0.271,0.09,0.45,0.359,0.45
		c0.9,0,3.014-0.135,4.049-0.314C531.837,49.566,532.017,49.342,532.017,49.072z"/>
	<path fill="#FFFFFF" d="M543.491,29.677c1.664,0,1.891,4.995,1.891,8.954c0,1.801-0.047,3.375-0.047,4.186
		c0,3.734-0.18,8.145-0.18,12.06c0,0.359,0.271,0.854,0.631,0.854c0.9,0,0.584-0.045,1.439-0.045c1.576,0,3.689,0.045,4.859,0.72
		c0.945,0.54,1.215,0.99,1.215,1.98c0,2.024-1.35,3.239-3.645,3.239h-0.99c-1.619,0-1.934,0.181-3.465,0.181
		c-2.699,0-4.859-0.585-5.039-3.96c-0.045-0.945-0.09-1.98-0.09-2.925v-3.96c0-3.195,0.18-6.165,0.18-9.404
		c0-1.08-0.045-2.295-0.045-3.511C540.206,34.132,540.521,29.677,543.491,29.677z"/>
	<path fill="#FFFFFF" d="M560.771,42.052c0,0.226,0.045,0.405,0.045,0.585c0,1.575,0.135,2.115,0.135,3.465
		c0,1.62,0.092,2.386,0.092,5.175v5.266c0,3.329-0.406,5.31-2.701,5.31c-0.18,0-0.359,0-0.539-0.045
		c-1.26-0.226-1.531-2.61-1.531-5.22c0-6.885,0.271-12.6,0.271-19.395c0-2.34,0.09-7.2,1.889-7.83
		c0.135-0.045,0.225-0.045,0.361-0.045c0.359,0,0.764,0.135,1.215,0.405c2.16,1.305,3.285,5.265,4.094,7.604
		c0.314,0.945,0.496,1.936,0.766,2.88c0.135,0.585,1.709,7.155,1.98,7.155c0.404,0,5.939-13.815,6.434-15.21
		c0.27-0.72,1.531-2.025,2.115-2.43c0.27-0.18,0.586-0.27,0.945-0.27c1.889,0,2.52,2.655,2.699,6.165
		c0.09,2.115,0.135,3.69,0.135,5.04v2.025c0,4.454,0.316,9.179,0.316,13.679v1.485c0,2.115-0.182,3.824-2.07,3.824
		c-1.215,0-2.475-0.314-2.881-1.664c-0.719-2.476-0.854-5.04-0.854-8.1v-0.046c0-2.609,0.09-5.265,0.09-7.784
		c0-1.125,0-0.315-0.09-1.395c0-0.136-0.045-0.226-0.227-0.226c-0.719,0-4.949,16.515-6.344,16.829h-0.18
		c-0.227,0-0.451-0.09-0.586-0.18c-3.105-2.385-4.004-12.689-4.859-16.919c-0.045-0.226-0.135-0.676-0.404-0.676h-0.045
		C560.815,41.557,560.771,41.782,560.771,42.052z"/>
	<path fill="#FFFFFF" d="M583.091,48.622v-8.37c0-2.024,0.045-4.274,0.18-6.75v-1.26c0-1.575,0.18-2.61,1.619-2.61
		c2.564,0,1.936,0.045,4.635,0.045h0.631c1.979,0,4.41,0.09,4.41,1.98c0,2.16-1.17,2.205-3.016,2.205h-0.18h-2.025
		c-0.766,0-1.215,0-1.215,0.811v0.449c0,1.936-0.045,3.915-0.045,5.76c0,0.855,0,0.855-0.045,0.855v0.54
		c0.045,0.72,0.811,0.81,1.574,0.81c0.586,0,0.631,0,0.631,0.045h0.359c1.26,0,2.475,0.045,2.475,2.295v0.36
		c-0.09,1.305-1.215,1.484-2.52,1.484c-0.584,0-1.98-0.045-2.52-0.045c-0.225,0-0.314,3.915-0.314,4.995
		c0,1.17,0.09,2.61,0.09,2.925c0,0.765,0.135,1.44,0.854,1.44h0.047c2.023,0,1.799-0.045,3.824-0.045c1.439,0,2.16,0.63,2.16,2.34
		c0,0.135-0.045,0.314-0.045,0.449c-0.09,1.755-0.945,2.07-2.34,2.07c-0.9,0-2.07-0.135-3.42-0.135c-1.352,0-2.656-0.045-3.6-0.045
		h-0.047c-1.979,0-2.34-0.585-2.34-1.846C582.909,55.957,583.091,52.087,583.091,48.622z"/>
	<path fill="#FFFFFF" d="M616.704,33.772c0,1.26,0.045,2.7,0.045,3.375c0,6.074-0.135,11.744-0.135,17.774
		c0,2.25-0.539,5.625-2.43,6.074c-0.359,0.09-0.719,0.271-1.08,0.271c-3.059,0-4.5-5.805-5.354-7.83
		c-0.855-1.979-1.307-3.734-2.205-5.625c-0.9-1.89-1.486-3.959-2.521-5.489c-0.09-0.09-0.225-0.585-0.404-0.585
		c-0.359,0-0.404,1.215-0.404,2.654c0,5.445,0.359,7.605,0.359,12.285c0,2.835-0.045,4.994-2.52,4.994c-0.18,0-0.404,0-0.631-0.045
		c-1.529-0.18-1.664-2.159-1.664-4.454v-1.71c0-1.351,0.045-2.7,0.045-3.601c0-0.899,0.045-1.71,0.045-2.609v-3.51
		c0-4.005,0.045-7.649,0.404-11.385c0.227-2.07,0.451-3.69,2.475-3.915h0.271c3.148,0,7.648,14.715,9.809,18.854
		c0.09,0.18,1.035,2.115,1.215,2.115c0.09,0,0.135-0.226,0.135-0.495c0-0.36-0.045-0.72-0.045-0.9c0.045-1.62,0.09-3.149,0.09-4.635
		c0-4.14-0.18-7.784-0.18-11.654c0-3.42,0.541-4.23,2.385-4.23C616.435,29.497,616.704,32.242,616.704,33.772z"/>
	<path fill="#FFFFFF" d="M620.261,54.651c-0.092-1.26-0.092-2.52-0.092-3.779c0-4.68,0.316-9.18,0.451-13.949
		c0.045-1.71,0.225-3.96,0.404-5.67c0.135-1.215,1.305-1.575,2.654-1.665h1.08c1.215,0,2.34,0.09,3.51,0.315
		c4.23,0.9,6.121,4.365,6.885,8.91c0.137,0.989,0.227,4.185,0.227,5.04c0,8.909-3.555,18.134-12.105,18.134
		c-0.404,0-0.855-0.045-1.305-0.045c-0.99,0-1.439-1.08-1.484-2.07c-0.045-1.619-0.18-3.194-0.225-4.814V54.651z M626.38,56.496
		c2.43,0,5.174-8.64,5.174-13.319c0-4.725-0.18-9.269-5.174-9.449h-0.045c-0.586,0-0.631,0.495-0.631,1.035v0.404v0.271
		c0,1.35-0.045,1.845-0.045,3.149c0,0.676,0,1.306,0.045,1.98c0.135,3.645,0.135,5.085,0.27,9.18v0.314v1.575v2.655
		c0,0.585,0,1.17,0.047,1.8C626.021,56.271,626.11,56.496,626.38,56.496z"/>
	<path fill="#FFFFFF" d="M638.665,58.927c0-4.14,0.27-7.74,0.27-11.745v-2.52c-0.09-2.79-0.18-6.165-0.18-8.864v-1.936
		c0-3.735,0.943-4.365,4.59-4.365c1.709,0,3.555,0.36,4.139,0.54c0.541,0.18,1.08,0.36,1.529,0.63
		c2.025,1.125,2.746,3.645,3.061,6.255c0.135,1.079,0.225,2.34,0.225,3.645c0,3.96-0.898,8.369-4.273,8.369
		c-0.406,0-0.541,0.136-0.541,0.36c0,0.18,0.09,0.36,0.225,0.54c1.936,2.655,4.32,5.895,5.58,8.595
		c0.225,0.45,0.314,0.81,0.314,1.26c0,1.215-0.764,2.295-1.709,2.295c-2.699,0-4.051-3.375-4.994-5.22
		c-1.17-2.295-1.576-3.78-2.746-6.075c-0.09-0.18-0.27-0.359-0.449-0.359c-0.314,0-0.359,0.675-0.359,1.395
		c0,0.63,0.045,1.305,0.045,1.62c0.045,1.35,0.314,4.365,0.314,6.075c0,1.935-1.17,2.295-2.791,2.295
		C639.024,61.717,638.665,60.501,638.665,58.927z M643.839,35.032c-0.045,1.215-0.09,2.43-0.09,3.69c0,1.845,0.09,3.869,0.135,5.669
		c0.045,0.36,0.135,0.721,0.449,0.721h0.045c3.105-0.36,3.871-1.8,3.871-4.86c0-3.239-0.18-6.75-3.555-6.75
		C643.929,33.502,643.884,34.222,643.839,35.032z"/>
	<path fill="#FFFFFF" d="M670.343,61.851c-1.799,0-2.475-1.305-2.744-2.88c-0.27-1.53-0.496-2.43-0.721-3.96
		c-0.045-0.405-0.449-0.72-0.809-0.72h-0.047c-0.449,0.045-0.943,0.09-1.484,0.09c-0.674,0-1.395-0.045-2.025-0.045
		c-0.359,0-0.719,0-1.033,0.045c-0.541,0.09-0.811,0.585-0.811,1.17c-0.18,2.925-0.631,6.255-3.24,6.255
		c-1.709,0-2.115-0.766-2.115-1.845c0-0.45,0.045-0.945,0.135-1.485c1.576-9.359,3.781-17.504,6.525-26.009
		c0.314-0.945,0.676-1.8,1.215-2.655c0.18-0.27,0.945-0.9,1.846-0.9c2.023,0,2.609,3.015,2.969,4.77
		c1.484,7.694,2.656,16.244,4.23,23.984c0.18,0.81,0.359,1.305,0.359,2.249C672.593,60.861,671.153,61.851,670.343,61.851z
		 M666.339,49.072v-0.136c-0.451-3.779-0.99-8.145-1.756-11.879c-0.045-0.181-0.045-0.36-0.27-0.36h-0.045
		c-0.27,0-0.18,0.18-0.225,0.36c-0.945,4.319-1.846,7.739-2.564,12.284v0.135c0,0.271,0.09,0.45,0.359,0.45
		c0.9,0,3.014-0.135,4.049-0.314C666.159,49.566,666.339,49.342,666.339,49.072z"/>
	<path fill="#FFFFFF" d="M678.759,53.122c0,0.72,0.045,0.989,0.045,2.25c0,1.89,0.854,2.609,2.385,2.609
		c2.43,0,2.564-2.475,2.564-4.59c0-8.954-6.84-4.68-9.18-11.609c-0.225-0.72-0.314-1.53-0.314-2.34c0-4.455,1.844-9.945,7.199-9.945
		s6.975,2.205,6.975,7.515c0,1.439-1.395,1.71-2.205,1.71c-3.014,0-1.215-4.68-4.455-4.68c-2.475,0-3.014,3.69-3.014,5.4
		c0,1.439,0.809,2.385,1.799,2.88c4.455,2.25,8.189,4.59,8.189,11.294c0,4.365-2.295,8.686-7.604,8.686c-4.455,0-7.02-3.42-7.02-8.1
		c0-2.835,0.539-3.87,2.52-3.87C678.397,50.332,678.759,52.042,678.759,53.122z"/>
</g>
</svg>
