<?xml version="1.0" encoding="utf-8"?>
<!-- Generator: Adobe Illustrator 16.0.4, SVG Export Plug-In . SVG Version: 6.00 Build 0)  -->
<!DOCTYPE svg PUBLIC "-//W3C//DTD SVG 1.1//EN" "http://www.w3.org/Graphics/SVG/1.1/DTD/svg11.dtd">
<svg version="1.1" id="Isolation_Mode" xmlns="http://www.w3.org/2000/svg" xmlns:xlink="http://www.w3.org/1999/xlink" x="0px"
	 y="0px" width="725.5px" height="96.599px" viewBox="0 0 725.5 96.599" enable-background="new 0 0 725.5 96.599"
	 xml:space="preserve">
<path fill="#E53228" stroke="#FFFFFF" stroke-width="4" stroke-miterlimit="10" d="M16.692,30.547c0,0,5.458,9.375,7.279,17.898
	c1.82,8.523-5.459,34.092,9.098,33.24c14.559-0.853,81.89,8.523,120.106,5.966c38.215-2.557,247.489,1.705,254.77,2.558
	c7.279,0.852,212.913-7.671,212.913-7.671s52.774-0.853,65.513-0.853c12.737,0,25.478-42.615,23.657-56.251
	c-1.821-13.637,32.755-18.751-112.826-14.489c-145.582,4.261-429.466-0.853-429.466-0.853L29.433,11.796
	C29.43,11.796,3.952,9.239,16.692,30.547z"/>
<g enable-background="new    ">
	<path fill="#FFFFFF" d="M248.878,38.337c0,2.07-0.99,2.655-2.88,2.7c-0.945,0-2.115-0.314-2.115-1.26c0-2.16-1.125-2.79-1.71-2.79
		c-3.69,0-4.32,5.85-4.32,11.385c0,4.095,0.27,10.305,3.24,10.305c1.215,0,2.79-0.766,2.79-2.025c0-2.564,1.35-3.015,2.565-3.015
		c1.62,0,2.295,1.62,2.295,3.375c0,4.319-3.87,6.84-7.65,6.84c-6.39,0-8.055-6.435-8.055-13.949c0-8.415,0.945-18.225,9.54-18.225
		c3.419,0,6.209,2.97,6.299,6.524V38.337z"/>
	<path fill="#FFFFFF" d="M258.869,31.677c6.39,0,7.604,11.159,7.604,18.449c0,7.199-2.295,13.635-8.189,13.635
		c-5.13,0-7.155-5.985-7.155-15.84C251.129,42.432,252.839,31.677,258.869,31.677z M261.704,49.947v-0.811
		c0-4.904-0.091-12.824-2.835-12.824c-1.98,0-3.285,5.85-3.285,11.654s0.766,11.609,2.564,11.609
		C260.129,59.576,261.704,56.292,261.704,49.947z"/>
	<path fill="#FFFFFF" d="M288.703,35.772c0,1.26,0.045,2.7,0.045,3.375c0,6.074-0.135,11.744-0.135,17.774
		c0,2.25-0.541,5.625-2.43,6.074c-0.361,0.09-0.721,0.271-1.08,0.271c-3.061,0-4.5-5.805-5.355-7.83
		c-0.855-1.979-1.305-3.734-2.205-5.625c-0.9-1.89-1.484-3.959-2.52-5.489c-0.09-0.09-0.225-0.585-0.405-0.585
		c-0.36,0-0.405,1.215-0.405,2.654c0,5.445,0.36,7.605,0.36,12.285c0,2.835-0.045,4.994-2.521,4.994c-0.18,0-0.404,0-0.629-0.045
		c-1.53-0.18-1.665-2.159-1.665-4.454v-1.71c0-1.351,0.045-2.7,0.045-3.601c0-0.899,0.045-1.71,0.045-2.609v-3.51
		c0-4.005,0.045-7.649,0.405-11.385c0.225-2.07,0.449-3.69,2.475-3.915h0.27c3.15,0,7.65,14.715,9.811,18.854
		c0.09,0.18,1.034,2.115,1.215,2.115c0.09,0,0.135-0.226,0.135-0.495c0-0.36-0.045-0.72-0.045-0.9c0.045-1.62,0.09-3.149,0.09-4.635
		c0-4.14-0.18-7.784-0.18-11.654c0-3.42,0.539-4.23,2.385-4.23C288.433,31.497,288.703,34.242,288.703,35.772z"/>
	<path fill="#FFFFFF" d="M299.684,31.677c6.389,0,7.604,11.159,7.604,18.449c0,7.199-2.295,13.635-8.189,13.635
		c-5.129,0-7.154-5.985-7.154-15.84C291.943,42.432,293.653,31.677,299.684,31.677z M302.518,49.947v-0.811
		c0-4.904-0.09-12.824-2.834-12.824c-1.98,0-3.285,5.85-3.285,11.654s0.765,11.609,2.564,11.609
		C300.943,59.576,302.518,56.292,302.518,49.947z"/>
	<path fill="#FFFFFF" d="M341.756,35.772c0,1.26,0.045,2.7,0.045,3.375c0,6.074-0.135,11.744-0.135,17.774
		c0,2.25-0.539,5.625-2.43,6.074c-0.359,0.09-0.72,0.271-1.08,0.271c-3.06,0-4.5-5.805-5.354-7.83
		c-0.854-1.979-1.305-3.734-2.204-5.625c-0.9-1.89-1.486-3.959-2.521-5.489c-0.091-0.09-0.226-0.585-0.405-0.585
		c-0.359,0-0.404,1.215-0.404,2.654c0,5.445,0.359,7.605,0.359,12.285c0,2.835-0.045,4.994-2.52,4.994c-0.18,0-0.405,0-0.631-0.045
		c-1.529-0.18-1.664-2.159-1.664-4.454v-1.71c0-1.351,0.045-2.7,0.045-3.601c0-0.899,0.045-1.71,0.045-2.609v-3.51
		c0-4.005,0.045-7.649,0.404-11.385c0.226-2.07,0.451-3.69,2.476-3.915h0.271c3.149,0,7.648,14.715,9.809,18.854
		c0.09,0.18,1.035,2.115,1.215,2.115c0.09,0,0.136-0.226,0.136-0.495c0-0.36-0.046-0.72-0.046-0.9
		c0.046-1.62,0.091-3.149,0.091-4.635c0-4.14-0.181-7.784-0.181-11.654c0-3.42,0.541-4.23,2.385-4.23
		C341.486,31.497,341.756,34.242,341.756,35.772z"/>
	<path fill="#FFFFFF" d="M358.812,63.851c-1.801,0-2.476-1.305-2.746-2.88c-0.27-1.53-0.494-2.43-0.719-3.96
		c-0.045-0.405-0.451-0.72-0.811-0.72h-0.045c-0.45,0.045-0.945,0.09-1.484,0.09c-0.676,0-1.396-0.045-2.025-0.045
		c-0.36,0-0.721,0-1.035,0.045c-0.54,0.09-0.811,0.585-0.811,1.17c-0.18,2.925-0.629,6.255-3.239,6.255
		c-1.71,0-2.114-0.766-2.114-1.845c0-0.45,0.045-0.945,0.135-1.485c1.574-9.359,3.779-17.504,6.524-26.009
		c0.315-0.945,0.675-1.8,1.215-2.655c0.181-0.27,0.944-0.9,1.845-0.9c2.025,0,2.61,3.015,2.971,4.77
		c1.484,7.694,2.654,16.244,4.229,23.984c0.181,0.81,0.361,1.305,0.361,2.249C361.062,62.861,359.622,63.851,358.812,63.851z
		 M354.807,51.072v-0.136c-0.449-3.779-0.989-8.145-1.754-11.879c-0.045-0.181-0.045-0.36-0.271-0.36h-0.045
		c-0.271,0-0.181,0.18-0.226,0.36c-0.944,4.319-1.844,7.739-2.564,12.284v0.135c0,0.271,0.09,0.45,0.359,0.45
		c0.9,0,3.016-0.135,4.051-0.314C354.627,51.566,354.807,51.342,354.807,51.072z"/>
	<path fill="#FFFFFF" d="M367.228,60.297c0,3.06-0.585,3.104-1.8,3.104c-1.17,0-2.25-0.36-2.25-4.41
		c0-2.564-0.135-4.409-0.135-7.154c0-2.655,0.09-5.265,0.09-7.92c0-4.095-0.225-8.145-0.225-9.989c0-0.09,0.045-0.18,0.045-0.27
		c0.225-0.99,0.899-1.62,1.979-1.8c1.034-0.18,1.396-0.315,2.385-0.315c6.075,0,9.765,2.52,9.765,8.504
		c0,5.625-4.23,9.18-9.225,10.17c-0.675,0.135-0.855,0.315-0.855,0.9v0.225C367.092,53.276,367.228,58.496,367.228,60.297z
		 M366.912,44.636v0.585c0.045,0.45,0.135,0.631,0.405,0.631c0.136,0,0.271-0.046,0.45-0.136c1.664-0.72,4.635-2.52,4.635-5.67
		c0-1.664-1.395-3.734-3.061-4.139c-0.404-0.09-0.81-0.18-1.17-0.18c-0.539,0-0.989,0.18-0.989,0.81
		C367.183,40.587,366.912,40.722,366.912,44.636z"/>
	<path fill="#FFFFFF" d="M386.848,31.677c6.389,0,7.605,11.159,7.605,18.449c0,7.199-2.295,13.635-8.191,13.635
		c-5.129,0-7.154-5.985-7.154-15.84C379.107,42.432,380.818,31.677,386.848,31.677z M389.682,49.947v-0.811
		c0-4.904-0.09-12.824-2.834-12.824c-1.98,0-3.285,5.85-3.285,11.654s0.766,11.609,2.564,11.609
		C388.107,59.576,389.682,56.292,389.682,49.947z"/>
	<path fill="#FFFFFF" d="M401.201,31.677c1.666,0,1.891,4.995,1.891,8.954c0,1.801-0.045,3.375-0.045,4.186
		c0,3.734-0.18,8.145-0.18,12.06c0,0.359,0.27,0.854,0.629,0.854c0.9,0,0.586-0.045,1.441-0.045c1.574,0,3.689,0.045,4.859,0.72
		c0.945,0.54,1.215,0.99,1.215,1.98c0,2.024-1.35,3.239-3.645,3.239h-0.99c-1.621,0-1.936,0.181-3.465,0.181
		c-2.699,0-4.859-0.585-5.041-3.96c-0.045-0.945-0.09-1.98-0.09-2.925v-3.96c0-3.195,0.182-6.165,0.182-9.404
		c0-1.08-0.045-2.295-0.045-3.511C397.918,36.132,398.232,31.677,401.201,31.677z"/>
	<path fill="#FFFFFF" d="M415.828,63.356c-1.621-0.855-2.025-3.24-2.025-6.03c0-3.329,0.359-7.515,0.359-10.889
		c0-3.105,0.135-7.74,1.891-7.74c2.789,0,2.924,3.51,2.924,7.38c0,4.95-0.09,9.359-0.09,13.77c0,2.115,0,3.645-2.295,3.645h-0.314
		C416.143,63.491,415.963,63.446,415.828,63.356z M416.951,37.527c-1.35,0-2.924-1.305-2.924-3.69c0-2.16,0.9-3.24,1.98-3.24
		c0.404,0,0.854,0.18,1.305,0.495c1.125,0.855,1.754,2.34,1.754,3.87C419.066,36.718,418.076,37.527,416.951,37.527z"/>
	<path fill="#FFFFFF" d="M426.492,40.272v-2.835c0-0.54,0-0.81-0.404-0.81h-0.092c-0.674,0.045-1.033,0.045-1.395,0.045h-1.215
		c-1.619-0.091-1.889-1.53-1.889-2.565c0-1.17,0.854-2.25,2.203-2.295c4.545-0.09,4.455-0.405,8.82-0.405
		c2.609,0,3.734,0.945,3.734,2.25v0.09c0,1.755-0.045,2.834-3.059,2.97c-0.9,0.045-0.406,0.045-1.395,0.09
		c-0.721,0.045-0.811,0.135-0.811,0.854v0.09c0,4.455,0.135,8.64,0.135,12.87c0,1.529-0.045,2.97-0.045,4.409
		c0,0.9,0.045,1.98,0.045,3.061c0,0.54,0,1.08-0.045,1.62c-0.18,2.744,0.404,4.229-2.34,4.229c-1.756,0-1.936-2.16-1.936-4.14v-1.62
		v-1.755C426.807,50.846,426.492,45.806,426.492,40.272z"/>
	<path fill="#FFFFFF" d="M449.938,63.851c-1.801,0-2.475-1.305-2.746-2.88c-0.27-1.53-0.494-2.43-0.719-3.96
		c-0.045-0.405-0.451-0.72-0.811-0.72h-0.045c-0.449,0.045-0.945,0.09-1.484,0.09c-0.676,0-1.396-0.045-2.025-0.045
		c-0.359,0-0.721,0-1.035,0.045c-0.539,0.09-0.811,0.585-0.811,1.17c-0.18,2.925-0.629,6.255-3.238,6.255
		c-1.711,0-2.115-0.766-2.115-1.845c0-0.45,0.045-0.945,0.135-1.485c1.574-9.359,3.779-17.504,6.523-26.009
		c0.316-0.945,0.676-1.8,1.217-2.655c0.18-0.27,0.943-0.9,1.844-0.9c2.025,0,2.609,3.015,2.971,4.77
		c1.484,7.694,2.654,16.244,4.229,23.984c0.182,0.81,0.361,1.305,0.361,2.249C452.188,62.861,450.746,63.851,449.938,63.851z
		 M445.932,51.072v-0.136c-0.449-3.779-0.99-8.145-1.754-11.879c-0.045-0.181-0.045-0.36-0.271-0.36h-0.045
		c-0.27,0-0.18,0.18-0.225,0.36c-0.945,4.319-1.844,7.739-2.564,12.284v0.135c0,0.271,0.09,0.45,0.359,0.45
		c0.9,0,3.016-0.135,4.051-0.314C445.752,51.566,445.932,51.342,445.932,51.072z"/>
	<path fill="#FFFFFF" d="M472.887,35.772c0,1.26,0.045,2.7,0.045,3.375c0,6.074-0.135,11.744-0.135,17.774
		c0,2.25-0.541,5.625-2.43,6.074c-0.361,0.09-0.721,0.271-1.08,0.271c-3.061,0-4.5-5.805-5.355-7.83
		c-0.855-1.979-1.305-3.734-2.205-5.625c-0.9-1.89-1.484-3.959-2.52-5.489c-0.09-0.09-0.225-0.585-0.404-0.585
		c-0.361,0-0.406,1.215-0.406,2.654c0,5.445,0.361,7.605,0.361,12.285c0,2.835-0.045,4.994-2.521,4.994c-0.18,0-0.404,0-0.629-0.045
		c-1.531-0.18-1.666-2.159-1.666-4.454v-1.71c0-1.351,0.045-2.7,0.045-3.601c0-0.899,0.045-1.71,0.045-2.609v-3.51
		c0-4.005,0.045-7.649,0.406-11.385c0.225-2.07,0.449-3.69,2.475-3.915h0.27c3.15,0,7.65,14.715,9.811,18.854
		c0.09,0.18,1.035,2.115,1.215,2.115c0.09,0,0.135-0.226,0.135-0.495c0-0.36-0.045-0.72-0.045-0.9c0.045-1.62,0.09-3.149,0.09-4.635
		c0-4.14-0.18-7.784-0.18-11.654c0-3.42,0.539-4.23,2.385-4.23C472.617,31.497,472.887,34.242,472.887,35.772z"/>
	<path fill="#FFFFFF" d="M483.865,31.677c6.391,0,7.605,11.159,7.605,18.449c0,7.199-2.295,13.635-8.189,13.635
		c-5.131,0-7.154-5.985-7.154-15.84C476.127,42.432,477.836,31.677,483.865,31.677z M486.701,49.947v-0.811
		c0-4.904-0.09-12.824-2.836-12.824c-1.979,0-3.283,5.85-3.283,11.654s0.764,11.609,2.564,11.609
		C485.127,59.576,486.701,56.292,486.701,49.947z"/>
</g>
</svg>
