<?xml version="1.0" encoding="utf-8"?>
<!-- Generator: Adobe Illustrator 16.0.4, SVG Export Plug-In . SVG Version: 6.00 Build 0)  -->
<!DOCTYPE svg PUBLIC "-//W3C//DTD SVG 1.1//EN" "http://www.w3.org/Graphics/SVG/1.1/DTD/svg11.dtd">
<svg version="1.1" id="Isolation_Mode" xmlns="http://www.w3.org/2000/svg" xmlns:xlink="http://www.w3.org/1999/xlink" x="0px"
	 y="0px" width="725.5px" height="96.599px" viewBox="0 0 725.5 96.599" enable-background="new 0 0 725.5 96.599"
	 xml:space="preserve">
<path fill="#E53228" stroke="#FFFFFF" stroke-width="4" stroke-miterlimit="10" d="M16.692,30.547c0,0,5.458,9.375,7.279,17.898
	c1.82,8.523-5.459,34.092,9.098,33.24c14.559-0.853,81.89,8.523,120.106,5.966c38.215-2.557,247.489,1.705,254.77,2.558
	c7.279,0.852,212.913-7.671,212.913-7.671s52.774-0.853,65.513-0.853c12.737,0,25.478-42.615,23.657-56.251
	c-1.821-13.637,32.755-18.751-112.826-14.489c-145.582,4.261-429.466-0.853-429.466-0.853L29.433,11.796
	C29.43,11.796,3.952,9.239,16.692,30.547z"/>
<g enable-background="new    ">
	<path fill="#FFFFFF" d="M109.615,42.973c0,0.218,0.043,0.393,0.043,0.567c0,1.527,0.131,2.051,0.131,3.36
		c0,1.571,0.087,2.313,0.087,5.019v5.106c0,3.229-0.393,5.149-2.618,5.149c-0.175,0-0.35,0-0.524-0.044
		c-1.222-0.218-1.484-2.531-1.484-5.062c0-6.677,0.262-12.219,0.262-18.809c0-2.269,0.087-6.982,1.833-7.593
		c0.131-0.043,0.218-0.043,0.349-0.043c0.349,0,0.742,0.131,1.178,0.393c2.095,1.266,3.186,5.106,3.972,7.375
		c0.305,0.917,0.48,1.877,0.742,2.793c0.131,0.567,1.658,6.939,1.92,6.939c0.393,0,5.761-13.397,6.241-14.75
		c0.262-0.698,1.484-1.964,2.051-2.356c0.262-0.175,0.567-0.262,0.917-0.262c1.833,0,2.443,2.575,2.618,5.979
		c0.087,2.051,0.131,3.579,0.131,4.888v1.964c0,4.32,0.306,8.902,0.306,13.267v1.44c0,2.051-0.175,3.709-2.008,3.709
		c-1.178,0-2.4-0.306-2.793-1.614c-0.698-2.4-0.829-4.888-0.829-7.855v-0.044c0-2.531,0.087-5.105,0.087-7.549
		c0-1.091,0-0.306-0.087-1.353c0-0.131-0.043-0.218-0.218-0.218c-0.698,0-4.801,16.016-6.153,16.322h-0.175
		c-0.218,0-0.437-0.088-0.567-0.175c-3.011-2.312-3.884-12.307-4.713-16.409c-0.044-0.218-0.131-0.655-0.393-0.655h-0.043
		C109.659,42.493,109.615,42.711,109.615,42.973z"/>
	<path fill="#FFFFFF" d="M132.827,61.694c-1.571-0.829-1.964-3.142-1.964-5.848c0-3.229,0.349-7.288,0.349-10.561
		c0-3.011,0.131-7.506,1.833-7.506c2.706,0,2.837,3.404,2.837,7.157c0,4.8-0.087,9.077-0.087,13.354c0,2.051,0,3.534-2.226,3.534
		h-0.306C133.132,61.825,132.958,61.782,132.827,61.694z M133.918,36.645c-1.309,0-2.836-1.265-2.836-3.578
		c0-2.095,0.873-3.142,1.92-3.142c0.393,0,0.829,0.174,1.266,0.48c1.091,0.829,1.702,2.269,1.702,3.753
		C135.969,35.86,135.009,36.645,133.918,36.645z"/>
	<path fill="#FFFFFF" d="M142.601,30.972c1.615,0,1.833,4.844,1.833,8.684c0,1.746-0.044,3.273-0.044,4.059
		c0,3.622-0.174,7.899-0.174,11.696c0,0.349,0.262,0.829,0.611,0.829c0.873,0,0.567-0.043,1.396-0.043
		c1.527,0,3.579,0.043,4.713,0.698c0.917,0.523,1.179,0.96,1.179,1.92c0,1.964-1.31,3.142-3.535,3.142h-0.96
		c-1.571,0-1.876,0.175-3.36,0.175c-2.618,0-4.713-0.567-4.888-3.84c-0.043-0.917-0.087-1.921-0.087-2.837v-3.84
		c0-3.099,0.175-5.979,0.175-9.121c0-1.047-0.044-2.226-0.044-3.404C139.415,35.292,139.72,30.972,142.601,30.972z"/>
	<path fill="#FFFFFF" d="M160.054,41.707c0,0.786,0.043,1.876,0.218,1.876c0.305,0,2.444-2.968,2.575-3.142
		c0.786-1.135,1.527-2.182,2.313-3.317c1.091-1.658,2.4-3.273,3.535-4.888c0.393-0.523,1.178-0.785,1.876-0.785
		c1.091,0,2.095,0.523,2.095,1.527c0,0.611-0.262,1.44-0.96,2.4c-1.484,2.095-3.011,4.015-4.408,6.066
		c-0.786,1.134-1.92,2.487-2.662,3.622c-0.174,0.262-0.262,0.436-0.262,0.567c0,0.174,0.131,0.349,0.305,0.654
		c1.528,2.182,2.051,3.186,3.666,5.324c0.742,0.96,1.44,1.92,2.182,2.88c1.178,1.527,2.313,3.055,2.313,4.32
		c0,0.742-1.135,2.575-3.622,2.575c-2.924,0-5.717-7.987-7.288-9.994c-0.437-0.567-0.873-1.135-1.222-1.746
		c-0.262,0-0.393,0.131-0.393,0.349c0,3.186,0.087,5.892,0.306,8.902c0.043,0.219,0.043,0.437,0.043,0.611
		c0,2.487-1.527,2.88-2.575,2.88c-1.484,0-2.619-1.266-2.924-3.928c-0.087-0.96-0.087-1.527-0.087-2.443
		c0-1.44,0.043-2.924,0.043-4.757c0-5.499,0.131-10.604,0.131-16.06c0-2.487,0.48-4.233,2.226-4.233
		c2.531,0,2.575,2.575,2.575,5.062v0.306V41.707z"/>
	<path fill="#FFFFFF" d="M179.166,53.708c0,0.698,0.043,0.96,0.043,2.182c0,1.833,0.829,2.531,2.313,2.531
		c2.356,0,2.487-2.4,2.487-4.452c0-8.684-6.633-4.539-8.902-11.259c-0.218-0.698-0.306-1.483-0.306-2.269
		c0-4.32,1.79-9.645,6.982-9.645c5.193,0,6.764,2.138,6.764,7.288c0,1.396-1.353,1.658-2.138,1.658c-2.924,0-1.178-4.539-4.32-4.539
		c-2.4,0-2.924,3.579-2.924,5.237c0,1.396,0.785,2.313,1.746,2.793c4.32,2.182,7.942,4.451,7.942,10.954
		c0,4.233-2.226,8.423-7.375,8.423c-4.321,0-6.808-3.317-6.808-7.855c0-2.75,0.524-3.753,2.444-3.753
		C178.816,51.003,179.166,52.661,179.166,53.708z"/>
	<path fill="#FFFFFF" d="M196.749,53.228v2.968c0,0.523,0.044,1.047,0.044,1.57v1.354c0,1.614-0.175,2.793-1.877,2.793
		c-2.269,0-2.924-2.662-2.924-5.368V42.58v-1.833v-1.964c0-3.884,0.175-7.812,2.924-7.812c1.222,0,1.877,1.789,1.877,6.938v0.131
		c0,2.706-0.131,5.761-0.131,8.641v0.087c0,0.524,0.087,0.698,0.393,0.698c0.043,0,0.087-0.043,0.174-0.043
		c0.393-0.087,1.309-0.087,1.746-0.087c0.48,0,1.44,0.044,1.964,0.044c0.48,0,1.004-0.044,1.527-0.175
		c0.044,0,0.044-0.043,0.131-0.043c0.611-0.175,0.786-0.262,0.786-0.786v-6.066v-1.309V36.34c0-3.142,0.218-5.368,2.007-5.368
		c2.008,0,2.793,2.007,2.793,3.971v3.447c0,7.245,0.567,13.267,0.567,20.074c0,1.921-0.785,3.579-2.226,3.579
		c-2.88,0-3.316-4.888-3.316-8.248V53.01c0-0.567-0.131-1.135-0.393-1.135c-1.134,0-3.055,0.306-4.451,0.306
		C197.535,52.181,196.749,52.268,196.749,53.228z"/>
	<path fill="#FFFFFF" d="M225.766,62.175c-1.746,0-2.4-1.266-2.662-2.793c-0.262-1.484-0.48-2.356-0.698-3.84
		c-0.044-0.393-0.437-0.698-0.786-0.698h-0.044c-0.436,0.043-0.917,0.087-1.44,0.087c-0.655,0-1.353-0.044-1.964-0.044
		c-0.349,0-0.698,0-1.004,0.044c-0.523,0.087-0.785,0.567-0.785,1.135c-0.175,2.836-0.611,6.065-3.142,6.065
		c-1.659,0-2.051-0.741-2.051-1.789c0-0.437,0.044-0.916,0.131-1.44c1.527-9.077,3.666-16.976,6.328-25.224
		c0.305-0.917,0.654-1.746,1.178-2.575c0.174-0.262,0.917-0.873,1.789-0.873c1.964,0,2.531,2.924,2.88,4.626
		c1.44,7.462,2.575,15.754,4.102,23.26c0.175,0.785,0.349,1.266,0.349,2.182C227.948,61.215,226.552,62.175,225.766,62.175z
		 M221.882,49.781V49.65c-0.437-3.666-0.96-7.899-1.702-11.521c-0.043-0.174-0.043-0.349-0.262-0.349h-0.043
		c-0.262,0-0.175,0.175-0.218,0.349c-0.917,4.189-1.79,7.506-2.488,11.914v0.131c0,0.262,0.087,0.436,0.35,0.436
		c0.873,0,2.924-0.131,3.927-0.305C221.708,50.26,221.882,50.043,221.882,49.781z"/>
	<path fill="#FFFFFF" d="M234.753,41.707c0,0.786,0.043,1.876,0.218,1.876c0.305,0,2.444-2.968,2.575-3.142
		c0.786-1.135,1.527-2.182,2.313-3.317c1.091-1.658,2.4-3.273,3.535-4.888c0.393-0.523,1.178-0.785,1.876-0.785
		c1.091,0,2.095,0.523,2.095,1.527c0,0.611-0.262,1.44-0.96,2.4c-1.484,2.095-3.011,4.015-4.408,6.066
		c-0.786,1.134-1.92,2.487-2.662,3.622c-0.174,0.262-0.262,0.436-0.262,0.567c0,0.174,0.131,0.349,0.305,0.654
		c1.528,2.182,2.051,3.186,3.666,5.324c0.742,0.96,1.44,1.92,2.182,2.88c1.178,1.527,2.313,3.055,2.313,4.32
		c0,0.742-1.135,2.575-3.622,2.575c-2.924,0-5.717-7.987-7.288-9.994c-0.437-0.567-0.873-1.135-1.222-1.746
		c-0.262,0-0.393,0.131-0.393,0.349c0,3.186,0.087,5.892,0.306,8.902c0.043,0.219,0.043,0.437,0.043,0.611
		c0,2.487-1.527,2.88-2.575,2.88c-1.484,0-2.619-1.266-2.924-3.928c-0.087-0.96-0.087-1.527-0.087-2.443
		c0-1.44,0.043-2.924,0.043-4.757c0-5.499,0.131-10.604,0.131-16.06c0-2.487,0.48-4.233,2.226-4.233
		c2.531,0,2.575,2.575,2.575,5.062v0.306V41.707z"/>
	<path fill="#FFFFFF" d="M250.547,49.344v-8.117c0-1.964,0.043-4.146,0.175-6.546v-1.222c0-1.527,0.174-2.531,1.571-2.531
		c2.487,0,1.877,0.044,4.495,0.044h0.61c1.921,0,4.277,0.087,4.277,1.92c0,2.095-1.135,2.138-2.924,2.138h-0.175h-1.964
		c-0.742,0-1.178,0-1.178,0.786v0.437c0,1.876-0.044,3.797-0.044,5.586c0,0.829,0,0.829-0.044,0.829v0.524
		c0.044,0.698,0.785,0.785,1.527,0.785c0.567,0,0.611,0,0.611,0.044h0.35c1.221,0,2.399,0.043,2.399,2.226v0.349
		c-0.087,1.266-1.179,1.44-2.444,1.44c-0.566,0-1.92-0.043-2.443-0.043c-0.218,0-0.305,3.796-0.305,4.844
		c0,1.134,0.087,2.531,0.087,2.836c0,0.742,0.131,1.396,0.829,1.396h0.043c1.965,0,1.746-0.043,3.71-0.043
		c1.396,0,2.095,0.61,2.095,2.269c0,0.132-0.044,0.306-0.044,0.437c-0.087,1.702-0.916,2.008-2.269,2.008
		c-0.873,0-2.008-0.131-3.317-0.131s-2.575-0.044-3.491-0.044h-0.043c-1.92,0-2.269-0.567-2.269-1.789
		C250.373,56.458,250.547,52.704,250.547,49.344z"/>
	<path fill="#FFFFFF" d="M276.771,55.192c-0.087-1.222-0.087-2.444-0.087-3.666c0-4.539,0.305-8.902,0.436-13.528
		c0.044-1.658,0.219-3.84,0.393-5.499c0.132-1.178,1.266-1.527,2.575-1.615h1.048c1.178,0,2.27,0.087,3.404,0.306
		c4.102,0.873,5.935,4.233,6.676,8.641c0.131,0.96,0.219,4.059,0.219,4.888c0,8.641-3.447,17.587-11.739,17.587
		c-0.393,0-0.829-0.044-1.266-0.044c-0.96,0-1.396-1.047-1.44-2.007c-0.043-1.571-0.174-3.099-0.218-4.67V55.192z M282.705,56.981
		c2.357,0,5.02-8.379,5.02-12.917c0-4.582-0.175-8.99-5.02-9.165h-0.043c-0.567,0-0.611,0.48-0.611,1.004v0.393v0.262
		c0,1.309-0.043,1.789-0.043,3.055c0,0.655,0,1.266,0.043,1.92c0.131,3.535,0.131,4.932,0.262,8.903v0.306v1.527v2.575
		c0,0.567,0,1.134,0.044,1.746C282.356,56.763,282.443,56.981,282.705,56.981z"/>
	<path fill="#FFFFFF" d="M294.748,49.344v-8.117c0-1.964,0.043-4.146,0.174-6.546v-1.222c0-1.527,0.175-2.531,1.571-2.531
		c2.487,0,1.876,0.044,4.495,0.044h0.611c1.92,0,4.276,0.087,4.276,1.92c0,2.095-1.135,2.138-2.924,2.138h-0.175h-1.964
		c-0.741,0-1.179,0-1.179,0.786v0.437c0,1.876-0.043,3.797-0.043,5.586c0,0.829,0,0.829-0.044,0.829v0.524
		c0.044,0.698,0.786,0.785,1.527,0.785c0.567,0,0.611,0,0.611,0.044h0.349c1.223,0,2.4,0.043,2.4,2.226v0.349
		c-0.087,1.266-1.178,1.44-2.443,1.44c-0.567,0-1.92-0.043-2.444-0.043c-0.218,0-0.306,3.796-0.306,4.844
		c0,1.134,0.088,2.531,0.088,2.836c0,0.742,0.131,1.396,0.829,1.396h0.044c1.963,0,1.745-0.043,3.709-0.043
		c1.396,0,2.095,0.61,2.095,2.269c0,0.132-0.044,0.306-0.044,0.437c-0.087,1.702-0.916,2.008-2.27,2.008
		c-0.872,0-2.007-0.131-3.316-0.131c-1.309,0-2.574-0.044-3.491-0.044h-0.044c-1.92,0-2.269-0.567-2.269-1.789
		C294.573,56.458,294.748,52.704,294.748,49.344z"/>
	<path fill="#FFFFFF" d="M335.896,37.43c0,2.007-0.96,2.575-2.793,2.619c-0.916,0-2.051-0.306-2.051-1.222
		c0-2.095-1.091-2.706-1.658-2.706c-3.579,0-4.189,5.673-4.189,11.041c0,3.971,0.262,9.994,3.142,9.994
		c1.179,0,2.706-0.742,2.706-1.964c0-2.488,1.309-2.924,2.487-2.924c1.571,0,2.226,1.571,2.226,3.273
		c0,4.189-3.753,6.633-7.419,6.633c-6.196,0-7.812-6.24-7.812-13.528c0-8.161,0.917-17.674,9.252-17.674
		c3.316,0,6.022,2.88,6.109,6.328V37.43z"/>
	<path fill="#FFFFFF" d="M338.903,59.338c0-4.015,0.262-7.506,0.262-11.39v-2.444c-0.087-2.706-0.175-5.979-0.175-8.597V35.03
		c0-3.622,0.917-4.233,4.451-4.233c1.659,0,3.448,0.349,4.016,0.524c0.523,0.174,1.047,0.349,1.483,0.611
		c1.964,1.091,2.662,3.535,2.968,6.066c0.131,1.047,0.218,2.27,0.218,3.535c0,3.84-0.872,8.117-4.146,8.117
		c-0.393,0-0.523,0.131-0.523,0.349c0,0.175,0.087,0.349,0.218,0.524c1.877,2.575,4.189,5.716,5.411,8.335
		c0.219,0.436,0.306,0.785,0.306,1.222c0,1.178-0.741,2.226-1.658,2.226c-2.618,0-3.928-3.273-4.844-5.062
		c-1.135-2.226-1.527-3.666-2.662-5.891c-0.087-0.175-0.262-0.349-0.437-0.349c-0.306,0-0.35,0.654-0.35,1.353
		c0,0.611,0.044,1.266,0.044,1.571c0.044,1.309,0.306,4.233,0.306,5.892c0,1.876-1.135,2.226-2.706,2.226
		C339.252,62.044,338.903,60.865,338.903,59.338z M343.922,36.165c-0.044,1.178-0.087,2.356-0.087,3.579
		c0,1.789,0.087,3.753,0.131,5.499c0.043,0.349,0.131,0.698,0.437,0.698h0.043c3.012-0.349,3.753-1.746,3.753-4.713
		c0-3.142-0.174-6.546-3.447-6.546C344.009,34.681,343.966,35.38,343.922,36.165z"/>
	<path fill="#FFFFFF" d="M356.095,49.344v-8.117c0-1.964,0.044-4.146,0.175-6.546v-1.222c0-1.527,0.175-2.531,1.571-2.531
		c2.487,0,1.876,0.044,4.494,0.044h0.611c1.92,0,4.276,0.087,4.276,1.92c0,2.095-1.135,2.138-2.924,2.138h-0.174h-1.964
		c-0.742,0-1.179,0-1.179,0.786v0.437c0,1.876-0.044,3.797-0.044,5.586c0,0.829,0,0.829-0.043,0.829v0.524
		c0.043,0.698,0.785,0.785,1.527,0.785c0.567,0,0.61,0,0.61,0.044h0.35c1.222,0,2.4,0.043,2.4,2.226v0.349
		c-0.088,1.266-1.179,1.44-2.444,1.44c-0.567,0-1.92-0.043-2.443-0.043c-0.219,0-0.306,3.796-0.306,4.844
		c0,1.134,0.087,2.531,0.087,2.836c0,0.742,0.131,1.396,0.829,1.396h0.044c1.964,0,1.745-0.043,3.709-0.043
		c1.396,0,2.095,0.61,2.095,2.269c0,0.132-0.043,0.306-0.043,0.437c-0.088,1.702-0.917,2.008-2.27,2.008
		c-0.873,0-2.008-0.131-3.316-0.131c-1.31,0-2.575-0.044-3.491-0.044h-0.044c-1.92,0-2.27-0.567-2.27-1.789
		C355.92,56.458,356.095,52.704,356.095,49.344z"/>
	<path fill="#FFFFFF" d="M374.727,42.973c0,0.218,0.044,0.393,0.044,0.567c0,1.527,0.131,2.051,0.131,3.36
		c0,1.571,0.087,2.313,0.087,5.019v5.106c0,3.229-0.393,5.149-2.618,5.149c-0.175,0-0.349,0-0.523-0.044
		c-1.222-0.218-1.483-2.531-1.483-5.062c0-6.677,0.262-12.219,0.262-18.809c0-2.269,0.087-6.982,1.833-7.593
		c0.131-0.043,0.218-0.043,0.349-0.043c0.35,0,0.742,0.131,1.179,0.393c2.095,1.266,3.186,5.106,3.971,7.375
		c0.306,0.917,0.48,1.877,0.742,2.793c0.131,0.567,1.658,6.939,1.92,6.939c0.393,0,5.761-13.397,6.241-14.75
		c0.262-0.698,1.483-1.964,2.051-2.356c0.262-0.175,0.567-0.262,0.916-0.262c1.833,0,2.444,2.575,2.619,5.979
		c0.087,2.051,0.131,3.579,0.131,4.888v1.964c0,4.32,0.305,8.902,0.305,13.267v1.44c0,2.051-0.174,3.709-2.007,3.709
		c-1.179,0-2.4-0.306-2.793-1.614c-0.698-2.4-0.829-4.888-0.829-7.855v-0.044c0-2.531,0.087-5.105,0.087-7.549
		c0-1.091,0-0.306-0.087-1.353c0-0.131-0.044-0.218-0.219-0.218c-0.698,0-4.8,16.016-6.153,16.322h-0.174
		c-0.219,0-0.437-0.088-0.567-0.175c-3.012-2.312-3.885-12.307-4.714-16.409c-0.043-0.218-0.131-0.655-0.393-0.655h-0.044
		C374.771,42.493,374.727,42.711,374.727,42.973z"/>
	<path fill="#FFFFFF" d="M403.437,30.972c6.197,0,7.376,10.823,7.376,17.892c0,6.982-2.226,13.223-7.943,13.223
		c-4.975,0-6.938-5.804-6.938-15.361C395.931,41.402,397.589,30.972,403.437,30.972z M406.187,48.69v-0.786
		c0-4.757-0.088-12.438-2.75-12.438c-1.92,0-3.186,5.673-3.186,11.303c0,5.63,0.742,11.26,2.487,11.26
		C404.659,58.029,406.187,54.843,406.187,48.69z"/>
	<path fill="#FFFFFF" d="M417.792,53.708c0,0.698,0.044,0.96,0.044,2.182c0,1.833,0.829,2.531,2.312,2.531
		c2.357,0,2.488-2.4,2.488-4.452c0-8.684-6.634-4.539-8.903-11.259c-0.218-0.698-0.305-1.483-0.305-2.269
		c0-4.32,1.789-9.645,6.982-9.645c5.192,0,6.764,2.138,6.764,7.288c0,1.396-1.353,1.658-2.139,1.658
		c-2.924,0-1.178-4.539-4.32-4.539c-2.399,0-2.924,3.579-2.924,5.237c0,1.396,0.786,2.313,1.746,2.793
		c4.32,2.182,7.942,4.451,7.942,10.954c0,4.233-2.226,8.423-7.375,8.423c-4.32,0-6.809-3.317-6.809-7.855
		c0-2.75,0.524-3.753,2.444-3.753C417.443,51.003,417.792,52.661,417.792,53.708z"/>
	<path fill="#FFFFFF" d="M434.852,53.708c0,0.698,0.044,0.96,0.044,2.182c0,1.833,0.829,2.531,2.312,2.531
		c2.357,0,2.488-2.4,2.488-4.452c0-8.684-6.634-4.539-8.903-11.259c-0.218-0.698-0.305-1.483-0.305-2.269
		c0-4.32,1.789-9.645,6.982-9.645c5.192,0,6.764,2.138,6.764,7.288c0,1.396-1.353,1.658-2.139,1.658
		c-2.924,0-1.178-4.539-4.32-4.539c-2.399,0-2.924,3.579-2.924,5.237c0,1.396,0.786,2.313,1.746,2.793
		c4.32,2.182,7.942,4.451,7.942,10.954c0,4.233-2.226,8.423-7.375,8.423c-4.32,0-6.808-3.317-6.808-7.855
		c0-2.75,0.523-3.753,2.443-3.753C434.503,51.003,434.852,52.661,434.852,53.708z"/>
	<path fill="#FFFFFF" d="M449.469,61.694c-1.571-0.829-1.964-3.142-1.964-5.848c0-3.229,0.349-7.288,0.349-10.561
		c0-3.011,0.131-7.506,1.833-7.506c2.706,0,2.837,3.404,2.837,7.157c0,4.8-0.087,9.077-0.087,13.354c0,2.051,0,3.534-2.226,3.534
		h-0.306C449.774,61.825,449.6,61.782,449.469,61.694z M450.56,36.645c-1.31,0-2.837-1.265-2.837-3.578
		c0-2.095,0.873-3.142,1.921-3.142c0.393,0,0.829,0.174,1.265,0.48c1.092,0.829,1.702,2.269,1.702,3.753
		C452.61,35.86,451.65,36.645,450.56,36.645z"/>
	<path fill="#FFFFFF" d="M459.81,39.307v-2.749c0-0.524,0-0.786-0.393-0.786h-0.088c-0.654,0.043-1.004,0.043-1.353,0.043h-1.179
		c-1.57-0.087-1.833-1.484-1.833-2.487c0-1.135,0.83-2.182,2.139-2.226c4.408-0.087,4.32-0.393,8.554-0.393
		c2.531,0,3.622,0.917,3.622,2.182v0.087c0,1.702-0.044,2.749-2.968,2.88c-0.872,0.043-0.393,0.043-1.353,0.087
		c-0.698,0.044-0.785,0.131-0.785,0.83v0.087c0,4.32,0.131,8.379,0.131,12.481c0,1.483-0.044,2.88-0.044,4.276
		c0,0.873,0.044,1.92,0.044,2.968c0,0.523,0,1.047-0.044,1.571c-0.175,2.662,0.393,4.102-2.27,4.102
		c-1.702,0-1.876-2.095-1.876-4.015v-1.571v-1.702C460.115,49.562,459.81,44.675,459.81,39.307z"/>
	<path fill="#FFFFFF" d="M477.481,30.972c6.197,0,7.376,10.823,7.376,17.892c0,6.982-2.226,13.223-7.943,13.223
		c-4.975,0-6.938-5.804-6.938-15.361C469.976,41.402,471.634,30.972,477.481,30.972z M480.231,48.69v-0.786
		c0-4.757-0.088-12.438-2.75-12.438c-1.92,0-3.186,5.673-3.186,11.303c0,5.63,0.742,11.26,2.487,11.26
		C478.704,58.029,480.231,54.843,480.231,48.69z"/>
	<path fill="#FFFFFF" d="M504.839,58.422c0,0.437,0.043,0.872,0.043,1.266c0,1.222-0.218,2.051-1.789,2.051
		c-2.793,0-2.968-1.091-2.968-3.142v-0.83v-1.091c0-1.963,0.219-4.8,0.219-6.982c0-2.356-0.088-4.8-0.131-7.331
		c-0.044-1.615-0.175-3.928-0.175-6.372c0-1.659,0.044-3.055,0.306-3.535c0.698-1.527,2.007-1.615,3.884-1.615h0.306
		c3.011,0,1.964,0.131,4.32,0.131c1.483,0,2.27,1.265,2.27,2.444c0,1.353-1.396,2.095-2.052,2.095h-1.047h-0.523
		c-0.394,0-1.004,0-1.964,0.043c-0.437,0-0.873,0.742-0.873,1.702l0.131,7.506c0.131,1.004-0.087,1.702,0.742,1.746h0.131h0.698
		c0.393,0,0.872,0,1.614,0.044c1.658,0.131,2.27,1.178,2.27,2.312c0,0.917-0.873,2.095-2.706,2.095h-0.437h-0.131
		c-0.741,0-1.964,0.131-2.007,0.786v0.437v0.698C504.97,53.228,504.839,56.065,504.839,58.422z"/>
	<path fill="#FFFFFF" d="M514.088,59.338c0-4.015,0.262-7.506,0.262-11.39v-2.444c-0.087-2.706-0.175-5.979-0.175-8.597V35.03
		c0-3.622,0.917-4.233,4.452-4.233c1.658,0,3.447,0.349,4.015,0.524c0.523,0.174,1.047,0.349,1.483,0.611
		c1.964,1.091,2.662,3.535,2.968,6.066c0.131,1.047,0.218,2.27,0.218,3.535c0,3.84-0.872,8.117-4.146,8.117
		c-0.393,0-0.523,0.131-0.523,0.349c0,0.175,0.087,0.349,0.218,0.524c1.877,2.575,4.189,5.716,5.411,8.335
		c0.219,0.436,0.306,0.785,0.306,1.222c0,1.178-0.741,2.226-1.658,2.226c-2.618,0-3.928-3.273-4.844-5.062
		c-1.135-2.226-1.527-3.666-2.662-5.891c-0.088-0.175-0.262-0.349-0.437-0.349c-0.306,0-0.349,0.654-0.349,1.353
		c0,0.611,0.043,1.266,0.043,1.571c0.044,1.309,0.306,4.233,0.306,5.892c0,1.876-1.135,2.226-2.706,2.226
		C514.438,62.044,514.088,60.865,514.088,59.338z M519.106,36.165c-0.044,1.178-0.087,2.356-0.087,3.579
		c0,1.789,0.087,3.753,0.131,5.499c0.043,0.349,0.131,0.698,0.437,0.698h0.043c3.012-0.349,3.753-1.746,3.753-4.713
		c0-3.142-0.174-6.546-3.447-6.546C519.193,34.681,519.15,35.38,519.106,36.165z"/>
	<path fill="#FFFFFF" d="M546.117,35.947c0,3.623,0.131,6.197,0.131,10.474c0,4.189-0.437,8.292-1.659,11.303
		c-1.353,3.272-4.015,4.451-6.196,4.451c-8.336,0-8.336-13.354-8.336-21.559v-0.043c0-0.567-0.043-1.44-0.043-2.4
		c0-3.011,0.262-7.07,2.487-7.07c1.048,0,1.179,4.102,1.179,7.506c0,1.222-0.044,0.786-0.044,1.615c0,0.437,0,0.786,0.044,1.004
		c0.349,4.451-0.567,17.281,3.84,17.281c2.88-0.306,3.447-11.084,3.447-14.401v-1.483c0-1.615-0.174-3.84-0.174-5.761
		c0-3.316,0.349-6.066,3.272-6.066c1.877,0,2.052,1.091,2.052,3.055V35.947z"/>
	<path fill="#FFFFFF" d="M553.401,39.307v-2.749c0-0.524,0-0.786-0.393-0.786h-0.088c-0.654,0.043-1.004,0.043-1.353,0.043h-1.179
		c-1.57-0.087-1.833-1.484-1.833-2.487c0-1.135,0.83-2.182,2.139-2.226c4.408-0.087,4.32-0.393,8.554-0.393
		c2.531,0,3.622,0.917,3.622,2.182v0.087c0,1.702-0.044,2.749-2.968,2.88c-0.872,0.043-0.393,0.043-1.353,0.087
		c-0.698,0.044-0.785,0.131-0.785,0.83v0.087c0,4.32,0.131,8.379,0.131,12.481c0,1.483-0.044,2.88-0.044,4.276
		c0,0.873,0.044,1.92,0.044,2.968c0,0.523,0,1.047-0.044,1.571c-0.175,2.662,0.393,4.102-2.27,4.102
		c-1.702,0-1.876-2.095-1.876-4.015v-1.571v-1.702C553.707,49.562,553.401,44.675,553.401,39.307z"/>
	<path fill="#FFFFFF" d="M567.189,61.694c-1.571-0.829-1.964-3.142-1.964-5.848c0-3.229,0.349-7.288,0.349-10.561
		c0-3.011,0.131-7.506,1.833-7.506c2.706,0,2.837,3.404,2.837,7.157c0,4.8-0.087,9.077-0.087,13.354c0,2.051,0,3.534-2.226,3.534
		h-0.306C567.495,61.825,567.32,61.782,567.189,61.694z M568.28,36.645c-1.31,0-2.837-1.265-2.837-3.578
		c0-2.095,0.873-3.142,1.921-3.142c0.393,0,0.829,0.174,1.265,0.48c1.092,0.829,1.702,2.269,1.702,3.753
		C570.331,35.86,569.371,36.645,568.28,36.645z"/>
	<path fill="#FFFFFF" d="M576.963,30.972c1.614,0,1.833,4.844,1.833,8.684c0,1.746-0.044,3.273-0.044,4.059
		c0,3.622-0.175,7.899-0.175,11.696c0,0.349,0.262,0.829,0.611,0.829c0.873,0,0.567-0.043,1.396-0.043
		c1.527,0,3.578,0.043,4.713,0.698c0.917,0.523,1.179,0.96,1.179,1.92c0,1.964-1.31,3.142-3.535,3.142h-0.96
		c-1.571,0-1.877,0.175-3.36,0.175c-2.618,0-4.713-0.567-4.888-3.84c-0.044-0.917-0.087-1.921-0.087-2.837v-3.84
		c0-3.099,0.174-5.979,0.174-9.121c0-1.047-0.043-2.226-0.043-3.404C573.777,35.292,574.082,30.972,576.963,30.972z"/>
	<path fill="#FFFFFF" d="M591.929,30.972c1.614,0,1.833,4.844,1.833,8.684c0,1.746-0.044,3.273-0.044,4.059
		c0,3.622-0.175,7.899-0.175,11.696c0,0.349,0.262,0.829,0.611,0.829c0.873,0,0.567-0.043,1.396-0.043
		c1.527,0,3.578,0.043,4.713,0.698c0.917,0.523,1.179,0.96,1.179,1.92c0,1.964-1.31,3.142-3.535,3.142h-0.96
		c-1.571,0-1.877,0.175-3.36,0.175c-2.618,0-4.713-0.567-4.888-3.84c-0.044-0.917-0.087-1.921-0.087-2.837v-3.84
		c0-3.099,0.174-5.979,0.174-9.121c0-1.047-0.043-2.226-0.043-3.404C588.743,35.292,589.049,30.972,591.929,30.972z"/>
	<path fill="#FFFFFF" d="M618.066,62.175c-1.745,0-2.4-1.266-2.662-2.793c-0.262-1.484-0.479-2.356-0.698-3.84
		c-0.043-0.393-0.437-0.698-0.785-0.698h-0.044c-0.437,0.043-0.916,0.087-1.439,0.087c-0.655,0-1.354-0.044-1.964-0.044
		c-0.35,0-0.698,0-1.004,0.044c-0.524,0.087-0.786,0.567-0.786,1.135c-0.174,2.836-0.61,6.065-3.142,6.065
		c-1.658,0-2.051-0.741-2.051-1.789c0-0.437,0.043-0.916,0.131-1.44c1.527-9.077,3.665-16.976,6.327-25.224
		c0.306-0.917,0.655-1.746,1.179-2.575c0.175-0.262,0.916-0.873,1.789-0.873c1.964,0,2.531,2.924,2.88,4.626
		c1.44,7.462,2.575,15.754,4.103,23.26c0.175,0.785,0.35,1.266,0.35,2.182C620.249,61.215,618.853,62.175,618.066,62.175z
		 M614.183,49.781V49.65c-0.437-3.666-0.96-7.899-1.702-11.521c-0.043-0.174-0.043-0.349-0.262-0.349h-0.044
		c-0.262,0-0.174,0.175-0.218,0.349c-0.916,4.189-1.789,7.506-2.487,11.914v0.131c0,0.262,0.087,0.436,0.349,0.436
		c0.873,0,2.924-0.131,3.928-0.305C614.008,50.26,614.183,50.043,614.183,49.781z"/>
</g>
</svg>
