<?xml version="1.0" encoding="utf-8"?>
<!-- Generator: Adobe Illustrator 16.0.4, SVG Export Plug-In . SVG Version: 6.00 Build 0)  -->
<!DOCTYPE svg PUBLIC "-//W3C//DTD SVG 1.1//EN" "http://www.w3.org/Graphics/SVG/1.1/DTD/svg11.dtd">
<svg version="1.1" id="Isolation_Mode" xmlns="http://www.w3.org/2000/svg" xmlns:xlink="http://www.w3.org/1999/xlink" x="0px"
	 y="0px" width="725.5px" height="96.599px" viewBox="0 0 725.5 96.599" enable-background="new 0 0 725.5 96.599"
	 xml:space="preserve">
<path fill="#E53228" stroke="#FFFFFF" stroke-width="4" stroke-miterlimit="10" d="M16.692,30.547c0,0,5.458,9.375,7.279,17.898
	c1.82,8.523-5.459,34.092,9.098,33.24c14.559-0.853,81.89,8.523,120.106,5.966c38.215-2.557,247.489,1.705,254.77,2.558
	c7.279,0.852,212.913-7.671,212.913-7.671s52.774-0.853,65.513-0.853c12.737,0,25.478-42.615,23.657-56.251
	c-1.821-13.637,32.755-18.751-112.826-14.489c-145.582,4.261-429.466-0.853-429.466-0.853L29.433,11.796
	C29.43,11.796,3.952,9.239,16.692,30.547z"/>
<g enable-background="new    ">
	<path fill="#FFFFFF" d="M53.384,51.802c0-0.253-0.126-0.38-0.465-0.38h-0.042c-1.564,0-2.748-0.126-4.1-0.126
		c-0.845,0-1.733-0.55-1.733-1.395c0-0.634,0.296-1.521,0.676-1.86c0.719-0.676,2.536-0.803,4.269-0.803
		c1.268,0,2.536,0.084,3.254,0.084c1.437,0,2.325,1.226,2.452,2.705c0.169,1.31,0.253,1.986,0.253,3.381
		c0,6.297-1.902,9.256-8.073,9.256c-6.509,0-9.257-8.158-9.257-14.582c0-7.946,2.875-15.808,10.525-15.808
		c4.353,0,6.171,2.24,6.171,6.171c0,0.507,0.042,1.099,0.042,1.648c0,0.887-0.126,1.69-0.93,1.817
		c-0.465,0.084-0.93,0.126-1.395,0.126c-1.648,0-1.859-1.648-1.944-3.043c-0.126-1.944-0.803-2.621-1.69-2.621
		c-1.521,0-3.635,2.24-4.396,3.889c-1.226,2.663-1.817,4.734-1.817,8.369c0,2.283,0.296,4.1,1.353,5.875
		c0.465,0.803,0.888,1.606,1.479,2.325c0.676,0.846,1.268,1.733,2.494,1.733C53.342,58.565,53.384,54.042,53.384,51.802z"/>
	<path fill="#FFFFFF" d="M73.841,62.496c-1.69,0-2.325-1.226-2.578-2.705c-0.254-1.438-0.465-2.282-0.676-3.72
		c-0.042-0.38-0.423-0.676-0.761-0.676h-0.042c-0.423,0.042-0.888,0.084-1.395,0.084c-0.634,0-1.311-0.042-1.902-0.042
		c-0.338,0-0.676,0-0.972,0.042c-0.507,0.084-0.761,0.55-0.761,1.099c-0.169,2.748-0.592,5.876-3.043,5.876
		c-1.606,0-1.987-0.719-1.987-1.733c0-0.423,0.042-0.888,0.127-1.395c1.479-8.792,3.55-16.442,6.128-24.431
		c0.296-0.888,0.634-1.69,1.142-2.494c0.169-0.253,0.887-0.845,1.733-0.845c1.902,0,2.451,2.832,2.79,4.48
		c1.395,7.228,2.494,15.258,3.973,22.528c0.169,0.761,0.338,1.226,0.338,2.113S74.602,62.496,73.841,62.496z M70.079,50.492v-0.127
		c-0.423-3.55-0.93-7.65-1.648-11.158c-0.042-0.169-0.042-0.338-0.253-0.338h-0.042c-0.253,0-0.169,0.169-0.211,0.338
		c-0.887,4.058-1.733,7.27-2.409,11.539v0.127c0,0.253,0.084,0.423,0.338,0.423c0.845,0,2.832-0.127,3.804-0.296
		C69.91,50.957,70.079,50.745,70.079,50.492z"/>
	<path fill="#FFFFFF" d="M80.857,32.275c1.563,0,1.775,4.692,1.775,8.411c0,1.691-0.042,3.17-0.042,3.931
		c0,3.508-0.169,7.65-0.169,11.327c0,0.338,0.254,0.804,0.592,0.804c0.846,0,0.55-0.043,1.353-0.043
		c1.479,0,3.466,0.043,4.565,0.677c0.888,0.507,1.141,0.93,1.141,1.859c0,1.902-1.268,3.043-3.423,3.043h-0.93
		c-1.521,0-1.817,0.17-3.254,0.17c-2.536,0-4.565-0.55-4.734-3.72c-0.042-0.888-0.084-1.86-0.084-2.747v-3.72
		c0-3.001,0.169-5.791,0.169-8.834c0-1.015-0.042-2.156-0.042-3.297C77.771,36.459,78.067,32.275,80.857,32.275z"/>
	<path fill="#FFFFFF" d="M95.354,32.275c1.563,0,1.775,4.692,1.775,8.411c0,1.691-0.042,3.17-0.042,3.931
		c0,3.508-0.169,7.65-0.169,11.327c0,0.338,0.254,0.804,0.592,0.804c0.846,0,0.55-0.043,1.353-0.043
		c1.479,0,3.466,0.043,4.565,0.677c0.888,0.507,1.141,0.93,1.141,1.859c0,1.902-1.268,3.043-3.423,3.043h-0.93
		c-1.521,0-1.817,0.17-3.254,0.17c-2.536,0-4.565-0.55-4.734-3.72c-0.042-0.888-0.084-1.86-0.084-2.747v-3.72
		c0-3.001,0.169-5.791,0.169-8.834c0-1.015-0.042-2.156-0.042-3.297C92.269,36.459,92.564,32.275,95.354,32.275z"/>
	<path fill="#FFFFFF" d="M107.569,50.069v-7.861c0-1.902,0.042-4.016,0.169-6.34v-1.183c0-1.479,0.169-2.452,1.521-2.452
		c2.409,0,1.817,0.042,4.354,0.042h0.592c1.86,0,4.142,0.085,4.142,1.86c0,2.029-1.099,2.071-2.832,2.071h-0.169h-1.902
		c-0.719,0-1.141,0-1.141,0.761v0.423c0,1.817-0.042,3.677-0.042,5.41c0,0.803,0,0.803-0.042,0.803v0.507
		c0.042,0.676,0.761,0.761,1.479,0.761c0.55,0,0.592,0,0.592,0.042h0.338c1.183,0,2.325,0.042,2.325,2.155v0.338
		c-0.085,1.226-1.142,1.395-2.367,1.395c-0.549,0-1.86-0.042-2.367-0.042c-0.211,0-0.296,3.677-0.296,4.691
		c0,1.099,0.084,2.452,0.084,2.748c0,0.719,0.126,1.353,0.803,1.353h0.042c1.902,0,1.691-0.042,3.593-0.042
		c1.353,0,2.029,0.592,2.029,2.197c0,0.127-0.042,0.296-0.042,0.423c-0.084,1.648-0.888,1.944-2.198,1.944
		c-0.845,0-1.944-0.127-3.212-0.127s-2.494-0.042-3.381-0.042h-0.042c-1.86,0-2.198-0.55-2.198-1.733
		C107.399,56.959,107.569,53.324,107.569,50.069z"/>
	<path fill="#FFFFFF" d="M125.152,40.348v-2.663c0-0.507,0-0.761-0.38-0.761h-0.084c-0.634,0.042-0.972,0.042-1.311,0.042h-1.141
		c-1.521-0.084-1.775-1.437-1.775-2.409c0-1.099,0.803-2.113,2.071-2.156c4.269-0.084,4.185-0.38,8.284-0.38
		c2.452,0,3.508,0.888,3.508,2.113v0.084c0,1.648-0.042,2.663-2.874,2.79c-0.845,0.042-0.38,0.042-1.311,0.085
		c-0.676,0.042-0.761,0.126-0.761,0.803v0.084c0,4.185,0.127,8.115,0.127,12.088c0,1.437-0.042,2.79-0.042,4.142
		c0,0.846,0.042,1.86,0.042,2.875c0,0.507,0,1.015-0.042,1.521c-0.169,2.578,0.38,3.973-2.198,3.973
		c-1.648,0-1.817-2.028-1.817-3.888V57.17v-1.648C125.448,50.281,125.152,45.547,125.152,40.348z"/>
	<path fill="#FFFFFF" d="M147.173,62.496c-1.69,0-2.325-1.226-2.578-2.705c-0.254-1.438-0.465-2.282-0.676-3.72
		c-0.042-0.38-0.423-0.676-0.761-0.676h-0.042c-0.423,0.042-0.888,0.084-1.395,0.084c-0.634,0-1.311-0.042-1.902-0.042
		c-0.338,0-0.676,0-0.972,0.042c-0.507,0.084-0.761,0.55-0.761,1.099c-0.169,2.748-0.592,5.876-3.043,5.876
		c-1.606,0-1.987-0.719-1.987-1.733c0-0.423,0.042-0.888,0.127-1.395c1.479-8.792,3.55-16.442,6.128-24.431
		c0.296-0.888,0.634-1.69,1.142-2.494c0.169-0.253,0.887-0.845,1.733-0.845c1.902,0,2.451,2.832,2.79,4.48
		c1.395,7.228,2.494,15.258,3.973,22.528c0.169,0.761,0.338,1.226,0.338,2.113S147.934,62.496,147.173,62.496z M143.411,50.492
		v-0.127c-0.423-3.55-0.93-7.65-1.648-11.158c-0.042-0.169-0.042-0.338-0.253-0.338h-0.042c-0.253,0-0.169,0.169-0.211,0.338
		c-0.887,4.058-1.733,7.27-2.409,11.539v0.127c0,0.253,0.084,0.423,0.338,0.423c0.845,0,2.832-0.127,3.804-0.296
		C143.242,50.957,143.411,50.745,143.411,50.492z"/>
	<path fill="#FFFFFF" d="M162.262,48.548c0-1.775,0.127-3.889,0.296-5.326c0.253-1.86,0.888-3.677,1.521-5.495
		c0.719-1.986,1.564-3.17,3.339-4.438c1.564-1.141,3.254-1.395,4.734-1.395c0.676,0,1.775,0.042,2.536,0.254
		c1.226,0.296,2.325,0.93,2.79,2.071c0.507,1.226,0.761,2.959,0.803,4.438v0.127c0,1.944-0.93,2.494-2.705,2.536
		c-0.888,0-1.986-0.296-1.986-1.184c0-0.507,0.084-1.353,0.126-1.775c0.042-0.465,0.127-0.887,0.127-1.268
		c0-1.268-0.803-1.564-2.325-1.564c-2.451,0-3.212,2.155-3.804,4.1c-0.719,2.325-1.057,6.509-1.057,9.13
		c0,0.507,0.042,0.972,0.042,1.521c0.169,3.72,1.521,7.27,5.579,7.27c1.479,0,2.283-0.085,2.283-1.648v-0.296
		c-0.127-1.141-0.169-1.733-0.254-2.874c-0.042-0.465-0.169-0.592-0.634-0.592c-0.845,0-1.902,0.169-2.621,0.169
		c-1.014,0-1.395-0.465-1.395-2.282c0-1.691,4.269-1.437,6.044-1.691h0.253c0.972,0,1.564,0.845,1.733,1.733
		c0.465,2.198,0.634,5.748,0.634,7.777c0,3.424-3.846,4.649-7.397,4.649C163.91,62.496,162.262,56.029,162.262,48.548z"/>
	<path fill="#FFFFFF" d="M184.029,32.275c1.099,0.085,1.606,1.015,1.606,2.198v1.69c0,3.001,0.169,6.129,0.169,8.876
		c0,1.564-0.084,3.001-0.084,4.565c0,1.691,0.042,3.085,0.042,4.649c0,1.268,0.042,3.043,0.042,4.312
		c0,1.437-0.338,3.466-1.69,3.466c-2.579,0-2.579-2.198-2.579-5.706v-0.592v-1.479c0-0.845-0.042-1.521-0.042-2.325
		c0-5.453,0.127-10.989,0.338-16.569C181.831,33.712,182.465,32.275,184.029,32.275z"/>
	<path fill="#FFFFFF" d="M189.101,48.548c0-1.775,0.127-3.889,0.296-5.326c0.253-1.86,0.888-3.677,1.521-5.495
		c0.719-1.986,1.564-3.17,3.339-4.438c1.564-1.141,3.254-1.395,4.734-1.395c0.676,0,1.775,0.042,2.536,0.254
		c1.226,0.296,2.325,0.93,2.79,2.071c0.507,1.226,0.761,2.959,0.803,4.438v0.127c0,1.944-0.93,2.494-2.705,2.536
		c-0.888,0-1.986-0.296-1.986-1.184c0-0.507,0.084-1.353,0.126-1.775c0.042-0.465,0.127-0.887,0.127-1.268
		c0-1.268-0.803-1.564-2.325-1.564c-2.451,0-3.212,2.155-3.804,4.1c-0.719,2.325-1.057,6.509-1.057,9.13
		c0,0.507,0.042,0.972,0.042,1.521c0.169,3.72,1.521,7.27,5.579,7.27c1.479,0,2.283-0.085,2.283-1.648v-0.296
		c-0.127-1.141-0.169-1.733-0.254-2.874c-0.042-0.465-0.169-0.592-0.634-0.592c-0.845,0-1.902,0.169-2.621,0.169
		c-1.014,0-1.395-0.465-1.395-2.282c0-1.691,4.269-1.437,6.044-1.691h0.253c0.972,0,1.564,0.845,1.733,1.733
		c0.465,2.198,0.634,5.748,0.634,7.777c0,3.424-3.846,4.649-7.397,4.649C190.749,62.496,189.101,56.029,189.101,48.548z"/>
	<path fill="#FFFFFF" d="M207.951,59.749c0-0.888,0.169-1.86,0.296-2.621c1.141-8.538,2.705-17.287,6.34-24.007
		c0.338-0.634,0.803-0.846,1.311-0.846c3.762,0,9.045,24.938,9.045,28.911c0,0.888-1.015,1.438-2.071,1.438
		c-3.973,0-1.859-9.13-4.184-9.13h-0.254c-1.353,0.253-5.368,0.084-5.452,1.479c-0.169,2.493-0.127,7.565-2.748,7.565
		C208.416,62.538,207.951,60.974,207.951,59.749z M213.699,49.477c0,0.042-0.042,0.042-0.042,0.085c0,0.253,0.169,0.422,0.592,0.422
		h0.042c0.676-0.127,4.227-0.211,4.227-1.099c0-0.887-2.155-9.045-2.705-9.045C215.094,39.841,213.699,48.463,213.699,49.477z"/>
	<path fill="#FFFFFF" d="M229.888,32.444c2.409,0,3.508,3.339,3.931,4.776c0.846,2.748,1.395,5.072,2.198,7.862
		c0.676,2.367,1.31,5.156,2.113,7.186c0-0.296-0.043-0.592-0.043-0.846c0-5.833,0.254-9.848,0.254-15.808
		c0-1.817,0.592-3.254,2.917-3.254c1.226,0,1.268,0.887,1.268,2.029c0,5.875-0.381,11.074-0.381,17.287
		c0,1.521,0.085,2.536,0.085,3.973c0,1.015,0.085,1.986,0.085,3.044c0,0.38,0.042,0.93,0.042,1.395c0,1.521-0.888,1.986-1.944,1.986
		c-2.155-0.042-3.424-2.24-3.678-3.043c-1.732-4.776-2.282-7.439-3.719-13.356c-0.169-0.465-0.423-1.015-0.635-1.479
		c-0.084-0.042-0.126-0.042-0.169-0.042c-0.169,0-0.296,0.084-0.296,0.295v0.211c0,5.114,0.085,9.299,0.085,15.259
		c0,1.605-1.142,2.113-1.775,2.113c-2.621,0-2.917-2.24-2.917-4.058c0-5.537,0.127-10.863,0.127-16.569
		C227.436,37.558,227.605,32.444,229.888,32.444z"/>
	<path fill="#FFFFFF" d="M258.46,35.487c0,1.395-0.888,2.113-2.917,2.113h-1.268c-0.381,0-0.55,0.169-0.592,0.423
		c-0.085,0.676-0.127,1.353-0.127,2.029c0,2.325-0.042,4.565-0.042,6.932c0.169,3.381,0.169,6.974,0.169,10.398v1.184
		c0,0.634-0.042,1.226-0.042,1.859c0,1.648-1.269,1.944-2.325,1.944c-1.395,0-2.197-1.099-2.197-2.451c0-0.635,0-2.113,0.042-2.579
		c0.127-1.183,0.38-8.58,0.38-13.948c0-3.212-0.084-5.706-0.338-5.706h-0.254h-0.888c-0.634,0-0.761,0-1.521-0.126
		c-0.761-0.127-1.268-1.015-1.268-1.733c0-0.423,0.042-0.846,0.084-1.184c0.254-1.902,1.227-1.86,2.79-1.902
		c1.902-0.042,2.747-0.127,4.987-0.127h1.479C257.741,32.613,258.46,33.289,258.46,35.487z"/>
	<path fill="#FFFFFF" d="M260.91,52.225c0-6.255,0.296-11.877,0.296-18.302c0-1.479,1.227-1.69,2.325-1.69h0.592
		c2.155,0,3.677,0.169,5.706,0.169c0.761,0,1.184,0.169,1.605,1.057c0.127,0.254,0.17,1.099,0.17,1.395v0.084
		c0,0.845-0.888,1.479-1.733,1.479h-4.438c-0.212,0-0.296,0.169-0.296,0.507c0,2.452-0.085,5.875-0.085,8.2
		c0,0.761,0.211,0.803,0.972,0.888c1.86,0.169,4.438-0.169,4.438,1.395c0,0.972-0.169,2.663-1.353,2.663
		c-0.846,0-2.79,0.254-3.762,0.254c-0.169,0-0.211,0.169-0.211,0.422c0,1.775,0.042,4.354,0.042,6.636v0.042v0.042
		c0,0.465,0.761,0.508,1.311,0.508c4.142,0,5.156,0.38,5.156,1.69c0,1.606-0.888,2.536-3.212,2.536h-2.029
		c-0.296,0-0.55,0.042-0.846,0.042c-0.634,0-3.043-0.127-3.508-0.592c-0.972-1.015-1.099-1.775-1.099-2.958v-0.339
		c0-0.888-0.043-2.155-0.043-3.085V52.225z"/>
	<path fill="#FFFFFF" d="M293.963,56.874c0.761,0,2.071-0.38,2.789-1.31c0.508-0.676,0.677-2.155,1.606-2.155
		c1.775,0,2.282,1.226,2.282,2.536c0,0.93-0.296,1.944-0.549,2.494c-1.015,2.113-3.593,3.846-5.96,3.846
		c-5.791,0-8.411-5.875-8.411-14.286c0-8.073,0.465-15.893,8.495-15.893c3.086,0,6.721,2.156,6.721,6.551
		c0,0.888-0.127,1.691-0.93,1.818c-0.465,0.084-0.93,0.126-1.395,0.126c-1.521,0-1.775-0.972-1.86-1.944
		c-0.084-1.268-1.437-2.029-2.832-2.029c-3.296,0-3.55,4.649-3.55,8.75v2.155C290.37,51.76,290.877,56.874,293.963,56.874z"/>
	<path fill="#FFFFFF" d="M319.534,49.055c0,5.875-2.536,13.694-8.158,13.694c-7.059,0-8.157-6.72-8.157-14.117
		c0-7.608,1.521-16.484,8.326-16.484C318.266,32.148,319.534,40.897,319.534,49.055z M311.165,35.614h-0.042
		c-3.086,0-3.678,6.932-3.678,12.384c0,1.606,0.085,3.001,0.212,4.015c0.296,3.254,0.761,6.087,3.592,6.129
		c3.171,0,3.678-8.665,3.678-14.244C314.927,40.601,313.87,35.614,311.165,35.614z"/>
	<path fill="#FFFFFF" d="M325.366,32.444c2.409,0,3.508,3.339,3.931,4.776c0.846,2.748,1.395,5.072,2.198,7.862
		c0.676,2.367,1.31,5.156,2.113,7.186c0-0.296-0.043-0.592-0.043-0.846c0-5.833,0.254-9.848,0.254-15.808
		c0-1.817,0.592-3.254,2.917-3.254c1.226,0,1.268,0.887,1.268,2.029c0,5.875-0.381,11.074-0.381,17.287
		c0,1.521,0.085,2.536,0.085,3.973c0,1.015,0.085,1.986,0.085,3.044c0,0.38,0.042,0.93,0.042,1.395c0,1.521-0.888,1.986-1.944,1.986
		c-2.155-0.042-3.424-2.24-3.678-3.043c-1.732-4.776-2.282-7.439-3.719-13.356c-0.169-0.465-0.423-1.015-0.635-1.479
		c-0.084-0.042-0.126-0.042-0.169-0.042c-0.169,0-0.296,0.084-0.296,0.295v0.211c0,5.114,0.085,9.299,0.085,15.259
		c0,1.605-1.142,2.113-1.775,2.113c-2.62,0-2.916-2.24-2.916-4.058c0-5.537,0.127-10.863,0.127-16.569
		C322.915,37.558,323.084,32.444,325.366,32.444z"/>
	<path fill="#FFFFFF" d="M367.463,38.531c0,1.944-0.93,2.494-2.705,2.536c-0.888,0-1.986-0.296-1.986-1.183
		c0-2.029-1.057-2.621-1.606-2.621c-3.466,0-4.058,5.495-4.058,10.693c0,3.846,0.254,9.679,3.044,9.679
		c1.141,0,2.62-0.718,2.62-1.901c0-2.409,1.268-2.832,2.409-2.832c1.521,0,2.155,1.521,2.155,3.17c0,4.058-3.635,6.425-7.185,6.425
		c-6.002,0-7.566-6.044-7.566-13.103c0-7.904,0.888-17.118,8.961-17.118c3.212,0,5.833,2.79,5.917,6.129V38.531z"/>
	<path fill="#FFFFFF" d="M370.38,56.705v-0.338c0.042-2.409,0.042-4.776,0.042-7.143c0-4.734-0.042-9.425-0.042-14.075V34.98
		c0-0.845,0.084-2.113,0.676-2.494c0.761-0.422,2.198-0.465,3.424-0.465h1.395c1.142,0,2.959,0.042,3.974,0.253
		c2.578,0.55,5.241,2.156,6.255,4.354c0.381,0.888,0.677,2.156,0.677,3.466c0,0.93-0.127,1.859-0.55,2.578
		c-1.395,2.409-3.254,3.55-5.241,4.522c-0.422,0.211-0.676,0.169-0.676,0.592v0.042c2.536,3.677,6.044,8.2,7.481,12.385
		c0.042,0.084,0.042,0.211,0.042,0.296c0,0.549-0.254,1.226-0.803,1.563c-0.296,0.169-0.677,0.254-1.015,0.254
		c-0.592,0-1.142-0.212-1.438-0.55c-3.127-3.424-4.945-6.805-7.438-10.355c-0.592-0.845-1.395-2.494-2.155-3.17
		c-0.296,0-0.339,2.452-0.339,4.354c0,2.578,0.085,4.818,0.085,7.65c0,1.184-0.381,1.775-2.451,1.775
		c-0.381,0-0.888-0.085-1.184-0.212c-0.635-0.296-0.761-1.605-0.761-2.916C370.338,58.1,370.38,57.339,370.38,56.705z
		 M379.679,43.053c0.93-0.676,2.493-1.521,2.493-3.001c0-1.733-1.901-2.958-3.127-3.381c-0.888-0.296-2.748-0.38-3.636-0.38h-0.465
		c-0.211,0-0.296,1.775-0.296,3.719c0,2.24,0.085,4.649,0.169,4.649C375.959,44.659,378.664,43.729,379.679,43.053z"/>
	<path fill="#FFFFFF" d="M390.498,52.225c0-6.255,0.296-11.877,0.296-18.302c0-1.479,1.227-1.69,2.325-1.69h0.592
		c2.155,0,3.677,0.169,5.706,0.169c0.761,0,1.184,0.169,1.605,1.057c0.127,0.254,0.17,1.099,0.17,1.395v0.084
		c0,0.845-0.888,1.479-1.733,1.479h-4.438c-0.212,0-0.296,0.169-0.296,0.507c0,2.452-0.085,5.875-0.085,8.2
		c0,0.761,0.211,0.803,0.972,0.888c1.86,0.169,4.438-0.169,4.438,1.395c0,0.972-0.169,2.663-1.353,2.663
		c-0.846,0-2.79,0.254-3.762,0.254c-0.169,0-0.211,0.169-0.211,0.422c0,1.775,0.042,4.354,0.042,6.636v0.042v0.042
		c0,0.465,0.761,0.508,1.311,0.508c4.142,0,5.156,0.38,5.156,1.69c0,1.606-0.888,2.536-3.212,2.536h-2.029
		c-0.296,0-0.55,0.042-0.846,0.042c-0.634,0-3.043-0.127-3.508-0.592c-0.972-1.015-1.099-1.775-1.099-2.958v-0.339
		c0-0.888-0.043-2.155-0.043-3.085V52.225z"/>
	<path fill="#FFFFFF" d="M426.974,58.987c0,0.17-0.042,0.339-0.042,0.508c0,1.69-0.592,3.128-2.282,3.128
		c-0.043,0-0.127,0.042-0.212,0.042c-0.042,0-0.042-0.042-0.084-0.042c-1.944-0.296-2.156-2.409-2.156-4.692v-2.239
		c0-3.678,0.212-8.158,0.212-11.877c0-0.38,0-0.803-0.254-0.803c-0.507,0-2.367,6.763-2.747,7.65
		c-0.761,1.775-1.353,3.762-2.198,6.002c-0.676,1.775-0.719,3.381-2.451,3.381c-0.085,0-0.127,0.043-0.212,0.043
		c-1.944,0-2.282-5.875-2.831-7.862c-0.719-2.79-1.522-6.044-2.579-8.918c0-0.126-0.169-0.465-0.296-0.465h-0.042
		c-0.211,0.042-0.211,0.127-0.211,0.296v0.127v1.014c0,2.409,0.169,6.002,0.169,9.003c0,2.113-0.042,4.311-0.042,6.213v0.423
		c0,1.141-0.846,1.901-2.24,1.901c-1.817,0-2.367-1.014-2.367-2.747c0-5.579,0.507-10.229,0.507-16.272
		c0-2.071,0.127-4.523,0.127-6.425c0-1.69,0.719-4.396,2.451-4.396c1.479,0,2.536,2.155,2.875,3.466
		c1.563,5.241,3.339,10.609,4.564,16.104c0,0.211,0.169,0.549,0.423,0.549c0.507,0,0.93-1.479,1.057-1.902
		c1.944-5.495,2.958-7.65,5.325-14.709c0.381-1.184,1.226-3.635,2.79-3.635c2.324,0,2.451,2.747,2.451,5.579v1.184
		C426.678,45.039,426.974,53.239,426.974,58.987z"/>
	<path fill="#FFFFFF" d="M446.501,49.055c0,5.875-2.536,13.694-8.158,13.694c-7.059,0-8.157-6.72-8.157-14.117
		c0-7.608,1.521-16.484,8.326-16.484C445.232,32.148,446.501,40.897,446.501,49.055z M438.132,35.614h-0.042
		c-3.086,0-3.678,6.932-3.678,12.384c0,1.606,0.085,3.001,0.212,4.015c0.296,3.254,0.761,6.087,3.592,6.129
		c3.171,0,3.678-8.665,3.678-14.244C441.894,40.601,440.837,35.614,438.132,35.614z"/>
	<path fill="#FFFFFF" d="M462.477,38.953c0,1.902-1.014,2.452-1.817,2.452c-1.014,0-2.155-0.634-2.155-2.494
		c0-1.015-0.042-2.874-2.494-2.874c-1.268,0-2.282,1.648-2.282,2.958c0,4.903,9.976,7.523,9.976,16.272
		c0,1.776-0.381,3.508-1.353,4.903c-1.564,2.156-2.875,2.663-6.087,2.663c-3.635,0-6.805-3.677-6.805-8.284
		c0-1.648,0.845-3.466,2.578-3.466c1.184,0,1.563,1.226,1.606,1.817c0.169,2.663,0.211,5.241,2.831,5.241
		c1.902,0,2.621-1.986,2.621-3.593c0-7.777-9.468-7.988-9.468-15.132c0-3.888,2.451-7.27,6.171-7.27
		C461.251,32.148,462.477,35.149,462.477,38.953z"/>
	<path fill="#FFFFFF" d="M479.468,38.953c0,1.902-1.014,2.452-1.817,2.452c-1.014,0-2.155-0.634-2.155-2.494
		c0-1.015-0.042-2.874-2.494-2.874c-1.268,0-2.282,1.648-2.282,2.958c0,4.903,9.976,7.523,9.976,16.272
		c0,1.776-0.381,3.508-1.353,4.903c-1.564,2.156-2.875,2.663-6.087,2.663c-3.635,0-6.805-3.677-6.805-8.284
		c0-1.648,0.845-3.466,2.578-3.466c1.184,0,1.563,1.226,1.606,1.817c0.169,2.663,0.211,5.241,2.831,5.241
		c1.902,0,2.621-1.986,2.621-3.593c0-7.777-9.468-7.988-9.468-15.132c0-3.888,2.451-7.27,6.171-7.27
		C478.242,32.148,479.468,35.149,479.468,38.953z"/>
	<path fill="#FFFFFF" d="M486.229,32.275c1.1,0.085,1.606,1.015,1.606,2.198v1.69c0,3.001,0.169,6.129,0.169,8.876
		c0,1.564-0.084,3.001-0.084,4.565c0,1.691,0.042,3.085,0.042,4.649c0,1.268,0.042,3.043,0.042,4.312
		c0,1.437-0.338,3.466-1.69,3.466c-2.578,0-2.578-2.198-2.578-5.706v-0.592v-1.479c0-0.845-0.043-1.521-0.043-2.325
		c0-5.453,0.127-10.989,0.339-16.569C484.032,33.712,484.666,32.275,486.229,32.275z"/>
	<path fill="#FFFFFF" d="M504.024,35.487c0,1.395-0.888,2.113-2.917,2.113h-1.268c-0.381,0-0.55,0.169-0.592,0.423
		c-0.085,0.676-0.127,1.353-0.127,2.029c0,2.325-0.042,4.565-0.042,6.932c0.169,3.381,0.169,6.974,0.169,10.398v1.184
		c0,0.634-0.042,1.226-0.042,1.859c0,1.648-1.269,1.944-2.325,1.944c-1.395,0-2.197-1.099-2.197-2.451c0-0.635,0-2.113,0.042-2.579
		c0.127-1.183,0.38-8.58,0.38-13.948c0-3.212-0.084-5.706-0.338-5.706h-0.254h-0.888c-0.634,0-0.761,0-1.521-0.126
		c-0.761-0.127-1.268-1.015-1.268-1.733c0-0.423,0.042-0.846,0.084-1.184c0.254-1.902,1.227-1.86,2.79-1.902
		c1.902-0.042,2.747-0.127,4.987-0.127h1.479C503.306,32.613,504.024,33.289,504.024,35.487z"/>
	<path fill="#FFFFFF" d="M521.438,49.055c0,5.875-2.536,13.694-8.158,13.694c-7.059,0-8.157-6.72-8.157-14.117
		c0-7.608,1.521-16.484,8.326-16.484C520.169,32.148,521.438,40.897,521.438,49.055z M513.068,35.614h-0.042
		c-3.086,0-3.678,6.932-3.678,12.384c0,1.606,0.085,3.001,0.212,4.015c0.296,3.254,0.761,6.087,3.592,6.129
		c3.171,0,3.678-8.665,3.678-14.244C516.83,40.601,515.773,35.614,513.068,35.614z"/>
	<path fill="#FFFFFF" d="M544.008,56.874c0.761,0,2.071-0.38,2.789-1.31c0.508-0.676,0.677-2.155,1.606-2.155
		c1.775,0,2.282,1.226,2.282,2.536c0,0.93-0.296,1.944-0.549,2.494c-1.015,2.113-3.593,3.846-5.96,3.846
		c-5.791,0-8.411-5.875-8.411-14.286c0-8.073,0.465-15.893,8.495-15.893c3.086,0,6.721,2.156,6.721,6.551
		c0,0.888-0.127,1.691-0.93,1.818c-0.465,0.084-0.93,0.126-1.395,0.126c-1.521,0-1.775-0.972-1.86-1.944
		c-0.084-1.268-1.437-2.029-2.832-2.029c-3.296,0-3.55,4.649-3.55,8.75v2.155C540.415,51.76,540.922,56.874,544.008,56.874z"/>
	<path fill="#FFFFFF" d="M558.547,40.179v5.833v0.127c0.043,0.719,0.127,0.888,0.423,0.888c1.86,0,3.339-0.423,5.03-0.592
		c0.549-0.042,0.803,0,0.803-0.507v-0.296c-0.042-0.465-0.085-2.621-0.085-3.085v-0.718c0-2.917-0.211-4.776-0.211-7.777
		c0-1.141,1.226-1.775,1.986-1.775c1.902,0,2.24,1.184,2.24,2.959c0,0.845-0.084,1.86-0.084,2.917v2.747
		c0,4.522,0.253,10.06,0.253,15.259c0,0.592,0.043,1.31,0.043,1.986c0,1.944-0.677,3.72-2.325,3.72c-1.859,0-1.902-3.34-1.902-5.453
		c0-1.521,0.085-3,0.085-4.142v-0.465c0-0.676-0.042-1.268-0.677-1.268H564c-0.55,0.042-0.55,0.085-1.1,0.085l-2.493,0.211h-0.719
		c-1.311,0-1.395,0.676-1.395,1.648c0,2.367,0.169,4.691,0.169,7.101c0,1.691-0.761,2.621-2.578,2.621
		c-1.648,0-1.817-2.325-1.817-4.438v-1.774c0-1.606,0.084-3.255,0.084-4.607v-2.325c0-0.888,0.042-1.86,0.042-2.748v-1.986
		c0-3.17-0.126-6.171-0.126-8.707c0-1.564,0.211-3.381,1.986-3.381c1.986,0,2.493,0.761,2.493,1.902V40.179z"/>
	<path fill="#FFFFFF" d="M588.43,49.055c0,5.875-2.536,13.694-8.158,13.694c-7.059,0-8.157-6.72-8.157-14.117
		c0-7.608,1.521-16.484,8.326-16.484C587.161,32.148,588.43,40.897,588.43,49.055z M580.061,35.614h-0.042
		c-3.086,0-3.678,6.932-3.678,12.384c0,1.606,0.085,3.001,0.212,4.015c0.296,3.254,0.761,6.087,3.592,6.129
		c3.171,0,3.678-8.665,3.678-14.244C583.822,40.601,582.766,35.614,580.061,35.614z"/>
	<path fill="#FFFFFF" d="M599.503,56.874c0.761,0,2.071-0.38,2.789-1.31c0.508-0.676,0.677-2.155,1.606-2.155
		c1.775,0,2.282,1.226,2.282,2.536c0,0.93-0.296,1.944-0.549,2.494c-1.015,2.113-3.593,3.846-5.96,3.846
		c-5.791,0-8.411-5.875-8.411-14.286c0-8.073,0.465-15.893,8.495-15.893c3.086,0,6.721,2.156,6.721,6.551
		c0,0.888-0.127,1.691-0.93,1.818c-0.465,0.084-0.93,0.126-1.395,0.126c-1.521,0-1.775-0.972-1.86-1.944
		c-0.084-1.268-1.437-2.029-2.832-2.029c-3.296,0-3.55,4.649-3.55,8.75v2.155C595.91,51.76,596.417,56.874,599.503,56.874z"/>
	<path fill="#FFFFFF" d="M625.074,49.055c0,5.875-2.536,13.694-8.158,13.694c-7.059,0-8.157-6.72-8.157-14.117
		c0-7.608,1.521-16.484,8.326-16.484C623.806,32.148,625.074,40.897,625.074,49.055z M616.705,35.614h-0.042
		c-3.086,0-3.678,6.932-3.678,12.384c0,1.606,0.085,3.001,0.212,4.015c0.296,3.254,0.761,6.087,3.592,6.129
		c3.171,0,3.678-8.665,3.678-14.244C620.467,40.601,619.41,35.614,616.705,35.614z"/>
	<path fill="#FFFFFF" d="M634.499,57.128c0.888,0,1.775-0.084,2.578-0.084c1.438,0,2.536,0.338,2.536,2.239
		c0,2.198-2.156,2.705-3.043,2.79c-1.142,0.127-0.719,0.127-1.269,0.127c-0.676,0-2.493-0.127-3.931-0.127
		c-1.859,0-2.874-1.353-3.043-3.466c-0.043-0.507-0.043-0.973-0.043-1.395c0-1.226,0.085-2.283,0.127-3.466v-0.803
		c0-1.099-0.042-2.198-0.042-3.296v-0.592c0.127-5.833-0.127-9.383,0.634-13.821c0.254-1.226,1.269-2.494,2.494-2.494
		c1.817,0,1.944,0.803,1.944,2.113v0.507c0,0.507-0.043,1.099-0.043,1.691v1.014c0,3.043-0.169,6.002-0.169,8.918
		c0,2.959,0.127,6.467,0.127,9.468C633.399,56.959,633.991,57.128,634.499,57.128z"/>
	<path fill="#FFFFFF" d="M642.107,59.749c0-0.888,0.169-1.86,0.296-2.621c1.141-8.538,2.705-17.287,6.34-24.007
		c0.338-0.634,0.803-0.846,1.311-0.846c3.762,0,9.045,24.938,9.045,28.911c0,0.888-1.015,1.438-2.071,1.438
		c-3.973,0-1.859-9.13-4.185-9.13h-0.253c-1.353,0.253-5.368,0.084-5.453,1.479c-0.169,2.493-0.126,7.565-2.747,7.565
		C642.572,62.538,642.107,60.974,642.107,59.749z M647.855,49.477c0,0.042-0.042,0.042-0.042,0.085c0,0.253,0.169,0.422,0.592,0.422
		h0.042c0.677-0.127,4.227-0.211,4.227-1.099c0-0.887-2.155-9.045-2.705-9.045C649.25,39.841,647.855,48.463,647.855,49.477z"/>
	<path fill="#FFFFFF" d="M671.018,35.487c0,1.395-0.888,2.113-2.917,2.113h-1.268c-0.381,0-0.55,0.169-0.592,0.423
		c-0.085,0.676-0.127,1.353-0.127,2.029c0,2.325-0.042,4.565-0.042,6.932c0.169,3.381,0.169,6.974,0.169,10.398v1.184
		c0,0.634-0.042,1.226-0.042,1.859c0,1.648-1.269,1.944-2.325,1.944c-1.395,0-2.197-1.099-2.197-2.451c0-0.635,0-2.113,0.042-2.579
		c0.127-1.183,0.38-8.58,0.38-13.948c0-3.212-0.084-5.706-0.338-5.706h-0.254h-0.887c-0.635,0-0.762,0-1.522-0.126
		c-0.761-0.127-1.268-1.015-1.268-1.733c0-0.423,0.042-0.846,0.085-1.184c0.253-1.902,1.226-1.86,2.789-1.902
		c1.902-0.042,2.747-0.127,4.987-0.127h1.479C670.299,32.613,671.018,33.289,671.018,35.487z"/>
	<path fill="#FFFFFF" d="M673.468,52.225c0-6.255,0.296-11.877,0.296-18.302c0-1.479,1.227-1.69,2.325-1.69h0.592
		c2.155,0,3.677,0.169,5.706,0.169c0.761,0,1.184,0.169,1.605,1.057c0.127,0.254,0.17,1.099,0.17,1.395v0.084
		c0,0.845-0.888,1.479-1.733,1.479h-4.438c-0.212,0-0.296,0.169-0.296,0.507c0,2.452-0.085,5.875-0.085,8.2
		c0,0.761,0.211,0.803,0.972,0.888c1.86,0.169,4.438-0.169,4.438,1.395c0,0.972-0.169,2.663-1.353,2.663
		c-0.846,0-2.79,0.254-3.762,0.254c-0.169,0-0.211,0.169-0.211,0.422c0,1.775,0.042,4.354,0.042,6.636v0.042v0.042
		c0,0.465,0.761,0.508,1.311,0.508c4.142,0,5.156,0.38,5.156,1.69c0,1.606-0.888,2.536-3.213,2.536h-2.028
		c-0.296,0-0.55,0.042-0.846,0.042c-0.634,0-3.043-0.127-3.508-0.592c-0.972-1.015-1.099-1.775-1.099-2.958v-0.339
		c0-0.888-0.043-2.155-0.043-3.085V52.225z"/>
</g>
</svg>
