<?xml version="1.0" encoding="utf-8"?>
<!-- Generator: Adobe Illustrator 16.0.4, SVG Export Plug-In . SVG Version: 6.00 Build 0)  -->
<!DOCTYPE svg PUBLIC "-//W3C//DTD SVG 1.1//EN" "http://www.w3.org/Graphics/SVG/1.1/DTD/svg11.dtd">
<svg version="1.1" id="Isolation_Mode" xmlns="http://www.w3.org/2000/svg" xmlns:xlink="http://www.w3.org/1999/xlink" x="0px"
	 y="0px" width="725.5px" height="96.599px" viewBox="0 0 725.5 96.599" enable-background="new 0 0 725.5 96.599"
	 xml:space="preserve">
<path fill="#E53228" stroke="#FFFFFF" stroke-width="4" stroke-miterlimit="10" d="M16.692,30.547c0,0,5.458,9.375,7.279,17.898
	c1.82,8.523-5.459,34.092,9.098,33.24c14.559-0.853,81.89,8.523,120.106,5.966c38.215-2.557,247.489,1.705,254.77,2.558
	c7.279,0.852,212.913-7.671,212.913-7.671s52.774-0.853,65.513-0.853c12.737,0,25.478-42.615,23.657-56.251
	c-1.821-13.637,32.755-18.751-112.826-14.489c-145.582,4.261-429.466-0.853-429.466-0.853L29.433,11.796
	C29.43,11.796,3.952,9.239,16.692,30.547z"/>
<g enable-background="new    ">
	<path fill="#FFFFFF" d="M42.714,44.302c0-2.654-0.09-5.354-0.09-8.055c0-0.449,0.045-0.944,0.045-1.439l-0.045-0.54
		c0-0.63-0.09-1.17-0.09-1.845c0-0.585,0.09-1.395,0.27-1.845c0.27-0.9,3.15-0.99,5.265-0.99c4.95,0,10.35,1.35,10.485,6.614
		c0,4.5-3.87,5.13-3.87,5.805c0,0.045,0,0.045,0.045,0.045c0.63,0,5.444,2.835,5.58,7.965v0.405c0,7.515-5.76,11.249-12.734,11.249
		h-0.585h-0.405c-1.62,0-3.735-0.09-3.825-1.979c-0.045-2.564-0.135-5.22-0.135-7.784C42.624,49.297,42.714,46.867,42.714,44.302z
		 M47.709,40.792c2.115,0,6.21-1.979,6.21-4.319c0-2.835-3.195-3.15-5.805-3.15h-1.08c-0.225,0-0.27,2.025-0.27,3.825
		c0,1.395,0.045,2.745,0.045,3.06C46.809,40.792,47.169,40.792,47.709,40.792z M50.634,44.707c-1.215,0-2.34,0.225-3.33,0.81
		c-0.27,0.136-0.405,0.405-0.405,0.721c0,0.63,0.045,1.215,0.045,1.845c0,1.484-0.045,2.925-0.045,4.41
		c0,0.359-0.045,0.81-0.045,1.35c0,0.99,0.09,2.115,0.675,2.205c0.585,0.09,1.125,0.09,1.62,0.09c3.735,0,6.435-2.115,6.435-6.21
		C55.583,46.282,54.099,44.707,50.634,44.707z"/>
	<path fill="#FFFFFF" d="M70.793,29.677c6.39,0,7.604,11.159,7.604,18.449c0,7.199-2.295,13.635-8.189,13.635
		c-5.13,0-7.155-5.985-7.155-15.84C63.054,40.432,64.764,29.677,70.793,29.677z M73.628,47.947v-0.811
		c0-4.904-0.09-12.824-2.835-12.824c-1.98,0-3.285,5.85-3.285,11.654s0.765,11.609,2.565,11.609
		C72.053,57.576,73.628,54.292,73.628,47.947z"/>
	<path fill="#FFFFFF" d="M105.712,32.602c0,1.845-0.495,3.645-0.99,5.265c-1.035,3.465-2.43,6.57-3.015,10.08
		c-0.27,1.619-0.765,3.149-0.945,4.814c-0.135,1.08-0.54,2.115-0.765,3.195c-0.27,1.395-1.89,5.265-3.195,5.265h-0.18
		c-2.88,0-2.925-3.78-3.285-6.21c-0.18-1.17-0.36-2.7-0.585-3.825c-0.135-0.72-0.315-4.949-1.035-4.949
		c-0.405,0-0.855,4.409-0.945,4.859c-0.225,1.08-0.315,2.16-0.405,3.24c-0.18,1.979-0.9,7.154-2.79,7.154h-0.135
		c-0.135,0-0.27,0-0.405-0.045c-3.195-0.99-3.465-5.76-4.005-9.314c-0.585-4.095-1.439-8.234-2.025-12.149
		c-0.315-2.115-0.99-4.77-0.99-6.885c0-1.575,0.36-2.835,1.485-3.42c0.225-0.135,0.45-0.18,0.675-0.18c1.89,0,2.97,5.669,3.24,7.515
		c0.36,2.385,0.99,5.805,1.485,8.729c0.045,0.18,0.315,2.564,0.315,2.745c0,0.27,0.18,0.63,0.315,0.63
		c0.045,0,0.09-0.045,0.09-0.181c1.17-5.579,1.53-9.674,3.42-15.029c0.27-0.72,1.305-1.485,1.89-1.485
		c1.575,0,1.89,1.935,2.115,3.24c0.72,4.005,0.9,9.314,1.845,12.104c0.045,0.136,0,0.36,0.135,0.36c0.315,0,0.81-2.025,0.855-2.385
		c0.63-2.565,1.53-6.21,2.16-8.865c0.675-2.834,2.025-7.334,4.365-7.334C105.577,29.542,105.712,31.432,105.712,32.602z"/>
	<path fill="#FFFFFF" d="M111.877,29.677c1.665,0,1.89,4.995,1.89,8.954c0,1.801-0.045,3.375-0.045,4.186
		c0,3.734-0.18,8.145-0.18,12.06c0,0.359,0.27,0.854,0.63,0.854c0.9,0,0.585-0.045,1.44-0.045c1.575,0,3.689,0.045,4.859,0.72
		c0.945,0.54,1.215,0.99,1.215,1.98c0,2.024-1.35,3.239-3.645,3.239h-0.99c-1.62,0-1.935,0.181-3.465,0.181
		c-2.7,0-4.86-0.585-5.04-3.96c-0.045-0.945-0.09-1.98-0.09-2.925v-3.96c0-3.195,0.18-6.165,0.18-9.404
		c0-1.08-0.045-2.295-0.045-3.511C108.592,34.132,108.907,29.677,111.877,29.677z"/>
	<path fill="#FFFFFF" d="M136.987,54.651c-0.09-1.26-0.09-2.52-0.09-3.779c0-4.68,0.315-9.18,0.45-13.949
		c0.045-1.71,0.225-3.96,0.405-5.67c0.135-1.215,1.305-1.575,2.655-1.665h1.08c1.215,0,2.34,0.09,3.51,0.315
		c4.23,0.9,6.12,4.365,6.885,8.91c0.135,0.989,0.225,4.185,0.225,5.04c0,8.909-3.555,18.134-12.105,18.134
		c-0.405,0-0.855-0.045-1.305-0.045c-0.99,0-1.44-1.08-1.485-2.07c-0.045-1.619-0.18-3.194-0.225-4.814V54.651z M143.107,56.496
		c2.43,0,5.175-8.64,5.175-13.319c0-4.725-0.18-9.269-5.175-9.449h-0.045c-0.585,0-0.63,0.495-0.63,1.035v0.404v0.271
		c0,1.35-0.045,1.845-0.045,3.149c0,0.676,0,1.306,0.045,1.98c0.135,3.645,0.135,5.085,0.27,9.18v0.314v1.575v2.655
		c0,0.585,0,1.17,0.045,1.8C142.747,56.271,142.837,56.496,143.107,56.496z"/>
	<path fill="#FFFFFF" d="M155.527,48.622v-8.37c0-2.024,0.045-4.274,0.18-6.75v-1.26c0-1.575,0.18-2.61,1.62-2.61
		c2.565,0,1.935,0.045,4.635,0.045h0.63c1.98,0,4.41,0.09,4.41,1.98c0,2.16-1.17,2.205-3.015,2.205h-0.18h-2.025
		c-0.765,0-1.215,0-1.215,0.811v0.449c0,1.936-0.045,3.915-0.045,5.76c0,0.855,0,0.855-0.045,0.855v0.54
		c0.045,0.72,0.81,0.81,1.575,0.81c0.585,0,0.63,0,0.63,0.045h0.36c1.26,0,2.475,0.045,2.475,2.295v0.36
		c-0.09,1.305-1.215,1.484-2.52,1.484c-0.585,0-1.979-0.045-2.52-0.045c-0.225,0-0.315,3.915-0.315,4.995
		c0,1.17,0.09,2.61,0.09,2.925c0,0.765,0.135,1.44,0.855,1.44h0.045c2.025,0,1.8-0.045,3.825-0.045c1.44,0,2.16,0.63,2.16,2.34
		c0,0.135-0.045,0.314-0.045,0.449c-0.09,1.755-0.945,2.07-2.34,2.07c-0.9,0-2.07-0.135-3.419-0.135c-1.35,0-2.655-0.045-3.6-0.045
		h-0.045c-1.98,0-2.34-0.585-2.34-1.846C155.347,55.957,155.527,52.087,155.527,48.622z"/>
	<path fill="#FFFFFF" d="M186.847,58.297c0,3.06-0.585,3.104-1.8,3.104c-1.17,0-2.25-0.36-2.25-4.41
		c0-2.564-0.135-4.409-0.135-7.154c0-2.655,0.09-5.265,0.09-7.92c0-4.095-0.225-8.145-0.225-9.989c0-0.09,0.045-0.18,0.045-0.27
		c0.225-0.99,0.9-1.62,1.98-1.8c1.035-0.18,1.395-0.315,2.385-0.315c6.075,0,9.765,2.52,9.765,8.504c0,5.625-4.229,9.18-9.225,10.17
		c-0.675,0.135-0.855,0.315-0.855,0.9v0.225C186.712,51.276,186.847,56.496,186.847,58.297z M186.532,42.636v0.585
		c0.045,0.45,0.135,0.631,0.405,0.631c0.135,0,0.27-0.046,0.45-0.136c1.665-0.72,4.635-2.52,4.635-5.67
		c0-1.664-1.395-3.734-3.06-4.139c-0.405-0.09-0.81-0.18-1.17-0.18c-0.54,0-0.99,0.18-0.99,0.81
		C186.802,38.587,186.532,38.722,186.532,42.636z"/>
	<path fill="#FFFFFF" d="M200.888,61.356c-1.62-0.855-2.025-3.24-2.025-6.03c0-3.329,0.36-7.515,0.36-10.889
		c0-3.105,0.135-7.74,1.89-7.74c2.79,0,2.925,3.51,2.925,7.38c0,4.95-0.09,9.359-0.09,13.77c0,2.115,0,3.645-2.295,3.645h-0.315
		C201.203,61.491,201.023,61.446,200.888,61.356z M202.012,35.527c-1.35,0-2.925-1.305-2.925-3.69c0-2.16,0.9-3.24,1.98-3.24
		c0.405,0,0.854,0.18,1.305,0.495c1.125,0.855,1.755,2.34,1.755,3.87C204.127,34.718,203.137,35.527,202.012,35.527z"/>
	<path fill="#FFFFFF" d="M210.336,29.857c2.565,0,3.735,3.555,4.185,5.085c0.9,2.925,1.485,5.399,2.341,8.37
		c0.72,2.52,1.395,5.489,2.249,7.649c0-0.315-0.045-0.63-0.045-0.9c0-6.209,0.271-10.484,0.271-16.829
		c0-1.935,0.63-3.465,3.104-3.465c1.305,0,1.351,0.945,1.351,2.16c0,6.255-0.405,11.789-0.405,18.404c0,1.62,0.09,2.699,0.09,4.229
		c0,1.08,0.09,2.115,0.09,3.24c0,0.404,0.045,0.989,0.045,1.484c0,1.62-0.944,2.115-2.069,2.115
		c-2.295-0.045-3.646-2.385-3.915-3.24c-1.845-5.084-2.43-7.919-3.96-14.219c-0.18-0.495-0.45-1.08-0.675-1.575
		c-0.09-0.045-0.135-0.045-0.181-0.045c-0.18,0-0.314,0.09-0.314,0.314v0.226c0,5.444,0.09,9.899,0.09,16.244
		c0,1.71-1.215,2.25-1.89,2.25c-2.79,0-3.105-2.385-3.105-4.32c0-5.895,0.136-11.564,0.136-17.639
		C207.727,35.302,207.907,29.857,210.336,29.857z M211.237,28.193c-0.675,0-1.26-1.125-1.26-1.845c0-2.25,1.574-3.24,3.779-3.24
		c1.485,0,2.475,1.17,3.78,1.17c0.404,0,0.81-0.135,1.215-0.405c0.54-0.315,1.17-0.495,1.755-0.495c1.26,0,2.43,0.72,2.43,2.205
		c0,1.395-0.9,1.979-1.935,2.475c-0.9,0.405-2.25,0.45-3.42,0.45c-1.936,0-2.521-1.215-4.455-1.215
		C212.317,27.293,212.046,28.193,211.237,28.193z"/>
	<path fill="#FFFFFF" d="M227.033,58.927c0-0.945,0.18-1.98,0.314-2.79c1.215-9.09,2.88-18.404,6.75-25.559
		c0.36-0.675,0.854-0.9,1.395-0.9c4.005,0,9.63,26.549,9.63,30.778c0,0.945-1.08,1.53-2.205,1.53c-4.229,0-1.979-9.72-4.455-9.72
		h-0.27c-1.439,0.271-5.715,0.09-5.805,1.575c-0.18,2.654-0.135,8.055-2.925,8.055C227.528,61.896,227.033,60.231,227.033,58.927z
		 M233.152,47.992c0,0.045-0.045,0.045-0.045,0.09c0,0.27,0.181,0.45,0.63,0.45h0.045c0.721-0.136,4.5-0.226,4.5-1.17
		c0-0.945-2.295-9.63-2.88-9.63C234.637,37.732,233.152,46.912,233.152,47.992z"/>
	<path fill="#FFFFFF" d="M275.316,36.337c0,2.07-0.99,2.655-2.881,2.7c-0.943,0-2.113-0.314-2.113-1.26
		c0-2.16-1.125-2.79-1.711-2.79c-3.689,0-4.32,5.85-4.32,11.385c0,4.095,0.271,10.305,3.24,10.305c1.215,0,2.791-0.766,2.791-2.025
		c0-2.564,1.35-3.015,2.564-3.015c1.619,0,2.295,1.62,2.295,3.375c0,4.319-3.871,6.84-7.65,6.84c-6.389,0-8.055-6.435-8.055-13.949
		c0-8.415,0.945-18.225,9.539-18.225c3.42,0,6.211,2.97,6.301,6.524V36.337z"/>
	<path fill="#FFFFFF" d="M285.307,29.677c6.389,0,7.605,11.159,7.605,18.449c0,7.199-2.295,13.635-8.191,13.635
		c-5.129,0-7.154-5.985-7.154-15.84C277.566,40.432,279.277,29.677,285.307,29.677z M288.141,47.947v-0.811
		c0-4.904-0.09-12.824-2.834-12.824c-1.98,0-3.285,5.85-3.285,11.654s0.766,11.609,2.564,11.609
		C286.566,57.576,288.141,54.292,288.141,47.947z"/>
	<path fill="#FFFFFF" d="M315.141,33.772c0,1.26,0.045,2.7,0.045,3.375c0,6.074-0.135,11.744-0.135,17.774
		c0,2.25-0.541,5.625-2.43,6.074c-0.361,0.09-0.721,0.271-1.08,0.271c-3.061,0-4.5-5.805-5.355-7.83
		c-0.855-1.979-1.305-3.734-2.205-5.625c-0.9-1.89-1.484-3.959-2.52-5.489c-0.09-0.09-0.225-0.585-0.404-0.585
		c-0.361,0-0.406,1.215-0.406,2.654c0,5.445,0.361,7.605,0.361,12.285c0,2.835-0.045,4.994-2.521,4.994c-0.18,0-0.404,0-0.629-0.045
		c-1.531-0.18-1.666-2.159-1.666-4.454v-1.71c0-1.351,0.045-2.7,0.045-3.601c0-0.899,0.045-1.71,0.045-2.609v-3.51
		c0-4.005,0.045-7.649,0.406-11.385c0.225-2.07,0.449-3.69,2.475-3.915h0.27c3.15,0,7.65,14.715,9.811,18.854
		c0.09,0.18,1.035,2.115,1.215,2.115c0.09,0,0.135-0.226,0.135-0.495c0-0.36-0.045-0.72-0.045-0.9c0.045-1.62,0.09-3.149,0.09-4.635
		c0-4.14-0.18-7.784-0.18-11.654c0-3.42,0.539-4.23,2.385-4.23C314.871,29.497,315.141,32.242,315.141,33.772z"/>
	<path fill="#FFFFFF" d="M346.324,36.337c0,2.07-0.99,2.655-2.879,2.7c-0.945,0-2.115-0.314-2.115-1.26
		c0-2.16-1.125-2.79-1.709-2.79c-3.691,0-4.32,5.85-4.32,11.385c0,4.095,0.27,10.305,3.24,10.305c1.215,0,2.789-0.766,2.789-2.025
		c0-2.564,1.35-3.015,2.564-3.015c1.621,0,2.295,1.62,2.295,3.375c0,4.319-3.869,6.84-7.648,6.84c-6.391,0-8.055-6.435-8.055-13.949
		c0-8.415,0.943-18.225,9.539-18.225c3.42,0,6.209,2.97,6.299,6.524V36.337z"/>
	<path fill="#FFFFFF" d="M349.43,58.927c0-4.14,0.271-7.74,0.271-11.745v-2.52c-0.09-2.79-0.18-6.165-0.18-8.864v-1.936
		c0-3.735,0.943-4.365,4.59-4.365c1.709,0,3.555,0.36,4.139,0.54c0.541,0.18,1.08,0.36,1.529,0.63
		c2.025,1.125,2.746,3.645,3.061,6.255c0.135,1.079,0.225,2.34,0.225,3.645c0,3.96-0.898,8.369-4.273,8.369
		c-0.406,0-0.541,0.136-0.541,0.36c0,0.18,0.09,0.36,0.225,0.54c1.936,2.655,4.32,5.895,5.58,8.595
		c0.225,0.45,0.314,0.81,0.314,1.26c0,1.215-0.764,2.295-1.709,2.295c-2.699,0-4.051-3.375-4.994-5.22
		c-1.17-2.295-1.576-3.78-2.746-6.075c-0.09-0.18-0.27-0.359-0.449-0.359c-0.314,0-0.359,0.675-0.359,1.395
		c0,0.63,0.045,1.305,0.045,1.62c0.045,1.35,0.314,4.365,0.314,6.075c0,1.935-1.17,2.295-2.791,2.295
		C349.791,61.717,349.43,60.501,349.43,58.927z M354.605,35.032c-0.045,1.215-0.09,2.43-0.09,3.69c0,1.845,0.09,3.869,0.135,5.669
		c0.045,0.36,0.135,0.721,0.449,0.721h0.045c3.105-0.36,3.871-1.8,3.871-4.86c0-3.239-0.18-6.75-3.555-6.75
		C354.695,33.502,354.65,34.222,354.605,35.032z"/>
	<path fill="#FFFFFF" d="M367.16,48.622v-8.37c0-2.024,0.045-4.274,0.18-6.75v-1.26c0-1.575,0.18-2.61,1.619-2.61
		c2.564,0,1.936,0.045,4.635,0.045h0.631c1.979,0,4.41,0.09,4.41,1.98c0,2.16-1.17,2.205-3.016,2.205h-0.18h-2.025
		c-0.766,0-1.215,0-1.215,0.811v0.449c0,1.936-0.045,3.915-0.045,5.76c0,0.855,0,0.855-0.045,0.855v0.54
		c0.045,0.72,0.811,0.81,1.574,0.81c0.586,0,0.631,0,0.631,0.045h0.359c1.26,0,2.475,0.045,2.475,2.295v0.36
		c-0.09,1.305-1.215,1.484-2.52,1.484c-0.584,0-1.98-0.045-2.52-0.045c-0.225,0-0.314,3.915-0.314,4.995
		c0,1.17,0.09,2.61,0.09,2.925c0,0.765,0.135,1.44,0.854,1.44h0.045c2.025,0,1.801-0.045,3.826-0.045c1.439,0,2.16,0.63,2.16,2.34
		c0,0.135-0.045,0.314-0.045,0.449c-0.09,1.755-0.945,2.07-2.34,2.07c-0.9,0-2.07-0.135-3.42-0.135c-1.352,0-2.656-0.045-3.6-0.045
		h-0.047c-1.979,0-2.34-0.585-2.34-1.846C366.979,55.957,367.16,52.087,367.16,48.622z"/>
	<path fill="#FFFFFF" d="M386.375,42.052c0,0.226,0.045,0.405,0.045,0.585c0,1.575,0.135,2.115,0.135,3.465
		c0,1.62,0.09,2.386,0.09,5.175v5.266c0,3.329-0.404,5.31-2.699,5.31c-0.18,0-0.361,0-0.541-0.045
		c-1.26-0.226-1.529-2.61-1.529-5.22c0-6.885,0.27-12.6,0.27-19.395c0-2.34,0.09-7.2,1.891-7.83
		c0.135-0.045,0.225-0.045,0.359-0.045c0.359,0,0.766,0.135,1.215,0.405c2.16,1.305,3.285,5.265,4.096,7.604
		c0.314,0.945,0.494,1.936,0.764,2.88c0.135,0.585,1.711,7.155,1.98,7.155c0.404,0,5.939-13.815,6.436-15.21
		c0.27-0.72,1.529-2.025,2.115-2.43c0.27-0.18,0.584-0.27,0.943-0.27c1.891,0,2.521,2.655,2.701,6.165
		c0.09,2.115,0.135,3.69,0.135,5.04v2.025c0,4.454,0.314,9.179,0.314,13.679v1.485c0,2.115-0.18,3.824-2.07,3.824
		c-1.215,0-2.475-0.314-2.879-1.664c-0.721-2.476-0.855-5.04-0.855-8.1v-0.046c0-2.609,0.09-5.265,0.09-7.784
		c0-1.125,0-0.315-0.09-1.395c0-0.136-0.045-0.226-0.225-0.226c-0.721,0-4.949,16.515-6.346,16.829h-0.18
		c-0.225,0-0.449-0.09-0.584-0.18c-3.105-2.385-4.006-12.689-4.861-16.919c-0.045-0.226-0.135-0.676-0.404-0.676h-0.045
		C386.42,41.557,386.375,41.782,386.375,42.052z"/>
	<path fill="#FFFFFF" d="M415.982,29.677c6.391,0,7.605,11.159,7.605,18.449c0,7.199-2.295,13.635-8.189,13.635
		c-5.131,0-7.154-5.985-7.154-15.84C408.244,40.432,409.953,29.677,415.982,29.677z M418.818,47.947v-0.811
		c0-4.904-0.09-12.824-2.836-12.824c-1.979,0-3.283,5.85-3.283,11.654s0.764,11.609,2.564,11.609
		C417.244,57.576,418.818,54.292,418.818,47.947z"/>
	<path fill="#FFFFFF" d="M430.789,53.122c0,0.72,0.045,0.989,0.045,2.25c0,1.89,0.854,2.609,2.385,2.609
		c2.43,0,2.564-2.475,2.564-4.59c0-8.954-6.84-4.68-9.18-11.609c-0.225-0.72-0.314-1.53-0.314-2.34c0-4.455,1.844-9.945,7.199-9.945
		s6.975,2.205,6.975,7.515c0,1.439-1.395,1.71-2.205,1.71c-3.014,0-1.215-4.68-4.455-4.68c-2.475,0-3.014,3.69-3.014,5.4
		c0,1.439,0.809,2.385,1.799,2.88c4.455,2.25,8.189,4.59,8.189,11.294c0,4.365-2.295,8.686-7.604,8.686c-4.455,0-7.02-3.42-7.02-8.1
		c0-2.835,0.539-3.87,2.52-3.87C430.428,50.332,430.789,52.042,430.789,53.122z"/>
	<path fill="#FFFFFF" d="M448.383,53.122c0,0.72,0.045,0.989,0.045,2.25c0,1.89,0.855,2.609,2.385,2.609
		c2.43,0,2.566-2.475,2.566-4.59c0-8.954-6.84-4.68-9.18-11.609c-0.227-0.72-0.316-1.53-0.316-2.34c0-4.455,1.846-9.945,7.201-9.945
		c5.354,0,6.975,2.205,6.975,7.515c0,1.439-1.396,1.71-2.205,1.71c-3.016,0-1.215-4.68-4.455-4.68c-2.475,0-3.016,3.69-3.016,5.4
		c0,1.439,0.811,2.385,1.801,2.88c4.455,2.25,8.189,4.59,8.189,11.294c0,4.365-2.295,8.686-7.605,8.686c-4.455,0-7.02-3.42-7.02-8.1
		c0-2.835,0.541-3.87,2.52-3.87C448.023,50.332,448.383,52.042,448.383,53.122z"/>
	<path fill="#FFFFFF" d="M463.459,61.356c-1.621-0.855-2.025-3.24-2.025-6.03c0-3.329,0.359-7.515,0.359-10.889
		c0-3.105,0.135-7.74,1.891-7.74c2.789,0,2.924,3.51,2.924,7.38c0,4.95-0.09,9.359-0.09,13.77c0,2.115,0,3.645-2.295,3.645h-0.314
		C463.773,61.491,463.594,61.446,463.459,61.356z M464.582,35.527c-1.35,0-2.924-1.305-2.924-3.69c0-2.16,0.9-3.24,1.98-3.24
		c0.404,0,0.854,0.18,1.305,0.495c1.125,0.855,1.754,2.34,1.754,3.87C466.697,34.718,465.707,35.527,464.582,35.527z"/>
	<path fill="#FFFFFF" d="M474.121,38.272v-2.835c0-0.54,0-0.81-0.404-0.81h-0.09c-0.676,0.045-1.035,0.045-1.395,0.045h-1.215
		c-1.621-0.091-1.891-1.53-1.891-2.565c0-1.17,0.855-2.25,2.205-2.295c4.545-0.09,4.455-0.405,8.82-0.405
		c2.609,0,3.734,0.945,3.734,2.25v0.09c0,1.755-0.045,2.834-3.061,2.97c-0.9,0.045-0.404,0.045-1.395,0.09
		c-0.721,0.045-0.811,0.135-0.811,0.854v0.09c0,4.455,0.135,8.64,0.135,12.87c0,1.529-0.045,2.97-0.045,4.409
		c0,0.9,0.045,1.98,0.045,3.061c0,0.54,0,1.08-0.045,1.62c-0.18,2.744,0.406,4.229-2.34,4.229c-1.754,0-1.934-2.16-1.934-4.14v-1.62
		v-1.755C474.438,48.846,474.121,43.806,474.121,38.272z"/>
	<path fill="#FFFFFF" d="M492.348,29.677c6.389,0,7.605,11.159,7.605,18.449c0,7.199-2.295,13.635-8.191,13.635
		c-5.129,0-7.154-5.985-7.154-15.84C484.607,40.432,486.318,29.677,492.348,29.677z M495.182,47.947v-0.811
		c0-4.904-0.09-12.824-2.834-12.824c-1.98,0-3.285,5.85-3.285,11.654s0.766,11.609,2.564,11.609
		C493.607,57.576,495.182,54.292,495.182,47.947z"/>
	<path fill="#FFFFFF" d="M515.611,58.927c0-4.14,0.271-7.74,0.271-11.745v-2.52c-0.09-2.79-0.18-6.165-0.18-8.864v-1.936
		c0-3.735,0.943-4.365,4.59-4.365c1.709,0,3.555,0.36,4.139,0.54c0.541,0.18,1.08,0.36,1.529,0.63
		c2.025,1.125,2.746,3.645,3.061,6.255c0.135,1.079,0.225,2.34,0.225,3.645c0,3.96-0.898,8.369-4.273,8.369
		c-0.406,0-0.541,0.136-0.541,0.36c0,0.18,0.09,0.36,0.225,0.54c1.936,2.655,4.32,5.895,5.58,8.595
		c0.225,0.45,0.314,0.81,0.314,1.26c0,1.215-0.764,2.295-1.709,2.295c-2.699,0-4.051-3.375-4.994-5.22
		c-1.17-2.295-1.576-3.78-2.746-6.075c-0.09-0.18-0.27-0.359-0.449-0.359c-0.314,0-0.359,0.675-0.359,1.395
		c0,0.63,0.045,1.305,0.045,1.62c0.045,1.35,0.314,4.365,0.314,6.075c0,1.935-1.17,2.295-2.791,2.295
		C515.973,61.717,515.611,60.501,515.611,58.927z M520.787,35.032c-0.045,1.215-0.09,2.43-0.09,3.69c0,1.845,0.09,3.869,0.135,5.669
		c0.045,0.36,0.135,0.721,0.449,0.721h0.045c3.105-0.36,3.871-1.8,3.871-4.86c0-3.239-0.18-6.75-3.555-6.75
		C520.877,33.502,520.832,34.222,520.787,35.032z"/>
	<path fill="#FFFFFF" d="M539.641,29.677c6.391,0,7.605,11.159,7.605,18.449c0,7.199-2.295,13.635-8.189,13.635
		c-5.131,0-7.154-5.985-7.154-15.84C531.902,40.432,533.611,29.677,539.641,29.677z M542.477,47.947v-0.811
		c0-4.904-0.09-12.824-2.836-12.824c-1.979,0-3.283,5.85-3.283,11.654s0.764,11.609,2.564,11.609
		C540.902,57.576,542.477,54.292,542.477,47.947z"/>
	<path fill="#FFFFFF" d="M569.475,33.772c0,1.26,0.045,2.7,0.045,3.375c0,6.074-0.135,11.744-0.135,17.774
		c0,2.25-0.539,5.625-2.43,6.074c-0.359,0.09-0.719,0.271-1.08,0.271c-3.059,0-4.5-5.805-5.354-7.83
		c-0.855-1.979-1.307-3.734-2.205-5.625c-0.9-1.89-1.486-3.959-2.521-5.489c-0.09-0.09-0.225-0.585-0.404-0.585
		c-0.359,0-0.404,1.215-0.404,2.654c0,5.445,0.359,7.605,0.359,12.285c0,2.835-0.045,4.994-2.52,4.994c-0.18,0-0.404,0-0.631-0.045
		c-1.529-0.18-1.664-2.159-1.664-4.454v-1.71c0-1.351,0.045-2.7,0.045-3.601c0-0.899,0.045-1.71,0.045-2.609v-3.51
		c0-4.005,0.045-7.649,0.404-11.385c0.227-2.07,0.451-3.69,2.475-3.915h0.271c3.148,0,7.648,14.715,9.809,18.854
		c0.09,0.18,1.035,2.115,1.215,2.115c0.09,0,0.135-0.226,0.135-0.495c0-0.36-0.045-0.72-0.045-0.9c0.045-1.62,0.09-3.149,0.09-4.635
		c0-4.14-0.18-7.784-0.18-11.654c0-3.42,0.541-4.23,2.385-4.23C569.205,29.497,569.475,32.242,569.475,33.772z"/>
	<path fill="#FFFFFF" d="M589.547,58.297c0,3.06-0.586,3.104-1.801,3.104c-1.17,0-2.25-0.36-2.25-4.41
		c0-2.564-0.135-4.409-0.135-7.154c0-2.655,0.09-5.265,0.09-7.92c0-4.095-0.225-8.145-0.225-9.989c0-0.09,0.045-0.18,0.045-0.27
		c0.225-0.99,0.9-1.62,1.98-1.8c1.035-0.18,1.395-0.315,2.385-0.315c6.074,0,9.764,2.52,9.764,8.504c0,5.625-4.229,9.18-9.225,10.17
		c-0.674,0.135-0.854,0.315-0.854,0.9v0.225C589.412,51.276,589.547,56.496,589.547,58.297z M589.23,42.636v0.585
		c0.045,0.45,0.137,0.631,0.406,0.631c0.135,0,0.27-0.046,0.449-0.136c1.666-0.72,4.635-2.52,4.635-5.67
		c0-1.664-1.395-3.734-3.059-4.139c-0.406-0.09-0.811-0.18-1.17-0.18c-0.541,0-0.99,0.18-0.99,0.81
		C589.502,38.587,589.23,38.722,589.23,42.636z"/>
	<path fill="#FFFFFF" d="M612.99,61.851c-1.799,0-2.475-1.305-2.744-2.88c-0.27-1.53-0.496-2.43-0.721-3.96
		c-0.045-0.405-0.449-0.72-0.809-0.72h-0.047c-0.449,0.045-0.943,0.09-1.484,0.09c-0.674,0-1.395-0.045-2.025-0.045
		c-0.359,0-0.719,0-1.033,0.045c-0.541,0.09-0.811,0.585-0.811,1.17c-0.18,2.925-0.631,6.255-3.24,6.255
		c-1.709,0-2.115-0.766-2.115-1.845c0-0.45,0.045-0.945,0.135-1.485c1.576-9.359,3.781-17.504,6.525-26.009
		c0.314-0.945,0.676-1.8,1.215-2.655c0.18-0.27,0.945-0.9,1.846-0.9c2.023,0,2.609,3.015,2.969,4.77
		c1.484,7.694,2.654,16.244,4.23,23.984c0.18,0.81,0.359,1.305,0.359,2.249C615.24,60.861,613.801,61.851,612.99,61.851z
		 M608.986,49.072v-0.136c-0.451-3.779-0.99-8.145-1.756-11.879c-0.045-0.181-0.045-0.36-0.27-0.36h-0.045
		c-0.27,0-0.18,0.18-0.225,0.36c-0.945,4.319-1.846,7.739-2.564,12.284v0.135c0,0.271,0.09,0.45,0.359,0.45
		c0.9,0,3.014-0.135,4.049-0.314C608.807,49.566,608.986,49.342,608.986,49.072z"/>
	<path fill="#FFFFFF" d="M621.406,53.122c0,0.72,0.045,0.989,0.045,2.25c0,1.89,0.854,2.609,2.385,2.609
		c2.43,0,2.564-2.475,2.564-4.59c0-8.954-6.84-4.68-9.18-11.609c-0.225-0.72-0.314-1.53-0.314-2.34c0-4.455,1.844-9.945,7.199-9.945
		s6.975,2.205,6.975,7.515c0,1.439-1.395,1.71-2.205,1.71c-3.014,0-1.215-4.68-4.455-4.68c-2.475,0-3.014,3.69-3.014,5.4
		c0,1.439,0.809,2.385,1.799,2.88c4.455,2.25,8.189,4.59,8.189,11.294c0,4.365-2.295,8.686-7.604,8.686c-4.455,0-7.02-3.42-7.02-8.1
		c0-2.835,0.539-3.87,2.52-3.87C621.045,50.332,621.406,52.042,621.406,53.122z"/>
	<path fill="#FFFFFF" d="M647.91,61.851c-1.799,0-2.475-1.305-2.744-2.88c-0.27-1.53-0.496-2.43-0.721-3.96
		c-0.045-0.405-0.449-0.72-0.809-0.72h-0.047c-0.449,0.045-0.943,0.09-1.484,0.09c-0.674,0-1.395-0.045-2.025-0.045
		c-0.359,0-0.719,0-1.033,0.045c-0.541,0.09-0.811,0.585-0.811,1.17c-0.18,2.925-0.631,6.255-3.24,6.255
		c-1.709,0-2.115-0.766-2.115-1.845c0-0.45,0.045-0.945,0.135-1.485c1.576-9.359,3.781-17.504,6.525-26.009
		c0.314-0.945,0.676-1.8,1.215-2.655c0.18-0.27,0.945-0.9,1.846-0.9c2.023,0,2.609,3.015,2.969,4.77
		c1.484,7.694,2.654,16.244,4.23,23.984c0.18,0.81,0.359,1.305,0.359,2.249C650.16,60.861,648.721,61.851,647.91,61.851z
		 M643.906,49.072v-0.136c-0.451-3.779-0.99-8.145-1.756-11.879c-0.045-0.181-0.045-0.36-0.27-0.36h-0.045
		c-0.27,0-0.18,0.18-0.225,0.36c-0.945,4.319-1.846,7.739-2.564,12.284v0.135c0,0.271,0.09,0.45,0.359,0.45
		c0.9,0,3.014-0.135,4.049-0.314C643.727,49.566,643.906,49.342,643.906,49.072z"/>
	<path fill="#FFFFFF" d="M656.326,53.122c0,0.72,0.045,0.989,0.045,2.25c0,1.89,0.854,2.609,2.385,2.609
		c2.43,0,2.564-2.475,2.564-4.59c0-8.954-6.84-4.68-9.18-11.609c-0.225-0.72-0.314-1.53-0.314-2.34c0-4.455,1.844-9.945,7.199-9.945
		S666,31.702,666,37.012c0,1.439-1.395,1.71-2.205,1.71c-3.014,0-1.215-4.68-4.455-4.68c-2.475,0-3.014,3.69-3.014,5.4
		c0,1.439,0.809,2.385,1.799,2.88c4.455,2.25,8.189,4.59,8.189,11.294c0,4.365-2.295,8.686-7.604,8.686c-4.455,0-7.02-3.42-7.02-8.1
		c0-2.835,0.539-3.87,2.52-3.87C655.965,50.332,656.326,52.042,656.326,53.122z"/>
</g>
</svg>
