<?xml version="1.0" encoding="utf-8"?>
<!-- Generator: Adobe Illustrator 16.0.4, SVG Export Plug-In . SVG Version: 6.00 Build 0)  -->
<!DOCTYPE svg PUBLIC "-//W3C//DTD SVG 1.1//EN" "http://www.w3.org/Graphics/SVG/1.1/DTD/svg11.dtd">
<svg version="1.1" id="Isolation_Mode" xmlns="http://www.w3.org/2000/svg" xmlns:xlink="http://www.w3.org/1999/xlink" x="0px"
	 y="0px" width="725.5px" height="96.599px" viewBox="0 0 725.5 96.599" enable-background="new 0 0 725.5 96.599"
	 xml:space="preserve">
<path fill="#E53228" stroke="#FFFFFF" stroke-width="4" stroke-miterlimit="10" d="M16.692,30.547c0,0,5.458,9.375,7.279,17.898
	c1.82,8.523-5.459,34.092,9.098,33.24c14.559-0.853,81.89,8.523,120.106,5.966c38.215-2.557,247.489,1.705,254.77,2.558
	c7.279,0.852,212.913-7.671,212.913-7.671s52.774-0.853,65.513-0.853c12.737,0,25.478-42.615,23.657-56.251
	c-1.821-13.637,32.755-18.751-112.826-14.489c-145.582,4.261-429.466-0.853-429.466-0.853L29.433,11.796
	C29.43,11.796,3.952,9.239,16.692,30.547z"/>
<g enable-background="new    ">
	<path fill="#FFFFFF" d="M114.714,44.302c0-2.654-0.09-5.354-0.09-8.055c0-0.449,0.045-0.944,0.045-1.439l-0.045-0.54
		c0-0.63-0.09-1.17-0.09-1.845c0-0.585,0.09-1.395,0.27-1.845c0.27-0.9,3.15-0.99,5.265-0.99c4.95,0,10.35,1.35,10.485,6.614
		c0,4.5-3.87,5.13-3.87,5.805c0,0.045,0,0.045,0.045,0.045c0.63,0,5.444,2.835,5.58,7.965v0.405c0,7.515-5.76,11.249-12.734,11.249
		h-0.585h-0.405c-1.62,0-3.735-0.09-3.825-1.979c-0.045-2.564-0.135-5.22-0.135-7.784C114.624,49.297,114.714,46.867,114.714,44.302
		z M119.709,40.792c2.115,0,6.21-1.979,6.21-4.319c0-2.835-3.195-3.15-5.805-3.15h-1.08c-0.225,0-0.27,2.025-0.27,3.825
		c0,1.395,0.045,2.745,0.045,3.06C118.809,40.792,119.169,40.792,119.709,40.792z M122.634,44.707c-1.215,0-2.34,0.225-3.33,0.81
		c-0.27,0.136-0.405,0.405-0.405,0.721c0,0.63,0.045,1.215,0.045,1.845c0,1.484-0.045,2.925-0.045,4.41
		c0,0.359-0.045,0.81-0.045,1.35c0,0.99,0.09,2.115,0.675,2.205c0.585,0.09,1.125,0.09,1.62,0.09c3.735,0,6.435-2.115,6.435-6.21
		C127.583,46.282,126.099,44.707,122.634,44.707z"/>
	<path fill="#FFFFFF" d="M148.598,61.851c-1.8,0-2.475-1.305-2.745-2.88c-0.27-1.53-0.495-2.43-0.72-3.96
		c-0.045-0.405-0.45-0.72-0.81-0.72h-0.045c-0.45,0.045-0.945,0.09-1.485,0.09c-0.675,0-1.395-0.045-2.025-0.045
		c-0.36,0-0.72,0-1.035,0.045c-0.54,0.09-0.81,0.585-0.81,1.17c-0.18,2.925-0.63,6.255-3.24,6.255c-1.71,0-2.115-0.766-2.115-1.845
		c0-0.45,0.045-0.945,0.135-1.485c1.575-9.359,3.78-17.504,6.525-26.009c0.315-0.945,0.675-1.8,1.215-2.655
		c0.18-0.27,0.945-0.9,1.845-0.9c2.025,0,2.61,3.015,2.97,4.77c1.485,7.694,2.655,16.244,4.229,23.984
		c0.18,0.81,0.36,1.305,0.36,2.249C150.848,60.861,149.408,61.851,148.598,61.851z M144.593,49.072v-0.136
		c-0.45-3.779-0.99-8.145-1.755-11.879c-0.045-0.181-0.045-0.36-0.27-0.36h-0.045c-0.27,0-0.18,0.18-0.225,0.36
		c-0.945,4.319-1.845,7.739-2.565,12.284v0.135c0,0.271,0.09,0.45,0.36,0.45c0.9,0,3.015-0.135,4.05-0.314
		C144.413,49.566,144.593,49.342,144.593,49.072z"/>
	<path fill="#FFFFFF" d="M152.739,58.927c0-4.14,0.27-7.74,0.27-11.745v-2.52c-0.09-2.79-0.18-6.165-0.18-8.864v-1.936
		c0-3.735,0.945-4.365,4.59-4.365c1.71,0,3.555,0.36,4.14,0.54c0.54,0.18,1.08,0.36,1.53,0.63c2.025,1.125,2.745,3.645,3.06,6.255
		c0.135,1.079,0.225,2.34,0.225,3.645c0,3.96-0.9,8.369-4.275,8.369c-0.405,0-0.54,0.136-0.54,0.36c0,0.18,0.09,0.36,0.225,0.54
		c1.935,2.655,4.32,5.895,5.58,8.595c0.225,0.45,0.315,0.81,0.315,1.26c0,1.215-0.765,2.295-1.71,2.295
		c-2.7,0-4.05-3.375-4.995-5.22c-1.17-2.295-1.575-3.78-2.745-6.075c-0.09-0.18-0.27-0.359-0.45-0.359
		c-0.315,0-0.36,0.675-0.36,1.395c0,0.63,0.045,1.305,0.045,1.62c0.045,1.35,0.315,4.365,0.315,6.075c0,1.935-1.17,2.295-2.79,2.295
		C153.099,61.717,152.739,60.501,152.739,58.927z M157.914,35.032c-0.045,1.215-0.09,2.43-0.09,3.69c0,1.845,0.09,3.869,0.135,5.669
		c0.045,0.36,0.135,0.721,0.45,0.721h0.045c3.105-0.36,3.87-1.8,3.87-4.86c0-3.239-0.18-6.75-3.555-6.75
		C158.003,33.502,157.958,34.222,157.914,35.032z"/>
	<path fill="#FFFFFF" d="M170.333,58.927c0-4.14,0.27-7.74,0.27-11.745v-2.52c-0.09-2.79-0.18-6.165-0.18-8.864v-1.936
		c0-3.735,0.945-4.365,4.59-4.365c1.71,0,3.555,0.36,4.14,0.54c0.54,0.18,1.08,0.36,1.53,0.63c2.025,1.125,2.745,3.645,3.06,6.255
		c0.135,1.079,0.225,2.34,0.225,3.645c0,3.96-0.9,8.369-4.274,8.369c-0.405,0-0.54,0.136-0.54,0.36c0,0.18,0.09,0.36,0.225,0.54
		c1.935,2.655,4.32,5.895,5.58,8.595c0.225,0.45,0.315,0.81,0.315,1.26c0,1.215-0.765,2.295-1.71,2.295
		c-2.7,0-4.05-3.375-4.995-5.22c-1.17-2.295-1.575-3.78-2.745-6.075c-0.09-0.18-0.27-0.359-0.45-0.359
		c-0.315,0-0.36,0.675-0.36,1.395c0,0.63,0.045,1.305,0.045,1.62c0.045,1.35,0.315,4.365,0.315,6.075c0,1.935-1.17,2.295-2.79,2.295
		C170.693,61.717,170.333,60.501,170.333,58.927z M175.508,35.032c-0.045,1.215-0.09,2.43-0.09,3.69c0,1.845,0.09,3.869,0.135,5.669
		c0.045,0.36,0.135,0.721,0.45,0.721h0.045c3.105-0.36,3.87-1.8,3.87-4.86c0-3.239-0.18-6.75-3.555-6.75
		C175.598,33.502,175.553,34.222,175.508,35.032z"/>
	<path fill="#FFFFFF" d="M189.682,61.356c-1.62-0.855-2.025-3.24-2.025-6.03c0-3.329,0.36-7.515,0.36-10.889
		c0-3.105,0.135-7.74,1.89-7.74c2.79,0,2.925,3.51,2.925,7.38c0,4.95-0.09,9.359-0.09,13.77c0,2.115,0,3.645-2.295,3.645h-0.315
		C189.997,61.491,189.817,61.446,189.682,61.356z M190.807,35.527c-1.35,0-2.925-1.305-2.925-3.69c0-2.16,0.9-3.24,1.98-3.24
		c0.405,0,0.855,0.18,1.305,0.495c1.125,0.855,1.755,2.34,1.755,3.87C192.922,34.718,191.932,35.527,190.807,35.527z"/>
	<path fill="#FFFFFF" d="M200.347,38.272v-2.835c0-0.54,0-0.81-0.405-0.81h-0.09c-0.675,0.045-1.035,0.045-1.395,0.045h-1.215
		c-1.62-0.091-1.89-1.53-1.89-2.565c0-1.17,0.855-2.25,2.205-2.295c4.545-0.09,4.455-0.405,8.82-0.405
		c2.61,0,3.735,0.945,3.735,2.25v0.09c0,1.755-0.045,2.834-3.06,2.97c-0.9,0.045-0.405,0.045-1.395,0.09
		c-0.72,0.045-0.81,0.135-0.81,0.854v0.09c0,4.455,0.135,8.64,0.135,12.87c0,1.529-0.045,2.97-0.045,4.409
		c0,0.9,0.045,1.98,0.045,3.061c0,0.54,0,1.08-0.045,1.62c-0.18,2.744,0.405,4.229-2.34,4.229c-1.755,0-1.935-2.16-1.935-4.14v-1.62
		v-1.755C200.662,48.846,200.347,43.806,200.347,38.272z"/>
	<path fill="#FFFFFF" d="M223.792,61.851c-1.8,0-2.475-1.305-2.745-2.88c-0.27-1.53-0.495-2.43-0.72-3.96
		c-0.045-0.405-0.45-0.72-0.81-0.72h-0.045c-0.45,0.045-0.945,0.09-1.485,0.09c-0.675,0-1.395-0.045-2.025-0.045
		c-0.36,0-0.72,0-1.035,0.045c-0.54,0.09-0.81,0.585-0.81,1.17c-0.18,2.925-0.63,6.255-3.24,6.255c-1.71,0-2.115-0.766-2.115-1.845
		c0-0.45,0.045-0.945,0.135-1.485c1.575-9.359,3.78-17.504,6.525-26.009c0.315-0.945,0.675-1.8,1.215-2.655
		c0.18-0.27,0.945-0.9,1.845-0.9c2.025,0,2.61,3.015,2.97,4.77c1.485,7.694,2.655,16.244,4.229,23.984
		c0.18,0.81,0.36,1.305,0.36,2.249C226.042,60.861,224.602,61.851,223.792,61.851z M219.787,49.072v-0.136
		c-0.45-3.779-0.99-8.145-1.755-11.879c-0.045-0.181-0.045-0.36-0.27-0.36h-0.045c-0.27,0-0.18,0.18-0.225,0.36
		c-0.945,4.319-1.845,7.739-2.565,12.284v0.135c0,0.271,0.09,0.45,0.36,0.45c0.9,0,3.015-0.135,4.05-0.314
		C219.607,49.566,219.787,49.342,219.787,49.072z"/>
	<path fill="#FFFFFF" d="M232.208,53.122c0,0.72,0.045,0.989,0.045,2.25c0,1.89,0.855,2.609,2.385,2.609
		c2.43,0,2.565-2.475,2.565-4.59c0-8.954-6.84-4.68-9.18-11.609c-0.225-0.72-0.315-1.53-0.315-2.34c0-4.455,1.845-9.945,7.2-9.945
		c5.355,0,6.975,2.205,6.975,7.515c0,1.439-1.395,1.71-2.205,1.71c-3.015,0-1.215-4.68-4.455-4.68c-2.475,0-3.015,3.69-3.015,5.4
		c0,1.439,0.81,2.385,1.8,2.88c4.455,2.25,8.19,4.59,8.19,11.294c0,4.365-2.295,8.686-7.605,8.686c-4.455,0-7.02-3.42-7.02-8.1
		c0-2.835,0.54-3.87,2.52-3.87C231.848,50.332,232.208,52.042,232.208,53.122z"/>
	<path fill="#FFFFFF" d="M257.768,54.651c-0.09-1.26-0.09-2.52-0.09-3.779c0-4.68,0.314-9.18,0.449-13.949
		c0.045-1.71,0.225-3.96,0.405-5.67c0.135-1.215,1.305-1.575,2.655-1.665h1.08c1.215,0,2.34,0.09,3.51,0.315
		c4.229,0.9,6.119,4.365,6.885,8.91c0.135,0.989,0.225,4.185,0.225,5.04c0,8.909-3.555,18.134-12.105,18.134
		c-0.404,0-0.854-0.045-1.305-0.045c-0.99,0-1.439-1.08-1.484-2.07c-0.045-1.619-0.18-3.194-0.225-4.814V54.651z M263.887,56.496
		c2.43,0,5.176-8.64,5.176-13.319c0-4.725-0.182-9.269-5.176-9.449h-0.045c-0.584,0-0.631,0.495-0.631,1.035v0.404v0.271
		c0,1.35-0.045,1.845-0.045,3.149c0,0.676,0,1.306,0.045,1.98c0.137,3.645,0.137,5.085,0.271,9.18v0.314v1.575v2.655
		c0,0.585,0,1.17,0.045,1.8C263.527,56.271,263.617,56.496,263.887,56.496z"/>
	<path fill="#FFFFFF" d="M276.307,48.622v-8.37c0-2.024,0.045-4.274,0.18-6.75v-1.26c0-1.575,0.18-2.61,1.621-2.61
		c2.564,0,1.934,0.045,4.635,0.045h0.629c1.98,0,4.41,0.09,4.41,1.98c0,2.16-1.17,2.205-3.016,2.205h-0.18h-2.023
		c-0.766,0-1.217,0-1.217,0.811v0.449c0,1.936-0.045,3.915-0.045,5.76c0,0.855,0,0.855-0.045,0.855v0.54
		c0.045,0.72,0.811,0.81,1.576,0.81c0.584,0,0.629,0,0.629,0.045h0.361c1.26,0,2.475,0.045,2.475,2.295v0.36
		c-0.09,1.305-1.215,1.484-2.52,1.484c-0.586,0-1.98-0.045-2.521-0.045c-0.225,0-0.314,3.915-0.314,4.995
		c0,1.17,0.09,2.61,0.09,2.925c0,0.765,0.135,1.44,0.855,1.44h0.045c2.025,0,1.801-0.045,3.824-0.045c1.441,0,2.16,0.63,2.16,2.34
		c0,0.135-0.045,0.314-0.045,0.449c-0.09,1.755-0.945,2.07-2.34,2.07c-0.9,0-2.07-0.135-3.42-0.135s-2.654-0.045-3.6-0.045h-0.045
		c-1.98,0-2.34-0.585-2.34-1.846C276.127,55.957,276.307,52.087,276.307,48.622z"/>
	<path fill="#FFFFFF" d="M318.74,36.337c0,2.07-0.99,2.655-2.879,2.7c-0.945,0-2.115-0.314-2.115-1.26c0-2.16-1.125-2.79-1.709-2.79
		c-3.691,0-4.32,5.85-4.32,11.385c0,4.095,0.27,10.305,3.24,10.305c1.215,0,2.789-0.766,2.789-2.025c0-2.564,1.35-3.015,2.564-3.015
		c1.621,0,2.295,1.62,2.295,3.375c0,4.319-3.869,6.84-7.648,6.84c-6.391,0-8.055-6.435-8.055-13.949
		c0-8.415,0.943-18.225,9.539-18.225c3.42,0,6.209,2.97,6.299,6.524V36.337z"/>
	<path fill="#FFFFFF" d="M321.98,48.622v-8.37c0-2.024,0.045-4.274,0.18-6.75v-1.26c0-1.575,0.18-2.61,1.621-2.61
		c2.564,0,1.934,0.045,4.635,0.045h0.629c1.98,0,4.41,0.09,4.41,1.98c0,2.16-1.17,2.205-3.016,2.205h-0.18h-2.023
		c-0.766,0-1.217,0-1.217,0.811v0.449c0,1.936-0.045,3.915-0.045,5.76c0,0.855,0,0.855-0.045,0.855v0.54
		c0.045,0.72,0.811,0.81,1.576,0.81c0.584,0,0.629,0,0.629,0.045h0.361c1.26,0,2.475,0.045,2.475,2.295v0.36
		c-0.09,1.305-1.215,1.484-2.52,1.484c-0.586,0-1.98-0.045-2.521-0.045c-0.225,0-0.314,3.915-0.314,4.995
		c0,1.17,0.09,2.61,0.09,2.925c0,0.765,0.135,1.44,0.855,1.44h0.045c2.025,0,1.801-0.045,3.824-0.045c1.441,0,2.16,0.63,2.16,2.34
		c0,0.135-0.045,0.314-0.045,0.449c-0.09,1.755-0.945,2.07-2.34,2.07c-0.9,0-2.07-0.135-3.42-0.135s-2.654-0.045-3.6-0.045h-0.045
		c-1.98,0-2.34-0.585-2.34-1.846C321.801,55.957,321.98,52.087,321.98,48.622z"/>
	<path fill="#FFFFFF" d="M336.785,58.927c0-4.14,0.271-7.74,0.271-11.745v-2.52c-0.09-2.79-0.18-6.165-0.18-8.864v-1.936
		c0-3.735,0.943-4.365,4.59-4.365c1.709,0,3.555,0.36,4.139,0.54c0.541,0.18,1.08,0.36,1.529,0.63
		c2.025,1.125,2.746,3.645,3.061,6.255c0.135,1.079,0.225,2.34,0.225,3.645c0,3.96-0.898,8.369-4.273,8.369
		c-0.406,0-0.541,0.136-0.541,0.36c0,0.18,0.09,0.36,0.225,0.54c1.936,2.655,4.32,5.895,5.58,8.595
		c0.225,0.45,0.314,0.81,0.314,1.26c0,1.215-0.764,2.295-1.709,2.295c-2.699,0-4.051-3.375-4.994-5.22
		c-1.17-2.295-1.576-3.78-2.746-6.075c-0.09-0.18-0.27-0.359-0.449-0.359c-0.314,0-0.359,0.675-0.359,1.395
		c0,0.63,0.045,1.305,0.045,1.62c0.045,1.35,0.314,4.365,0.314,6.075c0,1.935-1.17,2.295-2.791,2.295
		C337.146,61.717,336.785,60.501,336.785,58.927z M341.961,35.032c-0.045,1.215-0.09,2.43-0.09,3.69c0,1.845,0.09,3.869,0.135,5.669
		c0.045,0.36,0.135,0.721,0.449,0.721h0.045c3.105-0.36,3.871-1.8,3.871-4.86c0-3.239-0.18-6.75-3.555-6.75
		C342.051,33.502,342.006,34.222,341.961,35.032z"/>
	<path fill="#FFFFFF" d="M358.791,42.052c0,0.226,0.045,0.405,0.045,0.585c0,1.575,0.135,2.115,0.135,3.465
		c0,1.62,0.09,2.386,0.09,5.175v5.266c0,3.329-0.404,5.31-2.699,5.31c-0.18,0-0.361,0-0.541-0.045
		c-1.26-0.226-1.529-2.61-1.529-5.22c0-6.885,0.27-12.6,0.27-19.395c0-2.34,0.09-7.2,1.891-7.83
		c0.135-0.045,0.225-0.045,0.359-0.045c0.359,0,0.766,0.135,1.215,0.405c2.16,1.305,3.285,5.265,4.096,7.604
		c0.314,0.945,0.494,1.936,0.764,2.88c0.135,0.585,1.711,7.155,1.98,7.155c0.404,0,5.939-13.815,6.436-15.21
		c0.27-0.72,1.529-2.025,2.115-2.43c0.27-0.18,0.584-0.27,0.943-0.27c1.891,0,2.521,2.655,2.701,6.165
		c0.09,2.115,0.135,3.69,0.135,5.04v2.025c0,4.454,0.314,9.179,0.314,13.679v1.485c0,2.115-0.18,3.824-2.07,3.824
		c-1.215,0-2.475-0.314-2.879-1.664c-0.721-2.476-0.855-5.04-0.855-8.1v-0.046c0-2.609,0.09-5.265,0.09-7.784
		c0-1.125,0-0.315-0.09-1.395c0-0.136-0.045-0.226-0.225-0.226c-0.721,0-4.949,16.515-6.346,16.829h-0.18
		c-0.225,0-0.449-0.09-0.584-0.18c-3.105-2.385-4.006-12.689-4.861-16.919c-0.045-0.226-0.135-0.676-0.404-0.676h-0.045
		C358.836,41.557,358.791,41.782,358.791,42.052z"/>
	<path fill="#FFFFFF" d="M388.398,29.677c6.391,0,7.605,11.159,7.605,18.449c0,7.199-2.295,13.635-8.189,13.635
		c-5.131,0-7.154-5.985-7.154-15.84C380.66,40.432,382.369,29.677,388.398,29.677z M391.234,47.947v-0.811
		c0-4.904-0.09-12.824-2.836-12.824c-1.979,0-3.283,5.85-3.283,11.654s0.764,11.609,2.564,11.609
		C389.66,57.576,391.234,54.292,391.234,47.947z"/>
	<path fill="#FFFFFF" d="M403.205,53.122c0,0.72,0.045,0.989,0.045,2.25c0,1.89,0.854,2.609,2.385,2.609
		c2.43,0,2.564-2.475,2.564-4.59c0-8.954-6.84-4.68-9.18-11.609c-0.225-0.72-0.314-1.53-0.314-2.34c0-4.455,1.844-9.945,7.199-9.945
		s6.975,2.205,6.975,7.515c0,1.439-1.395,1.71-2.205,1.71c-3.014,0-1.215-4.68-4.455-4.68c-2.475,0-3.014,3.69-3.014,5.4
		c0,1.439,0.809,2.385,1.799,2.88c4.455,2.25,8.189,4.59,8.189,11.294c0,4.365-2.295,8.686-7.604,8.686c-4.455,0-7.02-3.42-7.02-8.1
		c0-2.835,0.539-3.87,2.52-3.87C402.844,50.332,403.205,52.042,403.205,53.122z"/>
	<path fill="#FFFFFF" d="M420.799,53.122c0,0.72,0.045,0.989,0.045,2.25c0,1.89,0.855,2.609,2.385,2.609
		c2.43,0,2.566-2.475,2.566-4.59c0-8.954-6.84-4.68-9.18-11.609c-0.227-0.72-0.316-1.53-0.316-2.34c0-4.455,1.846-9.945,7.201-9.945
		c5.354,0,6.975,2.205,6.975,7.515c0,1.439-1.396,1.71-2.205,1.71c-3.016,0-1.215-4.68-4.455-4.68c-2.475,0-3.016,3.69-3.016,5.4
		c0,1.439,0.811,2.385,1.801,2.88c4.455,2.25,8.189,4.59,8.189,11.294c0,4.365-2.295,8.686-7.605,8.686c-4.455,0-7.02-3.42-7.02-8.1
		c0-2.835,0.541-3.87,2.52-3.87C420.439,50.332,420.799,52.042,420.799,53.122z"/>
	<path fill="#FFFFFF" d="M435.873,61.356c-1.619-0.855-2.025-3.24-2.025-6.03c0-3.329,0.361-7.515,0.361-10.889
		c0-3.105,0.135-7.74,1.889-7.74c2.791,0,2.926,3.51,2.926,7.38c0,4.95-0.09,9.359-0.09,13.77c0,2.115,0,3.645-2.295,3.645h-0.316
		C436.188,61.491,436.008,61.446,435.873,61.356z M436.998,35.527c-1.35,0-2.926-1.305-2.926-3.69c0-2.16,0.9-3.24,1.98-3.24
		c0.406,0,0.855,0.18,1.305,0.495c1.125,0.855,1.756,2.34,1.756,3.87C439.113,34.718,438.123,35.527,436.998,35.527z"/>
	<path fill="#FFFFFF" d="M446.537,38.272v-2.835c0-0.54,0-0.81-0.404-0.81h-0.09c-0.676,0.045-1.035,0.045-1.395,0.045h-1.215
		c-1.621-0.091-1.891-1.53-1.891-2.565c0-1.17,0.855-2.25,2.205-2.295c4.545-0.09,4.455-0.405,8.82-0.405
		c2.609,0,3.734,0.945,3.734,2.25v0.09c0,1.755-0.045,2.834-3.061,2.97c-0.9,0.045-0.404,0.045-1.395,0.09
		c-0.721,0.045-0.811,0.135-0.811,0.854v0.09c0,4.455,0.135,8.64,0.135,12.87c0,1.529-0.045,2.97-0.045,4.409
		c0,0.9,0.045,1.98,0.045,3.061c0,0.54,0,1.08-0.045,1.62c-0.18,2.744,0.406,4.229-2.34,4.229c-1.754,0-1.934-2.16-1.934-4.14v-1.62
		v-1.755C446.854,48.846,446.537,43.806,446.537,38.272z"/>
	<path fill="#FFFFFF" d="M464.764,29.677c6.389,0,7.605,11.159,7.605,18.449c0,7.199-2.295,13.635-8.191,13.635
		c-5.129,0-7.154-5.985-7.154-15.84C457.023,40.432,458.734,29.677,464.764,29.677z M467.598,47.947v-0.811
		c0-4.904-0.09-12.824-2.834-12.824c-1.98,0-3.285,5.85-3.285,11.654s0.766,11.609,2.564,11.609
		C466.023,57.576,467.598,54.292,467.598,47.947z"/>
	<path fill="#FFFFFF" d="M492.979,57.981c0,0.45,0.045,0.9,0.045,1.305c0,1.261-0.225,2.115-1.846,2.115
		c-2.879,0-3.059-1.125-3.059-3.24v-0.854v-1.125c0-2.025,0.225-4.95,0.225-7.2c0-2.43-0.09-4.949-0.135-7.56
		c-0.045-1.665-0.182-4.05-0.182-6.569c0-1.71,0.047-3.15,0.316-3.645c0.719-1.575,2.07-1.665,4.004-1.665h0.316
		c3.104,0,2.023,0.135,4.453,0.135c1.531,0,2.34,1.305,2.34,2.52c0,1.395-1.439,2.16-2.113,2.16h-1.08h-0.541
		c-0.404,0-1.035,0-2.025,0.045c-0.449,0-0.898,0.765-0.898,1.755l0.135,7.74c0.135,1.034-0.09,1.755,0.764,1.8h0.137h0.719
		c0.406,0,0.9,0,1.666,0.045c1.709,0.135,2.34,1.215,2.34,2.385c0,0.945-0.9,2.16-2.791,2.16h-0.449h-0.135
		c-0.766,0-2.025,0.135-2.07,0.81v0.45v0.72C493.113,52.627,492.979,55.552,492.979,57.981z"/>
	<path fill="#FFFFFF" d="M502.518,58.927c0-4.14,0.27-7.74,0.27-11.745v-2.52c-0.09-2.79-0.18-6.165-0.18-8.864v-1.936
		c0-3.735,0.945-4.365,4.59-4.365c1.711,0,3.555,0.36,4.141,0.54c0.539,0.18,1.08,0.36,1.529,0.63
		c2.025,1.125,2.744,3.645,3.061,6.255c0.135,1.079,0.225,2.34,0.225,3.645c0,3.96-0.9,8.369-4.275,8.369
		c-0.404,0-0.539,0.136-0.539,0.36c0,0.18,0.09,0.36,0.225,0.54c1.936,2.655,4.32,5.895,5.58,8.595
		c0.225,0.45,0.314,0.81,0.314,1.26c0,1.215-0.766,2.295-1.711,2.295c-2.699,0-4.049-3.375-4.994-5.22
		c-1.17-2.295-1.574-3.78-2.744-6.075c-0.09-0.18-0.27-0.359-0.451-0.359c-0.314,0-0.359,0.675-0.359,1.395
		c0,0.63,0.045,1.305,0.045,1.62c0.045,1.35,0.314,4.365,0.314,6.075c0,1.935-1.17,2.295-2.789,2.295
		C502.877,61.717,502.518,60.501,502.518,58.927z M507.691,35.032c-0.045,1.215-0.09,2.43-0.09,3.69c0,1.845,0.09,3.869,0.137,5.669
		c0.045,0.36,0.135,0.721,0.449,0.721h0.045c3.105-0.36,3.869-1.8,3.869-4.86c0-3.239-0.18-6.75-3.555-6.75
		C507.783,33.502,507.738,34.222,507.691,35.032z"/>
	<path fill="#FFFFFF" d="M535.547,34.807c0,3.734,0.135,6.39,0.135,10.8c0,4.319-0.451,8.549-1.711,11.654
		c-1.395,3.375-4.139,4.59-6.389,4.59c-8.596,0-8.596-13.77-8.596-22.229v-0.045c0-0.585-0.045-1.484-0.045-2.475
		c0-3.105,0.27-7.29,2.564-7.29c1.08,0,1.215,4.23,1.215,7.74c0,1.26-0.045,0.81-0.045,1.664c0,0.45,0,0.811,0.045,1.035
		c0.361,4.59-0.584,17.819,3.961,17.819c2.969-0.314,3.555-11.43,3.555-14.85v-1.529c0-1.665-0.18-3.96-0.18-5.94
		c0-3.419,0.359-6.254,3.375-6.254c1.934,0,2.115,1.125,2.115,3.15V34.807z"/>
	<path fill="#FFFFFF" d="M543.062,38.272v-2.835c0-0.54,0-0.81-0.404-0.81h-0.092c-0.674,0.045-1.033,0.045-1.395,0.045h-1.215
		c-1.619-0.091-1.889-1.53-1.889-2.565c0-1.17,0.854-2.25,2.203-2.295c4.545-0.09,4.455-0.405,8.82-0.405
		c2.609,0,3.734,0.945,3.734,2.25v0.09c0,1.755-0.045,2.834-3.059,2.97c-0.9,0.045-0.406,0.045-1.395,0.09
		c-0.721,0.045-0.811,0.135-0.811,0.854v0.09c0,4.455,0.135,8.64,0.135,12.87c0,1.529-0.045,2.97-0.045,4.409
		c0,0.9,0.045,1.98,0.045,3.061c0,0.54,0,1.08-0.045,1.62c-0.18,2.744,0.404,4.229-2.34,4.229c-1.756,0-1.936-2.16-1.936-4.14v-1.62
		v-1.755C543.377,48.846,543.062,43.806,543.062,38.272z"/>
	<path fill="#FFFFFF" d="M557.281,61.356c-1.619-0.855-2.025-3.24-2.025-6.03c0-3.329,0.361-7.515,0.361-10.889
		c0-3.105,0.135-7.74,1.889-7.74c2.791,0,2.926,3.51,2.926,7.38c0,4.95-0.09,9.359-0.09,13.77c0,2.115,0,3.645-2.295,3.645h-0.316
		C557.596,61.491,557.416,61.446,557.281,61.356z M558.406,35.527c-1.35,0-2.926-1.305-2.926-3.69c0-2.16,0.9-3.24,1.98-3.24
		c0.406,0,0.855,0.18,1.305,0.495c1.125,0.855,1.756,2.34,1.756,3.87C560.521,34.718,559.531,35.527,558.406,35.527z"/>
	<path fill="#FFFFFF" d="M567.361,29.677c1.664,0,1.891,4.995,1.891,8.954c0,1.801-0.047,3.375-0.047,4.186
		c0,3.734-0.18,8.145-0.18,12.06c0,0.359,0.271,0.854,0.631,0.854c0.9,0,0.584-0.045,1.439-0.045c1.574,0,3.689,0.045,4.859,0.72
		c0.945,0.54,1.215,0.99,1.215,1.98c0,2.024-1.35,3.239-3.645,3.239h-0.99c-1.619,0-1.934,0.181-3.465,0.181
		c-2.699,0-4.859-0.585-5.039-3.96c-0.045-0.945-0.09-1.98-0.09-2.925v-3.96c0-3.195,0.18-6.165,0.18-9.404
		c0-1.08-0.045-2.295-0.045-3.511C564.076,34.132,564.391,29.677,567.361,29.677z"/>
	<path fill="#FFFFFF" d="M582.797,29.677c1.664,0,1.891,4.995,1.891,8.954c0,1.801-0.047,3.375-0.047,4.186
		c0,3.734-0.18,8.145-0.18,12.06c0,0.359,0.271,0.854,0.631,0.854c0.9,0,0.584-0.045,1.439-0.045c1.574,0,3.689,0.045,4.859,0.72
		c0.945,0.54,1.215,0.99,1.215,1.98c0,2.024-1.35,3.239-3.645,3.239h-0.99c-1.619,0-1.934,0.181-3.465,0.181
		c-2.699,0-4.859-0.585-5.039-3.96c-0.045-0.945-0.09-1.98-0.09-2.925v-3.96c0-3.195,0.18-6.165,0.18-9.404
		c0-1.08-0.045-2.295-0.045-3.511C579.512,34.132,579.826,29.677,582.797,29.677z"/>
	<path fill="#FFFFFF" d="M609.75,61.851c-1.799,0-2.475-1.305-2.744-2.88c-0.27-1.53-0.496-2.43-0.721-3.96
		c-0.045-0.405-0.449-0.72-0.809-0.72h-0.047c-0.449,0.045-0.943,0.09-1.484,0.09c-0.674,0-1.395-0.045-2.025-0.045
		c-0.359,0-0.719,0-1.033,0.045c-0.541,0.09-0.811,0.585-0.811,1.17c-0.18,2.925-0.631,6.255-3.24,6.255
		c-1.709,0-2.115-0.766-2.115-1.845c0-0.45,0.045-0.945,0.135-1.485c1.576-9.359,3.781-17.504,6.525-26.009
		c0.314-0.945,0.676-1.8,1.215-2.655c0.18-0.27,0.945-0.9,1.846-0.9c2.023,0,2.609,3.015,2.969,4.77
		c1.484,7.694,2.654,16.244,4.23,23.984c0.18,0.81,0.359,1.305,0.359,2.249C612,60.861,610.561,61.851,609.75,61.851z
		 M605.746,49.072v-0.136c-0.451-3.779-0.99-8.145-1.756-11.879c-0.045-0.181-0.045-0.36-0.27-0.36h-0.045
		c-0.27,0-0.18,0.18-0.225,0.36c-0.945,4.319-1.846,7.739-2.564,12.284v0.135c0,0.271,0.09,0.45,0.359,0.45
		c0.9,0,3.014-0.135,4.049-0.314C605.566,49.566,605.746,49.342,605.746,49.072z"/>
</g>
</svg>
