<?xml version="1.0" encoding="utf-8"?>
<!-- Generator: Adobe Illustrator 16.0.4, SVG Export Plug-In . SVG Version: 6.00 Build 0)  -->
<!DOCTYPE svg PUBLIC "-//W3C//DTD SVG 1.1//EN" "http://www.w3.org/Graphics/SVG/1.1/DTD/svg11.dtd">
<svg version="1.1" id="Isolation_Mode" xmlns="http://www.w3.org/2000/svg" xmlns:xlink="http://www.w3.org/1999/xlink" x="0px"
	 y="0px" width="725.5px" height="96.599px" viewBox="0 0 725.5 96.599" enable-background="new 0 0 725.5 96.599"
	 xml:space="preserve">
<path fill="#E53228" stroke="#FFFFFF" stroke-width="4" stroke-miterlimit="10" d="M16.692,30.547c0,0,5.458,9.375,7.279,17.898
	c1.82,8.523-5.459,34.092,9.098,33.24c14.559-0.853,81.89,8.523,120.106,5.966c38.215-2.557,247.489,1.705,254.77,2.558
	c7.279,0.852,212.913-7.671,212.913-7.671s52.774-0.853,65.513-0.853c12.737,0,25.478-42.615,23.657-56.251
	c-1.821-13.637,32.755-18.751-112.826-14.489c-145.582,4.261-429.466-0.853-429.466-0.853L29.433,11.796
	C29.43,11.796,3.952,9.239,16.692,30.547z"/>
<g enable-background="new    ">
	<path fill="#FFFFFF" d="M91.428,44.302c0-2.654-0.09-5.354-0.09-8.055c0-0.449,0.045-0.944,0.045-1.439l-0.045-0.54
		c0-0.63-0.09-1.17-0.09-1.845c0-0.585,0.09-1.395,0.27-1.845c0.27-0.9,3.15-0.99,5.265-0.99c4.95,0,10.35,1.35,10.485,6.614
		c0,4.5-3.87,5.13-3.87,5.805c0,0.045,0,0.045,0.045,0.045c0.63,0,5.444,2.835,5.58,7.965v0.405c0,7.515-5.76,11.249-12.734,11.249
		h-0.585h-0.405c-1.62,0-3.735-0.09-3.825-1.979c-0.045-2.564-0.135-5.22-0.135-7.784C91.338,49.297,91.428,46.867,91.428,44.302z
		 M96.423,40.792c2.115,0,6.21-1.979,6.21-4.319c0-2.835-3.195-3.15-5.805-3.15h-1.08c-0.225,0-0.27,2.025-0.27,3.825
		c0,1.395,0.045,2.745,0.045,3.06C95.523,40.792,95.883,40.792,96.423,40.792z M99.348,44.707c-1.215,0-2.34,0.225-3.33,0.81
		c-0.27,0.136-0.405,0.405-0.405,0.721c0,0.63,0.045,1.215,0.045,1.845c0,1.484-0.045,2.925-0.045,4.41
		c0,0.359-0.045,0.81-0.045,1.35c0,0.99,0.09,2.115,0.675,2.205c0.585,0.09,1.125,0.09,1.62,0.09c3.735,0,6.435-2.115,6.435-6.21
		C104.297,46.282,102.812,44.707,99.348,44.707z"/>
	<path fill="#FFFFFF" d="M119.507,29.677c6.39,0,7.604,11.159,7.604,18.449c0,7.199-2.295,13.635-8.189,13.635
		c-5.13,0-7.155-5.985-7.155-15.84C111.768,40.432,113.478,29.677,119.507,29.677z M122.342,47.947v-0.811
		c0-4.904-0.09-12.824-2.835-12.824c-1.98,0-3.285,5.85-3.285,11.654s0.765,11.609,2.565,11.609
		C120.767,57.576,122.342,54.292,122.342,47.947z"/>
	<path fill="#FFFFFF" d="M154.426,32.602c0,1.845-0.495,3.645-0.99,5.265c-1.035,3.465-2.43,6.57-3.015,10.08
		c-0.27,1.619-0.765,3.149-0.945,4.814c-0.135,1.08-0.54,2.115-0.765,3.195c-0.27,1.395-1.89,5.265-3.195,5.265h-0.18
		c-2.88,0-2.925-3.78-3.285-6.21c-0.18-1.17-0.36-2.7-0.585-3.825c-0.135-0.72-0.315-4.949-1.035-4.949
		c-0.405,0-0.855,4.409-0.945,4.859c-0.225,1.08-0.315,2.16-0.405,3.24c-0.18,1.979-0.9,7.154-2.79,7.154h-0.135
		c-0.135,0-0.27,0-0.405-0.045c-3.195-0.99-3.465-5.76-4.005-9.314c-0.585-4.095-1.439-8.234-2.025-12.149
		c-0.315-2.115-0.99-4.77-0.99-6.885c0-1.575,0.36-2.835,1.485-3.42c0.225-0.135,0.45-0.18,0.675-0.18c1.89,0,2.97,5.669,3.24,7.515
		c0.36,2.385,0.99,5.805,1.485,8.729c0.045,0.18,0.315,2.564,0.315,2.745c0,0.27,0.18,0.63,0.315,0.63
		c0.045,0,0.09-0.045,0.09-0.181c1.17-5.579,1.53-9.674,3.42-15.029c0.27-0.72,1.305-1.485,1.89-1.485
		c1.575,0,1.89,1.935,2.115,3.24c0.72,4.005,0.9,9.314,1.845,12.104c0.045,0.136,0,0.36,0.135,0.36c0.315,0,0.81-2.025,0.855-2.385
		c0.63-2.565,1.53-6.21,2.16-8.865c0.675-2.834,2.025-7.334,4.365-7.334C154.291,29.542,154.426,31.432,154.426,32.602z"/>
	<path fill="#FFFFFF" d="M160.591,29.677c1.665,0,1.89,4.995,1.89,8.954c0,1.801-0.045,3.375-0.045,4.186
		c0,3.734-0.18,8.145-0.18,12.06c0,0.359,0.27,0.854,0.63,0.854c0.9,0,0.585-0.045,1.44-0.045c1.575,0,3.689,0.045,4.859,0.72
		c0.945,0.54,1.215,0.99,1.215,1.98c0,2.024-1.35,3.239-3.645,3.239h-0.99c-1.62,0-1.935,0.181-3.465,0.181
		c-2.7,0-4.86-0.585-5.04-3.96c-0.045-0.945-0.09-1.98-0.09-2.925v-3.96c0-3.195,0.18-6.165,0.18-9.404
		c0-1.08-0.045-2.295-0.045-3.511C157.306,34.132,157.621,29.677,160.591,29.677z"/>
	<path fill="#FFFFFF" d="M190.516,52.627v3.06c0,0.54,0.045,1.08,0.045,1.62v1.395c0,1.665-0.18,2.88-1.935,2.88
		c-2.34,0-3.015-2.744-3.015-5.534V41.647v-1.891v-2.024c0-4.005,0.18-8.055,3.015-8.055c1.26,0,1.935,1.845,1.935,7.154v0.136
		c0,2.789-0.135,5.939-0.135,8.909v0.09c0,0.54,0.09,0.72,0.405,0.72c0.045,0,0.09-0.045,0.18-0.045c0.405-0.09,1.35-0.09,1.8-0.09
		c0.495,0,1.485,0.045,2.025,0.045c0.495,0,1.035-0.045,1.575-0.18c0.045,0,0.045-0.045,0.135-0.045
		c0.63-0.18,0.81-0.271,0.81-0.811v-6.254v-1.351v-2.744c0-3.24,0.225-5.535,2.07-5.535c2.07,0,2.88,2.07,2.88,4.095v3.555
		c0,7.47,0.585,13.68,0.585,20.699c0,1.98-0.81,3.69-2.295,3.69c-2.97,0-3.42-5.04-3.42-8.505v-0.811c0-0.585-0.135-1.17-0.405-1.17
		c-1.17,0-3.15,0.315-4.589,0.315C191.326,51.547,190.516,51.636,190.516,52.627z"/>
	<path fill="#FFFFFF" d="M206.491,48.622v-8.37c0-2.024,0.045-4.274,0.18-6.75v-1.26c0-1.575,0.18-2.61,1.62-2.61
		c2.565,0,1.935,0.045,4.635,0.045h0.63c1.98,0,4.41,0.09,4.41,1.98c0,2.16-1.17,2.205-3.015,2.205h-0.18h-2.025
		c-0.765,0-1.215,0-1.215,0.811v0.449c0,1.936-0.045,3.915-0.045,5.76c0,0.855,0,0.855-0.045,0.855v0.54
		c0.045,0.72,0.81,0.81,1.575,0.81c0.585,0,0.63,0,0.63,0.045h0.36c1.26,0,2.475,0.045,2.475,2.295v0.36
		c-0.09,1.305-1.215,1.484-2.52,1.484c-0.585,0-1.979-0.045-2.52-0.045c-0.225,0-0.315,3.915-0.315,4.995
		c0,1.17,0.09,2.61,0.09,2.925c0,0.765,0.135,1.44,0.855,1.44h0.045c2.025,0,1.8-0.045,3.825-0.045c1.44,0,2.16,0.63,2.16,2.34
		c0,0.135-0.045,0.314-0.045,0.449c-0.09,1.755-0.945,2.07-2.34,2.07c-0.9,0-2.07-0.135-3.419-0.135c-1.35,0-2.655-0.045-3.6-0.045
		h-0.045c-1.98,0-2.34-0.585-2.34-1.846C206.311,55.957,206.491,52.087,206.491,48.622z"/>
	<path fill="#FFFFFF" d="M224.626,29.677c1.665,0,1.89,4.995,1.89,8.954c0,1.801-0.045,3.375-0.045,4.186
		c0,3.734-0.18,8.145-0.18,12.06c0,0.359,0.27,0.854,0.63,0.854c0.9,0,0.585-0.045,1.44-0.045c1.575,0,3.689,0.045,4.859,0.72
		c0.945,0.54,1.215,0.99,1.215,1.98c0,2.024-1.35,3.239-3.645,3.239h-0.99c-1.62,0-1.935,0.181-3.465,0.181
		c-2.7,0-4.859-0.585-5.04-3.96c-0.045-0.945-0.09-1.98-0.09-2.925v-3.96c0-3.195,0.18-6.165,0.18-9.404
		c0-1.08-0.045-2.295-0.045-3.511C221.341,34.132,221.656,29.677,224.626,29.677z"/>
	<path fill="#FFFFFF" d="M251.581,61.851c-1.8,0-2.475-1.305-2.745-2.88c-0.27-1.53-0.495-2.43-0.72-3.96
		c-0.045-0.405-0.45-0.72-0.81-0.72h-0.046c-0.449,0.045-0.944,0.09-1.484,0.09c-0.675,0-1.396-0.045-2.025-0.045
		c-0.359,0-0.72,0-1.034,0.045c-0.54,0.09-0.811,0.585-0.811,1.17c-0.18,2.925-0.63,6.255-3.24,6.255
		c-1.71,0-2.115-0.766-2.115-1.845c0-0.45,0.045-0.945,0.135-1.485c1.575-9.359,3.78-17.504,6.524-26.009
		c0.315-0.945,0.676-1.8,1.216-2.655c0.18-0.27,0.944-0.9,1.845-0.9c2.024,0,2.609,3.015,2.97,4.77
		c1.484,7.694,2.655,16.244,4.229,23.984c0.18,0.81,0.36,1.305,0.36,2.249C253.83,60.861,252.39,61.851,251.581,61.851z
		 M247.576,49.072v-0.136c-0.45-3.779-0.99-8.145-1.755-11.879c-0.045-0.181-0.045-0.36-0.271-0.36h-0.045
		c-0.27,0-0.18,0.18-0.225,0.36c-0.945,4.319-1.845,7.739-2.564,12.284v0.135c0,0.271,0.09,0.45,0.359,0.45
		c0.9,0,3.015-0.135,4.05-0.314C247.396,49.566,247.576,49.342,247.576,49.072z"/>
	<path fill="#FFFFFF" d="M255.721,54.651c-0.09-1.26-0.09-2.52-0.09-3.779c0-4.68,0.314-9.18,0.449-13.949
		c0.045-1.71,0.227-3.96,0.406-5.67c0.135-1.215,1.305-1.575,2.654-1.665h1.08c1.215,0,2.34,0.09,3.51,0.315
		c4.23,0.9,6.119,4.365,6.885,8.91c0.135,0.989,0.225,4.185,0.225,5.04c0,8.909-3.555,18.134-12.104,18.134
		c-0.406,0-0.855-0.045-1.307-0.045c-0.988,0-1.439-1.08-1.484-2.07c-0.045-1.619-0.18-3.194-0.225-4.814V54.651z M261.84,56.496
		c2.43,0,5.176-8.64,5.176-13.319c0-4.725-0.18-9.269-5.176-9.449h-0.045c-0.584,0-0.629,0.495-0.629,1.035v0.404v0.271
		c0,1.35-0.045,1.845-0.045,3.149c0,0.676,0,1.306,0.045,1.98c0.135,3.645,0.135,5.085,0.27,9.18v0.314v1.575v2.655
		c0,0.585,0,1.17,0.045,1.8C261.48,56.271,261.57,56.496,261.84,56.496z"/>
	<path fill="#FFFFFF" d="M281.549,29.677c6.391,0,7.605,11.159,7.605,18.449c0,7.199-2.295,13.635-8.189,13.635
		c-5.131,0-7.154-5.985-7.154-15.84C273.811,40.432,275.52,29.677,281.549,29.677z M284.385,47.947v-0.811
		c0-4.904-0.09-12.824-2.836-12.824c-1.979,0-3.283,5.85-3.283,11.654s0.764,11.609,2.564,11.609
		C282.811,57.576,284.385,54.292,284.385,47.947z"/>
	<path fill="#FFFFFF" d="M309.225,42.052c0,0.226,0.045,0.405,0.045,0.585c0,1.575,0.135,2.115,0.135,3.465
		c0,1.62,0.09,2.386,0.09,5.175v5.266c0,3.329-0.404,5.31-2.699,5.31c-0.18,0-0.361,0-0.541-0.045
		c-1.26-0.226-1.529-2.61-1.529-5.22c0-6.885,0.27-12.6,0.27-19.395c0-2.34,0.09-7.2,1.891-7.83
		c0.135-0.045,0.225-0.045,0.359-0.045c0.359,0,0.766,0.135,1.215,0.405c2.16,1.305,3.285,5.265,4.096,7.604
		c0.314,0.945,0.494,1.936,0.764,2.88c0.137,0.585,1.711,7.155,1.98,7.155c0.404,0,5.939-13.815,6.436-15.21
		c0.27-0.72,1.529-2.025,2.115-2.43c0.27-0.18,0.584-0.27,0.943-0.27c1.891,0,2.521,2.655,2.701,6.165
		c0.09,2.115,0.135,3.69,0.135,5.04v2.025c0,4.454,0.314,9.179,0.314,13.679v1.485c0,2.115-0.18,3.824-2.07,3.824
		c-1.215,0-2.475-0.314-2.879-1.664c-0.721-2.476-0.855-5.04-0.855-8.1v-0.046c0-2.609,0.09-5.265,0.09-7.784
		c0-1.125,0-0.315-0.09-1.395c0-0.136-0.045-0.226-0.225-0.226c-0.721,0-4.949,16.515-6.346,16.829h-0.18
		c-0.225,0-0.449-0.09-0.584-0.18c-3.105-2.385-4.006-12.689-4.861-16.919c-0.045-0.226-0.135-0.676-0.404-0.676h-0.045
		C309.27,41.557,309.225,41.782,309.225,42.052z"/>
	<path fill="#FFFFFF" d="M345.494,61.851c-1.801,0-2.475-1.305-2.746-2.88c-0.27-1.53-0.494-2.43-0.719-3.96
		c-0.045-0.405-0.451-0.72-0.811-0.72h-0.045c-0.449,0.045-0.945,0.09-1.484,0.09c-0.676,0-1.396-0.045-2.025-0.045
		c-0.359,0-0.721,0-1.035,0.045c-0.539,0.09-0.811,0.585-0.811,1.17c-0.18,2.925-0.629,6.255-3.238,6.255
		c-1.711,0-2.115-0.766-2.115-1.845c0-0.45,0.045-0.945,0.135-1.485c1.574-9.359,3.779-17.504,6.523-26.009
		c0.316-0.945,0.676-1.8,1.217-2.655c0.18-0.27,0.943-0.9,1.844-0.9c2.025,0,2.609,3.015,2.971,4.77
		c1.484,7.694,2.654,16.244,4.229,23.984c0.182,0.81,0.361,1.305,0.361,2.249C347.744,60.861,346.303,61.851,345.494,61.851z
		 M341.488,49.072v-0.136c-0.449-3.779-0.99-8.145-1.754-11.879c-0.045-0.181-0.045-0.36-0.271-0.36h-0.045
		c-0.27,0-0.18,0.18-0.225,0.36c-0.945,4.319-1.844,7.739-2.564,12.284v0.135c0,0.271,0.09,0.45,0.359,0.45
		c0.9,0,3.016-0.135,4.051-0.314C341.309,49.566,341.488,49.342,341.488,49.072z"/>
	<path fill="#FFFFFF" d="M349.635,58.927c0-4.14,0.27-7.74,0.27-11.745v-2.52c-0.09-2.79-0.18-6.165-0.18-8.864v-1.936
		c0-3.735,0.943-4.365,4.59-4.365c1.709,0,3.555,0.36,4.139,0.54c0.541,0.18,1.08,0.36,1.529,0.63
		c2.025,1.125,2.746,3.645,3.061,6.255c0.135,1.079,0.225,2.34,0.225,3.645c0,3.96-0.898,8.369-4.273,8.369
		c-0.406,0-0.541,0.136-0.541,0.36c0,0.18,0.09,0.36,0.225,0.54c1.936,2.655,4.32,5.895,5.58,8.595
		c0.225,0.45,0.314,0.81,0.314,1.26c0,1.215-0.764,2.295-1.709,2.295c-2.699,0-4.051-3.375-4.994-5.22
		c-1.17-2.295-1.576-3.78-2.746-6.075c-0.09-0.18-0.27-0.359-0.449-0.359c-0.314,0-0.359,0.675-0.359,1.395
		c0,0.63,0.045,1.305,0.045,1.62c0.045,1.35,0.314,4.365,0.314,6.075c0,1.935-1.17,2.295-2.791,2.295
		C349.994,61.717,349.635,60.501,349.635,58.927z M354.809,35.032c-0.045,1.215-0.09,2.43-0.09,3.69c0,1.845,0.09,3.869,0.135,5.669
		c0.045,0.36,0.135,0.721,0.449,0.721h0.045c3.105-0.36,3.871-1.8,3.871-4.86c0-3.239-0.18-6.75-3.555-6.75
		C354.898,33.502,354.854,34.222,354.809,35.032z"/>
	<path fill="#FFFFFF" d="M371.639,42.052c0,0.226,0.045,0.405,0.045,0.585c0,1.575,0.135,2.115,0.135,3.465
		c0,1.62,0.09,2.386,0.09,5.175v5.266c0,3.329-0.404,5.31-2.699,5.31c-0.18,0-0.361,0-0.541-0.045
		c-1.26-0.226-1.529-2.61-1.529-5.22c0-6.885,0.27-12.6,0.27-19.395c0-2.34,0.09-7.2,1.891-7.83
		c0.135-0.045,0.225-0.045,0.359-0.045c0.359,0,0.766,0.135,1.215,0.405c2.16,1.305,3.285,5.265,4.096,7.604
		c0.314,0.945,0.494,1.936,0.764,2.88c0.137,0.585,1.711,7.155,1.98,7.155c0.404,0,5.939-13.815,6.436-15.21
		c0.27-0.72,1.529-2.025,2.115-2.43c0.27-0.18,0.584-0.27,0.943-0.27c1.891,0,2.521,2.655,2.701,6.165
		c0.09,2.115,0.135,3.69,0.135,5.04v2.025c0,4.454,0.314,9.179,0.314,13.679v1.485c0,2.115-0.18,3.824-2.07,3.824
		c-1.215,0-2.475-0.314-2.879-1.664c-0.721-2.476-0.855-5.04-0.855-8.1v-0.046c0-2.609,0.09-5.265,0.09-7.784
		c0-1.125,0-0.315-0.09-1.395c0-0.136-0.045-0.226-0.225-0.226c-0.721,0-4.949,16.515-6.346,16.829h-0.18
		c-0.225,0-0.449-0.09-0.584-0.18c-3.105-2.385-4.006-12.689-4.861-16.919c-0.045-0.226-0.135-0.676-0.404-0.676h-0.045
		C371.684,41.557,371.639,41.782,371.639,42.052z"/>
	<path fill="#FFFFFF" d="M401.246,29.677c6.391,0,7.605,11.159,7.605,18.449c0,7.199-2.295,13.635-8.189,13.635
		c-5.131,0-7.154-5.985-7.154-15.84C393.508,40.432,395.217,29.677,401.246,29.677z M404.082,47.947v-0.811
		c0-4.904-0.09-12.824-2.836-12.824c-1.979,0-3.283,5.85-3.283,11.654s0.764,11.609,2.564,11.609
		C402.508,57.576,404.082,54.292,404.082,47.947z"/>
	<path fill="#FFFFFF" d="M415.602,29.677c1.666,0,1.891,4.995,1.891,8.954c0,1.801-0.045,3.375-0.045,4.186
		c0,3.734-0.18,8.145-0.18,12.06c0,0.359,0.27,0.854,0.629,0.854c0.9,0,0.586-0.045,1.441-0.045c1.574,0,3.689,0.045,4.859,0.72
		c0.945,0.54,1.215,0.99,1.215,1.98c0,2.024-1.35,3.239-3.645,3.239h-0.99c-1.621,0-1.936,0.181-3.465,0.181
		c-2.699,0-4.859-0.585-5.039-3.96c-0.047-0.945-0.092-1.98-0.092-2.925v-3.96c0-3.195,0.182-6.165,0.182-9.404
		c0-1.08-0.045-2.295-0.045-3.511C412.318,34.132,412.633,29.677,415.602,29.677z"/>
	<path fill="#FFFFFF" d="M428.607,48.622v-8.37c0-2.024,0.045-4.274,0.18-6.75v-1.26c0-1.575,0.18-2.61,1.619-2.61
		c2.564,0,1.936,0.045,4.635,0.045h0.631c1.979,0,4.41,0.09,4.41,1.98c0,2.16-1.17,2.205-3.016,2.205h-0.18h-2.025
		c-0.766,0-1.215,0-1.215,0.811v0.449c0,1.936-0.045,3.915-0.045,5.76c0,0.855,0,0.855-0.045,0.855v0.54
		c0.045,0.72,0.811,0.81,1.574,0.81c0.586,0,0.631,0,0.631,0.045h0.359c1.26,0,2.475,0.045,2.475,2.295v0.36
		c-0.09,1.305-1.215,1.484-2.52,1.484c-0.584,0-1.98-0.045-2.52-0.045c-0.225,0-0.314,3.915-0.314,4.995
		c0,1.17,0.09,2.61,0.09,2.925c0,0.765,0.135,1.44,0.854,1.44h0.047c2.023,0,1.799-0.045,3.824-0.045c1.439,0,2.16,0.63,2.16,2.34
		c0,0.135-0.045,0.314-0.045,0.449c-0.09,1.755-0.945,2.07-2.34,2.07c-0.9,0-2.07-0.135-3.42-0.135c-1.352,0-2.656-0.045-3.6-0.045
		h-0.047c-1.979,0-2.34-0.585-2.34-1.846C428.426,55.957,428.607,52.087,428.607,48.622z"/>
	<path fill="#FFFFFF" d="M457.496,61.851c-1.799,0-2.475-1.305-2.744-2.88c-0.27-1.53-0.496-2.43-0.721-3.96
		c-0.045-0.405-0.449-0.72-0.809-0.72h-0.047c-0.449,0.045-0.943,0.09-1.484,0.09c-0.674,0-1.395-0.045-2.025-0.045
		c-0.359,0-0.719,0-1.033,0.045c-0.541,0.09-0.811,0.585-0.811,1.17c-0.18,2.925-0.631,6.255-3.24,6.255
		c-1.709,0-2.115-0.766-2.115-1.845c0-0.45,0.045-0.945,0.135-1.485c1.576-9.359,3.781-17.504,6.525-26.009
		c0.314-0.945,0.676-1.8,1.215-2.655c0.18-0.27,0.945-0.9,1.846-0.9c2.023,0,2.609,3.015,2.969,4.77
		c1.484,7.694,2.656,16.244,4.23,23.984c0.18,0.81,0.359,1.305,0.359,2.249C459.746,60.861,458.307,61.851,457.496,61.851z
		 M453.492,49.072v-0.136c-0.451-3.779-0.99-8.145-1.756-11.879c-0.045-0.181-0.045-0.36-0.27-0.36h-0.045
		c-0.27,0-0.18,0.18-0.225,0.36c-0.945,4.319-1.846,7.739-2.564,12.284v0.135c0,0.271,0.09,0.45,0.359,0.45
		c0.9,0,3.014-0.135,4.049-0.314C453.312,49.566,453.492,49.342,453.492,49.072z"/>
	<path fill="#FFFFFF" d="M461.637,54.651c-0.09-1.26-0.09-2.52-0.09-3.779c0-4.68,0.314-9.18,0.449-13.949
		c0.045-1.71,0.227-3.96,0.406-5.67c0.135-1.215,1.305-1.575,2.654-1.665h1.08c1.215,0,2.34,0.09,3.51,0.315
		c4.23,0.9,6.119,4.365,6.885,8.91c0.135,0.989,0.225,4.185,0.225,5.04c0,8.909-3.555,18.134-12.104,18.134
		c-0.406,0-0.855-0.045-1.307-0.045c-0.988,0-1.439-1.08-1.484-2.07c-0.045-1.619-0.18-3.194-0.225-4.814V54.651z M467.756,56.496
		c2.43,0,5.176-8.64,5.176-13.319c0-4.725-0.18-9.269-5.176-9.449h-0.045c-0.584,0-0.629,0.495-0.629,1.035v0.404v0.271
		c0,1.35-0.045,1.845-0.045,3.149c0,0.676,0,1.306,0.045,1.98c0.135,3.645,0.135,5.085,0.27,9.18v0.314v1.575v2.655
		c0,0.585,0,1.17,0.045,1.8C467.396,56.271,467.486,56.496,467.756,56.496z"/>
	<path fill="#FFFFFF" d="M487.465,29.677c6.391,0,7.605,11.159,7.605,18.449c0,7.199-2.295,13.635-8.189,13.635
		c-5.131,0-7.154-5.985-7.154-15.84C479.727,40.432,481.436,29.677,487.465,29.677z M490.301,47.947v-0.811
		c0-4.904-0.09-12.824-2.836-12.824c-1.979,0-3.283,5.85-3.283,11.654s0.764,11.609,2.564,11.609
		C488.727,57.576,490.301,54.292,490.301,47.947z"/>
	<path fill="#FFFFFF" d="M510.73,54.651c-0.09-1.26-0.09-2.52-0.09-3.779c0-4.68,0.314-9.18,0.449-13.949
		c0.045-1.71,0.227-3.96,0.406-5.67c0.135-1.215,1.305-1.575,2.654-1.665h1.08c1.215,0,2.34,0.09,3.51,0.315
		c4.23,0.9,6.119,4.365,6.885,8.91c0.135,0.989,0.225,4.185,0.225,5.04c0,8.909-3.555,18.134-12.104,18.134
		c-0.406,0-0.855-0.045-1.307-0.045c-0.988,0-1.439-1.08-1.484-2.07c-0.045-1.619-0.18-3.194-0.225-4.814V54.651z M516.85,56.496
		c2.43,0,5.176-8.64,5.176-13.319c0-4.725-0.18-9.269-5.176-9.449h-0.045c-0.584,0-0.629,0.495-0.629,1.035v0.404v0.271
		c0,1.35-0.045,1.845-0.045,3.149c0,0.676,0,1.306,0.045,1.98c0.135,3.645,0.135,5.085,0.27,9.18v0.314v1.575v2.655
		c0,0.585,0,1.17,0.045,1.8C516.49,56.271,516.58,56.496,516.85,56.496z"/>
	<path fill="#FFFFFF" d="M529.271,48.622v-8.37c0-2.024,0.045-4.274,0.18-6.75v-1.26c0-1.575,0.18-2.61,1.619-2.61
		c2.564,0,1.936,0.045,4.635,0.045h0.631c1.979,0,4.41,0.09,4.41,1.98c0,2.16-1.17,2.205-3.016,2.205h-0.18h-2.025
		c-0.766,0-1.215,0-1.215,0.811v0.449c0,1.936-0.045,3.915-0.045,5.76c0,0.855,0,0.855-0.045,0.855v0.54
		c0.045,0.72,0.811,0.81,1.574,0.81c0.586,0,0.631,0,0.631,0.045h0.359c1.26,0,2.475,0.045,2.475,2.295v0.36
		c-0.09,1.305-1.215,1.484-2.52,1.484c-0.584,0-1.98-0.045-2.52-0.045c-0.225,0-0.314,3.915-0.314,4.995
		c0,1.17,0.09,2.61,0.09,2.925c0,0.765,0.135,1.44,0.854,1.44h0.047c2.023,0,1.799-0.045,3.824-0.045c1.439,0,2.16,0.63,2.16,2.34
		c0,0.135-0.045,0.314-0.045,0.449c-0.09,1.755-0.945,2.07-2.34,2.07c-0.9,0-2.07-0.135-3.42-0.135c-1.352,0-2.656-0.045-3.6-0.045
		h-0.047c-1.979,0-2.34-0.585-2.34-1.846C529.09,55.957,529.271,52.087,529.271,48.622z"/>
	<path fill="#FFFFFF" d="M560.725,42.052c0,0.226,0.045,0.405,0.045,0.585c0,1.575,0.135,2.115,0.135,3.465
		c0,1.62,0.092,2.386,0.092,5.175v5.266c0,3.329-0.406,5.31-2.701,5.31c-0.18,0-0.359,0-0.539-0.045
		c-1.26-0.226-1.531-2.61-1.531-5.22c0-6.885,0.271-12.6,0.271-19.395c0-2.34,0.09-7.2,1.889-7.83
		c0.135-0.045,0.225-0.045,0.361-0.045c0.359,0,0.764,0.135,1.215,0.405c2.16,1.305,3.285,5.265,4.094,7.604
		c0.314,0.945,0.496,1.936,0.766,2.88c0.135,0.585,1.709,7.155,1.98,7.155c0.404,0,5.939-13.815,6.434-15.21
		c0.27-0.72,1.531-2.025,2.115-2.43c0.27-0.18,0.586-0.27,0.945-0.27c1.889,0,2.52,2.655,2.699,6.165
		c0.09,2.115,0.135,3.69,0.135,5.04v2.025c0,4.454,0.316,9.179,0.316,13.679v1.485c0,2.115-0.182,3.824-2.07,3.824
		c-1.215,0-2.475-0.314-2.881-1.664c-0.719-2.476-0.854-5.04-0.854-8.1v-0.046c0-2.609,0.09-5.265,0.09-7.784
		c0-1.125,0-0.315-0.09-1.395c0-0.136-0.045-0.226-0.227-0.226c-0.719,0-4.949,16.515-6.344,16.829h-0.18
		c-0.227,0-0.451-0.09-0.586-0.18c-3.105-2.385-4.004-12.689-4.859-16.919c-0.045-0.226-0.135-0.676-0.404-0.676h-0.045
		C560.77,41.557,560.725,41.782,560.725,42.052z"/>
	<path fill="#FFFFFF" d="M590.334,29.677c6.389,0,7.605,11.159,7.605,18.449c0,7.199-2.295,13.635-8.191,13.635
		c-5.129,0-7.154-5.985-7.154-15.84C582.594,40.432,584.305,29.677,590.334,29.677z M593.168,47.947v-0.811
		c0-4.904-0.09-12.824-2.834-12.824c-1.98,0-3.285,5.85-3.285,11.654s0.766,11.609,2.564,11.609
		C591.594,57.576,593.168,54.292,593.168,47.947z"/>
	<path fill="#FFFFFF" d="M601.359,58.927c0-4.14,0.27-7.74,0.27-11.745v-2.52c-0.09-2.79-0.18-6.165-0.18-8.864v-1.936
		c0-3.735,0.945-4.365,4.59-4.365c1.711,0,3.555,0.36,4.141,0.54c0.539,0.18,1.08,0.36,1.529,0.63
		c2.025,1.125,2.744,3.645,3.061,6.255c0.135,1.079,0.225,2.34,0.225,3.645c0,3.96-0.9,8.369-4.275,8.369
		c-0.404,0-0.539,0.136-0.539,0.36c0,0.18,0.09,0.36,0.225,0.54c1.936,2.655,4.32,5.895,5.58,8.595
		c0.225,0.45,0.314,0.81,0.314,1.26c0,1.215-0.766,2.295-1.711,2.295c-2.699,0-4.049-3.375-4.994-5.22
		c-1.17-2.295-1.574-3.78-2.744-6.075c-0.09-0.18-0.27-0.359-0.451-0.359c-0.314,0-0.359,0.675-0.359,1.395
		c0,0.63,0.045,1.305,0.045,1.62c0.045,1.35,0.314,4.365,0.314,6.075c0,1.935-1.17,2.295-2.789,2.295
		C601.719,61.717,601.359,60.501,601.359,58.927z M606.533,35.032c-0.045,1.215-0.09,2.43-0.09,3.69c0,1.845,0.09,3.869,0.137,5.669
		c0.045,0.36,0.135,0.721,0.449,0.721h0.045c3.105-0.36,3.869-1.8,3.869-4.86c0-3.239-0.18-6.75-3.555-6.75
		C606.625,33.502,606.58,34.222,606.533,35.032z"/>
	<path fill="#FFFFFF" d="M633.037,61.851c-1.799,0-2.475-1.305-2.744-2.88c-0.27-1.53-0.496-2.43-0.721-3.96
		c-0.045-0.405-0.449-0.72-0.809-0.72h-0.047c-0.449,0.045-0.943,0.09-1.484,0.09c-0.674,0-1.395-0.045-2.025-0.045
		c-0.359,0-0.719,0-1.033,0.045c-0.541,0.09-0.811,0.585-0.811,1.17c-0.18,2.925-0.631,6.255-3.24,6.255
		c-1.709,0-2.115-0.766-2.115-1.845c0-0.45,0.045-0.945,0.135-1.485c1.576-9.359,3.781-17.504,6.525-26.009
		c0.314-0.945,0.676-1.8,1.215-2.655c0.18-0.27,0.945-0.9,1.846-0.9c2.023,0,2.609,3.015,2.969,4.77
		c1.484,7.694,2.656,16.244,4.23,23.984c0.18,0.81,0.359,1.305,0.359,2.249C635.287,60.861,633.848,61.851,633.037,61.851z
		 M629.033,49.072v-0.136c-0.451-3.779-0.99-8.145-1.756-11.879c-0.045-0.181-0.045-0.36-0.27-0.36h-0.045
		c-0.27,0-0.18,0.18-0.225,0.36c-0.945,4.319-1.846,7.739-2.564,12.284v0.135c0,0.271,0.09,0.45,0.359,0.45
		c0.9,0,3.014-0.135,4.049-0.314C628.854,49.566,629.033,49.342,629.033,49.072z"/>
</g>
</svg>
