<?xml version="1.0" encoding="utf-8"?>
<!-- Generator: Adobe Illustrator 16.0.4, SVG Export Plug-In . SVG Version: 6.00 Build 0)  -->
<!DOCTYPE svg PUBLIC "-//W3C//DTD SVG 1.1//EN" "http://www.w3.org/Graphics/SVG/1.1/DTD/svg11.dtd">
<svg version="1.1" id="Isolation_Mode" xmlns="http://www.w3.org/2000/svg" xmlns:xlink="http://www.w3.org/1999/xlink" x="0px"
	 y="0px" width="725.5px" height="96.599px" viewBox="0 0 725.5 96.599" enable-background="new 0 0 725.5 96.599"
	 xml:space="preserve">
<path fill="#E53228" stroke="#FFFFFF" stroke-width="4" stroke-miterlimit="10" d="M16.692,30.547c0,0,5.458,9.375,7.279,17.898
	c1.82,8.523-5.459,34.092,9.098,33.24c14.559-0.853,81.89,8.523,120.106,5.966c38.215-2.557,247.489,1.705,254.77,2.558
	c7.279,0.852,212.913-7.671,212.913-7.671s52.774-0.853,65.513-0.853c12.737,0,25.478-42.615,23.657-56.251
	c-1.821-13.637,32.755-18.751-112.826-14.489c-145.582,4.261-429.466-0.853-429.466-0.853L29.433,11.796
	C29.43,11.796,3.952,9.239,16.692,30.547z"/>
<g enable-background="new    ">
	<path fill="#FFFFFF" d="M42.584,56.019c0,2.688-0.538,2.728-1.655,2.728c-1.076,0-2.069-0.316-2.069-3.875
		c0-2.253-0.125-3.875-0.125-6.286c0-2.333,0.083-4.625,0.083-6.958c0-3.598-0.207-7.156-0.207-8.777
		c0-0.079,0.042-0.158,0.042-0.237c0.207-0.87,0.828-1.423,1.821-1.582c0.952-0.158,1.283-0.277,2.193-0.277
		c5.586,0,8.979,2.214,8.979,7.472c0,4.942-3.89,8.065-8.483,8.935c-0.621,0.119-0.787,0.277-0.787,0.791v0.197
		C42.46,49.851,42.584,54.437,42.584,56.019z M42.294,42.26v0.514c0.042,0.395,0.124,0.553,0.373,0.553
		c0.124,0,0.248-0.04,0.414-0.119c1.531-0.632,4.262-2.214,4.262-4.981c0-1.463-1.283-3.281-2.813-3.637
		c-0.373-0.079-0.745-0.158-1.076-0.158c-0.497,0-0.91,0.158-0.91,0.712C42.543,38.702,42.294,38.821,42.294,42.26z"/>
	<path fill="#FFFFFF" d="M55.494,58.708c-1.49-0.752-1.862-2.847-1.862-5.298c0-2.925,0.331-6.603,0.331-9.567
		c0-2.728,0.124-6.8,1.738-6.8c2.566,0,2.69,3.084,2.69,6.484c0,4.349-0.083,8.224-0.083,12.098c0,1.857,0,3.202-2.11,3.202h-0.29
		C55.783,58.826,55.618,58.786,55.494,58.708z M56.528,36.014c-1.241,0-2.69-1.146-2.69-3.242c0-1.898,0.828-2.847,1.821-2.847
		c0.373,0,0.786,0.158,1.2,0.435c1.035,0.751,1.614,2.056,1.614,3.4C58.473,35.302,57.563,36.014,56.528,36.014z"/>
	<path fill="#FFFFFF" d="M70.928,54.161c2.566,0,3.104,0.593,3.104,2.609c0,1.977-1.903,2.016-2.607,2.016
		c-1.697,0-1.779-0.197-3.228-0.197h-0.042c-0.662,0-1.614,0.04-3.145,0.158h-0.373c-2.193,0-3.269-1.305-3.269-3.005
		c0-0.711,0.166-1.462,0.497-2.214c2.152-4.546,4.18-9.37,5.917-13.956c0.414-1.067,0.787-2.135,1.242-3.202
		c0.083-0.198,0.124-0.356,0.124-0.475c0-0.198-0.124-0.396-0.331-0.396c-1.945-0.119-3.725-0.514-6.456-0.514
		c-0.952,0-1.366-0.672-1.366-1.502c0-1.226,0.952-2.649,2.566-2.649s2.938-0.04,4.262-0.04c0.828,0,1.655,0,2.441,0.079
		c1.573,0.079,3.311,0.277,3.311,1.898c0,7.986-5.09,12.967-6.952,20.756v0.198c0,0.237,0.083,0.475,0.249,0.475
		C68.197,54.2,69.604,54.161,70.928,54.161z"/>
	<path fill="#FFFFFF" d="M85.823,54.161c2.566,0,3.104,0.593,3.104,2.609c0,1.977-1.904,2.016-2.607,2.016
		c-1.696,0-1.779-0.197-3.228-0.197H83.05c-0.662,0-1.614,0.04-3.145,0.158h-0.373c-2.193,0-3.269-1.305-3.269-3.005
		c0-0.711,0.166-1.462,0.497-2.214c2.152-4.546,4.18-9.37,5.917-13.956c0.414-1.067,0.786-2.135,1.242-3.202
		c0.083-0.198,0.124-0.356,0.124-0.475c0-0.198-0.124-0.396-0.331-0.396c-1.945-0.119-3.724-0.514-6.456-0.514
		c-0.952,0-1.366-0.672-1.366-1.502c0-1.226,0.952-2.649,2.566-2.649c1.614,0,2.938-0.04,4.262-0.04c0.828,0,1.655,0,2.441,0.079
		c1.573,0.079,3.311,0.277,3.311,1.898c0,7.986-5.09,12.967-6.952,20.756v0.198c0,0.237,0.083,0.475,0.249,0.475
		C83.092,54.2,84.499,54.161,85.823,54.161z"/>
	<path fill="#FFFFFF" d="M104.443,59.142c-1.655,0-2.276-1.146-2.524-2.53c-0.249-1.344-0.455-2.135-0.662-3.479
		c-0.042-0.355-0.414-0.632-0.745-0.632h-0.042c-0.414,0.04-0.869,0.079-1.366,0.079c-0.621,0-1.283-0.04-1.862-0.04
		c-0.331,0-0.662,0-0.952,0.04c-0.497,0.079-0.745,0.514-0.745,1.028c-0.166,2.57-0.58,5.495-2.979,5.495
		c-1.573,0-1.945-0.672-1.945-1.621c0-0.395,0.042-0.83,0.124-1.304c1.449-8.224,3.477-15.38,6-22.852
		c0.29-0.83,0.621-1.582,1.118-2.333c0.165-0.237,0.869-0.791,1.696-0.791c1.862,0,2.4,2.648,2.731,4.19
		c1.365,6.761,2.441,14.272,3.89,21.073c0.166,0.712,0.331,1.146,0.331,1.977S105.188,59.142,104.443,59.142z M100.76,47.914v-0.119
		c-0.414-3.321-0.91-7.156-1.614-10.438c-0.042-0.158-0.042-0.316-0.249-0.316h-0.041c-0.249,0-0.166,0.158-0.207,0.316
		c-0.869,3.795-1.697,6.8-2.359,10.793v0.119c0,0.237,0.083,0.396,0.331,0.396c0.828,0,2.772-0.119,3.724-0.277
		C100.594,48.349,100.76,48.151,100.76,47.914z"/>
	<path fill="#FFFFFF" d="M119.502,52.817c-0.083-1.107-0.083-2.214-0.083-3.321c0-4.111,0.29-8.065,0.414-12.256
		c0.042-1.502,0.207-3.479,0.373-4.981c0.124-1.067,1.2-1.384,2.441-1.463h0.993c1.117,0,2.152,0.079,3.228,0.277
		c3.89,0.791,5.628,3.835,6.331,7.828c0.124,0.87,0.207,3.677,0.207,4.428c0,7.828-3.269,15.933-11.132,15.933
		c-0.372,0-0.786-0.039-1.2-0.039c-0.91,0-1.324-0.949-1.365-1.818c-0.042-1.424-0.166-2.808-0.207-4.231V52.817z M125.13,54.437
		c2.234,0,4.759-7.591,4.759-11.702c0-4.151-0.166-8.145-4.759-8.303h-0.042c-0.538,0-0.579,0.435-0.579,0.909v0.356v0.237
		c0,1.186-0.042,1.621-0.042,2.768c0,0.593,0,1.146,0.042,1.739c0.124,3.203,0.124,4.468,0.248,8.065v0.277v1.384V52.5
		c0,0.514,0,1.028,0.042,1.582C124.799,54.24,124.882,54.437,125.13,54.437z"/>
	<path fill="#FFFFFF" d="M136.549,47.519v-7.354c0-1.779,0.042-3.756,0.166-5.931v-1.107c0-1.384,0.166-2.293,1.49-2.293
		c2.359,0,1.779,0.04,4.263,0.04h0.579c1.821,0,4.056,0.079,4.056,1.74c0,1.897-1.076,1.937-2.773,1.937h-0.166h-1.862
		c-0.703,0-1.117,0-1.117,0.712v0.395c0,1.7-0.041,3.44-0.041,5.061c0,0.751,0,0.751-0.042,0.751v0.474
		c0.042,0.633,0.745,0.712,1.448,0.712c0.538,0,0.58,0,0.58,0.04h0.331c1.158,0,2.276,0.04,2.276,2.016v0.316
		c-0.083,1.146-1.118,1.305-2.317,1.305c-0.538,0-1.821-0.04-2.317-0.04c-0.207,0-0.29,3.439-0.29,4.388
		c0,1.028,0.083,2.293,0.083,2.57c0,0.672,0.124,1.265,0.786,1.265h0.042c1.862,0,1.655-0.04,3.518-0.04
		c1.324,0,1.986,0.554,1.986,2.056c0,0.118-0.042,0.276-0.042,0.396c-0.083,1.542-0.869,1.818-2.152,1.818
		c-0.828,0-1.903-0.118-3.145-0.118s-2.441-0.04-3.311-0.04h-0.042c-1.821,0-2.152-0.514-2.152-1.621
		C136.383,53.963,136.549,50.563,136.549,47.519z"/>
	<path fill="#FFFFFF" d="M164.52,51.472c0,0.632,0.042,0.87,0.042,1.977c0,1.661,0.786,2.293,2.193,2.293
		c2.234,0,2.358-2.174,2.358-4.032c0-7.868-6.29-4.112-8.441-10.2c-0.207-0.633-0.29-1.344-0.29-2.056
		c0-3.914,1.697-8.737,6.621-8.737c4.925,0,6.414,1.938,6.414,6.603c0,1.265-1.283,1.502-2.027,1.502
		c-2.772,0-1.117-4.112-4.097-4.112c-2.276,0-2.773,3.242-2.773,4.744c0,1.265,0.745,2.096,1.655,2.53
		c4.097,1.977,7.532,4.033,7.532,9.923c0,3.835-2.11,7.631-6.994,7.631c-4.097,0-6.456-3.005-6.456-7.117
		c0-2.491,0.497-3.4,2.317-3.4C164.189,49.021,164.52,50.523,164.52,51.472z"/>
	<path fill="#FFFFFF" d="M188.892,59.142c-1.655,0-2.276-1.146-2.524-2.53c-0.249-1.344-0.455-2.135-0.662-3.479
		c-0.042-0.355-0.414-0.632-0.745-0.632h-0.042c-0.414,0.04-0.869,0.079-1.366,0.079c-0.621,0-1.283-0.04-1.862-0.04
		c-0.331,0-0.662,0-0.952,0.04c-0.497,0.079-0.745,0.514-0.745,1.028c-0.166,2.57-0.58,5.495-2.979,5.495
		c-1.573,0-1.945-0.672-1.945-1.621c0-0.395,0.042-0.83,0.124-1.304c1.449-8.224,3.477-15.38,6-22.852
		c0.29-0.83,0.621-1.582,1.118-2.333c0.165-0.237,0.869-0.791,1.696-0.791c1.862,0,2.4,2.648,2.731,4.19
		c1.365,6.761,2.441,14.272,3.89,21.073c0.166,0.712,0.331,1.146,0.331,1.977S189.637,59.142,188.892,59.142z M185.209,47.914
		v-0.119c-0.414-3.321-0.91-7.156-1.614-10.438c-0.042-0.158-0.042-0.316-0.249-0.316h-0.041c-0.249,0-0.166,0.158-0.207,0.316
		c-0.869,3.795-1.697,6.8-2.359,10.793v0.119c0,0.237,0.083,0.396,0.331,0.396c0.828,0,2.772-0.119,3.724-0.277
		C185.043,48.349,185.209,48.151,185.209,47.914z"/>
	<path fill="#FFFFFF" d="M209.994,34.472c0,1.107,0.042,2.372,0.042,2.965c0,5.337-0.124,10.319-0.124,15.616
		c0,1.977-0.497,4.942-2.235,5.338c-0.331,0.079-0.662,0.237-0.993,0.237c-2.813,0-4.138-5.101-4.924-6.879
		c-0.786-1.74-1.2-3.282-2.028-4.942c-0.827-1.66-1.365-3.479-2.317-4.823c-0.083-0.079-0.207-0.514-0.372-0.514
		c-0.331,0-0.373,1.067-0.373,2.333c0,4.784,0.331,6.682,0.331,10.793c0,2.491-0.042,4.389-2.317,4.389c-0.166,0-0.373,0-0.58-0.04
		c-1.407-0.158-1.531-1.897-1.531-3.914v-1.502c0-1.186,0.042-2.372,0.042-3.163c0-0.791,0.041-1.502,0.041-2.293v-3.083
		c0-3.519,0.042-6.721,0.373-10.002c0.207-1.819,0.414-3.242,2.276-3.439h0.249c2.896,0,7.035,12.928,9.021,16.565
		c0.083,0.158,0.952,1.858,1.117,1.858c0.083,0,0.125-0.198,0.125-0.435c0-0.316-0.042-0.632-0.042-0.791
		c0.042-1.423,0.083-2.768,0.083-4.072c0-3.637-0.166-6.839-0.166-10.24c0-3.004,0.497-3.716,2.193-3.716
		C209.746,30.716,209.994,33.128,209.994,34.472z"/>
	<path fill="#FFFFFF" d="M213.26,52.817c-0.083-1.107-0.083-2.214-0.083-3.321c0-4.111,0.29-8.065,0.414-12.256
		c0.042-1.502,0.207-3.479,0.373-4.981c0.124-1.067,1.2-1.384,2.441-1.463h0.993c1.117,0,2.152,0.079,3.228,0.277
		c3.89,0.791,5.628,3.835,6.332,7.828c0.125,0.87,0.207,3.677,0.207,4.428c0,7.828-3.269,15.933-11.132,15.933
		c-0.373,0-0.786-0.039-1.2-0.039c-0.911,0-1.324-0.949-1.366-1.818c-0.042-1.424-0.166-2.808-0.207-4.231V52.817z M218.888,54.437
		c2.235,0,4.759-7.591,4.759-11.702c0-4.151-0.166-8.145-4.759-8.303h-0.042c-0.538,0-0.579,0.435-0.579,0.909v0.356v0.237
		c0,1.186-0.042,1.621-0.042,2.768c0,0.593,0,1.146,0.042,1.739c0.124,3.203,0.124,4.468,0.248,8.065v0.277v1.384V52.5
		c0,0.514,0,1.028,0.042,1.582C218.557,54.24,218.64,54.437,218.888,54.437z"/>
	<path fill="#FFFFFF" d="M231.797,58.708c-1.49-0.752-1.862-2.847-1.862-5.298c0-2.925,0.331-6.603,0.331-9.567
		c0-2.728,0.125-6.8,1.738-6.8c2.565,0,2.69,3.084,2.69,6.484c0,4.349-0.083,8.224-0.083,12.098c0,1.857,0,3.202-2.11,3.202h-0.29
		C232.087,58.826,231.921,58.786,231.797,58.708z M230.479,35.664c-1.129-0.516-1.574-3.03,0.022-6.525
		c1.445-3.167,2.921-4.406,3.824-3.993c0.339,0.155,0.595,0.591,0.761,1.224c0.369,1.684-0.098,4.101-1.122,6.343
		C232.791,35.285,231.421,36.094,230.479,35.664z"/>
	<path fill="#FFFFFF" d="M250.956,59.142c-1.655,0-2.276-1.146-2.524-2.53c-0.249-1.344-0.455-2.135-0.662-3.479
		c-0.042-0.355-0.414-0.632-0.745-0.632h-0.042c-0.414,0.04-0.869,0.079-1.366,0.079c-0.621,0-1.283-0.04-1.862-0.04
		c-0.331,0-0.662,0-0.952,0.04c-0.497,0.079-0.745,0.514-0.745,1.028c-0.166,2.57-0.58,5.495-2.979,5.495
		c-1.573,0-1.945-0.672-1.945-1.621c0-0.395,0.042-0.83,0.124-1.304c1.449-8.224,3.477-15.38,6-22.852
		c0.29-0.83,0.621-1.582,1.118-2.333c0.165-0.237,0.869-0.791,1.696-0.791c1.862,0,2.4,2.648,2.731,4.19
		c1.365,6.761,2.441,14.272,3.89,21.073c0.166,0.712,0.331,1.146,0.331,1.977S251.7,59.142,250.956,59.142z M247.272,47.914v-0.119
		c-0.414-3.321-0.91-7.156-1.614-10.438c-0.042-0.158-0.042-0.316-0.249-0.316h-0.041c-0.249,0-0.166,0.158-0.207,0.316
		c-0.869,3.795-1.697,6.8-2.359,10.793v0.119c0,0.237,0.083,0.396,0.331,0.396c0.828,0,2.772-0.119,3.724-0.277
		C247.107,48.349,247.272,48.151,247.272,47.914z"/>
	<path fill="#FFFFFF" d="M280.167,36.725c0,1.819-0.91,2.333-2.648,2.373c-0.869,0-1.944-0.277-1.944-1.107
		c0-1.897-1.035-2.451-1.573-2.451c-3.393,0-3.973,5.14-3.973,10.002c0,3.598,0.249,9.054,2.979,9.054
		c1.117,0,2.566-0.672,2.566-1.779c0-2.254,1.241-2.649,2.358-2.649c1.489,0,2.11,1.423,2.11,2.965c0,3.796-3.559,6.01-7.035,6.01
		c-5.876,0-7.407-5.654-7.407-12.256c0-7.393,0.869-16.012,8.773-16.012c3.145,0,5.71,2.609,5.793,5.733V36.725z"/>
	<path fill="#FFFFFF" d="M289.352,30.874c5.876,0,6.993,9.805,6.993,16.209c0,6.326-2.11,11.979-7.531,11.979
		c-4.718,0-6.58-5.258-6.58-13.917C282.233,40.323,283.807,30.874,289.352,30.874z M291.959,46.926v-0.711
		c0-4.31-0.083-11.268-2.607-11.268c-1.821,0-3.021,5.14-3.021,10.24s0.704,10.2,2.359,10.2
		C290.51,55.386,291.959,52.5,291.959,46.926z"/>
	<path fill="#FFFFFF" d="M316.785,34.472c0,1.107,0.041,2.372,0.041,2.965c0,5.337-0.124,10.319-0.124,15.616
		c0,1.977-0.497,4.942-2.234,5.338c-0.331,0.079-0.662,0.237-0.993,0.237c-2.814,0-4.139-5.101-4.925-6.879
		c-0.786-1.74-1.2-3.282-2.027-4.942c-0.828-1.66-1.366-3.479-2.317-4.823c-0.083-0.079-0.207-0.514-0.373-0.514
		c-0.331,0-0.372,1.067-0.372,2.333c0,4.784,0.331,6.682,0.331,10.793c0,2.491-0.041,4.389-2.317,4.389c-0.165,0-0.372,0-0.579-0.04
		c-1.407-0.158-1.531-1.897-1.531-3.914v-1.502c0-1.186,0.041-2.372,0.041-3.163c0-0.791,0.042-1.502,0.042-2.293v-3.083
		c0-3.519,0.041-6.721,0.372-10.002c0.207-1.819,0.414-3.242,2.276-3.439h0.248c2.896,0,7.035,12.928,9.021,16.565
		c0.082,0.158,0.951,1.858,1.117,1.858c0.083,0,0.124-0.198,0.124-0.435c0-0.316-0.041-0.632-0.041-0.791
		c0.041-1.423,0.082-2.768,0.082-4.072c0-3.637-0.165-6.839-0.165-10.24c0-3.004,0.496-3.716,2.193-3.716
		C316.537,30.716,316.785,33.128,316.785,34.472z"/>
	<path fill="#FFFFFF" d="M335.733,51.037v2.688c0,0.475,0.042,0.949,0.042,1.423v1.226c0,1.463-0.166,2.53-1.78,2.53
		c-2.151,0-2.772-2.412-2.772-4.863V41.391V39.73v-1.779c0-3.519,0.166-7.077,2.772-7.077c1.159,0,1.78,1.621,1.78,6.286v0.119
		c0,2.451-0.125,5.219-0.125,7.828v0.079c0,0.474,0.083,0.632,0.373,0.632c0.041,0,0.082-0.04,0.165-0.04
		c0.373-0.079,1.241-0.079,1.655-0.079c0.455,0,1.366,0.04,1.862,0.04c0.455,0,0.952-0.04,1.448-0.158
		c0.042,0,0.042-0.04,0.124-0.04c0.58-0.158,0.745-0.237,0.745-0.711v-5.496v-1.186v-2.412c0-2.847,0.207-4.863,1.903-4.863
		c1.904,0,2.648,1.819,2.648,3.598v3.124c0,6.563,0.538,12.019,0.538,18.187c0,1.739-0.744,3.241-2.11,3.241
		c-2.731,0-3.145-4.428-3.145-7.472V50.84c0-0.514-0.124-1.028-0.373-1.028c-1.075,0-2.896,0.277-4.221,0.277
		C336.479,50.089,335.733,50.168,335.733,51.037z"/>
	<path fill="#FFFFFF" d="M350.421,47.519v-7.354c0-1.779,0.042-3.756,0.166-5.931v-1.107c0-1.384,0.165-2.293,1.489-2.293
		c2.359,0,1.779,0.04,4.263,0.04h0.579c1.82,0,4.056,0.079,4.056,1.74c0,1.897-1.076,1.937-2.772,1.937h-0.166h-1.862
		c-0.703,0-1.117,0-1.117,0.712v0.395c0,1.7-0.041,3.44-0.041,5.061c0,0.751,0,0.751-0.042,0.751v0.474
		c0.042,0.633,0.745,0.712,1.449,0.712c0.537,0,0.579,0,0.579,0.04h0.331c1.158,0,2.275,0.04,2.275,2.016v0.316
		c-0.082,1.146-1.117,1.305-2.317,1.305c-0.538,0-1.82-0.04-2.317-0.04c-0.207,0-0.289,3.439-0.289,4.388
		c0,1.028,0.082,2.293,0.082,2.57c0,0.672,0.125,1.265,0.787,1.265h0.041c1.862,0,1.655-0.04,3.518-0.04
		c1.324,0,1.986,0.554,1.986,2.056c0,0.118-0.041,0.276-0.041,0.396c-0.083,1.542-0.869,1.818-2.152,1.818
		c-0.828,0-1.903-0.118-3.145-0.118c-1.242,0-2.442-0.04-3.311-0.04h-0.042c-1.82,0-2.151-0.514-2.151-1.621
		C350.256,53.963,350.421,50.563,350.421,47.519z"/>
	<path fill="#FFFFFF" d="M367.097,30.874c1.531,0,1.737,4.389,1.737,7.868c0,1.582-0.041,2.965-0.041,3.677
		c0,3.281-0.165,7.156-0.165,10.596c0,0.316,0.248,0.751,0.579,0.751c0.827,0,0.538-0.04,1.324-0.04c1.448,0,3.394,0.04,4.469,0.632
		c0.869,0.475,1.117,0.87,1.117,1.74c0,1.778-1.241,2.846-3.352,2.846h-0.91c-1.49,0-1.779,0.158-3.187,0.158
		c-2.483,0-4.47-0.514-4.635-3.479c-0.041-0.831-0.083-1.74-0.083-2.57v-3.479c0-2.807,0.166-5.416,0.166-8.263
		c0-0.949-0.042-2.017-0.042-3.084C364.075,34.788,364.365,30.874,367.097,30.874z"/>
	<path fill="#FFFFFF" d="M391.882,59.142c-1.655,0-2.275-1.146-2.524-2.53c-0.248-1.344-0.455-2.135-0.662-3.479
		c-0.041-0.355-0.413-0.632-0.744-0.632h-0.042c-0.413,0.04-0.868,0.079-1.365,0.079c-0.621,0-1.283-0.04-1.862-0.04
		c-0.331,0-0.662,0-0.951,0.04c-0.497,0.079-0.745,0.514-0.745,1.028c-0.166,2.57-0.579,5.495-2.979,5.495
		c-1.572,0-1.945-0.672-1.945-1.621c0-0.395,0.041-0.83,0.124-1.304c1.448-8.224,3.477-15.38,6.001-22.852
		c0.289-0.83,0.62-1.582,1.117-2.333c0.165-0.237,0.869-0.791,1.696-0.791c1.862,0,2.4,2.648,2.731,4.19
		c1.365,6.761,2.441,14.272,3.89,21.073c0.166,0.712,0.331,1.146,0.331,1.977S392.627,59.142,391.882,59.142z M388.199,47.914
		v-0.119c-0.414-3.321-0.91-7.156-1.614-10.438c-0.041-0.158-0.041-0.316-0.248-0.316h-0.041c-0.249,0-0.166,0.158-0.207,0.316
		c-0.869,3.795-1.696,6.8-2.358,10.793v0.119c0,0.237,0.082,0.396,0.33,0.396c0.828,0,2.773-0.119,3.725-0.277
		C388.033,48.349,388.199,48.151,388.199,47.914z"/>
	<path fill="#FFFFFF" d="M395.687,52.817c-0.083-1.107-0.083-2.214-0.083-3.321c0-4.111,0.29-8.065,0.414-12.256
		c0.041-1.502,0.207-3.479,0.372-4.981c0.124-1.067,1.2-1.384,2.442-1.463h0.992c1.118,0,2.152,0.079,3.229,0.277
		c3.89,0.791,5.628,3.835,6.331,7.828c0.124,0.87,0.207,3.677,0.207,4.428c0,7.828-3.27,15.933-11.132,15.933
		c-0.372,0-0.786-0.039-1.2-0.039c-0.91,0-1.324-0.949-1.365-1.818c-0.042-1.424-0.166-2.808-0.207-4.231V52.817z M401.314,54.437
		c2.234,0,4.759-7.591,4.759-11.702c0-4.151-0.165-8.145-4.759-8.303h-0.041c-0.538,0-0.58,0.435-0.58,0.909v0.356v0.237
		c0,1.186-0.041,1.621-0.041,2.768c0,0.593,0,1.146,0.041,1.739c0.125,3.203,0.125,4.468,0.249,8.065v0.277v1.384V52.5
		c0,0.514,0,1.028,0.041,1.582C400.983,54.24,401.066,54.437,401.314,54.437z"/>
	<path fill="#FFFFFF" d="M419.438,30.874c5.876,0,6.993,9.805,6.993,16.209c0,6.326-2.11,11.979-7.531,11.979
		c-4.718,0-6.58-5.258-6.58-13.917C412.319,40.323,413.893,30.874,419.438,30.874z M422.045,46.926v-0.711
		c0-4.31-0.083-11.268-2.607-11.268c-1.821,0-3.021,5.14-3.021,10.24s0.704,10.2,2.359,10.2
		C420.596,55.386,422.045,52.5,422.045,46.926z"/>
	<path fill="#FFFFFF" d="M455.435,32.021c0,2.728-0.455,5.021-0.951,7.67c-0.455,2.412-3.394,19.768-6.166,19.768
		c-3.518,0-4.966-6.919-5.918-10.517c-0.579-2.056-2.193-8.975-2.193-13.521c0-2.728,0.58-4.625,2.359-4.625
		c0.083,0,0.207,0.04,0.331,0.04c1.448,0.198,1.986,9.686,3.518,15.617c0.413,1.621,1.117,4.151,1.448,4.151
		c0.662-0.158,2.524-10.121,2.896-12.019c0.621-3.203,1.034-7.709,3.476-7.709C454.814,30.874,455.435,31.428,455.435,32.021z"/>
	<path fill="#FFFFFF" d="M468.303,59.142c-1.655,0-2.275-1.146-2.523-2.53c-0.249-1.344-0.456-2.135-0.662-3.479
		c-0.042-0.355-0.414-0.632-0.745-0.632h-0.042c-0.413,0.04-0.869,0.079-1.365,0.079c-0.621,0-1.283-0.04-1.862-0.04
		c-0.331,0-0.662,0-0.952,0.04c-0.496,0.079-0.744,0.514-0.744,1.028c-0.166,2.57-0.58,5.495-2.979,5.495
		c-1.573,0-1.945-0.672-1.945-1.621c0-0.395,0.042-0.83,0.124-1.304c1.448-8.224,3.477-15.38,6.001-22.852
		c0.289-0.83,0.62-1.582,1.117-2.333c0.165-0.237,0.869-0.791,1.696-0.791c1.862,0,2.4,2.648,2.731,4.19
		c1.365,6.761,2.441,14.272,3.89,21.073c0.166,0.712,0.331,1.146,0.331,1.977S469.048,59.142,468.303,59.142z M464.62,47.914v-0.119
		c-0.414-3.321-0.91-7.156-1.614-10.438c-0.041-0.158-0.041-0.316-0.248-0.316h-0.041c-0.248,0-0.166,0.158-0.207,0.316
		c-0.869,3.795-1.697,6.8-2.359,10.793v0.119c0,0.237,0.083,0.396,0.332,0.396c0.827,0,2.772-0.119,3.724-0.277
		C464.455,48.349,464.62,48.151,464.62,47.914z"/>
	<path fill="#FFFFFF" d="M473.722,58.708c-1.49-0.752-1.862-2.847-1.862-5.298c0-2.925,0.331-6.603,0.331-9.567
		c0-2.728,0.124-6.8,1.737-6.8c2.566,0,2.69,3.084,2.69,6.484c0,4.349-0.083,8.224-0.083,12.098c0,1.857,0,3.202-2.11,3.202h-0.29
		C474.011,58.826,473.846,58.786,473.722,58.708z M474.756,36.014c-1.241,0-2.689-1.146-2.689-3.242c0-1.898,0.827-2.847,1.82-2.847
		c0.373,0,0.786,0.158,1.2,0.435c1.034,0.751,1.614,2.056,1.614,3.4C476.701,35.302,475.79,36.014,474.756,36.014z"/>
	<path fill="#FFFFFF" d="M497.226,34.472c0,1.107,0.041,2.372,0.041,2.965c0,5.337-0.124,10.319-0.124,15.616
		c0,1.977-0.496,4.942-2.234,5.338c-0.331,0.079-0.662,0.237-0.993,0.237c-2.814,0-4.139-5.101-4.925-6.879
		c-0.786-1.74-1.2-3.282-2.027-4.942c-0.828-1.66-1.366-3.479-2.317-4.823c-0.083-0.079-0.207-0.514-0.373-0.514
		c-0.331,0-0.372,1.067-0.372,2.333c0,4.784,0.331,6.682,0.331,10.793c0,2.491-0.041,4.389-2.317,4.389c-0.166,0-0.372,0-0.579-0.04
		c-1.407-0.158-1.531-1.897-1.531-3.914v-1.502c0-1.186,0.041-2.372,0.041-3.163c0-0.791,0.042-1.502,0.042-2.293v-3.083
		c0-3.519,0.041-6.721,0.372-10.002c0.207-1.819,0.414-3.242,2.276-3.439h0.248c2.896,0,7.035,12.928,9.021,16.565
		c0.082,0.158,0.951,1.858,1.117,1.858c0.082,0,0.124-0.198,0.124-0.435c0-0.316-0.042-0.632-0.042-0.791
		c0.042-1.423,0.083-2.768,0.083-4.072c0-3.637-0.165-6.839-0.165-10.24c0-3.004,0.496-3.716,2.193-3.716
		C496.977,30.716,497.226,33.128,497.226,34.472z"/>
	<path fill="#FFFFFF" d="M502.105,58.708c-1.49-0.752-1.862-2.847-1.862-5.298c0-2.925,0.331-6.603,0.331-9.567
		c0-2.728,0.124-6.8,1.738-6.8c2.565,0,2.689,3.084,2.689,6.484c0,4.349-0.083,8.224-0.083,12.098c0,1.857,0,3.202-2.11,3.202h-0.29
		C502.395,58.826,502.229,58.786,502.105,58.708z M503.14,36.014c-1.241,0-2.689-1.146-2.689-3.242c0-1.898,0.827-2.847,1.82-2.847
		c0.372,0,0.786,0.158,1.2,0.435c1.034,0.751,1.614,2.056,1.614,3.4C505.085,35.302,504.174,36.014,503.14,36.014z"/>
	<path fill="#FFFFFF" d="M511.374,30.874c1.531,0,1.737,4.389,1.737,7.868c0,1.582-0.041,2.965-0.041,3.677
		c0,3.281-0.165,7.156-0.165,10.596c0,0.316,0.248,0.751,0.579,0.751c0.827,0,0.538-0.04,1.324-0.04c1.448,0,3.394,0.04,4.469,0.632
		c0.869,0.475,1.117,0.87,1.117,1.74c0,1.778-1.241,2.846-3.352,2.846h-0.91c-1.49,0-1.779,0.158-3.187,0.158
		c-2.483,0-4.47-0.514-4.635-3.479c-0.041-0.831-0.083-1.74-0.083-2.57v-3.479c0-2.807,0.166-5.416,0.166-8.263
		c0-0.949-0.042-2.017-0.042-3.084C508.353,34.788,508.643,30.874,511.374,30.874z"/>
	<path fill="#FFFFFF" d="M525.565,30.874c1.531,0,1.737,4.389,1.737,7.868c0,1.582-0.041,2.965-0.041,3.677
		c0,3.281-0.165,7.156-0.165,10.596c0,0.316,0.248,0.751,0.579,0.751c0.827,0,0.538-0.04,1.324-0.04c1.448,0,3.394,0.04,4.469,0.632
		c0.869,0.475,1.117,0.87,1.117,1.74c0,1.778-1.241,2.846-3.352,2.846h-0.91c-1.49,0-1.779,0.158-3.187,0.158
		c-2.483,0-4.47-0.514-4.635-3.479c-0.041-0.831-0.083-1.74-0.083-2.57v-3.479c0-2.807,0.166-5.416,0.166-8.263
		c0-0.949-0.042-2.017-0.042-3.084C522.544,34.788,522.834,30.874,525.565,30.874z"/>
	<path fill="#FFFFFF" d="M550.351,59.142c-1.655,0-2.275-1.146-2.524-2.53c-0.248-1.344-0.455-2.135-0.662-3.479
		c-0.041-0.355-0.413-0.632-0.744-0.632h-0.042c-0.413,0.04-0.868,0.079-1.365,0.079c-0.621,0-1.283-0.04-1.862-0.04
		c-0.331,0-0.662,0-0.951,0.04c-0.497,0.079-0.745,0.514-0.745,1.028c-0.166,2.57-0.579,5.495-2.979,5.495
		c-1.572,0-1.945-0.672-1.945-1.621c0-0.395,0.041-0.83,0.124-1.304c1.448-8.224,3.477-15.38,6.001-22.852
		c0.289-0.83,0.62-1.582,1.117-2.333c0.165-0.237,0.869-0.791,1.696-0.791c1.862,0,2.4,2.648,2.731,4.19
		c1.365,6.761,2.441,14.272,3.89,21.073c0.166,0.712,0.331,1.146,0.331,1.977S551.096,59.142,550.351,59.142z M546.668,47.914
		v-0.119c-0.414-3.321-0.91-7.156-1.614-10.438c-0.041-0.158-0.041-0.316-0.248-0.316h-0.041c-0.249,0-0.166,0.158-0.207,0.316
		c-0.869,3.795-1.696,6.8-2.358,10.793v0.119c0,0.237,0.082,0.396,0.33,0.396c0.828,0,2.773-0.119,3.725-0.277
		C546.502,48.349,546.668,48.151,546.668,47.914z"/>
	<path fill="#FFFFFF" d="M577.576,49.14c0-0.237-0.124-0.356-0.455-0.356h-0.041c-1.531,0-2.69-0.119-4.015-0.119
		c-0.827,0-1.696-0.514-1.696-1.305c0-0.593,0.29-1.423,0.662-1.74c0.703-0.632,2.482-0.751,4.18-0.751
		c1.241,0,2.482,0.079,3.187,0.079c1.407,0,2.275,1.146,2.399,2.53c0.166,1.226,0.249,1.858,0.249,3.163
		c0,5.891-1.862,8.659-7.904,8.659c-6.373,0-9.062-7.63-9.062-13.64c0-7.433,2.813-14.786,10.304-14.786
		c4.263,0,6.042,2.095,6.042,5.772c0,0.475,0.042,1.028,0.042,1.542c0,0.831-0.125,1.582-0.911,1.7
		c-0.455,0.079-0.91,0.119-1.365,0.119c-1.614,0-1.821-1.542-1.903-2.847c-0.125-1.819-0.787-2.451-1.655-2.451
		c-1.49,0-3.56,2.095-4.304,3.637c-1.2,2.491-1.779,4.428-1.779,7.828c0,2.135,0.289,3.835,1.324,5.496
		c0.455,0.751,0.868,1.502,1.448,2.174c0.662,0.791,1.241,1.621,2.441,1.621C577.535,55.466,577.576,51.235,577.576,49.14z"/>
	<path fill="#FFFFFF" d="M592.057,30.874c5.876,0,6.993,9.805,6.993,16.209c0,6.326-2.11,11.979-7.531,11.979
		c-4.718,0-6.58-5.258-6.58-13.917C584.938,40.323,586.512,30.874,592.057,30.874z M594.664,46.926v-0.711
		c0-4.31-0.083-11.268-2.607-11.268c-1.821,0-3.021,5.14-3.021,10.24s0.704,10.2,2.359,10.2
		C593.215,55.386,594.664,52.5,594.664,46.926z"/>
	<path fill="#FFFFFF" d="M616.76,35.381c0,3.282,0.124,5.614,0.124,9.489c0,3.795-0.414,7.512-1.572,10.24
		c-1.283,2.965-3.808,4.033-5.876,4.033c-7.904,0-7.904-12.098-7.904-19.531v-0.04c0-0.514-0.041-1.305-0.041-2.174
		c0-2.728,0.248-6.405,2.358-6.405c0.993,0,1.117,3.716,1.117,6.8c0,1.107-0.041,0.711-0.041,1.462c0,0.396,0,0.712,0.041,0.91
		c0.331,4.033-0.538,15.656,3.642,15.656c2.731-0.276,3.27-10.042,3.27-13.046V41.43c0-1.463-0.166-3.479-0.166-5.219
		c0-3.005,0.331-5.496,3.104-5.496c1.779,0,1.945,0.988,1.945,2.768V35.381z"/>
	<path fill="#FFFFFF" d="M620.067,56.572c0-3.637,0.248-6.8,0.248-10.318V44.04c-0.083-2.451-0.165-5.417-0.165-7.789v-1.7
		c0-3.281,0.869-3.835,4.221-3.835c1.572,0,3.27,0.316,3.807,0.475c0.497,0.158,0.994,0.316,1.407,0.553
		c1.862,0.989,2.524,3.203,2.814,5.496c0.124,0.949,0.207,2.056,0.207,3.202c0,3.479-0.828,7.354-3.932,7.354
		c-0.372,0-0.497,0.119-0.497,0.316c0,0.158,0.083,0.316,0.207,0.475c1.779,2.333,3.973,5.179,5.132,7.551
		c0.207,0.396,0.29,0.712,0.29,1.107c0,1.067-0.704,2.016-1.573,2.016c-2.482,0-3.724-2.965-4.593-4.586
		c-1.076-2.016-1.449-3.321-2.524-5.337c-0.083-0.158-0.249-0.316-0.414-0.316c-0.29,0-0.331,0.593-0.331,1.226
		c0,0.553,0.041,1.146,0.041,1.423c0.042,1.186,0.29,3.835,0.29,5.337c0,1.7-1.076,2.016-2.565,2.016
		C620.398,59.023,620.067,57.956,620.067,56.572z M624.826,35.579c-0.041,1.067-0.083,2.135-0.083,3.242
		c0,1.621,0.083,3.4,0.124,4.981c0.042,0.316,0.125,0.632,0.414,0.632h0.042c2.854-0.316,3.559-1.581,3.559-4.27
		c0-2.847-0.166-5.931-3.27-5.931C624.909,34.235,624.867,34.867,624.826,35.579z"/>
	<path fill="#FFFFFF" d="M640.301,41.746c0,0.198,0.041,0.356,0.041,0.514c0,1.384,0.124,1.858,0.124,3.044
		c0,1.423,0.083,2.095,0.083,4.546v4.625c0,2.926-0.372,4.666-2.482,4.666c-0.166,0-0.332,0-0.497-0.04
		c-1.159-0.197-1.407-2.293-1.407-4.586c0-6.049,0.248-11.07,0.248-17.04c0-2.056,0.083-6.326,1.738-6.879
		c0.124-0.04,0.207-0.04,0.331-0.04c0.331,0,0.704,0.119,1.117,0.356c1.986,1.146,3.021,4.625,3.767,6.682
		c0.289,0.83,0.455,1.7,0.703,2.53c0.124,0.514,1.572,6.286,1.82,6.286c0.373,0,5.463-12.138,5.918-13.363
		c0.248-0.632,1.407-1.779,1.945-2.135c0.248-0.158,0.537-0.237,0.869-0.237c1.737,0,2.316,2.333,2.482,5.417
		c0.083,1.858,0.124,3.242,0.124,4.428V42.3c0,3.914,0.29,8.065,0.29,12.019v1.305c0,1.857-0.166,3.36-1.904,3.36
		c-1.117,0-2.275-0.276-2.648-1.463c-0.662-2.174-0.786-4.428-0.786-7.116v-0.04c0-2.293,0.083-4.626,0.083-6.84
		c0-0.988,0-0.277-0.083-1.226c0-0.119-0.041-0.198-0.206-0.198c-0.662,0-4.553,14.51-5.835,14.786h-0.166
		c-0.207,0-0.414-0.079-0.538-0.158c-2.855-2.095-3.683-11.149-4.469-14.865c-0.042-0.197-0.124-0.593-0.373-0.593h-0.041
		C640.342,41.312,640.301,41.51,640.301,41.746z"/>
	<path fill="#FFFFFF" d="M660.822,47.519v-7.354c0-1.779,0.041-3.756,0.166-5.931v-1.107c0-1.384,0.165-2.293,1.489-2.293
		c2.358,0,1.779,0.04,4.263,0.04h0.579c1.821,0,4.056,0.079,4.056,1.74c0,1.897-1.076,1.937-2.772,1.937h-0.166h-1.862
		c-0.703,0-1.117,0-1.117,0.712v0.395c0,1.7-0.041,3.44-0.041,5.061c0,0.751,0,0.751-0.042,0.751v0.474
		c0.042,0.633,0.745,0.712,1.448,0.712c0.538,0,0.58,0,0.58,0.04h0.331c1.158,0,2.275,0.04,2.275,2.016v0.316
		c-0.082,1.146-1.117,1.305-2.317,1.305c-0.537,0-1.82-0.04-2.317-0.04c-0.206,0-0.289,3.439-0.289,4.388
		c0,1.028,0.083,2.293,0.083,2.57c0,0.672,0.124,1.265,0.786,1.265h0.041c1.862,0,1.655-0.04,3.518-0.04
		c1.324,0,1.986,0.554,1.986,2.056c0,0.118-0.042,0.276-0.042,0.396c-0.082,1.542-0.868,1.818-2.151,1.818
		c-0.827,0-1.903-0.118-3.146-0.118c-1.241,0-2.441-0.04-3.311-0.04h-0.041c-1.82,0-2.151-0.514-2.151-1.621
		C660.657,53.963,660.822,50.563,660.822,47.519z"/>
	<path fill="#FFFFFF" d="M678.035,38.426v-2.491c0-0.475,0-0.711-0.373-0.711h-0.082c-0.621,0.04-0.952,0.04-1.283,0.04h-1.117
		c-1.49-0.079-1.738-1.344-1.738-2.254c0-1.028,0.786-1.977,2.027-2.016c4.18-0.079,4.098-0.356,8.111-0.356
		c2.4,0,3.435,0.831,3.435,1.977v0.079c0,1.542-0.041,2.491-2.813,2.609c-0.828,0.039-0.373,0.039-1.283,0.079
		c-0.662,0.04-0.745,0.119-0.745,0.751v0.079c0,3.914,0.124,7.591,0.124,11.307c0,1.344-0.041,2.609-0.041,3.875
		c0,0.791,0.041,1.739,0.041,2.688c0,0.474,0,0.949-0.041,1.423c-0.166,2.412,0.372,3.716-2.152,3.716
		c-1.613,0-1.779-1.897-1.779-3.638v-1.423v-1.542C678.324,47.717,678.035,43.288,678.035,38.426z"/>
</g>
</svg>
