<?xml version="1.0" encoding="utf-8"?>
<!-- Generator: Adobe Illustrator 16.0.4, SVG Export Plug-In . SVG Version: 6.00 Build 0)  -->
<!DOCTYPE svg PUBLIC "-//W3C//DTD SVG 1.1//EN" "http://www.w3.org/Graphics/SVG/1.1/DTD/svg11.dtd">
<svg version="1.1" id="Isolation_Mode" xmlns="http://www.w3.org/2000/svg" xmlns:xlink="http://www.w3.org/1999/xlink" x="0px"
	 y="0px" width="725.5px" height="96.599px" viewBox="0 0 725.5 96.599" enable-background="new 0 0 725.5 96.599"
	 xml:space="preserve">
<path fill="#E53228" stroke="#FFFFFF" stroke-width="4" stroke-miterlimit="10" d="M16.692,30.547c0,0,5.458,9.375,7.279,17.898
	c1.82,8.523-5.459,34.092,9.098,33.24c14.559-0.853,81.89,8.523,120.106,5.966c38.215-2.557,247.489,1.705,254.77,2.558
	c7.279,0.852,212.913-7.671,212.913-7.671s52.774-0.853,65.513-0.853c12.737,0,25.478-42.615,23.657-56.251
	c-1.821-13.637,32.755-18.751-112.826-14.489c-145.582,4.261-429.466-0.853-429.466-0.853L29.433,11.796
	C29.43,11.796,3.952,9.239,16.692,30.547z"/>
<g enable-background="new    ">
	<path fill="#FFFFFF" d="M72.617,53.122c0,0.72,0.045,0.989,0.045,2.25c0,1.89,0.855,2.609,2.385,2.609
		c2.43,0,2.565-2.475,2.565-4.59c0-8.954-6.84-4.68-9.18-11.609c-0.225-0.72-0.315-1.53-0.315-2.34c0-4.455,1.845-9.945,7.2-9.945
		c5.355,0,6.975,2.205,6.975,7.515c0,1.439-1.395,1.71-2.205,1.71c-3.015,0-1.215-4.68-4.455-4.68c-2.475,0-3.015,3.69-3.015,5.4
		c0,1.439,0.81,2.385,1.8,2.88c4.455,2.25,8.19,4.59,8.19,11.294c0,4.365-2.295,8.686-7.605,8.686c-4.455,0-7.02-3.42-7.02-8.1
		c0-2.835,0.54-3.87,2.52-3.87C72.257,50.332,72.617,52.042,72.617,53.122z"/>
	<path fill="#FFFFFF" d="M99.121,61.851c-1.8,0-2.475-1.305-2.745-2.88c-0.27-1.53-0.495-2.43-0.72-3.96
		c-0.045-0.405-0.45-0.72-0.81-0.72h-0.045c-0.45,0.045-0.945,0.09-1.485,0.09c-0.675,0-1.395-0.045-2.025-0.045
		c-0.36,0-0.72,0-1.035,0.045c-0.54,0.09-0.81,0.585-0.81,1.17c-0.18,2.925-0.63,6.255-3.24,6.255c-1.71,0-2.115-0.766-2.115-1.845
		c0-0.45,0.045-0.945,0.135-1.485c1.575-9.359,3.78-17.504,6.525-26.009c0.315-0.945,0.675-1.8,1.215-2.655
		c0.18-0.27,0.945-0.9,1.845-0.9c2.025,0,2.61,3.015,2.97,4.77c1.485,7.694,2.655,16.244,4.229,23.984
		c0.18,0.81,0.36,1.305,0.36,2.249C101.371,60.861,99.931,61.851,99.121,61.851z M95.116,49.072v-0.136
		c-0.45-3.779-0.99-8.145-1.755-11.879c-0.045-0.181-0.045-0.36-0.27-0.36h-0.045c-0.27,0-0.18,0.18-0.225,0.36
		c-0.945,4.319-1.845,7.739-2.565,12.284v0.135c0,0.271,0.09,0.45,0.36,0.45c0.9,0,3.015-0.135,4.05-0.314
		C94.936,49.566,95.116,49.342,95.116,49.072z M93.001,28.012c-0.36,0-0.585-0.225-0.585-0.585v-0.18
		c0.36-2.07,3.42-5.535,5.129-6.39c0.54-0.225,1.125-0.45,1.62-0.45c0.675,0,1.125,0.54,1.125,1.26
		C100.291,24.188,95.026,28.012,93.001,28.012z"/>
	<path fill="#FFFFFF" d="M122.071,33.772c0,1.26,0.045,2.7,0.045,3.375c0,6.074-0.135,11.744-0.135,17.774
		c0,2.25-0.54,5.625-2.43,6.074c-0.36,0.09-0.72,0.271-1.08,0.271c-3.06,0-4.5-5.805-5.355-7.83
		c-0.855-1.979-1.305-3.734-2.205-5.625c-0.9-1.89-1.485-3.959-2.52-5.489c-0.09-0.09-0.225-0.585-0.405-0.585
		c-0.36,0-0.405,1.215-0.405,2.654c0,5.445,0.36,7.605,0.36,12.285c0,2.835-0.045,4.994-2.52,4.994c-0.18,0-0.405,0-0.63-0.045
		c-1.53-0.18-1.665-2.159-1.665-4.454v-1.71c0-1.351,0.045-2.7,0.045-3.601c0-0.899,0.045-1.71,0.045-2.609v-3.51
		c0-4.005,0.045-7.649,0.405-11.385c0.225-2.07,0.45-3.69,2.475-3.915h0.27c3.15,0,7.649,14.715,9.81,18.854
		c0.09,0.18,1.035,2.115,1.215,2.115c0.09,0,0.135-0.226,0.135-0.495c0-0.36-0.045-0.72-0.045-0.9c0.045-1.62,0.09-3.149,0.09-4.635
		c0-4.14-0.18-7.784-0.18-11.654c0-3.42,0.54-4.23,2.385-4.23C121.801,29.497,122.071,32.242,122.071,33.772z"/>
	<path fill="#FFFFFF" d="M125.626,54.651c-0.09-1.26-0.09-2.52-0.09-3.779c0-4.68,0.315-9.18,0.45-13.949
		c0.045-1.71,0.225-3.96,0.405-5.67c0.135-1.215,1.305-1.575,2.655-1.665h1.08c1.215,0,2.34,0.09,3.51,0.315
		c4.23,0.9,6.12,4.365,6.885,8.91c0.135,0.989,0.225,4.185,0.225,5.04c0,8.909-3.555,18.134-12.105,18.134
		c-0.405,0-0.855-0.045-1.305-0.045c-0.99,0-1.44-1.08-1.485-2.07c-0.045-1.619-0.18-3.194-0.225-4.814V54.651z M131.746,56.496
		c2.43,0,5.175-8.64,5.175-13.319c0-4.725-0.18-9.269-5.175-9.449h-0.045c-0.585,0-0.63,0.495-0.63,1.035v0.404v0.271
		c0,1.35-0.045,1.845-0.045,3.149c0,0.676,0,1.306,0.045,1.98c0.135,3.645,0.135,5.085,0.27,9.18v0.314v1.575v2.655
		c0,0.585,0,1.17,0.045,1.8C131.386,56.271,131.476,56.496,131.746,56.496z"/>
	<path fill="#FFFFFF" d="M160.23,34.807c0,3.734,0.135,6.39,0.135,10.8c0,4.319-0.45,8.549-1.71,11.654
		c-1.395,3.375-4.14,4.59-6.39,4.59c-8.595,0-8.595-13.77-8.595-22.229v-0.045c0-0.585-0.045-1.484-0.045-2.475
		c0-3.105,0.27-7.29,2.565-7.29c1.08,0,1.215,4.23,1.215,7.74c0,1.26-0.045,0.81-0.045,1.664c0,0.45,0,0.811,0.045,1.035
		c0.36,4.59-0.585,17.819,3.959,17.819c2.97-0.314,3.555-11.43,3.555-14.85v-1.529c0-1.665-0.18-3.96-0.18-5.94
		c0-3.419,0.36-6.254,3.375-6.254c1.935,0,2.115,1.125,2.115,3.15V34.807z"/>
	<path fill="#FFFFFF" d="M179.22,36.337c0,2.07-0.99,2.655-2.88,2.7c-0.945,0-2.115-0.314-2.115-1.26c0-2.16-1.125-2.79-1.71-2.79
		c-3.69,0-4.32,5.85-4.32,11.385c0,4.095,0.27,10.305,3.24,10.305c1.215,0,2.79-0.766,2.79-2.025c0-2.564,1.35-3.015,2.565-3.015
		c1.62,0,2.295,1.62,2.295,3.375c0,4.319-3.87,6.84-7.65,6.84c-6.39,0-8.055-6.435-8.055-13.949c0-8.415,0.945-18.225,9.54-18.225
		c3.419,0,6.209,2.97,6.299,6.524V36.337z"/>
	<path fill="#FFFFFF" d="M187.141,52.627v3.06c0,0.54,0.045,1.08,0.045,1.62v1.395c0,1.665-0.18,2.88-1.935,2.88
		c-2.34,0-3.015-2.744-3.015-5.534V41.647v-1.891v-2.024c0-4.005,0.18-8.055,3.015-8.055c1.26,0,1.935,1.845,1.935,7.154v0.136
		c0,2.789-0.135,5.939-0.135,8.909v0.09c0,0.54,0.09,0.72,0.405,0.72c0.045,0,0.09-0.045,0.18-0.045c0.405-0.09,1.35-0.09,1.8-0.09
		c0.495,0,1.485,0.045,2.025,0.045c0.495,0,1.035-0.045,1.575-0.18c0.045,0,0.045-0.045,0.135-0.045
		c0.63-0.18,0.81-0.271,0.81-0.811v-6.254v-1.351v-2.744c0-3.24,0.225-5.535,2.07-5.535c2.07,0,2.88,2.07,2.88,4.095v3.555
		c0,7.47,0.585,13.68,0.585,20.699c0,1.98-0.81,3.69-2.295,3.69c-2.97,0-3.42-5.04-3.42-8.505v-0.811c0-0.585-0.135-1.17-0.405-1.17
		c-1.17,0-3.149,0.315-4.59,0.315C187.951,51.547,187.141,51.636,187.141,52.627z"/>
	<path fill="#FFFFFF" d="M203.115,48.622v-8.37c0-2.024,0.045-4.274,0.18-6.75v-1.26c0-1.575,0.18-2.61,1.62-2.61
		c2.565,0,1.935,0.045,4.635,0.045h0.63c1.98,0,4.41,0.09,4.41,1.98c0,2.16-1.17,2.205-3.015,2.205h-0.18h-2.025
		c-0.765,0-1.215,0-1.215,0.811v0.449c0,1.936-0.045,3.915-0.045,5.76c0,0.855,0,0.855-0.045,0.855v0.54
		c0.045,0.72,0.81,0.81,1.575,0.81c0.585,0,0.63,0,0.63,0.045h0.36c1.26,0,2.475,0.045,2.475,2.295v0.36
		c-0.09,1.305-1.215,1.484-2.52,1.484c-0.585,0-1.979-0.045-2.52-0.045c-0.225,0-0.315,3.915-0.315,4.995
		c0,1.17,0.09,2.61,0.09,2.925c0,0.765,0.135,1.44,0.855,1.44h0.045c2.025,0,1.8-0.045,3.825-0.045c1.44,0,2.16,0.63,2.16,2.34
		c0,0.135-0.045,0.314-0.045,0.449c-0.09,1.755-0.945,2.07-2.34,2.07c-0.9,0-2.07-0.135-3.42-0.135c-1.35,0-2.655-0.045-3.6-0.045
		h-0.045c-1.98,0-2.34-0.585-2.34-1.846C202.936,55.957,203.115,52.087,203.115,48.622z"/>
	<path fill="#FFFFFF" d="M230.16,54.651c-0.09-1.26-0.09-2.52-0.09-3.779c0-4.68,0.315-9.18,0.45-13.949
		c0.045-1.71,0.226-3.96,0.405-5.67c0.135-1.215,1.305-1.575,2.654-1.665h1.08c1.215,0,2.34,0.09,3.51,0.315
		c4.23,0.9,6.12,4.365,6.885,8.91c0.136,0.989,0.226,4.185,0.226,5.04c0,8.909-3.555,18.134-12.104,18.134
		c-0.405,0-0.855-0.045-1.306-0.045c-0.989,0-1.439-1.08-1.484-2.07c-0.045-1.619-0.18-3.194-0.226-4.814V54.651z M236.28,56.496
		c2.43,0,5.175-8.64,5.175-13.319c0-4.725-0.18-9.269-5.175-9.449h-0.045c-0.585,0-0.63,0.495-0.63,1.035v0.404v0.271
		c0,1.35-0.045,1.845-0.045,3.149c0,0.676,0,1.306,0.045,1.98c0.135,3.645,0.135,5.085,0.27,9.18v0.314v1.575v2.655
		c0,0.585,0,1.17,0.045,1.8C235.919,56.271,236.01,56.496,236.28,56.496z"/>
	<path fill="#FFFFFF" d="M248.7,48.622v-8.37c0-2.024,0.045-4.274,0.18-6.75v-1.26c0-1.575,0.18-2.61,1.62-2.61
		c2.564,0,1.935,0.045,4.635,0.045h0.629c1.98,0,4.41,0.09,4.41,1.98c0,2.16-1.17,2.205-3.016,2.205h-0.18h-2.023
		c-0.766,0-1.217,0-1.217,0.811v0.449c0,1.936-0.045,3.915-0.045,5.76c0,0.855,0,0.855-0.045,0.855v0.54
		c0.045,0.72,0.811,0.81,1.576,0.81c0.584,0,0.629,0,0.629,0.045h0.361c1.26,0,2.475,0.045,2.475,2.295v0.36
		c-0.09,1.305-1.215,1.484-2.52,1.484c-0.586,0-1.98-0.045-2.521-0.045c-0.224,0-0.314,3.915-0.314,4.995
		c0,1.17,0.09,2.61,0.09,2.925c0,0.765,0.134,1.44,0.855,1.44h0.045c2.025,0,1.801-0.045,3.824-0.045c1.441,0,2.16,0.63,2.16,2.34
		c0,0.135-0.045,0.314-0.045,0.449c-0.09,1.755-0.945,2.07-2.34,2.07c-0.9,0-2.07-0.135-3.42-0.135c-1.35,0-2.655-0.045-3.599-0.045
		h-0.046c-1.979,0-2.34-0.585-2.34-1.846C248.519,55.957,248.7,52.087,248.7,48.622z"/>
	<path fill="#FFFFFF" d="M280.561,52.627v3.06c0,0.54,0.045,1.08,0.045,1.62v1.395c0,1.665-0.18,2.88-1.936,2.88
		c-2.34,0-3.016-2.744-3.016-5.534V41.647v-1.891v-2.024c0-4.005,0.182-8.055,3.016-8.055c1.26,0,1.936,1.845,1.936,7.154v0.136
		c0,2.789-0.135,5.939-0.135,8.909v0.09c0,0.54,0.09,0.72,0.404,0.72c0.045,0,0.09-0.045,0.18-0.045
		c0.404-0.09,1.35-0.09,1.801-0.09c0.494,0,1.484,0.045,2.023,0.045c0.496,0,1.035-0.045,1.576-0.18
		c0.045,0,0.045-0.045,0.135-0.045c0.629-0.18,0.811-0.271,0.811-0.811v-6.254v-1.351v-2.744c0-3.24,0.225-5.535,2.068-5.535
		c2.07,0,2.881,2.07,2.881,4.095v3.555c0,7.47,0.584,13.68,0.584,20.699c0,1.98-0.809,3.69-2.295,3.69
		c-2.969,0-3.42-5.04-3.42-8.505v-0.811c0-0.585-0.135-1.17-0.404-1.17c-1.17,0-3.15,0.315-4.59,0.315
		C281.369,51.547,280.561,51.636,280.561,52.627z"/>
	<path fill="#FFFFFF" d="M296.535,48.622v-8.37c0-2.024,0.045-4.274,0.18-6.75v-1.26c0-1.575,0.18-2.61,1.619-2.61
		c2.564,0,1.936,0.045,4.635,0.045h0.631c1.979,0,4.41,0.09,4.41,1.98c0,2.16-1.17,2.205-3.016,2.205h-0.18h-2.025
		c-0.766,0-1.215,0-1.215,0.811v0.449c0,1.936-0.045,3.915-0.045,5.76c0,0.855,0,0.855-0.045,0.855v0.54
		c0.045,0.72,0.811,0.81,1.574,0.81c0.586,0,0.631,0,0.631,0.045h0.359c1.26,0,2.475,0.045,2.475,2.295v0.36
		c-0.09,1.305-1.215,1.484-2.52,1.484c-0.584,0-1.98-0.045-2.52-0.045c-0.225,0-0.314,3.915-0.314,4.995
		c0,1.17,0.09,2.61,0.09,2.925c0,0.765,0.135,1.44,0.854,1.44h0.047c2.023,0,1.799-0.045,3.824-0.045c1.439,0,2.16,0.63,2.16,2.34
		c0,0.135-0.045,0.314-0.045,0.449c-0.09,1.755-0.945,2.07-2.34,2.07c-0.9,0-2.07-0.135-3.42-0.135c-1.352,0-2.656-0.045-3.6-0.045
		h-0.047c-1.979,0-2.34-0.585-2.34-1.846C296.354,55.957,296.535,52.087,296.535,48.622z"/>
	<path fill="#FFFFFF" d="M314.67,29.677c1.664,0,1.891,4.995,1.891,8.954c0,1.801-0.047,3.375-0.047,4.186
		c0,3.734-0.18,8.145-0.18,12.06c0,0.359,0.271,0.854,0.631,0.854c0.9,0,0.584-0.045,1.439-0.045c1.576,0,3.689,0.045,4.859,0.72
		c0.945,0.54,1.215,0.99,1.215,1.98c0,2.024-1.35,3.239-3.645,3.239h-0.99c-1.619,0-1.934,0.181-3.465,0.181
		c-2.699,0-4.859-0.585-5.039-3.96c-0.045-0.945-0.09-1.98-0.09-2.925v-3.96c0-3.195,0.18-6.165,0.18-9.404
		c0-1.08-0.045-2.295-0.045-3.511C311.385,34.132,311.699,29.677,314.67,29.677z"/>
	<path fill="#FFFFFF" d="M341.623,61.851c-1.799,0-2.475-1.305-2.744-2.88c-0.27-1.53-0.496-2.43-0.721-3.96
		c-0.045-0.405-0.449-0.72-0.809-0.72h-0.047c-0.449,0.045-0.943,0.09-1.484,0.09c-0.674,0-1.395-0.045-2.025-0.045
		c-0.359,0-0.719,0-1.033,0.045c-0.541,0.09-0.811,0.585-0.811,1.17c-0.18,2.925-0.631,6.255-3.24,6.255
		c-1.709,0-2.115-0.766-2.115-1.845c0-0.45,0.045-0.945,0.135-1.485c1.576-9.359,3.781-17.504,6.525-26.009
		c0.314-0.945,0.676-1.8,1.215-2.655c0.18-0.27,0.945-0.9,1.846-0.9c2.023,0,2.609,3.015,2.969,4.77
		c1.484,7.694,2.656,16.244,4.23,23.984c0.18,0.81,0.359,1.305,0.359,2.249C343.873,60.861,342.434,61.851,341.623,61.851z
		 M337.619,49.072v-0.136c-0.451-3.779-0.99-8.145-1.756-11.879c-0.045-0.181-0.045-0.36-0.27-0.36h-0.045
		c-0.27,0-0.18,0.18-0.225,0.36c-0.945,4.319-1.846,7.739-2.564,12.284v0.135c0,0.271,0.09,0.45,0.359,0.45
		c0.9,0,3.014-0.135,4.049-0.314C337.439,49.566,337.619,49.342,337.619,49.072z"/>
	<path fill="#FFFFFF" d="M345.766,54.651c-0.092-1.26-0.092-2.52-0.092-3.779c0-4.68,0.316-9.18,0.451-13.949
		c0.045-1.71,0.225-3.96,0.404-5.67c0.135-1.215,1.305-1.575,2.654-1.665h1.08c1.215,0,2.34,0.09,3.51,0.315
		c4.23,0.9,6.121,4.365,6.885,8.91c0.137,0.989,0.227,4.185,0.227,5.04c0,8.909-3.555,18.134-12.105,18.134
		c-0.404,0-0.855-0.045-1.305-0.045c-0.99,0-1.439-1.08-1.484-2.07c-0.045-1.619-0.18-3.194-0.225-4.814V54.651z M351.885,56.496
		c2.43,0,5.174-8.64,5.174-13.319c0-4.725-0.18-9.269-5.174-9.449h-0.045c-0.586,0-0.631,0.495-0.631,1.035v0.404v0.271
		c0,1.35-0.045,1.845-0.045,3.149c0,0.676,0,1.306,0.045,1.98c0.135,3.645,0.135,5.085,0.27,9.18v0.314v1.575v2.655
		c0,0.585,0,1.17,0.047,1.8C351.525,56.271,351.615,56.496,351.885,56.496z"/>
	<path fill="#FFFFFF" d="M371.594,29.677c6.389,0,7.605,11.159,7.605,18.449c0,7.199-2.295,13.635-8.191,13.635
		c-5.129,0-7.154-5.985-7.154-15.84C363.854,40.432,365.564,29.677,371.594,29.677z M374.428,47.947v-0.811
		c0-4.904-0.09-12.824-2.834-12.824c-1.98,0-3.285,5.85-3.285,11.654s0.766,11.609,2.564,11.609
		C372.854,57.576,374.428,54.292,374.428,47.947z"/>
	<path fill="#FFFFFF" d="M410.248,36.337c0,2.07-0.99,2.655-2.881,2.7c-0.943,0-2.113-0.314-2.113-1.26
		c0-2.16-1.125-2.79-1.711-2.79c-3.689,0-4.32,5.85-4.32,11.385c0,4.095,0.271,10.305,3.24,10.305c1.215,0,2.791-0.766,2.791-2.025
		c0-2.564,1.35-3.015,2.564-3.015c1.619,0,2.295,1.62,2.295,3.375c0,4.319-3.871,6.84-7.65,6.84c-6.389,0-8.055-6.435-8.055-13.949
		c0-8.415,0.945-18.225,9.539-18.225c3.42,0,6.211,2.97,6.301,6.524V36.337z"/>
	<path fill="#FFFFFF" d="M413.488,48.622v-8.37c0-2.024,0.045-4.274,0.18-6.75v-1.26c0-1.575,0.18-2.61,1.619-2.61
		c2.564,0,1.936,0.045,4.635,0.045h0.631c1.979,0,4.41,0.09,4.41,1.98c0,2.16-1.17,2.205-3.016,2.205h-0.18h-2.025
		c-0.766,0-1.215,0-1.215,0.811v0.449c0,1.936-0.045,3.915-0.045,5.76c0,0.855,0,0.855-0.045,0.855v0.54
		c0.045,0.72,0.811,0.81,1.574,0.81c0.586,0,0.631,0,0.631,0.045h0.359c1.26,0,2.475,0.045,2.475,2.295v0.36
		c-0.09,1.305-1.215,1.484-2.52,1.484c-0.584,0-1.98-0.045-2.52-0.045c-0.225,0-0.314,3.915-0.314,4.995
		c0,1.17,0.09,2.61,0.09,2.925c0,0.765,0.135,1.44,0.854,1.44h0.047c2.023,0,1.799-0.045,3.824-0.045c1.439,0,2.16,0.63,2.16,2.34
		c0,0.135-0.045,0.314-0.045,0.449c-0.09,1.755-0.945,2.07-2.34,2.07c-0.9,0-2.07-0.135-3.42-0.135c-1.352,0-2.656-0.045-3.6-0.045
		h-0.047c-1.979,0-2.34-0.585-2.34-1.846C413.307,55.957,413.488,52.087,413.488,48.622z"/>
	<path fill="#FFFFFF" d="M428.293,58.927c0-4.14,0.27-7.74,0.27-11.745v-2.52c-0.09-2.79-0.18-6.165-0.18-8.864v-1.936
		c0-3.735,0.945-4.365,4.59-4.365c1.711,0,3.555,0.36,4.141,0.54c0.539,0.18,1.08,0.36,1.529,0.63
		c2.025,1.125,2.744,3.645,3.061,6.255c0.135,1.079,0.225,2.34,0.225,3.645c0,3.96-0.9,8.369-4.275,8.369
		c-0.404,0-0.539,0.136-0.539,0.36c0,0.18,0.09,0.36,0.225,0.54c1.936,2.655,4.32,5.895,5.58,8.595
		c0.225,0.45,0.314,0.81,0.314,1.26c0,1.215-0.766,2.295-1.711,2.295c-2.699,0-4.049-3.375-4.994-5.22
		c-1.17-2.295-1.574-3.78-2.744-6.075c-0.09-0.18-0.27-0.359-0.451-0.359c-0.314,0-0.359,0.675-0.359,1.395
		c0,0.63,0.045,1.305,0.045,1.62c0.045,1.35,0.314,4.365,0.314,6.075c0,1.935-1.17,2.295-2.789,2.295
		C428.652,61.717,428.293,60.501,428.293,58.927z M433.467,35.032c-0.045,1.215-0.09,2.43-0.09,3.69c0,1.845,0.09,3.869,0.137,5.669
		c0.045,0.36,0.135,0.721,0.449,0.721h0.045c3.105-0.36,3.869-1.8,3.869-4.86c0-3.239-0.18-6.75-3.555-6.75
		C433.559,33.502,433.514,34.222,433.467,35.032z"/>
	<path fill="#FFFFFF" d="M446.023,48.622v-8.37c0-2.024,0.045-4.274,0.18-6.75v-1.26c0-1.575,0.18-2.61,1.619-2.61
		c2.564,0,1.936,0.045,4.635,0.045h0.631c1.979,0,4.41,0.09,4.41,1.98c0,2.16-1.17,2.205-3.016,2.205h-0.18h-2.025
		c-0.766,0-1.215,0-1.215,0.811v0.449c0,1.936-0.045,3.915-0.045,5.76c0,0.855,0,0.855-0.045,0.855v0.54
		c0.045,0.72,0.811,0.81,1.574,0.81c0.586,0,0.631,0,0.631,0.045h0.359c1.26,0,2.475,0.045,2.475,2.295v0.36
		c-0.09,1.305-1.215,1.484-2.52,1.484c-0.584,0-1.98-0.045-2.52-0.045c-0.225,0-0.314,3.915-0.314,4.995
		c0,1.17,0.09,2.61,0.09,2.925c0,0.765,0.135,1.44,0.854,1.44h0.047c2.023,0,1.799-0.045,3.824-0.045c1.439,0,2.16,0.63,2.16,2.34
		c0,0.135-0.045,0.314-0.045,0.449c-0.09,1.755-0.945,2.07-2.34,2.07c-0.9,0-2.07-0.135-3.42-0.135c-1.352,0-2.656-0.045-3.6-0.045
		h-0.047c-1.979,0-2.34-0.585-2.34-1.846C445.842,55.957,446.023,52.087,446.023,48.622z"/>
	<path fill="#FFFFFF" d="M470.861,56.181c2.791,0,3.375,0.675,3.375,2.97c0,2.25-2.07,2.295-2.834,2.295
		c-1.846,0-1.936-0.225-3.51-0.225h-0.045c-0.721,0-1.756,0.045-3.42,0.18h-0.406c-2.385,0-3.555-1.485-3.555-3.42
		c0-0.81,0.18-1.665,0.541-2.52c2.34-5.175,4.545-10.665,6.434-15.885c0.451-1.215,0.855-2.43,1.35-3.645
		c0.09-0.226,0.137-0.405,0.137-0.54c0-0.226-0.137-0.45-0.361-0.45c-2.115-0.135-4.049-0.585-7.02-0.585
		c-1.035,0-1.484-0.765-1.484-1.71c0-1.395,1.035-3.015,2.789-3.015c1.756,0,3.195-0.045,4.635-0.045c0.9,0,1.801,0,2.656,0.09
		c1.709,0.09,3.6,0.315,3.6,2.16c0,9.089-5.535,14.759-7.561,23.625v0.225c0,0.271,0.09,0.54,0.27,0.54
		C467.893,56.226,469.422,56.181,470.861,56.181z"/>
	<path fill="#FFFFFF" d="M491.111,61.851c-1.799,0-2.475-1.305-2.744-2.88c-0.27-1.53-0.496-2.43-0.721-3.96
		c-0.045-0.405-0.449-0.72-0.809-0.72h-0.047c-0.449,0.045-0.943,0.09-1.484,0.09c-0.674,0-1.395-0.045-2.025-0.045
		c-0.359,0-0.719,0-1.033,0.045c-0.541,0.09-0.811,0.585-0.811,1.17c-0.18,2.925-0.631,6.255-3.24,6.255
		c-1.709,0-2.115-0.766-2.115-1.845c0-0.45,0.045-0.945,0.135-1.485c1.576-9.359,3.781-17.504,6.525-26.009
		c0.314-0.945,0.676-1.8,1.215-2.655c0.18-0.27,0.945-0.9,1.846-0.9c2.023,0,2.609,3.015,2.969,4.77
		c1.484,7.694,2.656,16.244,4.23,23.984c0.18,0.81,0.359,1.305,0.359,2.249C493.361,60.861,491.922,61.851,491.111,61.851z
		 M487.107,49.072v-0.136c-0.451-3.779-0.99-8.145-1.756-11.879c-0.045-0.181-0.045-0.36-0.27-0.36h-0.045
		c-0.27,0-0.18,0.18-0.225,0.36c-0.945,4.319-1.846,7.739-2.564,12.284v0.135c0,0.271,0.09,0.45,0.359,0.45
		c0.9,0,3.014-0.135,4.049-0.314C486.928,49.566,487.107,49.342,487.107,49.072z"/>
	<path fill="#FFFFFF" d="M499.527,53.122c0,0.72,0.045,0.989,0.045,2.25c0,1.89,0.854,2.609,2.385,2.609
		c2.43,0,2.564-2.475,2.564-4.59c0-8.954-6.84-4.68-9.18-11.609c-0.225-0.72-0.314-1.53-0.314-2.34c0-4.455,1.844-9.945,7.199-9.945
		s6.975,2.205,6.975,7.515c0,1.439-1.395,1.71-2.205,1.71c-3.014,0-1.215-4.68-4.455-4.68c-2.475,0-3.014,3.69-3.014,5.4
		c0,1.439,0.809,2.385,1.799,2.88c4.455,2.25,8.189,4.59,8.189,11.294c0,4.365-2.295,8.686-7.604,8.686c-4.455,0-7.02-3.42-7.02-8.1
		c0-2.835,0.539-3.87,2.52-3.87C499.166,50.332,499.527,52.042,499.527,53.122z"/>
	<path fill="#FFFFFF" d="M538.314,50.467c0-0.27-0.135-0.405-0.494-0.405h-0.045c-1.664,0-2.926-0.135-4.365-0.135
		c-0.9,0-1.844-0.585-1.844-1.484c0-0.676,0.314-1.62,0.719-1.98c0.766-0.72,2.701-0.854,4.545-0.854c1.35,0,2.701,0.09,3.465,0.09
		c1.531,0,2.475,1.305,2.609,2.88c0.182,1.395,0.271,2.114,0.271,3.6c0,6.705-2.025,9.854-8.596,9.854
		c-6.93,0-9.854-8.685-9.854-15.524c0-8.46,3.059-16.829,11.203-16.829c4.635,0,6.57,2.385,6.57,6.569
		c0,0.54,0.045,1.17,0.045,1.755c0,0.945-0.135,1.8-0.99,1.936c-0.494,0.09-0.99,0.135-1.484,0.135c-1.756,0-1.98-1.755-2.07-3.24
		c-0.135-2.069-0.855-2.79-1.799-2.79c-1.621,0-3.871,2.385-4.68,4.14c-1.307,2.835-1.936,5.039-1.936,8.909
		c0,2.43,0.314,4.365,1.439,6.255c0.496,0.855,0.945,1.71,1.576,2.475c0.719,0.9,1.35,1.846,2.654,1.846
		C538.27,57.667,538.314,52.851,538.314,50.467z"/>
	<path fill="#FFFFFF" d="M554.064,29.677c6.391,0,7.605,11.159,7.605,18.449c0,7.199-2.295,13.635-8.189,13.635
		c-5.131,0-7.154-5.985-7.154-15.84C546.326,40.432,548.035,29.677,554.064,29.677z M556.9,47.947v-0.811
		c0-4.904-0.09-12.824-2.836-12.824c-1.979,0-3.283,5.85-3.283,11.654s0.764,11.609,2.564,11.609
		C555.326,57.576,556.9,54.292,556.9,47.947z"/>
	<path fill="#FFFFFF" d="M580.93,34.807c0,3.734,0.135,6.39,0.135,10.8c0,4.319-0.449,8.549-1.709,11.654
		c-1.396,3.375-4.141,4.59-6.391,4.59c-8.594,0-8.594-13.77-8.594-22.229v-0.045c0-0.585-0.045-1.484-0.045-2.475
		c0-3.105,0.27-7.29,2.564-7.29c1.08,0,1.215,4.23,1.215,7.74c0,1.26-0.045,0.81-0.045,1.664c0,0.45,0,0.811,0.045,1.035
		c0.359,4.59-0.586,17.819,3.959,17.819c2.971-0.314,3.555-11.43,3.555-14.85v-1.529c0-1.665-0.18-3.96-0.18-5.94
		c0-3.419,0.361-6.254,3.375-6.254c1.936,0,2.115,1.125,2.115,3.15V34.807z"/>
	<path fill="#FFFFFF" d="M584.531,58.927c0-4.14,0.27-7.74,0.27-11.745v-2.52c-0.09-2.79-0.18-6.165-0.18-8.864v-1.936
		c0-3.735,0.943-4.365,4.59-4.365c1.709,0,3.555,0.36,4.139,0.54c0.541,0.18,1.08,0.36,1.529,0.63
		c2.025,1.125,2.746,3.645,3.061,6.255c0.135,1.079,0.225,2.34,0.225,3.645c0,3.96-0.898,8.369-4.273,8.369
		c-0.406,0-0.541,0.136-0.541,0.36c0,0.18,0.09,0.36,0.225,0.54c1.936,2.655,4.32,5.895,5.58,8.595
		c0.225,0.45,0.314,0.81,0.314,1.26c0,1.215-0.764,2.295-1.709,2.295c-2.699,0-4.051-3.375-4.994-5.22
		c-1.17-2.295-1.576-3.78-2.746-6.075c-0.09-0.18-0.27-0.359-0.449-0.359c-0.314,0-0.359,0.675-0.359,1.395
		c0,0.63,0.045,1.305,0.045,1.62c0.045,1.35,0.314,4.365,0.314,6.075c0,1.935-1.17,2.295-2.791,2.295
		C584.891,61.717,584.531,60.501,584.531,58.927z M589.705,35.032c-0.045,1.215-0.09,2.43-0.09,3.69c0,1.845,0.09,3.869,0.135,5.669
		c0.045,0.36,0.135,0.721,0.449,0.721h0.045c3.105-0.36,3.871-1.8,3.871-4.86c0-3.239-0.18-6.75-3.555-6.75
		C589.795,33.502,589.75,34.222,589.705,35.032z"/>
	<path fill="#FFFFFF" d="M606.535,42.052c0,0.226,0.045,0.405,0.045,0.585c0,1.575,0.135,2.115,0.135,3.465
		c0,1.62,0.09,2.386,0.09,5.175v5.266c0,3.329-0.404,5.31-2.699,5.31c-0.18,0-0.361,0-0.541-0.045
		c-1.26-0.226-1.529-2.61-1.529-5.22c0-6.885,0.27-12.6,0.27-19.395c0-2.34,0.09-7.2,1.891-7.83
		c0.135-0.045,0.225-0.045,0.359-0.045c0.359,0,0.766,0.135,1.215,0.405c2.16,1.305,3.285,5.265,4.096,7.604
		c0.314,0.945,0.494,1.936,0.764,2.88c0.137,0.585,1.711,7.155,1.98,7.155c0.404,0,5.939-13.815,6.436-15.21
		c0.27-0.72,1.529-2.025,2.115-2.43c0.27-0.18,0.584-0.27,0.943-0.27c1.891,0,2.521,2.655,2.701,6.165
		c0.09,2.115,0.135,3.69,0.135,5.04v2.025c0,4.454,0.314,9.179,0.314,13.679v1.485c0,2.115-0.18,3.824-2.07,3.824
		c-1.215,0-2.475-0.314-2.879-1.664c-0.721-2.476-0.855-5.04-0.855-8.1v-0.046c0-2.609,0.09-5.265,0.09-7.784
		c0-1.125,0-0.315-0.09-1.395c0-0.136-0.045-0.226-0.225-0.226c-0.721,0-4.949,16.515-6.346,16.829h-0.18
		c-0.225,0-0.449-0.09-0.584-0.18c-3.105-2.385-4.006-12.689-4.861-16.919c-0.045-0.226-0.135-0.676-0.404-0.676h-0.045
		C606.58,41.557,606.535,41.782,606.535,42.052z"/>
	<path fill="#FFFFFF" d="M628.854,48.622v-8.37c0-2.024,0.045-4.274,0.18-6.75v-1.26c0-1.575,0.18-2.61,1.621-2.61
		c2.564,0,1.934,0.045,4.635,0.045h0.629c1.98,0,4.41,0.09,4.41,1.98c0,2.16-1.17,2.205-3.016,2.205h-0.18h-2.023
		c-0.766,0-1.217,0-1.217,0.811v0.449c0,1.936-0.045,3.915-0.045,5.76c0,0.855,0,0.855-0.045,0.855v0.54
		c0.045,0.72,0.811,0.81,1.576,0.81c0.584,0,0.629,0,0.629,0.045h0.361c1.26,0,2.475,0.045,2.475,2.295v0.36
		c-0.09,1.305-1.215,1.484-2.52,1.484c-0.586,0-1.98-0.045-2.521-0.045c-0.225,0-0.314,3.915-0.314,4.995
		c0,1.17,0.09,2.61,0.09,2.925c0,0.765,0.135,1.44,0.855,1.44h0.045c2.025,0,1.801-0.045,3.824-0.045c1.441,0,2.16,0.63,2.16,2.34
		c0,0.135-0.045,0.314-0.045,0.449c-0.09,1.755-0.945,2.07-2.34,2.07c-0.9,0-2.07-0.135-3.42-0.135s-2.654-0.045-3.6-0.045h-0.045
		c-1.98,0-2.34-0.585-2.34-1.846C628.674,55.957,628.854,52.087,628.854,48.622z"/>
	<path fill="#FFFFFF" d="M647.574,38.272v-2.835c0-0.54,0-0.81-0.404-0.81h-0.092c-0.674,0.045-1.033,0.045-1.395,0.045h-1.215
		c-1.619-0.091-1.889-1.53-1.889-2.565c0-1.17,0.854-2.25,2.203-2.295c4.545-0.09,4.455-0.405,8.82-0.405
		c2.609,0,3.734,0.945,3.734,2.25v0.09c0,1.755-0.045,2.834-3.059,2.97c-0.9,0.045-0.406,0.045-1.395,0.09
		c-0.721,0.045-0.811,0.135-0.811,0.854v0.09c0,4.455,0.135,8.64,0.135,12.87c0,1.529-0.045,2.97-0.045,4.409
		c0,0.9,0.045,1.98,0.045,3.061c0,0.54,0,1.08-0.045,1.62c-0.18,2.744,0.404,4.229-2.34,4.229c-1.756,0-1.936-2.16-1.936-4.14v-1.62
		v-1.755C647.889,48.846,647.574,43.806,647.574,38.272z"/>
</g>
</svg>
